<?xml version="1.0" encoding="utf-8"?>
<!-- Generator: Adobe Illustrator 23.0.2, SVG Export Plug-In . SVG Version: 6.00 Build 0)  -->
<svg version="1.1" id="图层_1" xmlns="http://www.w3.org/2000/svg" xmlns:xlink="http://www.w3.org/1999/xlink" x="0px" y="0px"
	 width="127.9px" height="62.4px" viewBox="0 0 127.9 62.4" style="enable-background:new 0 0 127.9 62.4;" xml:space="preserve">
<style type="text/css">
	.st0{fill:#F32F0F;}
	.st1{fill:none;stroke:#C9CCA3;stroke-miterlimit:10;}
	.st2{fill:#EADF9C;}
	.st3{font-family:'SourceHanSansCN-Bold-GBpc-EUC-H';}
	.st4{font-size:5px;}
	.st5{fill:#E2E9E8;}
	.st6{fill:#CBB084;}
	.st7{fill:#FFFFFF;}
	.st8{font-size:7.3495px;}
	.st9{fill:#948C79;}
	.st10{fill:#E6E6E2;}
	.st11{fill:#F5F3E9;}
	.st12{fill:none;stroke:#FFFFFF;stroke-width:0.5;stroke-miterlimit:10;}
	.st13{fill:#EADCC1;}
	.st14{fill:#886830;}
	.st15{fill:#E6E6E6;}
	.st16{fill:#F2F2F2;}
	.st17{fill:#F1F268;}
	.st18{fill:none;stroke:#FFFFFF;stroke-width:0.25;stroke-miterlimit:10;}
	.st19{font-size:3.5193px;}
	.st20{fill:#E0E7E6;}
	.st21{font-family:'AdobeSongStd-Light-GBpc-EUC-H';}
	.st22{font-size:12px;}
	.st23{fill:#DEE6E6;}
	.st24{fill:#252525;}
	.st25{fill:#F1F0E9;}
	.st26{fill:#D5C39E;}
	.st27{fill:#D6D7D0;}
	.st28{fill:#333231;}
	.st29{fill:#C9CCA3;}
	.st30{fill:#E9E7E0;}
	.st31{fill:#F2F1E9;}
</style>
<ellipse class="st0" cx="115" cy="28.7" rx="1.5" ry="1.3"/>
<line class="st1" x1="114.3" y1="18.1" x2="122.4" y2="47.4"/>
<path d="M1.6,55.9V6.4C1.6,2.9,4.5,0,8,0h100.6c3.5,0,6.4,2.9,6.4,6.4v49.5c0,3.5-2.9,6.4-6.4,6.4H8C4.5,62.4,1.6,59.5,1.6,55.9z"/>
<text transform="matrix(1 0 0 1 67.7999 58.3604)" class="st2 st3 st4">Collision   Sensor</text>
<rect x="38.4" y="0" class="st5" width="17.8" height="62.4"/>
<circle class="st6" cx="47.4" cy="8.4" r="7.6"/>
<circle class="st7" cx="47.4" cy="8.4" r="6.8"/>
<circle class="st6" cx="47.4" cy="54.3" r="7.6"/>
<circle class="st7" cx="47.4" cy="54.3" r="6.8"/>
<text transform="matrix(6.123234e-17 1 -1 6.123234e-17 30.748 20.7854)" class="st7 st3 st8">G  V  S</text>
<g>
	<rect x="23" y="24.3" class="st9" width="6.4" height="3"/>
	<path class="st10" d="M23,26v-1.7h4.6c0.5,0,0.8,0.4,0.8,0.8l0,0c0,0.5-0.4,0.8-0.8,0.8H23V26z"/>
	<rect x="23" y="30.1" class="st9" width="6.4" height="3"/>
	<path class="st10" d="M23,31.8v-1.7h4.6c0.5,0,0.8,0.4,0.8,0.8l0,0c0,0.5-0.4,0.8-0.8,0.8H23V31.8z"/>
	<rect x="23" y="36" class="st9" width="6.4" height="3"/>
	<path class="st10" d="M23,37.7V36h4.6c0.5,0,0.8,0.4,0.8,0.8l0,0c0,0.5-0.4,0.8-0.8,0.8H23V37.7z"/>
	<rect x="1.6" y="16.9" class="st11" width="21.4" height="29.3"/>
	<rect x="20.8" y="16.9" class="st11" width="5.6" height="2.3"/>
	<rect x="20.8" y="44" class="st11" width="5.6" height="2.3"/>
	<line class="st12" x1="24.8" y1="19.2" x2="24.8" y2="24.3"/>
	<line class="st12" x1="24.8" y1="39" x2="24.8" y2="44"/>
	<polygon class="st13" points="16.9,25.8 16.9,24.3 18.4,24.3 18.4,23 23,23 23,25.8 	"/>
	<polygon class="st14" points="19,23 19,24.5 16.9,24.5 16.9,25.8 10.7,25.8 10.7,23 	"/>
	<polygon class="st13" points="16.9,42.9 16.9,41.4 18.4,41.4 18.5,40.2 23,40.2 23,42.9 	"/>
	<polygon class="st14" points="19,40.2 19,41.7 16.9,41.7 16.9,42.9 10.7,42.9 10.7,40.2 	"/>
</g>
<g>
	<g>
		<rect x="9.2" y="4.3" class="st12" width="7.3" height="4.3"/>
		<rect x="9.9" y="5.1" class="st15" width="1.1" height="2.9"/>
		<rect x="15" y="5.1" class="st15" width="1.1" height="2.9"/>
	</g>
	<rect x="17.6" y="4.8" class="st16" width="2.4" height="3.6"/>
	<rect x="23.3" y="4.8" class="st16" width="2.4" height="3.6"/>
	<rect x="20" y="4.8" class="st17" width="3.3" height="3.6"/>
	<rect x="17.6" y="4.8" class="st18" width="8.1" height="3.6"/>
	<text transform="matrix(1 0 0 1 12.0723 3.4651)" class="st7 st3 st19">Power</text>
</g>
<g>
	<rect x="22.7" y="48.6" class="st20" width="9.6" height="11"/>
	<text transform="matrix(1 0 0 1 23.3711 57.427)" class="st21 st22">D</text>
	<g>
		<rect x="10.7" y="49.7" class="st23" width="6.9" height="6.9"/>
		<polygon class="st23" points="18,56.9 12.8,56.9 12.8,58.6 19.7,58.6 19.7,51.6 18,51.6 		"/>
	</g>
</g>
<rect x="98.4" y="15.6" class="st24" width="16.6" height="31.1"/>
<rect x="98.5" y="26" class="st25" width="1.3" height="11.1"/>
<rect x="101.7" y="29.8" class="st25" width="2.7" height="2.7"/>
<g>
	<path class="st25" d="M104.8,24.1v-8.5h-6.3v4.5c-0.9,0.2-1.6,1.3-1.6,2.7c0,1.3,0.7,2.4,1.6,2.7V26h4.5
		C104,26,104.8,25.2,104.8,24.1z"/>
	<path class="st25" d="M104.8,38.2c0-1-0.8-1.9-1.9-1.9h-4.5v0.2c-1.1,0-2,1.2-2,2.7s0.9,2.7,2,2.7v4.9h6.3L104.8,38.2
		C104.7,38.2,104.8,38.2,104.8,38.2z"/>
</g>
<circle cx="99.9" cy="22.7" r="2.1"/>
<circle cx="99.5" cy="39.2" r="2.1"/>
<circle class="st26" cx="95" cy="18.6" r="1.5"/>
<circle class="st26" cx="95" cy="31.2" r="1.5"/>
<circle class="st26" cx="95" cy="43.4" r="1.5"/>
<rect x="94.5" y="18.1" class="st27" width="4" height="1.1"/>
<rect x="94.5" y="30.6" class="st27" width="4" height="1.1"/>
<rect x="94.5" y="42.9" class="st27" width="4" height="1.1"/>
<g>
	<rect x="96.9" y="4.8" class="st16" width="2.4" height="3.6"/>
	<rect x="91.1" y="4.8" class="st16" width="2.4" height="3.6"/>
	<rect x="93.5" y="4.8" class="st17" width="3.3" height="3.6"/>
	<rect x="87.6" y="4.8" class="st16" width="2.4" height="3.6"/>
	<rect x="81.9" y="4.8" class="st16" width="2.4" height="3.6"/>
	<rect x="91.2" y="4.8" class="st18" width="8.1" height="3.6"/>
	<rect x="81.9" y="4.8" class="st18" width="8.1" height="3.6"/>
</g>
<circle class="st28" cx="125.3" cy="45.5" r="2.6"/>
<path class="st29" d="M124.2,48.2c-1.5,0.4-2.2-0.3-2.5-1.4c-0.3-1.1-0.1-2.3,1.4-2.7s3.3-0.6,3.8,1
	C127.3,46.6,125.7,47.8,124.2,48.2z"/>
<circle class="st30" cx="124.7" cy="45.8" r="1.5"/>
<polygon class="st31" points="14.9,27.1 14.9,38.6 7.6,38.6 7.2,44.3 1.6,44.3 1.6,21.4 7.3,21.4 7.6,27.1 "/>
</svg>
