  0
SECTION
  2
HEADER
  9
$ANGBASE
  50
0.0
  9
$ANGDIR
  70
1
  9
$MEASUREMENT
  70
0
  0
ENDSEC
  0
SECTION
  2
TABLES
  0
TABLE
  2
LTYPE
  70
4
  0
LTYPE
  5
40F
  2
CONTINUOUS
  70
0
  3
Solid line
  72
65
  73
0
  40
0.0
  0
LTYPE
  5
410
  2
DASHDOT
 70
0
  3
Dash Dot ____ _ ____ _
 72
65
 73
4
 40
2.0
 49
1.25
 49
-0.25
 49
0.25
 49
-0.25
  0
LTYPE
  5
411
  2
DASHED
 70
0
  3
Dashed __ __ __ __ __
 72
65
 73
2
 40
0.75
 49
0.5
 49
-0.25
  0
LTYPE
  5
43B
  2
DOTTED
 70
0
  3
Dotted .  .  .  .
 72
65
 73
2
 40
0.2
 49
0.0
 49
-0.2
  0
ENDTAB
  0
TABLE
  2
STYLE
  70
4
  0
STYLE
  2
KICAD
  70
0
  40
0
  41
1
  42
1
  50
0
  71
0
  3
isocp.shx
  0
STYLE
  2
KICADB
  70
0
  40
0
  41
1
  42
1
  50
0
  71
0
  3
isocp.shx
  0
STYLE
  2
KICADI
  70
0
  40
0
  41
1
  42
1
  50
15
  71
0
  3
isocp.shx
  0
STYLE
  2
KICADBI
  70
0
  40
0
  41
1
  42
1
  50
15
  71
0
  3
isocp.shx
  0
ENDTAB
  0
TABLE
  2
LAYER
  70
30
  0
LAYER
  2
BLACK
  70
0
  62
7
  6
CONTINUOUS
  0
LAYER
  2
GRAY1
  70
0
  62
251
  6
CONTINUOUS
  0
LAYER
  2
GRAY2
  70
0
  62
8
  6
CONTINUOUS
  0
LAYER
  2
GRAY3
  70
0
  62
9
  6
CONTINUOUS
  0
LAYER
  2
WHITE
  70
0
  62
7
  6
CONTINUOUS
  0
LAYER
  2
LYELLOW
  70
0
  62
51
  6
CONTINUOUS
  0
LAYER
  2
BLUE1
  70
0
  62
178
  6
CONTINUOUS
  0
LAYER
  2
GREEN1
  70
0
  62
98
  6
CONTINUOUS
  0
LAYER
  2
CYAN1
  70
0
  62
138
  6
CONTINUOUS
  0
LAYER
  2
RED1
  70
0
  62
18
  6
CONTINUOUS
  0
LAYER
  2
MAGENTA1
  70
0
  62
228
  6
CONTINUOUS
  0
LAYER
  2
BROWN1
  70
0
  62
58
  6
CONTINUOUS
  0
LAYER
  2
BLUE2
  70
0
  62
5
  6
CONTINUOUS
  0
LAYER
  2
GREEN2
  70
0
  62
3
  6
CONTINUOUS
  0
LAYER
  2
CYAN2
  70
0
  62
4
  6
CONTINUOUS
  0
LAYER
  2
RED2
  70
0
  62
1
  6
CONTINUOUS
  0
LAYER
  2
MAGENTA2
  70
0
  62
6
  6
CONTINUOUS
  0
LAYER
  2
BROWN2
  70
0
  62
54
  6
CONTINUOUS
  0
LAYER
  2
BLUE3
  70
0
  62
171
  6
CONTINUOUS
  0
LAYER
  2
GREEN3
  70
0
  62
91
  6
CONTINUOUS
  0
LAYER
  2
CYAN3
  70
0
  62
131
  6
CONTINUOUS
  0
LAYER
  2
RED3
  70
0
  62
11
  6
CONTINUOUS
  0
LAYER
  2
MAGENTA3
  70
0
  62
221
  6
CONTINUOUS
  0
LAYER
  2
YELLOW3
  70
0
  62
2
  6
CONTINUOUS
  0
LAYER
  2
BLUE4
  70
0
  62
5
  6
CONTINUOUS
  0
LAYER
  2
GREEN4
  70
0
  62
3
  6
CONTINUOUS
  0
LAYER
  2
CYAN4
  70
0
  62
4
  6
CONTINUOUS
  0
LAYER
  2
RED4
  70
0
  62
1
  6
CONTINUOUS
  0
LAYER
  2
MAGENTA4
  70
0
  62
6
  6
CONTINUOUS
  0
LAYER
  2
YELLOW4
  70
0
  62
2
  6
CONTINUOUS
  0
ENDTAB
  0
ENDSEC
  0
SECTION
  2
ENTITIES
0
LINE
8
RED2
6
CONTINUOUS
10
6.969
20
-6.536
11
6.969
21
-7.796
0
LINE
8
RED2
6
CONTINUOUS
10
6.969
20
-7.796
11
11.221
21
-7.796
0
LINE
8
RED2
6
CONTINUOUS
10
11.221
20
-7.796
11
11.221
21
-6.536
0
LINE
8
RED2
6
CONTINUOUS
10
11.221
20
-6.536
11
6.969
21
-6.536
0
LINE
8
RED2
6
CONTINUOUS
10
0.394
20
-0.394
11
0.394
21
-7.874
0
LINE
8
RED2
6
CONTINUOUS
10
0.394
20
-7.874
11
11.299
21
-7.874
0
LINE
8
RED2
6
CONTINUOUS
10
11.299
20
-7.874
11
11.299
21
-0.394
0
LINE
8
RED2
6
CONTINUOUS
10
11.299
20
-0.394
11
0.394
21
-0.394
0
LINE
8
RED2
6
CONTINUOUS
10
0.472
20
-0.472
11
0.472
21
-7.796
0
LINE
8
RED2
6
CONTINUOUS
10
0.472
20
-7.796
11
11.221
21
-7.796
0
LINE
8
RED2
6
CONTINUOUS
10
11.221
20
-7.796
11
11.221
21
-0.472
0
LINE
8
RED2
6
CONTINUOUS
10
11.221
20
-0.472
11
0.472
21
-0.472
0
LINE
8
RED2
6
CONTINUOUS
10
2.362
20
-0.472
11
2.362
21
-0.394
0
LINE
8
RED2
6
CONTINUOUS
10
4.331
20
-0.472
11
4.331
21
-0.394
0
LINE
8
RED2
6
CONTINUOUS
10
6.299
20
-0.472
11
6.299
21
-0.394
0
LINE
8
RED2
6
CONTINUOUS
10
8.268
20
-0.472
11
8.268
21
-0.394
0
LINE
8
RED2
6
CONTINUOUS
10
10.236
20
-0.472
11
10.236
21
-0.394
0
LINE
8
RED2
6
CONTINUOUS
10
1.419
20
-0.456
11
1.39
21
-0.456
0
LINE
8
RED2
6
CONTINUOUS
10
1.405
20
-0.456
11
1.405
21
-0.405
0
LINE
8
RED2
6
CONTINUOUS
10
1.405
20
-0.405
11
1.4
21
-0.412
0
LINE
8
RED2
6
CONTINUOUS
10
1.4
20
-0.412
11
1.395
21
-0.417
0
LINE
8
RED2
6
CONTINUOUS
10
1.395
20
-0.417
11
1.39
21
-0.419
0
LINE
8
RED2
6
CONTINUOUS
10
3.358
20
-0.409
11
3.361
21
-0.407
0
LINE
8
RED2
6
CONTINUOUS
10
3.361
20
-0.407
11
3.366
21
-0.405
0
LINE
8
RED2
6
CONTINUOUS
10
3.366
20
-0.405
11
3.378
21
-0.405
0
LINE
8
RED2
6
CONTINUOUS
10
3.378
20
-0.405
11
3.383
21
-0.407
0
LINE
8
RED2
6
CONTINUOUS
10
3.383
20
-0.407
11
3.385
21
-0.409
0
LINE
8
RED2
6
CONTINUOUS
10
3.385
20
-0.409
11
3.387
21
-0.414
0
LINE
8
RED2
6
CONTINUOUS
10
3.387
20
-0.414
11
3.387
21
-0.419
0
LINE
8
RED2
6
CONTINUOUS
10
3.387
20
-0.419
11
3.385
21
-0.426
0
LINE
8
RED2
6
CONTINUOUS
10
3.385
20
-0.426
11
3.356
21
-0.456
0
LINE
8
RED2
6
CONTINUOUS
10
3.356
20
-0.456
11
3.387
21
-0.456
0
LINE
8
RED2
6
CONTINUOUS
10
5.325
20
-0.405
11
5.356
21
-0.405
0
LINE
8
RED2
6
CONTINUOUS
10
5.356
20
-0.405
11
5.339
21
-0.424
0
LINE
8
RED2
6
CONTINUOUS
10
5.339
20
-0.424
11
5.347
21
-0.424
0
LINE
8
RED2
6
CONTINUOUS
10
5.347
20
-0.424
11
5.352
21
-0.426
0
LINE
8
RED2
6
CONTINUOUS
10
5.352
20
-0.426
11
5.354
21
-0.429
0
LINE
8
RED2
6
CONTINUOUS
10
5.354
20
-0.429
11
5.356
21
-0.434
0
LINE
8
RED2
6
CONTINUOUS
10
5.356
20
-0.434
11
5.356
21
-0.446
0
LINE
8
RED2
6
CONTINUOUS
10
5.356
20
-0.446
11
5.354
21
-0.451
0
LINE
8
RED2
6
CONTINUOUS
10
5.354
20
-0.451
11
5.352
21
-0.453
0
LINE
8
RED2
6
CONTINUOUS
10
5.352
20
-0.453
11
5.347
21
-0.456
0
LINE
8
RED2
6
CONTINUOUS
10
5.347
20
-0.456
11
5.332
21
-0.456
0
LINE
8
RED2
6
CONTINUOUS
10
5.332
20
-0.456
11
5.327
21
-0.453
0
LINE
8
RED2
6
CONTINUOUS
10
5.327
20
-0.453
11
5.325
21
-0.451
0
LINE
8
RED2
6
CONTINUOUS
10
7.32
20
-0.422
11
7.32
21
-0.456
0
LINE
8
RED2
6
CONTINUOUS
10
7.307
20
-0.402
11
7.295
21
-0.439
0
LINE
8
RED2
6
CONTINUOUS
10
7.295
20
-0.439
11
7.327
21
-0.439
0
LINE
8
RED2
6
CONTINUOUS
10
9.291
20
-0.405
11
9.267
21
-0.405
0
LINE
8
RED2
6
CONTINUOUS
10
9.267
20
-0.405
11
9.264
21
-0.429
0
LINE
8
RED2
6
CONTINUOUS
10
9.264
20
-0.429
11
9.267
21
-0.426
0
LINE
8
RED2
6
CONTINUOUS
10
9.267
20
-0.426
11
9.272
21
-0.424
0
LINE
8
RED2
6
CONTINUOUS
10
9.272
20
-0.424
11
9.284
21
-0.424
0
LINE
8
RED2
6
CONTINUOUS
10
9.284
20
-0.424
11
9.289
21
-0.426
0
LINE
8
RED2
6
CONTINUOUS
10
9.289
20
-0.426
11
9.291
21
-0.429
0
LINE
8
RED2
6
CONTINUOUS
10
9.291
20
-0.429
11
9.293
21
-0.434
0
LINE
8
RED2
6
CONTINUOUS
10
9.293
20
-0.434
11
9.293
21
-0.446
0
LINE
8
RED2
6
CONTINUOUS
10
9.293
20
-0.446
11
9.291
21
-0.451
0
LINE
8
RED2
6
CONTINUOUS
10
9.291
20
-0.451
11
9.289
21
-0.453
0
LINE
8
RED2
6
CONTINUOUS
10
9.289
20
-0.453
11
9.284
21
-0.456
0
LINE
8
RED2
6
CONTINUOUS
10
9.284
20
-0.456
11
9.272
21
-0.456
0
LINE
8
RED2
6
CONTINUOUS
10
9.272
20
-0.456
11
9.267
21
-0.453
0
LINE
8
RED2
6
CONTINUOUS
10
9.267
20
-0.453
11
9.264
21
-0.451
0
LINE
8
RED2
6
CONTINUOUS
10
11.257
20
-0.405
11
11.247
21
-0.405
0
LINE
8
RED2
6
CONTINUOUS
10
11.247
20
-0.405
11
11.242
21
-0.407
0
LINE
8
RED2
6
CONTINUOUS
10
11.242
20
-0.407
11
11.24
21
-0.409
0
LINE
8
RED2
6
CONTINUOUS
10
11.24
20
-0.409
11
11.235
21
-0.417
0
LINE
8
RED2
6
CONTINUOUS
10
11.235
20
-0.417
11
11.232
21
-0.426
0
LINE
8
RED2
6
CONTINUOUS
10
11.232
20
-0.426
11
11.232
21
-0.446
0
LINE
8
RED2
6
CONTINUOUS
10
11.232
20
-0.446
11
11.235
21
-0.451
0
LINE
8
RED2
6
CONTINUOUS
10
11.235
20
-0.451
11
11.237
21
-0.453
0
LINE
8
RED2
6
CONTINUOUS
10
11.237
20
-0.453
11
11.242
21
-0.456
0
LINE
8
RED2
6
CONTINUOUS
10
11.242
20
-0.456
11
11.252
21
-0.456
0
LINE
8
RED2
6
CONTINUOUS
10
11.252
20
-0.456
11
11.257
21
-0.453
0
LINE
8
RED2
6
CONTINUOUS
10
11.257
20
-0.453
11
11.259
21
-0.451
0
LINE
8
RED2
6
CONTINUOUS
10
11.259
20
-0.451
11
11.261
21
-0.446
0
LINE
8
RED2
6
CONTINUOUS
10
11.261
20
-0.446
11
11.261
21
-0.434
0
LINE
8
RED2
6
CONTINUOUS
10
11.261
20
-0.434
11
11.259
21
-0.429
0
LINE
8
RED2
6
CONTINUOUS
10
11.259
20
-0.429
11
11.257
21
-0.426
0
LINE
8
RED2
6
CONTINUOUS
10
11.257
20
-0.426
11
11.252
21
-0.424
0
LINE
8
RED2
6
CONTINUOUS
10
11.252
20
-0.424
11
11.242
21
-0.424
0
LINE
8
RED2
6
CONTINUOUS
10
11.242
20
-0.424
11
11.237
21
-0.426
0
LINE
8
RED2
6
CONTINUOUS
10
11.237
20
-0.426
11
11.235
21
-0.429
0
LINE
8
RED2
6
CONTINUOUS
10
11.235
20
-0.429
11
11.232
21
-0.434
0
LINE
8
RED2
6
CONTINUOUS
10
2.362
20
-7.796
11
2.362
21
-7.874
0
LINE
8
RED2
6
CONTINUOUS
10
4.331
20
-7.796
11
4.331
21
-7.874
0
LINE
8
RED2
6
CONTINUOUS
10
6.299
20
-7.796
11
6.299
21
-7.874
0
LINE
8
RED2
6
CONTINUOUS
10
8.268
20
-7.796
11
8.268
21
-7.874
0
LINE
8
RED2
6
CONTINUOUS
10
10.236
20
-7.796
11
10.236
21
-7.874
0
LINE
8
RED2
6
CONTINUOUS
10
1.419
20
-7.858
11
1.39
21
-7.858
0
LINE
8
RED2
6
CONTINUOUS
10
1.405
20
-7.858
11
1.405
21
-7.807
0
LINE
8
RED2
6
CONTINUOUS
10
1.405
20
-7.807
11
1.4
21
-7.814
0
LINE
8
RED2
6
CONTINUOUS
10
1.4
20
-7.814
11
1.395
21
-7.819
0
LINE
8
RED2
6
CONTINUOUS
10
1.395
20
-7.819
11
1.39
21
-7.821
0
LINE
8
RED2
6
CONTINUOUS
10
3.358
20
-7.811
11
3.361
21
-7.809
0
LINE
8
RED2
6
CONTINUOUS
10
3.361
20
-7.809
11
3.366
21
-7.807
0
LINE
8
RED2
6
CONTINUOUS
10
3.366
20
-7.807
11
3.378
21
-7.807
0
LINE
8
RED2
6
CONTINUOUS
10
3.378
20
-7.807
11
3.383
21
-7.809
0
LINE
8
RED2
6
CONTINUOUS
10
3.383
20
-7.809
11
3.385
21
-7.811
0
LINE
8
RED2
6
CONTINUOUS
10
3.385
20
-7.811
11
3.387
21
-7.816
0
LINE
8
RED2
6
CONTINUOUS
10
3.387
20
-7.816
11
3.387
21
-7.821
0
LINE
8
RED2
6
CONTINUOUS
10
3.387
20
-7.821
11
3.385
21
-7.828
0
LINE
8
RED2
6
CONTINUOUS
10
3.385
20
-7.828
11
3.356
21
-7.858
0
LINE
8
RED2
6
CONTINUOUS
10
3.356
20
-7.858
11
3.387
21
-7.858
0
LINE
8
RED2
6
CONTINUOUS
10
5.325
20
-7.807
11
5.356
21
-7.807
0
LINE
8
RED2
6
CONTINUOUS
10
5.356
20
-7.807
11
5.339
21
-7.826
0
LINE
8
RED2
6
CONTINUOUS
10
5.339
20
-7.826
11
5.347
21
-7.826
0
LINE
8
RED2
6
CONTINUOUS
10
5.347
20
-7.826
11
5.352
21
-7.828
0
LINE
8
RED2
6
CONTINUOUS
10
5.352
20
-7.828
11
5.354
21
-7.831
0
LINE
8
RED2
6
CONTINUOUS
10
5.354
20
-7.831
11
5.356
21
-7.836
0
LINE
8
RED2
6
CONTINUOUS
10
5.356
20
-7.836
11
5.356
21
-7.848
0
LINE
8
RED2
6
CONTINUOUS
10
5.356
20
-7.848
11
5.354
21
-7.853
0
LINE
8
RED2
6
CONTINUOUS
10
5.354
20
-7.853
11
5.352
21
-7.855
0
LINE
8
RED2
6
CONTINUOUS
10
5.352
20
-7.855
11
5.347
21
-7.858
0
LINE
8
RED2
6
CONTINUOUS
10
5.347
20
-7.858
11
5.332
21
-7.858
0
LINE
8
RED2
6
CONTINUOUS
10
5.332
20
-7.858
11
5.327
21
-7.855
0
LINE
8
RED2
6
CONTINUOUS
10
5.327
20
-7.855
11
5.325
21
-7.853
0
LINE
8
RED2
6
CONTINUOUS
10
7.32
20
-7.824
11
7.32
21
-7.858
0
LINE
8
RED2
6
CONTINUOUS
10
7.307
20
-7.804
11
7.295
21
-7.841
0
LINE
8
RED2
6
CONTINUOUS
10
7.295
20
-7.841
11
7.327
21
-7.841
0
LINE
8
RED2
6
CONTINUOUS
10
9.291
20
-7.807
11
9.267
21
-7.807
0
LINE
8
RED2
6
CONTINUOUS
10
9.267
20
-7.807
11
9.264
21
-7.831
0
LINE
8
RED2
6
CONTINUOUS
10
9.264
20
-7.831
11
9.267
21
-7.828
0
LINE
8
RED2
6
CONTINUOUS
10
9.267
20
-7.828
11
9.272
21
-7.826
0
LINE
8
RED2
6
CONTINUOUS
10
9.272
20
-7.826
11
9.284
21
-7.826
0
LINE
8
RED2
6
CONTINUOUS
10
9.284
20
-7.826
11
9.289
21
-7.828
0
LINE
8
RED2
6
CONTINUOUS
10
9.289
20
-7.828
11
9.291
21
-7.831
0
LINE
8
RED2
6
CONTINUOUS
10
9.291
20
-7.831
11
9.293
21
-7.836
0
LINE
8
RED2
6
CONTINUOUS
10
9.293
20
-7.836
11
9.293
21
-7.848
0
LINE
8
RED2
6
CONTINUOUS
10
9.293
20
-7.848
11
9.291
21
-7.853
0
LINE
8
RED2
6
CONTINUOUS
10
9.291
20
-7.853
11
9.289
21
-7.855
0
LINE
8
RED2
6
CONTINUOUS
10
9.289
20
-7.855
11
9.284
21
-7.858
0
LINE
8
RED2
6
CONTINUOUS
10
9.284
20
-7.858
11
9.272
21
-7.858
0
LINE
8
RED2
6
CONTINUOUS
10
9.272
20
-7.858
11
9.267
21
-7.855
0
LINE
8
RED2
6
CONTINUOUS
10
9.267
20
-7.855
11
9.264
21
-7.853
0
LINE
8
RED2
6
CONTINUOUS
10
11.257
20
-7.807
11
11.247
21
-7.807
0
LINE
8
RED2
6
CONTINUOUS
10
11.247
20
-7.807
11
11.242
21
-7.809
0
LINE
8
RED2
6
CONTINUOUS
10
11.242
20
-7.809
11
11.24
21
-7.811
0
LINE
8
RED2
6
CONTINUOUS
10
11.24
20
-7.811
11
11.235
21
-7.819
0
LINE
8
RED2
6
CONTINUOUS
10
11.235
20
-7.819
11
11.232
21
-7.828
0
LINE
8
RED2
6
CONTINUOUS
10
11.232
20
-7.828
11
11.232
21
-7.848
0
LINE
8
RED2
6
CONTINUOUS
10
11.232
20
-7.848
11
11.235
21
-7.853
0
LINE
8
RED2
6
CONTINUOUS
10
11.235
20
-7.853
11
11.237
21
-7.855
0
LINE
8
RED2
6
CONTINUOUS
10
11.237
20
-7.855
11
11.242
21
-7.858
0
LINE
8
RED2
6
CONTINUOUS
10
11.242
20
-7.858
11
11.252
21
-7.858
0
LINE
8
RED2
6
CONTINUOUS
10
11.252
20
-7.858
11
11.257
21
-7.855
0
LINE
8
RED2
6
CONTINUOUS
10
11.257
20
-7.855
11
11.259
21
-7.853
0
LINE
8
RED2
6
CONTINUOUS
10
11.259
20
-7.853
11
11.261
21
-7.848
0
LINE
8
RED2
6
CONTINUOUS
10
11.261
20
-7.848
11
11.261
21
-7.836
0
LINE
8
RED2
6
CONTINUOUS
10
11.261
20
-7.836
11
11.259
21
-7.831
0
LINE
8
RED2
6
CONTINUOUS
10
11.259
20
-7.831
11
11.257
21
-7.828
0
LINE
8
RED2
6
CONTINUOUS
10
11.257
20
-7.828
11
11.252
21
-7.826
0
LINE
8
RED2
6
CONTINUOUS
10
11.252
20
-7.826
11
11.242
21
-7.826
0
LINE
8
RED2
6
CONTINUOUS
10
11.242
20
-7.826
11
11.237
21
-7.828
0
LINE
8
RED2
6
CONTINUOUS
10
11.237
20
-7.828
11
11.235
21
-7.831
0
LINE
8
RED2
6
CONTINUOUS
10
11.235
20
-7.831
11
11.232
21
-7.836
0
LINE
8
RED2
6
CONTINUOUS
10
0.394
20
-2.362
11
0.472
21
-2.362
0
LINE
8
RED2
6
CONTINUOUS
10
0.394
20
-4.331
11
0.472
21
-4.331
0
LINE
8
RED2
6
CONTINUOUS
10
0.394
20
-6.299
11
0.472
21
-6.299
0
LINE
8
RED2
6
CONTINUOUS
10
0.42
20
-1.386
11
0.445
21
-1.386
0
LINE
8
RED2
6
CONTINUOUS
10
0.416
20
-1.401
11
0.433
21
-1.35
0
LINE
8
RED2
6
CONTINUOUS
10
0.433
20
-1.35
11
0.45
21
-1.401
0
LINE
8
RED2
6
CONTINUOUS
10
0.436
20
-3.342
11
0.443
21
-3.344
0
LINE
8
RED2
6
CONTINUOUS
10
0.443
20
-3.344
11
0.446
21
-3.347
0
LINE
8
RED2
6
CONTINUOUS
10
0.446
20
-3.347
11
0.448
21
-3.352
0
LINE
8
RED2
6
CONTINUOUS
10
0.448
20
-3.352
11
0.448
21
-3.359
0
LINE
8
RED2
6
CONTINUOUS
10
0.448
20
-3.359
11
0.446
21
-3.364
0
LINE
8
RED2
6
CONTINUOUS
10
0.446
20
-3.364
11
0.443
21
-3.366
0
LINE
8
RED2
6
CONTINUOUS
10
0.443
20
-3.366
11
0.439
21
-3.369
0
LINE
8
RED2
6
CONTINUOUS
10
0.439
20
-3.369
11
0.419
21
-3.369
0
LINE
8
RED2
6
CONTINUOUS
10
0.419
20
-3.369
11
0.419
21
-3.318
0
LINE
8
RED2
6
CONTINUOUS
10
0.419
20
-3.318
11
0.436
21
-3.318
0
LINE
8
RED2
6
CONTINUOUS
10
0.436
20
-3.318
11
0.441
21
-3.32
0
LINE
8
RED2
6
CONTINUOUS
10
0.441
20
-3.32
11
0.443
21
-3.322
0
LINE
8
RED2
6
CONTINUOUS
10
0.443
20
-3.322
11
0.446
21
-3.327
0
LINE
8
RED2
6
CONTINUOUS
10
0.446
20
-3.327
11
0.446
21
-3.332
0
LINE
8
RED2
6
CONTINUOUS
10
0.446
20
-3.332
11
0.443
21
-3.337
0
LINE
8
RED2
6
CONTINUOUS
10
0.443
20
-3.337
11
0.441
21
-3.339
0
LINE
8
RED2
6
CONTINUOUS
10
0.441
20
-3.339
11
0.436
21
-3.342
0
LINE
8
RED2
6
CONTINUOUS
10
0.436
20
-3.342
11
0.419
21
-3.342
0
LINE
8
RED2
6
CONTINUOUS
10
0.448
20
-5.333
11
0.446
21
-5.335
0
LINE
8
RED2
6
CONTINUOUS
10
0.446
20
-5.335
11
0.439
21
-5.338
0
LINE
8
RED2
6
CONTINUOUS
10
0.439
20
-5.338
11
0.434
21
-5.338
0
LINE
8
RED2
6
CONTINUOUS
10
0.434
20
-5.338
11
0.426
21
-5.335
0
LINE
8
RED2
6
CONTINUOUS
10
0.426
20
-5.335
11
0.422
21
-5.33
0
LINE
8
RED2
6
CONTINUOUS
10
0.422
20
-5.33
11
0.419
21
-5.325
0
LINE
8
RED2
6
CONTINUOUS
10
0.419
20
-5.325
11
0.417
21
-5.316
0
LINE
8
RED2
6
CONTINUOUS
10
0.417
20
-5.316
11
0.417
21
-5.308
0
LINE
8
RED2
6
CONTINUOUS
10
0.417
20
-5.308
11
0.419
21
-5.299
0
LINE
8
RED2
6
CONTINUOUS
10
0.419
20
-5.299
11
0.422
21
-5.294
0
LINE
8
RED2
6
CONTINUOUS
10
0.422
20
-5.294
11
0.426
21
-5.289
0
LINE
8
RED2
6
CONTINUOUS
10
0.426
20
-5.289
11
0.434
21
-5.287
0
LINE
8
RED2
6
CONTINUOUS
10
0.434
20
-5.287
11
0.439
21
-5.287
0
LINE
8
RED2
6
CONTINUOUS
10
0.439
20
-5.287
11
0.446
21
-5.289
0
LINE
8
RED2
6
CONTINUOUS
10
0.446
20
-5.289
11
0.448
21
-5.291
0
LINE
8
RED2
6
CONTINUOUS
10
0.419
20
-7.306
11
0.419
21
-7.255
0
LINE
8
RED2
6
CONTINUOUS
10
0.419
20
-7.255
11
0.431
21
-7.255
0
LINE
8
RED2
6
CONTINUOUS
10
0.431
20
-7.255
11
0.439
21
-7.257
0
LINE
8
RED2
6
CONTINUOUS
10
0.439
20
-7.257
11
0.443
21
-7.262
0
LINE
8
RED2
6
CONTINUOUS
10
0.443
20
-7.262
11
0.446
21
-7.267
0
LINE
8
RED2
6
CONTINUOUS
10
0.446
20
-7.267
11
0.448
21
-7.276
0
LINE
8
RED2
6
CONTINUOUS
10
0.448
20
-7.276
11
0.448
21
-7.284
0
LINE
8
RED2
6
CONTINUOUS
10
0.448
20
-7.284
11
0.446
21
-7.293
0
LINE
8
RED2
6
CONTINUOUS
10
0.446
20
-7.293
11
0.443
21
-7.298
0
LINE
8
RED2
6
CONTINUOUS
10
0.443
20
-7.298
11
0.439
21
-7.303
0
LINE
8
RED2
6
CONTINUOUS
10
0.439
20
-7.303
11
0.431
21
-7.306
0
LINE
8
RED2
6
CONTINUOUS
10
0.431
20
-7.306
11
0.419
21
-7.306
0
LINE
8
RED2
6
CONTINUOUS
10
11.299
20
-2.362
11
11.221
21
-2.362
0
LINE
8
RED2
6
CONTINUOUS
10
11.299
20
-4.331
11
11.221
21
-4.331
0
LINE
8
RED2
6
CONTINUOUS
10
11.299
20
-6.299
11
11.221
21
-6.299
0
LINE
8
RED2
6
CONTINUOUS
10
11.247
20
-1.386
11
11.272
21
-1.386
0
LINE
8
RED2
6
CONTINUOUS
10
11.243
20
-1.401
11
11.26
21
-1.35
0
LINE
8
RED2
6
CONTINUOUS
10
11.26
20
-1.35
11
11.277
21
-1.401
0
LINE
8
RED2
6
CONTINUOUS
10
11.263
20
-3.342
11
11.27
21
-3.344
0
LINE
8
RED2
6
CONTINUOUS
10
11.27
20
-3.344
11
11.273
21
-3.347
0
LINE
8
RED2
6
CONTINUOUS
10
11.273
20
-3.347
11
11.275
21
-3.352
0
LINE
8
RED2
6
CONTINUOUS
10
11.275
20
-3.352
11
11.275
21
-3.359
0
LINE
8
RED2
6
CONTINUOUS
10
11.275
20
-3.359
11
11.273
21
-3.364
0
LINE
8
RED2
6
CONTINUOUS
10
11.273
20
-3.364
11
11.27
21
-3.366
0
LINE
8
RED2
6
CONTINUOUS
10
11.27
20
-3.366
11
11.266
21
-3.369
0
LINE
8
RED2
6
CONTINUOUS
10
11.266
20
-3.369
11
11.246
21
-3.369
0
LINE
8
RED2
6
CONTINUOUS
10
11.246
20
-3.369
11
11.246
21
-3.318
0
LINE
8
RED2
6
CONTINUOUS
10
11.246
20
-3.318
11
11.263
21
-3.318
0
LINE
8
RED2
6
CONTINUOUS
10
11.263
20
-3.318
11
11.268
21
-3.32
0
LINE
8
RED2
6
CONTINUOUS
10
11.268
20
-3.32
11
11.27
21
-3.322
0
LINE
8
RED2
6
CONTINUOUS
10
11.27
20
-3.322
11
11.273
21
-3.327
0
LINE
8
RED2
6
CONTINUOUS
10
11.273
20
-3.327
11
11.273
21
-3.332
0
LINE
8
RED2
6
CONTINUOUS
10
11.273
20
-3.332
11
11.27
21
-3.337
0
LINE
8
RED2
6
CONTINUOUS
10
11.27
20
-3.337
11
11.268
21
-3.339
0
LINE
8
RED2
6
CONTINUOUS
10
11.268
20
-3.339
11
11.263
21
-3.342
0
LINE
8
RED2
6
CONTINUOUS
10
11.263
20
-3.342
11
11.246
21
-3.342
0
LINE
8
RED2
6
CONTINUOUS
10
11.275
20
-5.333
11
11.273
21
-5.335
0
LINE
8
RED2
6
CONTINUOUS
10
11.273
20
-5.335
11
11.266
21
-5.338
0
LINE
8
RED2
6
CONTINUOUS
10
11.266
20
-5.338
11
11.261
21
-5.338
0
LINE
8
RED2
6
CONTINUOUS
10
11.261
20
-5.338
11
11.253
21
-5.335
0
LINE
8
RED2
6
CONTINUOUS
10
11.253
20
-5.335
11
11.249
21
-5.33
0
LINE
8
RED2
6
CONTINUOUS
10
11.249
20
-5.33
11
11.246
21
-5.325
0
LINE
8
RED2
6
CONTINUOUS
10
11.246
20
-5.325
11
11.244
21
-5.316
0
LINE
8
RED2
6
CONTINUOUS
10
11.244
20
-5.316
11
11.244
21
-5.308
0
LINE
8
RED2
6
CONTINUOUS
10
11.244
20
-5.308
11
11.246
21
-5.299
0
LINE
8
RED2
6
CONTINUOUS
10
11.246
20
-5.299
11
11.249
21
-5.294
0
LINE
8
RED2
6
CONTINUOUS
10
11.249
20
-5.294
11
11.253
21
-5.289
0
LINE
8
RED2
6
CONTINUOUS
10
11.253
20
-5.289
11
11.261
21
-5.287
0
LINE
8
RED2
6
CONTINUOUS
10
11.261
20
-5.287
11
11.266
21
-5.287
0
LINE
8
RED2
6
CONTINUOUS
10
11.266
20
-5.287
11
11.273
21
-5.289
0
LINE
8
RED2
6
CONTINUOUS
10
11.273
20
-5.289
11
11.275
21
-5.291
0
LINE
8
RED2
6
CONTINUOUS
10
11.246
20
-7.306
11
11.246
21
-7.255
0
LINE
8
RED2
6
CONTINUOUS
10
11.246
20
-7.255
11
11.258
21
-7.255
0
LINE
8
RED2
6
CONTINUOUS
10
11.258
20
-7.255
11
11.266
21
-7.257
0
LINE
8
RED2
6
CONTINUOUS
10
11.266
20
-7.257
11
11.27
21
-7.262
0
LINE
8
RED2
6
CONTINUOUS
10
11.27
20
-7.262
11
11.273
21
-7.267
0
LINE
8
RED2
6
CONTINUOUS
10
11.273
20
-7.267
11
11.275
21
-7.276
0
LINE
8
RED2
6
CONTINUOUS
10
11.275
20
-7.276
11
11.275
21
-7.284
0
LINE
8
RED2
6
CONTINUOUS
10
11.275
20
-7.284
11
11.273
21
-7.293
0
LINE
8
RED2
6
CONTINUOUS
10
11.273
20
-7.293
11
11.27
21
-7.298
0
LINE
8
RED2
6
CONTINUOUS
10
11.27
20
-7.298
11
11.266
21
-7.303
0
LINE
8
RED2
6
CONTINUOUS
10
11.266
20
-7.303
11
11.258
21
-7.306
0
LINE
8
RED2
6
CONTINUOUS
10
11.258
20
-7.306
11
11.246
21
-7.306
0
LINE
8
RED2
6
CONTINUOUS
10
7.891
20
-7.629
11
7.891
21
-7.57
0
LINE
8
RED2
6
CONTINUOUS
10
7.891
20
-7.57
11
7.905
21
-7.57
0
LINE
8
RED2
6
CONTINUOUS
10
7.905
20
-7.57
11
7.913
21
-7.573
0
LINE
8
RED2
6
CONTINUOUS
10
7.913
20
-7.573
11
7.919
21
-7.579
0
LINE
8
RED2
6
CONTINUOUS
10
7.919
20
-7.579
11
7.921
21
-7.584
0
LINE
8
RED2
6
CONTINUOUS
10
7.921
20
-7.584
11
7.924
21
-7.595
0
LINE
8
RED2
6
CONTINUOUS
10
7.924
20
-7.595
11
7.924
21
-7.604
0
LINE
8
RED2
6
CONTINUOUS
10
7.924
20
-7.604
11
7.921
21
-7.615
0
LINE
8
RED2
6
CONTINUOUS
10
7.921
20
-7.615
11
7.919
21
-7.621
0
LINE
8
RED2
6
CONTINUOUS
10
7.919
20
-7.621
11
7.913
21
-7.626
0
LINE
8
RED2
6
CONTINUOUS
10
7.913
20
-7.626
11
7.905
21
-7.629
0
LINE
8
RED2
6
CONTINUOUS
10
7.905
20
-7.629
11
7.891
21
-7.629
0
LINE
8
RED2
6
CONTINUOUS
10
7.975
20
-7.629
11
7.975
21
-7.598
0
LINE
8
RED2
6
CONTINUOUS
10
7.975
20
-7.598
11
7.972
21
-7.593
0
LINE
8
RED2
6
CONTINUOUS
10
7.972
20
-7.593
11
7.966
21
-7.59
0
LINE
8
RED2
6
CONTINUOUS
10
7.966
20
-7.59
11
7.955
21
-7.59
0
LINE
8
RED2
6
CONTINUOUS
10
7.955
20
-7.59
11
7.95
21
-7.593
0
LINE
8
RED2
6
CONTINUOUS
10
7.975
20
-7.626
11
7.969
21
-7.629
0
LINE
8
RED2
6
CONTINUOUS
10
7.969
20
-7.629
11
7.955
21
-7.629
0
LINE
8
RED2
6
CONTINUOUS
10
7.955
20
-7.629
11
7.95
21
-7.626
0
LINE
8
RED2
6
CONTINUOUS
10
7.95
20
-7.626
11
7.947
21
-7.621
0
LINE
8
RED2
6
CONTINUOUS
10
7.947
20
-7.621
11
7.947
21
-7.615
0
LINE
8
RED2
6
CONTINUOUS
10
7.947
20
-7.615
11
7.95
21
-7.61
0
LINE
8
RED2
6
CONTINUOUS
10
7.95
20
-7.61
11
7.955
21
-7.607
0
LINE
8
RED2
6
CONTINUOUS
10
7.955
20
-7.607
11
7.969
21
-7.607
0
LINE
8
RED2
6
CONTINUOUS
10
7.969
20
-7.607
11
7.975
21
-7.604
0
LINE
8
RED2
6
CONTINUOUS
10
7.995
20
-7.59
11
8.017
21
-7.59
0
LINE
8
RED2
6
CONTINUOUS
10
8.003
20
-7.57
11
8.003
21
-7.621
0
LINE
8
RED2
6
CONTINUOUS
10
8.003
20
-7.621
11
8.006
21
-7.626
0
LINE
8
RED2
6
CONTINUOUS
10
8.006
20
-7.626
11
8.011
21
-7.629
0
LINE
8
RED2
6
CONTINUOUS
10
8.011
20
-7.629
11
8.017
21
-7.629
0
LINE
8
RED2
6
CONTINUOUS
10
8.059
20
-7.626
11
8.054
21
-7.629
0
LINE
8
RED2
6
CONTINUOUS
10
8.054
20
-7.629
11
8.042
21
-7.629
0
LINE
8
RED2
6
CONTINUOUS
10
8.042
20
-7.629
11
8.037
21
-7.626
0
LINE
8
RED2
6
CONTINUOUS
10
8.037
20
-7.626
11
8.034
21
-7.621
0
LINE
8
RED2
6
CONTINUOUS
10
8.034
20
-7.621
11
8.034
21
-7.598
0
LINE
8
RED2
6
CONTINUOUS
10
8.034
20
-7.598
11
8.037
21
-7.593
0
LINE
8
RED2
6
CONTINUOUS
10
8.037
20
-7.593
11
8.042
21
-7.59
0
LINE
8
RED2
6
CONTINUOUS
10
8.042
20
-7.59
11
8.054
21
-7.59
0
LINE
8
RED2
6
CONTINUOUS
10
8.054
20
-7.59
11
8.059
21
-7.593
0
LINE
8
RED2
6
CONTINUOUS
10
8.059
20
-7.593
11
8.062
21
-7.598
0
LINE
8
RED2
6
CONTINUOUS
10
8.062
20
-7.598
11
8.062
21
-7.604
0
LINE
8
RED2
6
CONTINUOUS
10
8.062
20
-7.604
11
8.034
21
-7.61
0
LINE
8
RED2
6
CONTINUOUS
10
8.087
20
-7.624
11
8.09
21
-7.626
0
LINE
8
RED2
6
CONTINUOUS
10
8.09
20
-7.626
11
8.087
21
-7.629
0
LINE
8
RED2
6
CONTINUOUS
10
8.087
20
-7.629
11
8.084
21
-7.626
0
LINE
8
RED2
6
CONTINUOUS
10
8.084
20
-7.626
11
8.087
21
-7.624
0
LINE
8
RED2
6
CONTINUOUS
10
8.087
20
-7.624
11
8.087
21
-7.629
0
LINE
8
RED2
6
CONTINUOUS
10
8.087
20
-7.593
11
8.09
21
-7.595
0
LINE
8
RED2
6
CONTINUOUS
10
8.09
20
-7.595
11
8.087
21
-7.598
0
LINE
8
RED2
6
CONTINUOUS
10
8.087
20
-7.598
11
8.084
21
-7.595
0
LINE
8
RED2
6
CONTINUOUS
10
8.084
20
-7.595
11
8.087
21
-7.593
0
LINE
8
RED2
6
CONTINUOUS
10
8.087
20
-7.593
11
8.087
21
-7.598
0
LINE
8
RED2
6
CONTINUOUS
10
6.969
20
-7.658
11
11.221
21
-7.658
0
LINE
8
RED2
6
CONTINUOUS
10
7.025
20
-7.739
11
7.025
21
-7.68
0
LINE
8
RED2
6
CONTINUOUS
10
7.058
20
-7.739
11
7.033
21
-7.705
0
LINE
8
RED2
6
CONTINUOUS
10
7.058
20
-7.68
11
7.025
21
-7.714
0
LINE
8
RED2
6
CONTINUOUS
10
7.084
20
-7.739
11
7.084
21
-7.7
0
LINE
8
RED2
6
CONTINUOUS
10
7.084
20
-7.68
11
7.081
21
-7.683
0
LINE
8
RED2
6
CONTINUOUS
10
7.081
20
-7.683
11
7.084
21
-7.686
0
LINE
8
RED2
6
CONTINUOUS
10
7.084
20
-7.686
11
7.086
21
-7.683
0
LINE
8
RED2
6
CONTINUOUS
10
7.086
20
-7.683
11
7.084
21
-7.68
0
LINE
8
RED2
6
CONTINUOUS
10
7.084
20
-7.68
11
7.084
21
-7.686
0
LINE
8
RED2
6
CONTINUOUS
10
7.145
20
-7.734
11
7.143
21
-7.736
0
LINE
8
RED2
6
CONTINUOUS
10
7.143
20
-7.736
11
7.134
21
-7.739
0
LINE
8
RED2
6
CONTINUOUS
10
7.134
20
-7.739
11
7.129
21
-7.739
0
LINE
8
RED2
6
CONTINUOUS
10
7.129
20
-7.739
11
7.12
21
-7.736
0
LINE
8
RED2
6
CONTINUOUS
10
7.12
20
-7.736
11
7.114
21
-7.731
0
LINE
8
RED2
6
CONTINUOUS
10
7.114
20
-7.731
11
7.112
21
-7.725
0
LINE
8
RED2
6
CONTINUOUS
10
7.112
20
-7.725
11
7.109
21
-7.714
0
LINE
8
RED2
6
CONTINUOUS
10
7.109
20
-7.714
11
7.109
21
-7.705
0
LINE
8
RED2
6
CONTINUOUS
10
7.109
20
-7.705
11
7.112
21
-7.694
0
LINE
8
RED2
6
CONTINUOUS
10
7.112
20
-7.694
11
7.114
21
-7.689
0
LINE
8
RED2
6
CONTINUOUS
10
7.114
20
-7.689
11
7.12
21
-7.683
0
LINE
8
RED2
6
CONTINUOUS
10
7.12
20
-7.683
11
7.129
21
-7.68
0
LINE
8
RED2
6
CONTINUOUS
10
7.129
20
-7.68
11
7.134
21
-7.68
0
LINE
8
RED2
6
CONTINUOUS
10
7.134
20
-7.68
11
7.143
21
-7.683
0
LINE
8
RED2
6
CONTINUOUS
10
7.143
20
-7.683
11
7.145
21
-7.686
0
LINE
8
RED2
6
CONTINUOUS
10
7.196
20
-7.739
11
7.196
21
-7.708
0
LINE
8
RED2
6
CONTINUOUS
10
7.196
20
-7.708
11
7.193
21
-7.703
0
LINE
8
RED2
6
CONTINUOUS
10
7.193
20
-7.703
11
7.188
21
-7.7
0
LINE
8
RED2
6
CONTINUOUS
10
7.188
20
-7.7
11
7.176
21
-7.7
0
LINE
8
RED2
6
CONTINUOUS
10
7.176
20
-7.7
11
7.171
21
-7.703
0
LINE
8
RED2
6
CONTINUOUS
10
7.196
20
-7.736
11
7.19
21
-7.739
0
LINE
8
RED2
6
CONTINUOUS
10
7.19
20
-7.739
11
7.176
21
-7.739
0
LINE
8
RED2
6
CONTINUOUS
10
7.176
20
-7.739
11
7.171
21
-7.736
0
LINE
8
RED2
6
CONTINUOUS
10
7.171
20
-7.736
11
7.168
21
-7.731
0
LINE
8
RED2
6
CONTINUOUS
10
7.168
20
-7.731
11
7.168
21
-7.725
0
LINE
8
RED2
6
CONTINUOUS
10
7.168
20
-7.725
11
7.171
21
-7.72
0
LINE
8
RED2
6
CONTINUOUS
10
7.171
20
-7.72
11
7.176
21
-7.717
0
LINE
8
RED2
6
CONTINUOUS
10
7.176
20
-7.717
11
7.19
21
-7.717
0
LINE
8
RED2
6
CONTINUOUS
10
7.19
20
-7.717
11
7.196
21
-7.714
0
LINE
8
RED2
6
CONTINUOUS
10
7.249
20
-7.739
11
7.249
21
-7.68
0
LINE
8
RED2
6
CONTINUOUS
10
7.249
20
-7.736
11
7.244
21
-7.739
0
LINE
8
RED2
6
CONTINUOUS
10
7.244
20
-7.739
11
7.232
21
-7.739
0
LINE
8
RED2
6
CONTINUOUS
10
7.232
20
-7.739
11
7.227
21
-7.736
0
LINE
8
RED2
6
CONTINUOUS
10
7.227
20
-7.736
11
7.224
21
-7.734
0
LINE
8
RED2
6
CONTINUOUS
10
7.224
20
-7.734
11
7.221
21
-7.728
0
LINE
8
RED2
6
CONTINUOUS
10
7.221
20
-7.728
11
7.221
21
-7.711
0
LINE
8
RED2
6
CONTINUOUS
10
7.221
20
-7.711
11
7.224
21
-7.705
0
LINE
8
RED2
6
CONTINUOUS
10
7.224
20
-7.705
11
7.227
21
-7.703
0
LINE
8
RED2
6
CONTINUOUS
10
7.227
20
-7.703
11
7.232
21
-7.7
0
LINE
8
RED2
6
CONTINUOUS
10
7.232
20
-7.7
11
7.244
21
-7.7
0
LINE
8
RED2
6
CONTINUOUS
10
7.244
20
-7.7
11
7.249
21
-7.703
0
LINE
8
RED2
6
CONTINUOUS
10
7.322
20
-7.708
11
7.342
21
-7.708
0
LINE
8
RED2
6
CONTINUOUS
10
7.35
20
-7.739
11
7.322
21
-7.739
0
LINE
8
RED2
6
CONTINUOUS
10
7.322
20
-7.739
11
7.322
21
-7.68
0
LINE
8
RED2
6
CONTINUOUS
10
7.322
20
-7.68
11
7.35
21
-7.68
0
LINE
8
RED2
6
CONTINUOUS
10
7.376
20
-7.734
11
7.379
21
-7.736
0
LINE
8
RED2
6
CONTINUOUS
10
7.379
20
-7.736
11
7.376
21
-7.739
0
LINE
8
RED2
6
CONTINUOUS
10
7.376
20
-7.739
11
7.373
21
-7.736
0
LINE
8
RED2
6
CONTINUOUS
10
7.373
20
-7.736
11
7.376
21
-7.734
0
LINE
8
RED2
6
CONTINUOUS
10
7.376
20
-7.734
11
7.376
21
-7.739
0
LINE
8
RED2
6
CONTINUOUS
10
7.404
20
-7.739
11
7.404
21
-7.68
0
LINE
8
RED2
6
CONTINUOUS
10
7.404
20
-7.68
11
7.418
21
-7.68
0
LINE
8
RED2
6
CONTINUOUS
10
7.418
20
-7.68
11
7.426
21
-7.683
0
LINE
8
RED2
6
CONTINUOUS
10
7.426
20
-7.683
11
7.432
21
-7.689
0
LINE
8
RED2
6
CONTINUOUS
10
7.432
20
-7.689
11
7.435
21
-7.694
0
LINE
8
RED2
6
CONTINUOUS
10
7.435
20
-7.694
11
7.438
21
-7.705
0
LINE
8
RED2
6
CONTINUOUS
10
7.438
20
-7.705
11
7.438
21
-7.714
0
LINE
8
RED2
6
CONTINUOUS
10
7.438
20
-7.714
11
7.435
21
-7.725
0
LINE
8
RED2
6
CONTINUOUS
10
7.435
20
-7.725
11
7.432
21
-7.731
0
LINE
8
RED2
6
CONTINUOUS
10
7.432
20
-7.731
11
7.426
21
-7.736
0
LINE
8
RED2
6
CONTINUOUS
10
7.426
20
-7.736
11
7.418
21
-7.739
0
LINE
8
RED2
6
CONTINUOUS
10
7.418
20
-7.739
11
7.404
21
-7.739
0
LINE
8
RED2
6
CONTINUOUS
10
7.463
20
-7.734
11
7.466
21
-7.736
0
LINE
8
RED2
6
CONTINUOUS
10
7.466
20
-7.736
11
7.463
21
-7.739
0
LINE
8
RED2
6
CONTINUOUS
10
7.463
20
-7.739
11
7.46
21
-7.736
0
LINE
8
RED2
6
CONTINUOUS
10
7.46
20
-7.736
11
7.463
21
-7.734
0
LINE
8
RED2
6
CONTINUOUS
10
7.463
20
-7.734
11
7.463
21
-7.739
0
LINE
8
RED2
6
CONTINUOUS
10
7.488
20
-7.722
11
7.516
21
-7.722
0
LINE
8
RED2
6
CONTINUOUS
10
7.483
20
-7.739
11
7.502
21
-7.68
0
LINE
8
RED2
6
CONTINUOUS
10
7.502
20
-7.68
11
7.522
21
-7.739
0
LINE
8
RED2
6
CONTINUOUS
10
7.542
20
-7.734
11
7.544
21
-7.736
0
LINE
8
RED2
6
CONTINUOUS
10
7.544
20
-7.736
11
7.542
21
-7.739
0
LINE
8
RED2
6
CONTINUOUS
10
7.542
20
-7.739
11
7.539
21
-7.736
0
LINE
8
RED2
6
CONTINUOUS
10
7.539
20
-7.736
11
7.542
21
-7.734
0
LINE
8
RED2
6
CONTINUOUS
10
7.542
20
-7.734
11
7.542
21
-7.739
0
LINE
8
RED2
6
CONTINUOUS
10
7.682
20
-7.736
11
7.676
21
-7.739
0
LINE
8
RED2
6
CONTINUOUS
10
7.676
20
-7.739
11
7.665
21
-7.739
0
LINE
8
RED2
6
CONTINUOUS
10
7.665
20
-7.739
11
7.66
21
-7.736
0
LINE
8
RED2
6
CONTINUOUS
10
7.66
20
-7.736
11
7.657
21
-7.731
0
LINE
8
RED2
6
CONTINUOUS
10
7.657
20
-7.731
11
7.657
21
-7.708
0
LINE
8
RED2
6
CONTINUOUS
10
7.657
20
-7.708
11
7.66
21
-7.703
0
LINE
8
RED2
6
CONTINUOUS
10
7.66
20
-7.703
11
7.665
21
-7.7
0
LINE
8
RED2
6
CONTINUOUS
10
7.665
20
-7.7
11
7.676
21
-7.7
0
LINE
8
RED2
6
CONTINUOUS
10
7.676
20
-7.7
11
7.682
21
-7.703
0
LINE
8
RED2
6
CONTINUOUS
10
7.682
20
-7.703
11
7.685
21
-7.708
0
LINE
8
RED2
6
CONTINUOUS
10
7.685
20
-7.708
11
7.685
21
-7.714
0
LINE
8
RED2
6
CONTINUOUS
10
7.685
20
-7.714
11
7.657
21
-7.72
0
LINE
8
RED2
6
CONTINUOUS
10
7.733
20
-7.736
11
7.727
21
-7.739
0
LINE
8
RED2
6
CONTINUOUS
10
7.727
20
-7.739
11
7.716
21
-7.739
0
LINE
8
RED2
6
CONTINUOUS
10
7.716
20
-7.739
11
7.71
21
-7.736
0
LINE
8
RED2
6
CONTINUOUS
10
7.71
20
-7.736
11
7.707
21
-7.731
0
LINE
8
RED2
6
CONTINUOUS
10
7.707
20
-7.731
11
7.707
21
-7.708
0
LINE
8
RED2
6
CONTINUOUS
10
7.707
20
-7.708
11
7.71
21
-7.703
0
LINE
8
RED2
6
CONTINUOUS
10
7.71
20
-7.703
11
7.716
21
-7.7
0
LINE
8
RED2
6
CONTINUOUS
10
7.716
20
-7.7
11
7.727
21
-7.7
0
LINE
8
RED2
6
CONTINUOUS
10
7.727
20
-7.7
11
7.733
21
-7.703
0
LINE
8
RED2
6
CONTINUOUS
10
7.733
20
-7.703
11
7.735
21
-7.708
0
LINE
8
RED2
6
CONTINUOUS
10
7.735
20
-7.708
11
7.735
21
-7.714
0
LINE
8
RED2
6
CONTINUOUS
10
7.735
20
-7.714
11
7.707
21
-7.72
0
LINE
8
RED2
6
CONTINUOUS
10
7.758
20
-7.736
11
7.763
21
-7.739
0
LINE
8
RED2
6
CONTINUOUS
10
7.763
20
-7.739
11
7.775
21
-7.739
0
LINE
8
RED2
6
CONTINUOUS
10
7.775
20
-7.739
11
7.78
21
-7.736
0
LINE
8
RED2
6
CONTINUOUS
10
7.78
20
-7.736
11
7.783
21
-7.731
0
LINE
8
RED2
6
CONTINUOUS
10
7.783
20
-7.731
11
7.783
21
-7.728
0
LINE
8
RED2
6
CONTINUOUS
10
7.783
20
-7.728
11
7.78
21
-7.722
0
LINE
8
RED2
6
CONTINUOUS
10
7.78
20
-7.722
11
7.775
21
-7.72
0
LINE
8
RED2
6
CONTINUOUS
10
7.775
20
-7.72
11
7.766
21
-7.72
0
LINE
8
RED2
6
CONTINUOUS
10
7.766
20
-7.72
11
7.761
21
-7.717
0
LINE
8
RED2
6
CONTINUOUS
10
7.761
20
-7.717
11
7.758
21
-7.711
0
LINE
8
RED2
6
CONTINUOUS
10
7.758
20
-7.711
11
7.758
21
-7.708
0
LINE
8
RED2
6
CONTINUOUS
10
7.758
20
-7.708
11
7.761
21
-7.703
0
LINE
8
RED2
6
CONTINUOUS
10
7.761
20
-7.703
11
7.766
21
-7.7
0
LINE
8
RED2
6
CONTINUOUS
10
7.766
20
-7.7
11
7.775
21
-7.7
0
LINE
8
RED2
6
CONTINUOUS
10
7.775
20
-7.7
11
7.78
21
-7.703
0
LINE
8
RED2
6
CONTINUOUS
10
7.834
20
-7.736
11
7.828
21
-7.739
0
LINE
8
RED2
6
CONTINUOUS
10
7.828
20
-7.739
11
7.817
21
-7.739
0
LINE
8
RED2
6
CONTINUOUS
10
7.817
20
-7.739
11
7.811
21
-7.736
0
LINE
8
RED2
6
CONTINUOUS
10
7.811
20
-7.736
11
7.808
21
-7.734
0
LINE
8
RED2
6
CONTINUOUS
10
7.808
20
-7.734
11
7.806
21
-7.728
0
LINE
8
RED2
6
CONTINUOUS
10
7.806
20
-7.728
11
7.806
21
-7.711
0
LINE
8
RED2
6
CONTINUOUS
10
7.806
20
-7.711
11
7.808
21
-7.705
0
LINE
8
RED2
6
CONTINUOUS
10
7.808
20
-7.705
11
7.811
21
-7.703
0
LINE
8
RED2
6
CONTINUOUS
10
7.811
20
-7.703
11
7.817
21
-7.7
0
LINE
8
RED2
6
CONTINUOUS
10
7.817
20
-7.7
11
7.828
21
-7.7
0
LINE
8
RED2
6
CONTINUOUS
10
7.828
20
-7.7
11
7.834
21
-7.703
0
LINE
8
RED2
6
CONTINUOUS
10
7.859
20
-7.739
11
7.859
21
-7.68
0
LINE
8
RED2
6
CONTINUOUS
10
7.884
20
-7.739
11
7.884
21
-7.708
0
LINE
8
RED2
6
CONTINUOUS
10
7.884
20
-7.708
11
7.881
21
-7.703
0
LINE
8
RED2
6
CONTINUOUS
10
7.881
20
-7.703
11
7.876
21
-7.7
0
LINE
8
RED2
6
CONTINUOUS
10
7.876
20
-7.7
11
7.867
21
-7.7
0
LINE
8
RED2
6
CONTINUOUS
10
7.867
20
-7.7
11
7.862
21
-7.703
0
LINE
8
RED2
6
CONTINUOUS
10
7.862
20
-7.703
11
7.859
21
-7.705
0
LINE
8
RED2
6
CONTINUOUS
10
7.935
20
-7.736
11
7.929
21
-7.739
0
LINE
8
RED2
6
CONTINUOUS
10
7.929
20
-7.739
11
7.918
21
-7.739
0
LINE
8
RED2
6
CONTINUOUS
10
7.918
20
-7.739
11
7.912
21
-7.736
0
LINE
8
RED2
6
CONTINUOUS
10
7.912
20
-7.736
11
7.91
21
-7.731
0
LINE
8
RED2
6
CONTINUOUS
10
7.91
20
-7.731
11
7.91
21
-7.708
0
LINE
8
RED2
6
CONTINUOUS
10
7.91
20
-7.708
11
7.912
21
-7.703
0
LINE
8
RED2
6
CONTINUOUS
10
7.912
20
-7.703
11
7.918
21
-7.7
0
LINE
8
RED2
6
CONTINUOUS
10
7.918
20
-7.7
11
7.929
21
-7.7
0
LINE
8
RED2
6
CONTINUOUS
10
7.929
20
-7.7
11
7.935
21
-7.703
0
LINE
8
RED2
6
CONTINUOUS
10
7.935
20
-7.703
11
7.938
21
-7.708
0
LINE
8
RED2
6
CONTINUOUS
10
7.938
20
-7.708
11
7.938
21
-7.714
0
LINE
8
RED2
6
CONTINUOUS
10
7.938
20
-7.714
11
7.91
21
-7.72
0
LINE
8
RED2
6
CONTINUOUS
10
7.963
20
-7.739
11
7.963
21
-7.7
0
LINE
8
RED2
6
CONTINUOUS
10
7.963
20
-7.705
11
7.966
21
-7.703
0
LINE
8
RED2
6
CONTINUOUS
10
7.966
20
-7.703
11
7.971
21
-7.7
0
LINE
8
RED2
6
CONTINUOUS
10
7.971
20
-7.7
11
7.98
21
-7.7
0
LINE
8
RED2
6
CONTINUOUS
10
7.98
20
-7.7
11
7.985
21
-7.703
0
LINE
8
RED2
6
CONTINUOUS
10
7.985
20
-7.703
11
7.988
21
-7.708
0
LINE
8
RED2
6
CONTINUOUS
10
7.988
20
-7.708
11
7.988
21
-7.739
0
LINE
8
RED2
6
CONTINUOUS
10
7.988
20
-7.708
11
7.991
21
-7.703
0
LINE
8
RED2
6
CONTINUOUS
10
7.991
20
-7.703
11
7.997
21
-7.7
0
LINE
8
RED2
6
CONTINUOUS
10
7.997
20
-7.7
11
8.005
21
-7.7
0
LINE
8
RED2
6
CONTINUOUS
10
8.005
20
-7.7
11
8.011
21
-7.703
0
LINE
8
RED2
6
CONTINUOUS
10
8.011
20
-7.703
11
8.014
21
-7.708
0
LINE
8
RED2
6
CONTINUOUS
10
8.014
20
-7.708
11
8.014
21
-7.739
0
LINE
8
RED2
6
CONTINUOUS
10
8.067
20
-7.739
11
8.067
21
-7.708
0
LINE
8
RED2
6
CONTINUOUS
10
8.067
20
-7.708
11
8.064
21
-7.703
0
LINE
8
RED2
6
CONTINUOUS
10
8.064
20
-7.703
11
8.058
21
-7.7
0
LINE
8
RED2
6
CONTINUOUS
10
8.058
20
-7.7
11
8.047
21
-7.7
0
LINE
8
RED2
6
CONTINUOUS
10
8.047
20
-7.7
11
8.042
21
-7.703
0
LINE
8
RED2
6
CONTINUOUS
10
8.067
20
-7.736
11
8.061
21
-7.739
0
LINE
8
RED2
6
CONTINUOUS
10
8.061
20
-7.739
11
8.047
21
-7.739
0
LINE
8
RED2
6
CONTINUOUS
10
8.047
20
-7.739
11
8.042
21
-7.736
0
LINE
8
RED2
6
CONTINUOUS
10
8.042
20
-7.736
11
8.039
21
-7.731
0
LINE
8
RED2
6
CONTINUOUS
10
8.039
20
-7.731
11
8.039
21
-7.725
0
LINE
8
RED2
6
CONTINUOUS
10
8.039
20
-7.725
11
8.042
21
-7.72
0
LINE
8
RED2
6
CONTINUOUS
10
8.042
20
-7.72
11
8.047
21
-7.717
0
LINE
8
RED2
6
CONTINUOUS
10
8.047
20
-7.717
11
8.061
21
-7.717
0
LINE
8
RED2
6
CONTINUOUS
10
8.061
20
-7.717
11
8.067
21
-7.714
0
LINE
8
RED2
6
CONTINUOUS
10
8.157
20
-7.762
11
8.154
21
-7.759
0
LINE
8
RED2
6
CONTINUOUS
10
8.154
20
-7.759
11
8.148
21
-7.75
0
LINE
8
RED2
6
CONTINUOUS
10
8.148
20
-7.75
11
8.146
21
-7.745
0
LINE
8
RED2
6
CONTINUOUS
10
8.146
20
-7.745
11
8.143
21
-7.736
0
LINE
8
RED2
6
CONTINUOUS
10
8.143
20
-7.736
11
8.14
21
-7.722
0
LINE
8
RED2
6
CONTINUOUS
10
8.14
20
-7.722
11
8.14
21
-7.711
0
LINE
8
RED2
6
CONTINUOUS
10
8.14
20
-7.711
11
8.143
21
-7.697
0
LINE
8
RED2
6
CONTINUOUS
10
8.143
20
-7.697
11
8.146
21
-7.689
0
LINE
8
RED2
6
CONTINUOUS
10
8.146
20
-7.689
11
8.148
21
-7.683
0
LINE
8
RED2
6
CONTINUOUS
10
8.148
20
-7.683
11
8.154
21
-7.675
0
LINE
8
RED2
6
CONTINUOUS
10
8.154
20
-7.675
11
8.157
21
-7.672
0
LINE
8
RED2
6
CONTINUOUS
10
8.207
20
-7.68
11
8.179
21
-7.68
0
LINE
8
RED2
6
CONTINUOUS
10
8.179
20
-7.68
11
8.176
21
-7.708
0
LINE
8
RED2
6
CONTINUOUS
10
8.176
20
-7.708
11
8.179
21
-7.705
0
LINE
8
RED2
6
CONTINUOUS
10
8.179
20
-7.705
11
8.185
21
-7.703
0
LINE
8
RED2
6
CONTINUOUS
10
8.185
20
-7.703
11
8.199
21
-7.703
0
LINE
8
RED2
6
CONTINUOUS
10
8.199
20
-7.703
11
8.205
21
-7.705
0
LINE
8
RED2
6
CONTINUOUS
10
8.205
20
-7.705
11
8.207
21
-7.708
0
LINE
8
RED2
6
CONTINUOUS
10
8.207
20
-7.708
11
8.21
21
-7.714
0
LINE
8
RED2
6
CONTINUOUS
10
8.21
20
-7.714
11
8.21
21
-7.728
0
LINE
8
RED2
6
CONTINUOUS
10
8.21
20
-7.728
11
8.207
21
-7.734
0
LINE
8
RED2
6
CONTINUOUS
10
8.207
20
-7.734
11
8.205
21
-7.736
0
LINE
8
RED2
6
CONTINUOUS
10
8.205
20
-7.736
11
8.199
21
-7.739
0
LINE
8
RED2
6
CONTINUOUS
10
8.199
20
-7.739
11
8.185
21
-7.739
0
LINE
8
RED2
6
CONTINUOUS
10
8.185
20
-7.739
11
8.179
21
-7.736
0
LINE
8
RED2
6
CONTINUOUS
10
8.179
20
-7.736
11
8.176
21
-7.734
0
LINE
8
RED2
6
CONTINUOUS
10
8.235
20
-7.734
11
8.238
21
-7.736
0
LINE
8
RED2
6
CONTINUOUS
10
8.238
20
-7.736
11
8.235
21
-7.739
0
LINE
8
RED2
6
CONTINUOUS
10
8.235
20
-7.739
11
8.233
21
-7.736
0
LINE
8
RED2
6
CONTINUOUS
10
8.233
20
-7.736
11
8.235
21
-7.734
0
LINE
8
RED2
6
CONTINUOUS
10
8.235
20
-7.734
11
8.235
21
-7.739
0
LINE
8
RED2
6
CONTINUOUS
10
8.294
20
-7.739
11
8.261
21
-7.739
0
LINE
8
RED2
6
CONTINUOUS
10
8.278
20
-7.739
11
8.278
21
-7.68
0
LINE
8
RED2
6
CONTINUOUS
10
8.278
20
-7.68
11
8.272
21
-7.689
0
LINE
8
RED2
6
CONTINUOUS
10
8.272
20
-7.689
11
8.266
21
-7.694
0
LINE
8
RED2
6
CONTINUOUS
10
8.266
20
-7.694
11
8.261
21
-7.697
0
LINE
8
RED2
6
CONTINUOUS
10
8.32
20
-7.734
11
8.323
21
-7.736
0
LINE
8
RED2
6
CONTINUOUS
10
8.323
20
-7.736
11
8.32
21
-7.739
0
LINE
8
RED2
6
CONTINUOUS
10
8.32
20
-7.739
11
8.317
21
-7.736
0
LINE
8
RED2
6
CONTINUOUS
10
8.317
20
-7.736
11
8.32
21
-7.734
0
LINE
8
RED2
6
CONTINUOUS
10
8.32
20
-7.734
11
8.32
21
-7.739
0
LINE
8
RED2
6
CONTINUOUS
10
8.373
20
-7.68
11
8.362
21
-7.68
0
LINE
8
RED2
6
CONTINUOUS
10
8.362
20
-7.68
11
8.356
21
-7.683
0
LINE
8
RED2
6
CONTINUOUS
10
8.356
20
-7.683
11
8.353
21
-7.686
0
LINE
8
RED2
6
CONTINUOUS
10
8.353
20
-7.686
11
8.348
21
-7.694
0
LINE
8
RED2
6
CONTINUOUS
10
8.348
20
-7.694
11
8.345
21
-7.705
0
LINE
8
RED2
6
CONTINUOUS
10
8.345
20
-7.705
11
8.345
21
-7.728
0
LINE
8
RED2
6
CONTINUOUS
10
8.345
20
-7.728
11
8.348
21
-7.734
0
LINE
8
RED2
6
CONTINUOUS
10
8.348
20
-7.734
11
8.351
21
-7.736
0
LINE
8
RED2
6
CONTINUOUS
10
8.351
20
-7.736
11
8.356
21
-7.739
0
LINE
8
RED2
6
CONTINUOUS
10
8.356
20
-7.739
11
8.368
21
-7.739
0
LINE
8
RED2
6
CONTINUOUS
10
8.368
20
-7.739
11
8.373
21
-7.736
0
LINE
8
RED2
6
CONTINUOUS
10
8.373
20
-7.736
11
8.376
21
-7.734
0
LINE
8
RED2
6
CONTINUOUS
10
8.376
20
-7.734
11
8.379
21
-7.728
0
LINE
8
RED2
6
CONTINUOUS
10
8.379
20
-7.728
11
8.379
21
-7.714
0
LINE
8
RED2
6
CONTINUOUS
10
8.379
20
-7.714
11
8.376
21
-7.708
0
LINE
8
RED2
6
CONTINUOUS
10
8.376
20
-7.708
11
8.373
21
-7.705
0
LINE
8
RED2
6
CONTINUOUS
10
8.373
20
-7.705
11
8.368
21
-7.703
0
LINE
8
RED2
6
CONTINUOUS
10
8.368
20
-7.703
11
8.356
21
-7.703
0
LINE
8
RED2
6
CONTINUOUS
10
8.356
20
-7.703
11
8.351
21
-7.705
0
LINE
8
RED2
6
CONTINUOUS
10
8.351
20
-7.705
11
8.348
21
-7.708
0
LINE
8
RED2
6
CONTINUOUS
10
8.348
20
-7.708
11
8.345
21
-7.714
0
LINE
8
RED2
6
CONTINUOUS
10
8.398
20
-7.762
11
8.401
21
-7.759
0
LINE
8
RED2
6
CONTINUOUS
10
8.401
20
-7.759
11
8.407
21
-7.75
0
LINE
8
RED2
6
CONTINUOUS
10
8.407
20
-7.75
11
8.41
21
-7.745
0
LINE
8
RED2
6
CONTINUOUS
10
8.41
20
-7.745
11
8.412
21
-7.736
0
LINE
8
RED2
6
CONTINUOUS
10
8.412
20
-7.736
11
8.415
21
-7.722
0
LINE
8
RED2
6
CONTINUOUS
10
8.415
20
-7.722
11
8.415
21
-7.711
0
LINE
8
RED2
6
CONTINUOUS
10
8.415
20
-7.711
11
8.412
21
-7.697
0
LINE
8
RED2
6
CONTINUOUS
10
8.412
20
-7.697
11
8.41
21
-7.689
0
LINE
8
RED2
6
CONTINUOUS
10
8.41
20
-7.689
11
8.407
21
-7.683
0
LINE
8
RED2
6
CONTINUOUS
10
8.407
20
-7.683
11
8.401
21
-7.675
0
LINE
8
RED2
6
CONTINUOUS
10
8.401
20
-7.675
11
8.398
21
-7.672
0
LINE
8
RED2
6
CONTINUOUS
10
8.443
20
-7.717
11
8.488
21
-7.717
0
LINE
8
RED2
6
CONTINUOUS
10
8.547
20
-7.739
11
8.514
21
-7.739
0
LINE
8
RED2
6
CONTINUOUS
10
8.53
20
-7.739
11
8.53
21
-7.68
0
LINE
8
RED2
6
CONTINUOUS
10
8.53
20
-7.68
11
8.525
21
-7.689
0
LINE
8
RED2
6
CONTINUOUS
10
8.525
20
-7.689
11
8.519
21
-7.694
0
LINE
8
RED2
6
CONTINUOUS
10
8.519
20
-7.694
11
8.514
21
-7.697
0
LINE
8
RED2
6
CONTINUOUS
10
6.969
20
-7.54
11
11.221
21
-7.54
0
LINE
8
RED2
6
CONTINUOUS
10
10.409
20
-7.629
11
10.389
21
-7.601
0
LINE
8
RED2
6
CONTINUOUS
10
10.375
20
-7.629
11
10.375
21
-7.57
0
LINE
8
RED2
6
CONTINUOUS
10
10.375
20
-7.57
11
10.398
21
-7.57
0
LINE
8
RED2
6
CONTINUOUS
10
10.398
20
-7.57
11
10.403
21
-7.573
0
LINE
8
RED2
6
CONTINUOUS
10
10.403
20
-7.573
11
10.406
21
-7.576
0
LINE
8
RED2
6
CONTINUOUS
10
10.406
20
-7.576
11
10.409
21
-7.581
0
LINE
8
RED2
6
CONTINUOUS
10
10.409
20
-7.581
11
10.409
21
-7.59
0
LINE
8
RED2
6
CONTINUOUS
10
10.409
20
-7.59
11
10.406
21
-7.595
0
LINE
8
RED2
6
CONTINUOUS
10
10.406
20
-7.595
11
10.403
21
-7.598
0
LINE
8
RED2
6
CONTINUOUS
10
10.403
20
-7.598
11
10.398
21
-7.601
0
LINE
8
RED2
6
CONTINUOUS
10
10.398
20
-7.601
11
10.375
21
-7.601
0
LINE
8
RED2
6
CONTINUOUS
10
10.457
20
-7.626
11
10.451
21
-7.629
0
LINE
8
RED2
6
CONTINUOUS
10
10.451
20
-7.629
11
10.44
21
-7.629
0
LINE
8
RED2
6
CONTINUOUS
10
10.44
20
-7.629
11
10.434
21
-7.626
0
LINE
8
RED2
6
CONTINUOUS
10
10.434
20
-7.626
11
10.432
21
-7.621
0
LINE
8
RED2
6
CONTINUOUS
10
10.432
20
-7.621
11
10.432
21
-7.598
0
LINE
8
RED2
6
CONTINUOUS
10
10.432
20
-7.598
11
10.434
21
-7.593
0
LINE
8
RED2
6
CONTINUOUS
10
10.434
20
-7.593
11
10.44
21
-7.59
0
LINE
8
RED2
6
CONTINUOUS
10
10.44
20
-7.59
11
10.451
21
-7.59
0
LINE
8
RED2
6
CONTINUOUS
10
10.451
20
-7.59
11
10.457
21
-7.593
0
LINE
8
RED2
6
CONTINUOUS
10
10.457
20
-7.593
11
10.46
21
-7.598
0
LINE
8
RED2
6
CONTINUOUS
10
10.46
20
-7.598
11
10.46
21
-7.604
0
LINE
8
RED2
6
CONTINUOUS
10
10.46
20
-7.604
11
10.432
21
-7.61
0
LINE
8
RED2
6
CONTINUOUS
10
10.479
20
-7.59
11
10.493
21
-7.629
0
LINE
8
RED2
6
CONTINUOUS
10
10.493
20
-7.629
11
10.507
21
-7.59
0
LINE
8
RED2
6
CONTINUOUS
10
10.53
20
-7.624
11
10.533
21
-7.626
0
LINE
8
RED2
6
CONTINUOUS
10
10.533
20
-7.626
11
10.53
21
-7.629
0
LINE
8
RED2
6
CONTINUOUS
10
10.53
20
-7.629
11
10.527
21
-7.626
0
LINE
8
RED2
6
CONTINUOUS
10
10.527
20
-7.626
11
10.53
21
-7.624
0
LINE
8
RED2
6
CONTINUOUS
10
10.53
20
-7.624
11
10.53
21
-7.629
0
LINE
8
RED2
6
CONTINUOUS
10
10.53
20
-7.593
11
10.533
21
-7.595
0
LINE
8
RED2
6
CONTINUOUS
10
10.533
20
-7.595
11
10.53
21
-7.598
0
LINE
8
RED2
6
CONTINUOUS
10
10.53
20
-7.598
11
10.527
21
-7.595
0
LINE
8
RED2
6
CONTINUOUS
10
10.527
20
-7.595
11
10.53
21
-7.593
0
LINE
8
RED2
6
CONTINUOUS
10
10.53
20
-7.593
11
10.53
21
-7.598
0
LINE
8
RED2
6
CONTINUOUS
10
7.022
20
-7.626
11
7.03
21
-7.629
0
LINE
8
RED2
6
CONTINUOUS
10
7.03
20
-7.629
11
7.044
21
-7.629
0
LINE
8
RED2
6
CONTINUOUS
10
7.044
20
-7.629
11
7.05
21
-7.626
0
LINE
8
RED2
6
CONTINUOUS
10
7.05
20
-7.626
11
7.053
21
-7.624
0
LINE
8
RED2
6
CONTINUOUS
10
7.053
20
-7.624
11
7.055
21
-7.618
0
LINE
8
RED2
6
CONTINUOUS
10
7.055
20
-7.618
11
7.055
21
-7.612
0
LINE
8
RED2
6
CONTINUOUS
10
7.055
20
-7.612
11
7.053
21
-7.607
0
LINE
8
RED2
6
CONTINUOUS
10
7.053
20
-7.607
11
7.05
21
-7.604
0
LINE
8
RED2
6
CONTINUOUS
10
7.05
20
-7.604
11
7.044
21
-7.601
0
LINE
8
RED2
6
CONTINUOUS
10
7.044
20
-7.601
11
7.033
21
-7.598
0
LINE
8
RED2
6
CONTINUOUS
10
7.033
20
-7.598
11
7.027
21
-7.595
0
LINE
8
RED2
6
CONTINUOUS
10
7.027
20
-7.595
11
7.025
21
-7.593
0
LINE
8
RED2
6
CONTINUOUS
10
7.025
20
-7.593
11
7.022
21
-7.587
0
LINE
8
RED2
6
CONTINUOUS
10
7.022
20
-7.587
11
7.022
21
-7.581
0
LINE
8
RED2
6
CONTINUOUS
10
7.022
20
-7.581
11
7.025
21
-7.576
0
LINE
8
RED2
6
CONTINUOUS
10
7.025
20
-7.576
11
7.027
21
-7.573
0
LINE
8
RED2
6
CONTINUOUS
10
7.027
20
-7.573
11
7.033
21
-7.57
0
LINE
8
RED2
6
CONTINUOUS
10
7.033
20
-7.57
11
7.047
21
-7.57
0
LINE
8
RED2
6
CONTINUOUS
10
7.047
20
-7.57
11
7.055
21
-7.573
0
LINE
8
RED2
6
CONTINUOUS
10
7.081
20
-7.629
11
7.081
21
-7.59
0
LINE
8
RED2
6
CONTINUOUS
10
7.081
20
-7.57
11
7.078
21
-7.573
0
LINE
8
RED2
6
CONTINUOUS
10
7.078
20
-7.573
11
7.081
21
-7.576
0
LINE
8
RED2
6
CONTINUOUS
10
7.081
20
-7.576
11
7.084
21
-7.573
0
LINE
8
RED2
6
CONTINUOUS
10
7.084
20
-7.573
11
7.081
21
-7.57
0
LINE
8
RED2
6
CONTINUOUS
10
7.081
20
-7.57
11
7.081
21
-7.576
0
LINE
8
RED2
6
CONTINUOUS
10
7.103
20
-7.59
11
7.134
21
-7.59
0
LINE
8
RED2
6
CONTINUOUS
10
7.134
20
-7.59
11
7.103
21
-7.629
0
LINE
8
RED2
6
CONTINUOUS
10
7.103
20
-7.629
11
7.134
21
-7.629
0
LINE
8
RED2
6
CONTINUOUS
10
7.179
20
-7.626
11
7.173
21
-7.629
0
LINE
8
RED2
6
CONTINUOUS
10
7.173
20
-7.629
11
7.162
21
-7.629
0
LINE
8
RED2
6
CONTINUOUS
10
7.162
20
-7.629
11
7.157
21
-7.626
0
LINE
8
RED2
6
CONTINUOUS
10
7.157
20
-7.626
11
7.154
21
-7.621
0
LINE
8
RED2
6
CONTINUOUS
10
7.154
20
-7.621
11
7.154
21
-7.598
0
LINE
8
RED2
6
CONTINUOUS
10
7.154
20
-7.598
11
7.157
21
-7.593
0
LINE
8
RED2
6
CONTINUOUS
10
7.157
20
-7.593
11
7.162
21
-7.59
0
LINE
8
RED2
6
CONTINUOUS
10
7.162
20
-7.59
11
7.173
21
-7.59
0
LINE
8
RED2
6
CONTINUOUS
10
7.173
20
-7.59
11
7.179
21
-7.593
0
LINE
8
RED2
6
CONTINUOUS
10
7.179
20
-7.593
11
7.182
21
-7.598
0
LINE
8
RED2
6
CONTINUOUS
10
7.182
20
-7.598
11
7.182
21
-7.604
0
LINE
8
RED2
6
CONTINUOUS
10
7.182
20
-7.604
11
7.154
21
-7.61
0
LINE
8
RED2
6
CONTINUOUS
10
7.207
20
-7.624
11
7.21
21
-7.626
0
LINE
8
RED2
6
CONTINUOUS
10
7.21
20
-7.626
11
7.207
21
-7.629
0
LINE
8
RED2
6
CONTINUOUS
10
7.207
20
-7.629
11
7.204
21
-7.626
0
LINE
8
RED2
6
CONTINUOUS
10
7.204
20
-7.626
11
7.207
21
-7.624
0
LINE
8
RED2
6
CONTINUOUS
10
7.207
20
-7.624
11
7.207
21
-7.629
0
LINE
8
RED2
6
CONTINUOUS
10
7.207
20
-7.593
11
7.21
21
-7.595
0
LINE
8
RED2
6
CONTINUOUS
10
7.21
20
-7.595
11
7.207
21
-7.598
0
LINE
8
RED2
6
CONTINUOUS
10
7.207
20
-7.598
11
7.204
21
-7.595
0
LINE
8
RED2
6
CONTINUOUS
10
7.204
20
-7.595
11
7.207
21
-7.593
0
LINE
8
RED2
6
CONTINUOUS
10
7.207
20
-7.593
11
7.207
21
-7.598
0
LINE
8
RED2
6
CONTINUOUS
10
7.277
20
-7.612
11
7.306
21
-7.612
0
LINE
8
RED2
6
CONTINUOUS
10
7.272
20
-7.629
11
7.291
21
-7.57
0
LINE
8
RED2
6
CONTINUOUS
10
7.291
20
-7.57
11
7.311
21
-7.629
0
LINE
8
RED2
6
CONTINUOUS
10
7.356
20
-7.59
11
7.356
21
-7.629
0
LINE
8
RED2
6
CONTINUOUS
10
7.342
20
-7.567
11
7.328
21
-7.61
0
LINE
8
RED2
6
CONTINUOUS
10
7.328
20
-7.61
11
7.365
21
-7.61
0
LINE
8
RED2
6
CONTINUOUS
10
10.371
20
-7.739
11
10.371
21
-7.68
0
LINE
8
RED2
6
CONTINUOUS
10
10.424
20
-7.739
11
10.424
21
-7.68
0
LINE
8
RED2
6
CONTINUOUS
10
10.424
20
-7.736
11
10.418
21
-7.739
0
LINE
8
RED2
6
CONTINUOUS
10
10.418
20
-7.739
11
10.407
21
-7.739
0
LINE
8
RED2
6
CONTINUOUS
10
10.407
20
-7.739
11
10.401
21
-7.736
0
LINE
8
RED2
6
CONTINUOUS
10
10.401
20
-7.736
11
10.399
21
-7.734
0
LINE
8
RED2
6
CONTINUOUS
10
10.399
20
-7.734
11
10.396
21
-7.728
0
LINE
8
RED2
6
CONTINUOUS
10
10.396
20
-7.728
11
10.396
21
-7.711
0
LINE
8
RED2
6
CONTINUOUS
10
10.396
20
-7.711
11
10.399
21
-7.705
0
LINE
8
RED2
6
CONTINUOUS
10
10.399
20
-7.705
11
10.401
21
-7.703
0
LINE
8
RED2
6
CONTINUOUS
10
10.401
20
-7.703
11
10.407
21
-7.7
0
LINE
8
RED2
6
CONTINUOUS
10
10.407
20
-7.7
11
10.418
21
-7.7
0
LINE
8
RED2
6
CONTINUOUS
10
10.418
20
-7.7
11
10.424
21
-7.703
0
LINE
8
RED2
6
CONTINUOUS
10
10.452
20
-7.734
11
10.455
21
-7.736
0
LINE
8
RED2
6
CONTINUOUS
10
10.455
20
-7.736
11
10.452
21
-7.739
0
LINE
8
RED2
6
CONTINUOUS
10
10.452
20
-7.739
11
10.449
21
-7.736
0
LINE
8
RED2
6
CONTINUOUS
10
10.449
20
-7.736
11
10.452
21
-7.734
0
LINE
8
RED2
6
CONTINUOUS
10
10.452
20
-7.734
11
10.452
21
-7.739
0
LINE
8
RED2
6
CONTINUOUS
10
10.452
20
-7.703
11
10.455
21
-7.705
0
LINE
8
RED2
6
CONTINUOUS
10
10.455
20
-7.705
11
10.452
21
-7.708
0
LINE
8
RED2
6
CONTINUOUS
10
10.452
20
-7.708
11
10.449
21
-7.705
0
LINE
8
RED2
6
CONTINUOUS
10
10.449
20
-7.705
11
10.452
21
-7.703
0
LINE
8
RED2
6
CONTINUOUS
10
10.452
20
-7.703
11
10.452
21
-7.708
0
LINE
8
RED2
6
CONTINUOUS
10
10.556
20
-7.739
11
10.522
21
-7.739
0
LINE
8
RED2
6
CONTINUOUS
10
10.539
20
-7.739
11
10.539
21
-7.68
0
LINE
8
RED2
6
CONTINUOUS
10
10.539
20
-7.68
11
10.534
21
-7.689
0
LINE
8
RED2
6
CONTINUOUS
10
10.534
20
-7.689
11
10.528
21
-7.694
0
LINE
8
RED2
6
CONTINUOUS
10
10.528
20
-7.694
11
10.522
21
-7.697
0
LINE
8
RED2
6
CONTINUOUS
10
10.623
20
-7.677
11
10.573
21
-7.753
0
LINE
8
RED2
6
CONTINUOUS
10
10.674
20
-7.739
11
10.64
21
-7.739
0
LINE
8
RED2
6
CONTINUOUS
10
10.657
20
-7.739
11
10.657
21
-7.68
0
LINE
8
RED2
6
CONTINUOUS
10
10.657
20
-7.68
11
10.652
21
-7.689
0
LINE
8
RED2
6
CONTINUOUS
10
10.652
20
-7.689
11
10.646
21
-7.694
0
LINE
8
RED2
6
CONTINUOUS
10
10.646
20
-7.694
11
10.64
21
-7.697
0
LINE
8
RED2
6
CONTINUOUS
10
6.969
20
-7.382
11
11.221
21
-7.382
0
LINE
8
RED2
6
CONTINUOUS
10
7.036
20
-7.409
11
7.081
21
-7.409
0
LINE
8
RED2
6
CONTINUOUS
10
7.048
20
-7.488
11
7.058
21
-7.409
0
LINE
8
RED2
6
CONTINUOUS
10
7.097
20
-7.488
11
7.104
21
-7.436
0
LINE
8
RED2
6
CONTINUOUS
10
7.107
20
-7.409
11
7.103
21
-7.413
0
LINE
8
RED2
6
CONTINUOUS
10
7.103
20
-7.413
11
7.106
21
-7.417
0
LINE
8
RED2
6
CONTINUOUS
10
7.106
20
-7.417
11
7.111
21
-7.413
0
LINE
8
RED2
6
CONTINUOUS
10
7.111
20
-7.413
11
7.107
21
-7.409
0
LINE
8
RED2
6
CONTINUOUS
10
7.107
20
-7.409
11
7.106
21
-7.417
0
LINE
8
RED2
6
CONTINUOUS
10
7.13
20
-7.436
11
7.16
21
-7.436
0
LINE
8
RED2
6
CONTINUOUS
10
7.145
20
-7.409
11
7.136
21
-7.477
0
LINE
8
RED2
6
CONTINUOUS
10
7.136
20
-7.477
11
7.139
21
-7.484
0
LINE
8
RED2
6
CONTINUOUS
10
7.139
20
-7.484
11
7.146
21
-7.488
0
LINE
8
RED2
6
CONTINUOUS
10
7.146
20
-7.488
11
7.154
21
-7.488
0
LINE
8
RED2
6
CONTINUOUS
10
7.191
20
-7.488
11
7.184
21
-7.484
0
LINE
8
RED2
6
CONTINUOUS
10
7.184
20
-7.484
11
7.182
21
-7.477
0
LINE
8
RED2
6
CONTINUOUS
10
7.182
20
-7.477
11
7.19
21
-7.409
0
LINE
8
RED2
6
CONTINUOUS
10
7.252
20
-7.484
11
7.244
21
-7.488
0
LINE
8
RED2
6
CONTINUOUS
10
7.244
20
-7.488
11
7.229
21
-7.488
0
LINE
8
RED2
6
CONTINUOUS
10
7.229
20
-7.488
11
7.222
21
-7.484
0
LINE
8
RED2
6
CONTINUOUS
10
7.222
20
-7.484
11
7.219
21
-7.477
0
LINE
8
RED2
6
CONTINUOUS
10
7.219
20
-7.477
11
7.223
21
-7.447
0
LINE
8
RED2
6
CONTINUOUS
10
7.223
20
-7.447
11
7.228
21
-7.439
0
LINE
8
RED2
6
CONTINUOUS
10
7.228
20
-7.439
11
7.236
21
-7.436
0
LINE
8
RED2
6
CONTINUOUS
10
7.236
20
-7.436
11
7.251
21
-7.436
0
LINE
8
RED2
6
CONTINUOUS
10
7.251
20
-7.436
11
7.258
21
-7.439
0
LINE
8
RED2
6
CONTINUOUS
10
7.258
20
-7.439
11
7.261
21
-7.447
0
LINE
8
RED2
6
CONTINUOUS
10
7.261
20
-7.447
11
7.26
21
-7.454
0
LINE
8
RED2
6
CONTINUOUS
10
7.26
20
-7.454
11
7.221
21
-7.462
0
LINE
8
RED2
6
CONTINUOUS
10
7.29
20
-7.481
11
7.293
21
-7.484
0
LINE
8
RED2
6
CONTINUOUS
10
7.293
20
-7.484
11
7.289
21
-7.488
0
LINE
8
RED2
6
CONTINUOUS
10
7.289
20
-7.488
11
7.286
21
-7.484
0
LINE
8
RED2
6
CONTINUOUS
10
7.286
20
-7.484
11
7.29
21
-7.481
0
LINE
8
RED2
6
CONTINUOUS
10
7.29
20
-7.481
11
7.289
21
-7.488
0
LINE
8
RED2
6
CONTINUOUS
10
7.295
20
-7.439
11
7.299
21
-7.443
0
LINE
8
RED2
6
CONTINUOUS
10
7.299
20
-7.443
11
7.294
21
-7.447
0
LINE
8
RED2
6
CONTINUOUS
10
7.294
20
-7.447
11
7.291
21
-7.443
0
LINE
8
RED2
6
CONTINUOUS
10
7.291
20
-7.443
11
7.295
21
-7.439
0
LINE
8
RED2
6
CONTINUOUS
10
7.295
20
-7.439
11
7.294
21
-7.447
0
LINE
8
RED2
6
CONTINUOUS
10
7.044
20
-7.306
11
7.025
21
-7.306
0
LINE
8
RED2
6
CONTINUOUS
10
7.025
20
-7.337
11
7.025
21
-7.278
0
LINE
8
RED2
6
CONTINUOUS
10
7.025
20
-7.278
11
7.053
21
-7.278
0
LINE
8
RED2
6
CONTINUOUS
10
7.075
20
-7.337
11
7.075
21
-7.298
0
LINE
8
RED2
6
CONTINUOUS
10
7.075
20
-7.278
11
7.072
21
-7.281
0
LINE
8
RED2
6
CONTINUOUS
10
7.072
20
-7.281
11
7.075
21
-7.284
0
LINE
8
RED2
6
CONTINUOUS
10
7.075
20
-7.284
11
7.078
21
-7.281
0
LINE
8
RED2
6
CONTINUOUS
10
7.078
20
-7.281
11
7.075
21
-7.278
0
LINE
8
RED2
6
CONTINUOUS
10
7.075
20
-7.278
11
7.075
21
-7.284
0
LINE
8
RED2
6
CONTINUOUS
10
7.112
20
-7.337
11
7.106
21
-7.334
0
LINE
8
RED2
6
CONTINUOUS
10
7.106
20
-7.334
11
7.103
21
-7.329
0
LINE
8
RED2
6
CONTINUOUS
10
7.103
20
-7.329
11
7.103
21
-7.278
0
LINE
8
RED2
6
CONTINUOUS
10
7.157
20
-7.334
11
7.151
21
-7.337
0
LINE
8
RED2
6
CONTINUOUS
10
7.151
20
-7.337
11
7.14
21
-7.337
0
LINE
8
RED2
6
CONTINUOUS
10
7.14
20
-7.337
11
7.134
21
-7.334
0
LINE
8
RED2
6
CONTINUOUS
10
7.134
20
-7.334
11
7.131
21
-7.329
0
LINE
8
RED2
6
CONTINUOUS
10
7.131
20
-7.329
11
7.131
21
-7.306
0
LINE
8
RED2
6
CONTINUOUS
10
7.131
20
-7.306
11
7.134
21
-7.301
0
LINE
8
RED2
6
CONTINUOUS
10
7.134
20
-7.301
11
7.14
21
-7.298
0
LINE
8
RED2
6
CONTINUOUS
10
7.14
20
-7.298
11
7.151
21
-7.298
0
LINE
8
RED2
6
CONTINUOUS
10
7.151
20
-7.298
11
7.157
21
-7.301
0
LINE
8
RED2
6
CONTINUOUS
10
7.157
20
-7.301
11
7.159
21
-7.306
0
LINE
8
RED2
6
CONTINUOUS
10
7.159
20
-7.306
11
7.159
21
-7.312
0
LINE
8
RED2
6
CONTINUOUS
10
7.159
20
-7.312
11
7.131
21
-7.318
0
LINE
8
RED2
6
CONTINUOUS
10
7.185
20
-7.332
11
7.188
21
-7.334
0
LINE
8
RED2
6
CONTINUOUS
10
7.188
20
-7.334
11
7.185
21
-7.337
0
LINE
8
RED2
6
CONTINUOUS
10
7.185
20
-7.337
11
7.182
21
-7.334
0
LINE
8
RED2
6
CONTINUOUS
10
7.182
20
-7.334
11
7.185
21
-7.332
0
LINE
8
RED2
6
CONTINUOUS
10
7.185
20
-7.332
11
7.185
21
-7.337
0
LINE
8
RED2
6
CONTINUOUS
10
7.185
20
-7.301
11
7.188
21
-7.303
0
LINE
8
RED2
6
CONTINUOUS
10
7.188
20
-7.303
11
7.185
21
-7.306
0
LINE
8
RED2
6
CONTINUOUS
10
7.185
20
-7.306
11
7.182
21
-7.303
0
LINE
8
RED2
6
CONTINUOUS
10
7.182
20
-7.303
11
7.185
21
-7.301
0
LINE
8
RED2
6
CONTINUOUS
10
7.185
20
-7.301
11
7.185
21
-7.306
0
LINE
8
RED2
6
CONTINUOUS
10
7.258
20
-7.337
11
7.258
21
-7.278
0
LINE
8
RED2
6
CONTINUOUS
10
7.258
20
-7.278
11
7.272
21
-7.278
0
LINE
8
RED2
6
CONTINUOUS
10
7.272
20
-7.278
11
7.28
21
-7.281
0
LINE
8
RED2
6
CONTINUOUS
10
7.28
20
-7.281
11
7.286
21
-7.287
0
LINE
8
RED2
6
CONTINUOUS
10
7.286
20
-7.287
11
7.289
21
-7.292
0
LINE
8
RED2
6
CONTINUOUS
10
7.289
20
-7.292
11
7.291
21
-7.303
0
LINE
8
RED2
6
CONTINUOUS
10
7.291
20
-7.303
11
7.291
21
-7.312
0
LINE
8
RED2
6
CONTINUOUS
10
7.291
20
-7.312
11
7.289
21
-7.323
0
LINE
8
RED2
6
CONTINUOUS
10
7.289
20
-7.323
11
7.286
21
-7.329
0
LINE
8
RED2
6
CONTINUOUS
10
7.286
20
-7.329
11
7.28
21
-7.334
0
LINE
8
RED2
6
CONTINUOUS
10
7.28
20
-7.334
11
7.272
21
-7.337
0
LINE
8
RED2
6
CONTINUOUS
10
7.272
20
-7.337
11
7.258
21
-7.337
0
LINE
8
RED2
6
CONTINUOUS
10
7.314
20
-7.334
11
7.322
21
-7.337
0
LINE
8
RED2
6
CONTINUOUS
10
7.322
20
-7.337
11
7.336
21
-7.337
0
LINE
8
RED2
6
CONTINUOUS
10
7.336
20
-7.337
11
7.342
21
-7.334
0
LINE
8
RED2
6
CONTINUOUS
10
7.342
20
-7.334
11
7.345
21
-7.332
0
LINE
8
RED2
6
CONTINUOUS
10
7.345
20
-7.332
11
7.348
21
-7.326
0
LINE
8
RED2
6
CONTINUOUS
10
7.348
20
-7.326
11
7.348
21
-7.32
0
LINE
8
RED2
6
CONTINUOUS
10
7.348
20
-7.32
11
7.345
21
-7.315
0
LINE
8
RED2
6
CONTINUOUS
10
7.345
20
-7.315
11
7.342
21
-7.312
0
LINE
8
RED2
6
CONTINUOUS
10
7.342
20
-7.312
11
7.336
21
-7.309
0
LINE
8
RED2
6
CONTINUOUS
10
7.336
20
-7.309
11
7.325
21
-7.306
0
LINE
8
RED2
6
CONTINUOUS
10
7.325
20
-7.306
11
7.32
21
-7.303
0
LINE
8
RED2
6
CONTINUOUS
10
7.32
20
-7.303
11
7.317
21
-7.301
0
LINE
8
RED2
6
CONTINUOUS
10
7.317
20
-7.301
11
7.314
21
-7.295
0
LINE
8
RED2
6
CONTINUOUS
10
7.314
20
-7.295
11
7.314
21
-7.289
0
LINE
8
RED2
6
CONTINUOUS
10
7.314
20
-7.289
11
7.317
21
-7.284
0
LINE
8
RED2
6
CONTINUOUS
10
7.317
20
-7.284
11
7.32
21
-7.281
0
LINE
8
RED2
6
CONTINUOUS
10
7.32
20
-7.281
11
7.325
21
-7.278
0
LINE
8
RED2
6
CONTINUOUS
10
7.325
20
-7.278
11
7.339
21
-7.278
0
LINE
8
RED2
6
CONTINUOUS
10
7.339
20
-7.278
11
7.348
21
-7.281
0
LINE
8
RED2
6
CONTINUOUS
10
7.404
20
-7.337
11
7.37
21
-7.337
0
LINE
8
RED2
6
CONTINUOUS
10
7.387
20
-7.337
11
7.387
21
-7.278
0
LINE
8
RED2
6
CONTINUOUS
10
7.387
20
-7.278
11
7.381
21
-7.287
0
LINE
8
RED2
6
CONTINUOUS
10
7.381
20
-7.287
11
7.376
21
-7.292
0
LINE
8
RED2
6
CONTINUOUS
10
7.376
20
-7.292
11
7.37
21
-7.295
0
LINE
8
RED2
6
CONTINUOUS
10
7.424
20
-7.278
11
7.46
21
-7.278
0
LINE
8
RED2
6
CONTINUOUS
10
7.46
20
-7.278
11
7.44
21
-7.301
0
LINE
8
RED2
6
CONTINUOUS
10
7.44
20
-7.301
11
7.449
21
-7.301
0
LINE
8
RED2
6
CONTINUOUS
10
7.449
20
-7.301
11
7.454
21
-7.303
0
LINE
8
RED2
6
CONTINUOUS
10
7.454
20
-7.303
11
7.457
21
-7.306
0
LINE
8
RED2
6
CONTINUOUS
10
7.457
20
-7.306
11
7.46
21
-7.312
0
LINE
8
RED2
6
CONTINUOUS
10
7.46
20
-7.312
11
7.46
21
-7.326
0
LINE
8
RED2
6
CONTINUOUS
10
7.46
20
-7.326
11
7.457
21
-7.332
0
LINE
8
RED2
6
CONTINUOUS
10
7.457
20
-7.332
11
7.454
21
-7.334
0
LINE
8
RED2
6
CONTINUOUS
10
7.454
20
-7.334
11
7.449
21
-7.337
0
LINE
8
RED2
6
CONTINUOUS
10
7.449
20
-7.337
11
7.432
21
-7.337
0
LINE
8
RED2
6
CONTINUOUS
10
7.432
20
-7.337
11
7.426
21
-7.334
0
LINE
8
RED2
6
CONTINUOUS
10
7.426
20
-7.334
11
7.424
21
-7.332
0
LINE
8
RED2
6
CONTINUOUS
10
7.497
20
-7.278
11
7.502
21
-7.278
0
LINE
8
RED2
6
CONTINUOUS
10
7.502
20
-7.278
11
7.508
21
-7.281
0
LINE
8
RED2
6
CONTINUOUS
10
7.508
20
-7.281
11
7.511
21
-7.284
0
LINE
8
RED2
6
CONTINUOUS
10
7.511
20
-7.284
11
7.513
21
-7.289
0
LINE
8
RED2
6
CONTINUOUS
10
7.513
20
-7.289
11
7.516
21
-7.301
0
LINE
8
RED2
6
CONTINUOUS
10
7.516
20
-7.301
11
7.516
21
-7.315
0
LINE
8
RED2
6
CONTINUOUS
10
7.516
20
-7.315
11
7.513
21
-7.326
0
LINE
8
RED2
6
CONTINUOUS
10
7.513
20
-7.326
11
7.511
21
-7.332
0
LINE
8
RED2
6
CONTINUOUS
10
7.511
20
-7.332
11
7.508
21
-7.334
0
LINE
8
RED2
6
CONTINUOUS
10
7.508
20
-7.334
11
7.502
21
-7.337
0
LINE
8
RED2
6
CONTINUOUS
10
7.502
20
-7.337
11
7.497
21
-7.337
0
LINE
8
RED2
6
CONTINUOUS
10
7.497
20
-7.337
11
7.491
21
-7.334
0
LINE
8
RED2
6
CONTINUOUS
10
7.491
20
-7.334
11
7.488
21
-7.332
0
LINE
8
RED2
6
CONTINUOUS
10
7.488
20
-7.332
11
7.485
21
-7.326
0
LINE
8
RED2
6
CONTINUOUS
10
7.485
20
-7.326
11
7.483
21
-7.315
0
LINE
8
RED2
6
CONTINUOUS
10
7.483
20
-7.315
11
7.483
21
-7.301
0
LINE
8
RED2
6
CONTINUOUS
10
7.483
20
-7.301
11
7.485
21
-7.289
0
LINE
8
RED2
6
CONTINUOUS
10
7.485
20
-7.289
11
7.488
21
-7.284
0
LINE
8
RED2
6
CONTINUOUS
10
7.488
20
-7.284
11
7.491
21
-7.281
0
LINE
8
RED2
6
CONTINUOUS
10
7.491
20
-7.281
11
7.497
21
-7.278
0
LINE
8
RED2
6
CONTINUOUS
10
7.539
20
-7.284
11
7.542
21
-7.281
0
LINE
8
RED2
6
CONTINUOUS
10
7.542
20
-7.281
11
7.547
21
-7.278
0
LINE
8
RED2
6
CONTINUOUS
10
7.547
20
-7.278
11
7.561
21
-7.278
0
LINE
8
RED2
6
CONTINUOUS
10
7.561
20
-7.278
11
7.567
21
-7.281
0
LINE
8
RED2
6
CONTINUOUS
10
7.567
20
-7.281
11
7.57
21
-7.284
0
LINE
8
RED2
6
CONTINUOUS
10
7.57
20
-7.284
11
7.572
21
-7.289
0
LINE
8
RED2
6
CONTINUOUS
10
7.572
20
-7.289
11
7.572
21
-7.295
0
LINE
8
RED2
6
CONTINUOUS
10
7.572
20
-7.295
11
7.57
21
-7.303
0
LINE
8
RED2
6
CONTINUOUS
10
7.57
20
-7.303
11
7.536
21
-7.337
0
LINE
8
RED2
6
CONTINUOUS
10
7.536
20
-7.337
11
7.572
21
-7.337
0
LINE
8
RED2
6
CONTINUOUS
10
7.598
20
-7.332
11
7.601
21
-7.334
0
LINE
8
RED2
6
CONTINUOUS
10
7.601
20
-7.334
11
7.598
21
-7.337
0
LINE
8
RED2
6
CONTINUOUS
10
7.598
20
-7.337
11
7.595
21
-7.334
0
LINE
8
RED2
6
CONTINUOUS
10
7.595
20
-7.334
11
7.598
21
-7.332
0
LINE
8
RED2
6
CONTINUOUS
10
7.598
20
-7.332
11
7.598
21
-7.337
0
LINE
8
RED2
6
CONTINUOUS
10
7.623
20
-7.334
11
7.629
21
-7.337
0
LINE
8
RED2
6
CONTINUOUS
10
7.629
20
-7.337
11
7.64
21
-7.337
0
LINE
8
RED2
6
CONTINUOUS
10
7.64
20
-7.337
11
7.645
21
-7.334
0
LINE
8
RED2
6
CONTINUOUS
10
7.645
20
-7.334
11
7.648
21
-7.329
0
LINE
8
RED2
6
CONTINUOUS
10
7.648
20
-7.329
11
7.648
21
-7.326
0
LINE
8
RED2
6
CONTINUOUS
10
7.648
20
-7.326
11
7.645
21
-7.32
0
LINE
8
RED2
6
CONTINUOUS
10
7.645
20
-7.32
11
7.64
21
-7.318
0
LINE
8
RED2
6
CONTINUOUS
10
7.64
20
-7.318
11
7.631
21
-7.318
0
LINE
8
RED2
6
CONTINUOUS
10
7.631
20
-7.318
11
7.626
21
-7.315
0
LINE
8
RED2
6
CONTINUOUS
10
7.626
20
-7.315
11
7.623
21
-7.309
0
LINE
8
RED2
6
CONTINUOUS
10
7.623
20
-7.309
11
7.623
21
-7.306
0
LINE
8
RED2
6
CONTINUOUS
10
7.623
20
-7.306
11
7.626
21
-7.301
0
LINE
8
RED2
6
CONTINUOUS
10
7.626
20
-7.301
11
7.631
21
-7.298
0
LINE
8
RED2
6
CONTINUOUS
10
7.631
20
-7.298
11
7.64
21
-7.298
0
LINE
8
RED2
6
CONTINUOUS
10
7.64
20
-7.298
11
7.645
21
-7.301
0
LINE
8
RED2
6
CONTINUOUS
10
7.699
20
-7.334
11
7.693
21
-7.337
0
LINE
8
RED2
6
CONTINUOUS
10
7.693
20
-7.337
11
7.682
21
-7.337
0
LINE
8
RED2
6
CONTINUOUS
10
7.682
20
-7.337
11
7.676
21
-7.334
0
LINE
8
RED2
6
CONTINUOUS
10
7.676
20
-7.334
11
7.674
21
-7.332
0
LINE
8
RED2
6
CONTINUOUS
10
7.674
20
-7.332
11
7.671
21
-7.326
0
LINE
8
RED2
6
CONTINUOUS
10
7.671
20
-7.326
11
7.671
21
-7.309
0
LINE
8
RED2
6
CONTINUOUS
10
7.671
20
-7.309
11
7.674
21
-7.303
0
LINE
8
RED2
6
CONTINUOUS
10
7.674
20
-7.303
11
7.676
21
-7.301
0
LINE
8
RED2
6
CONTINUOUS
10
7.676
20
-7.301
11
7.682
21
-7.298
0
LINE
8
RED2
6
CONTINUOUS
10
7.682
20
-7.298
11
7.693
21
-7.298
0
LINE
8
RED2
6
CONTINUOUS
10
7.693
20
-7.298
11
7.699
21
-7.301
0
LINE
8
RED2
6
CONTINUOUS
10
7.724
20
-7.337
11
7.724
21
-7.278
0
LINE
8
RED2
6
CONTINUOUS
10
7.749
20
-7.337
11
7.749
21
-7.306
0
LINE
8
RED2
6
CONTINUOUS
10
7.749
20
-7.306
11
7.747
21
-7.301
0
LINE
8
RED2
6
CONTINUOUS
10
7.747
20
-7.301
11
7.741
21
-7.298
0
LINE
8
RED2
6
CONTINUOUS
10
7.741
20
-7.298
11
7.733
21
-7.298
0
LINE
8
RED2
6
CONTINUOUS
10
7.733
20
-7.298
11
7.727
21
-7.301
0
LINE
8
RED2
6
CONTINUOUS
10
7.727
20
-7.301
11
7.724
21
-7.303
0
LINE
8
RED2
6
CONTINUOUS
10
6.969
20
-7.146
11
11.221
21
-7.146
0
LINE
8
RED2
6
CONTINUOUS
10
7.022
20
-7.228
11
7.03
21
-7.231
0
LINE
8
RED2
6
CONTINUOUS
10
7.03
20
-7.231
11
7.044
21
-7.231
0
LINE
8
RED2
6
CONTINUOUS
10
7.044
20
-7.231
11
7.05
21
-7.228
0
LINE
8
RED2
6
CONTINUOUS
10
7.05
20
-7.228
11
7.053
21
-7.226
0
LINE
8
RED2
6
CONTINUOUS
10
7.053
20
-7.226
11
7.055
21
-7.22
0
LINE
8
RED2
6
CONTINUOUS
10
7.055
20
-7.22
11
7.055
21
-7.214
0
LINE
8
RED2
6
CONTINUOUS
10
7.055
20
-7.214
11
7.053
21
-7.209
0
LINE
8
RED2
6
CONTINUOUS
10
7.053
20
-7.209
11
7.05
21
-7.206
0
LINE
8
RED2
6
CONTINUOUS
10
7.05
20
-7.206
11
7.044
21
-7.203
0
LINE
8
RED2
6
CONTINUOUS
10
7.044
20
-7.203
11
7.033
21
-7.2
0
LINE
8
RED2
6
CONTINUOUS
10
7.033
20
-7.2
11
7.027
21
-7.197
0
LINE
8
RED2
6
CONTINUOUS
10
7.027
20
-7.197
11
7.025
21
-7.195
0
LINE
8
RED2
6
CONTINUOUS
10
7.025
20
-7.195
11
7.022
21
-7.189
0
LINE
8
RED2
6
CONTINUOUS
10
7.022
20
-7.189
11
7.022
21
-7.183
0
LINE
8
RED2
6
CONTINUOUS
10
7.022
20
-7.183
11
7.025
21
-7.178
0
LINE
8
RED2
6
CONTINUOUS
10
7.025
20
-7.178
11
7.027
21
-7.175
0
LINE
8
RED2
6
CONTINUOUS
10
7.027
20
-7.175
11
7.033
21
-7.172
0
LINE
8
RED2
6
CONTINUOUS
10
7.033
20
-7.172
11
7.047
21
-7.172
0
LINE
8
RED2
6
CONTINUOUS
10
7.047
20
-7.172
11
7.055
21
-7.175
0
LINE
8
RED2
6
CONTINUOUS
10
7.081
20
-7.231
11
7.081
21
-7.172
0
LINE
8
RED2
6
CONTINUOUS
10
7.106
20
-7.231
11
7.106
21
-7.2
0
LINE
8
RED2
6
CONTINUOUS
10
7.106
20
-7.2
11
7.103
21
-7.195
0
LINE
8
RED2
6
CONTINUOUS
10
7.103
20
-7.195
11
7.098
21
-7.192
0
LINE
8
RED2
6
CONTINUOUS
10
7.098
20
-7.192
11
7.089
21
-7.192
0
LINE
8
RED2
6
CONTINUOUS
10
7.089
20
-7.192
11
7.084
21
-7.195
0
LINE
8
RED2
6
CONTINUOUS
10
7.084
20
-7.195
11
7.081
21
-7.197
0
LINE
8
RED2
6
CONTINUOUS
10
7.157
20
-7.228
11
7.151
21
-7.231
0
LINE
8
RED2
6
CONTINUOUS
10
7.151
20
-7.231
11
7.14
21
-7.231
0
LINE
8
RED2
6
CONTINUOUS
10
7.14
20
-7.231
11
7.134
21
-7.228
0
LINE
8
RED2
6
CONTINUOUS
10
7.134
20
-7.228
11
7.131
21
-7.223
0
LINE
8
RED2
6
CONTINUOUS
10
7.131
20
-7.223
11
7.131
21
-7.2
0
LINE
8
RED2
6
CONTINUOUS
10
7.131
20
-7.2
11
7.134
21
-7.195
0
LINE
8
RED2
6
CONTINUOUS
10
7.134
20
-7.195
11
7.14
21
-7.192
0
LINE
8
RED2
6
CONTINUOUS
10
7.14
20
-7.192
11
7.151
21
-7.192
0
LINE
8
RED2
6
CONTINUOUS
10
7.151
20
-7.192
11
7.157
21
-7.195
0
LINE
8
RED2
6
CONTINUOUS
10
7.157
20
-7.195
11
7.159
21
-7.2
0
LINE
8
RED2
6
CONTINUOUS
10
7.159
20
-7.2
11
7.159
21
-7.206
0
LINE
8
RED2
6
CONTINUOUS
10
7.159
20
-7.206
11
7.131
21
-7.212
0
LINE
8
RED2
6
CONTINUOUS
10
7.207
20
-7.228
11
7.202
21
-7.231
0
LINE
8
RED2
6
CONTINUOUS
10
7.202
20
-7.231
11
7.19
21
-7.231
0
LINE
8
RED2
6
CONTINUOUS
10
7.19
20
-7.231
11
7.185
21
-7.228
0
LINE
8
RED2
6
CONTINUOUS
10
7.185
20
-7.228
11
7.182
21
-7.223
0
LINE
8
RED2
6
CONTINUOUS
10
7.182
20
-7.223
11
7.182
21
-7.2
0
LINE
8
RED2
6
CONTINUOUS
10
7.182
20
-7.2
11
7.185
21
-7.195
0
LINE
8
RED2
6
CONTINUOUS
10
7.185
20
-7.195
11
7.19
21
-7.192
0
LINE
8
RED2
6
CONTINUOUS
10
7.19
20
-7.192
11
7.202
21
-7.192
0
LINE
8
RED2
6
CONTINUOUS
10
7.202
20
-7.192
11
7.207
21
-7.195
0
LINE
8
RED2
6
CONTINUOUS
10
7.207
20
-7.195
11
7.21
21
-7.2
0
LINE
8
RED2
6
CONTINUOUS
10
7.21
20
-7.2
11
7.21
21
-7.206
0
LINE
8
RED2
6
CONTINUOUS
10
7.21
20
-7.206
11
7.182
21
-7.212
0
LINE
8
RED2
6
CONTINUOUS
10
7.227
20
-7.192
11
7.249
21
-7.192
0
LINE
8
RED2
6
CONTINUOUS
10
7.235
20
-7.172
11
7.235
21
-7.223
0
LINE
8
RED2
6
CONTINUOUS
10
7.235
20
-7.223
11
7.238
21
-7.228
0
LINE
8
RED2
6
CONTINUOUS
10
7.238
20
-7.228
11
7.244
21
-7.231
0
LINE
8
RED2
6
CONTINUOUS
10
7.244
20
-7.231
11
7.249
21
-7.231
0
LINE
8
RED2
6
CONTINUOUS
10
7.269
20
-7.226
11
7.272
21
-7.228
0
LINE
8
RED2
6
CONTINUOUS
10
7.272
20
-7.228
11
7.269
21
-7.231
0
LINE
8
RED2
6
CONTINUOUS
10
7.269
20
-7.231
11
7.266
21
-7.228
0
LINE
8
RED2
6
CONTINUOUS
10
7.266
20
-7.228
11
7.269
21
-7.226
0
LINE
8
RED2
6
CONTINUOUS
10
7.269
20
-7.226
11
7.269
21
-7.231
0
LINE
8
RED2
6
CONTINUOUS
10
7.269
20
-7.195
11
7.272
21
-7.197
0
LINE
8
RED2
6
CONTINUOUS
10
7.272
20
-7.197
11
7.269
21
-7.2
0
LINE
8
RED2
6
CONTINUOUS
10
7.269
20
-7.2
11
7.266
21
-7.197
0
LINE
8
RED2
6
CONTINUOUS
10
7.266
20
-7.197
11
7.269
21
-7.195
0
LINE
8
RED2
6
CONTINUOUS
10
7.269
20
-7.195
11
7.269
21
-7.2
0
LINE
8
RED2
6
CONTINUOUS
10
7.384
20
-7.169
11
7.334
21
-7.245
0
LINE
8
RED2
6
CONTINUOUS
10
7.756
20
-7.54
11
7.756
21
-7.658
0
LINE
8
RED2
6
CONTINUOUS
10
10.276
20
-7.54
11
10.276
21
-7.796
0
LINE
8
RED2
6
CONTINUOUS
10
3.7
20
-2.6
11
3.7
21
-3.1
0
LINE
8
RED2
6
CONTINUOUS
10
3.7
20
-3.1
11
4.2
21
-3.1
0
LINE
8
RED2
6
CONTINUOUS
10
4.2
20
-3.1
11
4.2
21
-2.6
0
LINE
8
RED2
6
CONTINUOUS
10
4.2
20
-2.6
11
3.7
21
-2.6
0
LINE
8
RED2
6
CONTINUOUS
10
3.7
20
-2.7
11
3.6
21
-2.7
0
LINE
8
CYAN2
6
CONTINUOUS
10
3.747
20
-2.672
11
3.764
21
-2.722
0
LINE
8
CYAN2
6
CONTINUOUS
10
3.764
20
-2.722
11
3.781
21
-2.672
0
LINE
8
CYAN2
6
CONTINUOUS
10
3.826
20
-2.717
11
3.823
21
-2.72
0
LINE
8
CYAN2
6
CONTINUOUS
10
3.823
20
-2.72
11
3.816
21
-2.722
0
LINE
8
CYAN2
6
CONTINUOUS
10
3.816
20
-2.722
11
3.812
21
-2.722
0
LINE
8
CYAN2
6
CONTINUOUS
10
3.812
20
-2.722
11
3.804
21
-2.72
0
LINE
8
CYAN2
6
CONTINUOUS
10
3.804
20
-2.72
11
3.8
21
-2.715
0
LINE
8
CYAN2
6
CONTINUOUS
10
3.8
20
-2.715
11
3.797
21
-2.71
0
LINE
8
CYAN2
6
CONTINUOUS
10
3.797
20
-2.71
11
3.795
21
-2.701
0
LINE
8
CYAN2
6
CONTINUOUS
10
3.795
20
-2.701
11
3.795
21
-2.694
0
LINE
8
CYAN2
6
CONTINUOUS
10
3.795
20
-2.694
11
3.797
21
-2.684
0
LINE
8
CYAN2
6
CONTINUOUS
10
3.797
20
-2.684
11
3.8
21
-2.679
0
LINE
8
CYAN2
6
CONTINUOUS
10
3.8
20
-2.679
11
3.804
21
-2.675
0
LINE
8
CYAN2
6
CONTINUOUS
10
3.804
20
-2.675
11
3.812
21
-2.672
0
LINE
8
CYAN2
6
CONTINUOUS
10
3.812
20
-2.672
11
3.816
21
-2.672
0
LINE
8
CYAN2
6
CONTINUOUS
10
3.816
20
-2.672
11
3.823
21
-2.675
0
LINE
8
CYAN2
6
CONTINUOUS
10
3.823
20
-2.675
11
3.826
21
-2.677
0
LINE
8
CYAN2
6
CONTINUOUS
10
3.876
20
-2.717
11
3.873
21
-2.72
0
LINE
8
CYAN2
6
CONTINUOUS
10
3.873
20
-2.72
11
3.866
21
-2.722
0
LINE
8
CYAN2
6
CONTINUOUS
10
3.866
20
-2.722
11
3.862
21
-2.722
0
LINE
8
CYAN2
6
CONTINUOUS
10
3.862
20
-2.722
11
3.854
21
-2.72
0
LINE
8
CYAN2
6
CONTINUOUS
10
3.854
20
-2.72
11
3.85
21
-2.715
0
LINE
8
CYAN2
6
CONTINUOUS
10
3.85
20
-2.715
11
3.847
21
-2.71
0
LINE
8
CYAN2
6
CONTINUOUS
10
3.847
20
-2.71
11
3.845
21
-2.701
0
LINE
8
CYAN2
6
CONTINUOUS
10
3.845
20
-2.701
11
3.845
21
-2.694
0
LINE
8
CYAN2
6
CONTINUOUS
10
3.845
20
-2.694
11
3.847
21
-2.684
0
LINE
8
CYAN2
6
CONTINUOUS
10
3.847
20
-2.684
11
3.85
21
-2.679
0
LINE
8
CYAN2
6
CONTINUOUS
10
3.85
20
-2.679
11
3.854
21
-2.675
0
LINE
8
CYAN2
6
CONTINUOUS
10
3.854
20
-2.675
11
3.862
21
-2.672
0
LINE
8
CYAN2
6
CONTINUOUS
10
3.862
20
-2.672
11
3.866
21
-2.672
0
LINE
8
CYAN2
6
CONTINUOUS
10
3.866
20
-2.672
11
3.873
21
-2.675
0
LINE
8
CYAN2
6
CONTINUOUS
10
3.873
20
-2.675
11
3.876
21
-2.677
0
LINE
8
CYAN2
6
CONTINUOUS
10
3.923
20
-2.722
11
3.895
21
-2.722
0
LINE
8
CYAN2
6
CONTINUOUS
10
3.909
20
-2.722
11
3.909
21
-2.672
0
LINE
8
CYAN2
6
CONTINUOUS
10
3.909
20
-2.672
11
3.904
21
-2.679
0
LINE
8
CYAN2
6
CONTINUOUS
10
3.904
20
-2.679
11
3.9
21
-2.684
0
LINE
8
CYAN2
6
CONTINUOUS
10
3.9
20
-2.684
11
3.895
21
-2.686
0
LINE
8
RED2
6
CONTINUOUS
10
3.664
20
-2.687
11
3.635
21
-2.687
0
LINE
8
RED2
6
CONTINUOUS
10
3.65
20
-2.687
11
3.65
21
-2.637
0
LINE
8
RED2
6
CONTINUOUS
10
3.65
20
-2.637
11
3.645
21
-2.644
0
LINE
8
RED2
6
CONTINUOUS
10
3.645
20
-2.644
11
3.64
21
-2.649
0
LINE
8
RED2
6
CONTINUOUS
10
3.64
20
-2.649
11
3.635
21
-2.651
0
LINE
8
RED2
6
CONTINUOUS
10
3.7
20
-2.8
11
3.6
21
-2.8
0
LINE
8
CYAN2
6
CONTINUOUS
10
3.75
20
-2.772
11
3.783
21
-2.822
0
LINE
8
CYAN2
6
CONTINUOUS
10
3.783
20
-2.772
11
3.75
21
-2.822
0
LINE
8
CYAN2
6
CONTINUOUS
10
3.828
20
-2.822
11
3.8
21
-2.822
0
LINE
8
CYAN2
6
CONTINUOUS
10
3.814
20
-2.822
11
3.814
21
-2.772
0
LINE
8
CYAN2
6
CONTINUOUS
10
3.814
20
-2.772
11
3.809
21
-2.779
0
LINE
8
CYAN2
6
CONTINUOUS
10
3.809
20
-2.779
11
3.804
21
-2.784
0
LINE
8
CYAN2
6
CONTINUOUS
10
3.804
20
-2.784
11
3.8
21
-2.786
0
LINE
8
RED2
6
CONTINUOUS
10
3.635
20
-2.742
11
3.638
21
-2.74
0
LINE
8
RED2
6
CONTINUOUS
10
3.638
20
-2.74
11
3.642
21
-2.737
0
LINE
8
RED2
6
CONTINUOUS
10
3.642
20
-2.737
11
3.654
21
-2.737
0
LINE
8
RED2
6
CONTINUOUS
10
3.654
20
-2.737
11
3.659
21
-2.74
0
LINE
8
RED2
6
CONTINUOUS
10
3.659
20
-2.74
11
3.661
21
-2.742
0
LINE
8
RED2
6
CONTINUOUS
10
3.661
20
-2.742
11
3.664
21
-2.747
0
LINE
8
RED2
6
CONTINUOUS
10
3.664
20
-2.747
11
3.664
21
-2.751
0
LINE
8
RED2
6
CONTINUOUS
10
3.664
20
-2.751
11
3.661
21
-2.759
0
LINE
8
RED2
6
CONTINUOUS
10
3.661
20
-2.759
11
3.633
21
-2.787
0
LINE
8
RED2
6
CONTINUOUS
10
3.633
20
-2.787
11
3.664
21
-2.787
0
LINE
8
RED2
6
CONTINUOUS
10
3.7
20
-2.9
11
3.6
21
-2.9
0
LINE
8
CYAN2
6
CONTINUOUS
10
3.75
20
-2.872
11
3.783
21
-2.922
0
LINE
8
CYAN2
6
CONTINUOUS
10
3.783
20
-2.872
11
3.75
21
-2.922
0
LINE
8
CYAN2
6
CONTINUOUS
10
3.8
20
-2.877
11
3.802
21
-2.875
0
LINE
8
CYAN2
6
CONTINUOUS
10
3.802
20
-2.875
11
3.807
21
-2.872
0
LINE
8
CYAN2
6
CONTINUOUS
10
3.807
20
-2.872
11
3.819
21
-2.872
0
LINE
8
CYAN2
6
CONTINUOUS
10
3.819
20
-2.872
11
3.823
21
-2.875
0
LINE
8
CYAN2
6
CONTINUOUS
10
3.823
20
-2.875
11
3.826
21
-2.877
0
LINE
8
CYAN2
6
CONTINUOUS
10
3.826
20
-2.877
11
3.828
21
-2.882
0
LINE
8
CYAN2
6
CONTINUOUS
10
3.828
20
-2.882
11
3.828
21
-2.886
0
LINE
8
CYAN2
6
CONTINUOUS
10
3.828
20
-2.886
11
3.826
21
-2.894
0
LINE
8
CYAN2
6
CONTINUOUS
10
3.826
20
-2.894
11
3.797
21
-2.922
0
LINE
8
CYAN2
6
CONTINUOUS
10
3.797
20
-2.922
11
3.828
21
-2.922
0
LINE
8
RED2
6
CONTINUOUS
10
3.633
20
-2.837
11
3.664
21
-2.837
0
LINE
8
RED2
6
CONTINUOUS
10
3.664
20
-2.837
11
3.647
21
-2.856
0
LINE
8
RED2
6
CONTINUOUS
10
3.647
20
-2.856
11
3.654
21
-2.856
0
LINE
8
RED2
6
CONTINUOUS
10
3.654
20
-2.856
11
3.659
21
-2.859
0
LINE
8
RED2
6
CONTINUOUS
10
3.659
20
-2.859
11
3.661
21
-2.861
0
LINE
8
RED2
6
CONTINUOUS
10
3.661
20
-2.861
11
3.664
21
-2.866
0
LINE
8
RED2
6
CONTINUOUS
10
3.664
20
-2.866
11
3.664
21
-2.878
0
LINE
8
RED2
6
CONTINUOUS
10
3.664
20
-2.878
11
3.661
21
-2.882
0
LINE
8
RED2
6
CONTINUOUS
10
3.661
20
-2.882
11
3.659
21
-2.885
0
LINE
8
RED2
6
CONTINUOUS
10
3.659
20
-2.885
11
3.654
21
-2.887
0
LINE
8
RED2
6
CONTINUOUS
10
3.654
20
-2.887
11
3.64
21
-2.887
0
LINE
8
RED2
6
CONTINUOUS
10
3.64
20
-2.887
11
3.635
21
-2.885
0
LINE
8
RED2
6
CONTINUOUS
10
3.635
20
-2.885
11
3.633
21
-2.882
0
LINE
8
RED2
6
CONTINUOUS
10
3.7
20
-3
11
3.6
21
-3
0
LINE
8
CYAN2
6
CONTINUOUS
10
3.781
20
-2.975
11
3.776
21
-2.972
0
LINE
8
CYAN2
6
CONTINUOUS
10
3.776
20
-2.972
11
3.769
21
-2.972
0
LINE
8
CYAN2
6
CONTINUOUS
10
3.769
20
-2.972
11
3.762
21
-2.975
0
LINE
8
CYAN2
6
CONTINUOUS
10
3.762
20
-2.975
11
3.757
21
-2.979
0
LINE
8
CYAN2
6
CONTINUOUS
10
3.757
20
-2.979
11
3.754
21
-2.984
0
LINE
8
CYAN2
6
CONTINUOUS
10
3.754
20
-2.984
11
3.752
21
-2.994
0
LINE
8
CYAN2
6
CONTINUOUS
10
3.752
20
-2.994
11
3.752
21
-3.001
0
LINE
8
CYAN2
6
CONTINUOUS
10
3.752
20
-3.001
11
3.754
21
-3.01
0
LINE
8
CYAN2
6
CONTINUOUS
10
3.754
20
-3.01
11
3.757
21
-3.015
0
LINE
8
CYAN2
6
CONTINUOUS
10
3.757
20
-3.015
11
3.762
21
-3.02
0
LINE
8
CYAN2
6
CONTINUOUS
10
3.762
20
-3.02
11
3.769
21
-3.022
0
LINE
8
CYAN2
6
CONTINUOUS
10
3.769
20
-3.022
11
3.773
21
-3.022
0
LINE
8
CYAN2
6
CONTINUOUS
10
3.773
20
-3.022
11
3.781
21
-3.02
0
LINE
8
CYAN2
6
CONTINUOUS
10
3.781
20
-3.02
11
3.783
21
-3.017
0
LINE
8
CYAN2
6
CONTINUOUS
10
3.783
20
-3.017
11
3.783
21
-3.001
0
LINE
8
CYAN2
6
CONTINUOUS
10
3.783
20
-3.001
11
3.773
21
-3.001
0
LINE
8
CYAN2
6
CONTINUOUS
10
3.804
20
-3.022
11
3.804
21
-2.972
0
LINE
8
CYAN2
6
CONTINUOUS
10
3.804
20
-2.972
11
3.833
21
-3.022
0
LINE
8
CYAN2
6
CONTINUOUS
10
3.833
20
-3.022
11
3.833
21
-2.972
0
LINE
8
CYAN2
6
CONTINUOUS
10
3.857
20
-3.022
11
3.857
21
-2.972
0
LINE
8
CYAN2
6
CONTINUOUS
10
3.857
20
-2.972
11
3.869
21
-2.972
0
LINE
8
CYAN2
6
CONTINUOUS
10
3.869
20
-2.972
11
3.876
21
-2.975
0
LINE
8
CYAN2
6
CONTINUOUS
10
3.876
20
-2.975
11
3.881
21
-2.979
0
LINE
8
CYAN2
6
CONTINUOUS
10
3.881
20
-2.979
11
3.883
21
-2.984
0
LINE
8
CYAN2
6
CONTINUOUS
10
3.883
20
-2.984
11
3.885
21
-2.994
0
LINE
8
CYAN2
6
CONTINUOUS
10
3.885
20
-2.994
11
3.885
21
-3.001
0
LINE
8
CYAN2
6
CONTINUOUS
10
3.885
20
-3.001
11
3.883
21
-3.01
0
LINE
8
CYAN2
6
CONTINUOUS
10
3.883
20
-3.01
11
3.881
21
-3.015
0
LINE
8
CYAN2
6
CONTINUOUS
10
3.881
20
-3.015
11
3.876
21
-3.02
0
LINE
8
CYAN2
6
CONTINUOUS
10
3.876
20
-3.02
11
3.869
21
-3.022
0
LINE
8
CYAN2
6
CONTINUOUS
10
3.869
20
-3.022
11
3.857
21
-3.022
0
LINE
8
RED2
6
CONTINUOUS
10
3.659
20
-2.954
11
3.659
21
-2.987
0
LINE
8
RED2
6
CONTINUOUS
10
3.647
20
-2.935
11
3.635
21
-2.97
0
LINE
8
RED2
6
CONTINUOUS
10
3.635
20
-2.97
11
3.666
21
-2.97
0
LINE
8
RED2
6
CONTINUOUS
10
4.2
20
-3
11
4.3
21
-3
0
LINE
8
CYAN2
6
CONTINUOUS
10
4.102
20
-3.017
11
4.099
21
-3.02
0
LINE
8
CYAN2
6
CONTINUOUS
10
4.099
20
-3.02
11
4.092
21
-3.022
0
LINE
8
CYAN2
6
CONTINUOUS
10
4.092
20
-3.022
11
4.087
21
-3.022
0
LINE
8
CYAN2
6
CONTINUOUS
10
4.087
20
-3.022
11
4.08
21
-3.02
0
LINE
8
CYAN2
6
CONTINUOUS
10
4.08
20
-3.02
11
4.076
21
-3.015
0
LINE
8
CYAN2
6
CONTINUOUS
10
4.076
20
-3.015
11
4.073
21
-3.01
0
LINE
8
CYAN2
6
CONTINUOUS
10
4.073
20
-3.01
11
4.071
21
-3.001
0
LINE
8
CYAN2
6
CONTINUOUS
10
4.071
20
-3.001
11
4.071
21
-2.994
0
LINE
8
CYAN2
6
CONTINUOUS
10
4.071
20
-2.994
11
4.073
21
-2.984
0
LINE
8
CYAN2
6
CONTINUOUS
10
4.073
20
-2.984
11
4.076
21
-2.979
0
LINE
8
CYAN2
6
CONTINUOUS
10
4.076
20
-2.979
11
4.08
21
-2.975
0
LINE
8
CYAN2
6
CONTINUOUS
10
4.08
20
-2.975
11
4.087
21
-2.972
0
LINE
8
CYAN2
6
CONTINUOUS
10
4.087
20
-2.972
11
4.092
21
-2.972
0
LINE
8
CYAN2
6
CONTINUOUS
10
4.092
20
-2.972
11
4.099
21
-2.975
0
LINE
8
CYAN2
6
CONTINUOUS
10
4.099
20
-2.975
11
4.102
21
-2.977
0
LINE
8
CYAN2
6
CONTINUOUS
10
4.123
20
-2.996
11
4.14
21
-2.996
0
LINE
8
CYAN2
6
CONTINUOUS
10
4.147
20
-3.022
11
4.123
21
-3.022
0
LINE
8
CYAN2
6
CONTINUOUS
10
4.123
20
-3.022
11
4.123
21
-2.972
0
LINE
8
CYAN2
6
CONTINUOUS
10
4.123
20
-2.972
11
4.147
21
-2.972
0
LINE
8
RED2
6
CONTINUOUS
10
4.261
20
-2.937
11
4.238
21
-2.937
0
LINE
8
RED2
6
CONTINUOUS
10
4.238
20
-2.937
11
4.235
21
-2.961
0
LINE
8
RED2
6
CONTINUOUS
10
4.235
20
-2.961
11
4.238
21
-2.959
0
LINE
8
RED2
6
CONTINUOUS
10
4.238
20
-2.959
11
4.242
21
-2.956
0
LINE
8
RED2
6
CONTINUOUS
10
4.242
20
-2.956
11
4.254
21
-2.956
0
LINE
8
RED2
6
CONTINUOUS
10
4.254
20
-2.956
11
4.259
21
-2.959
0
LINE
8
RED2
6
CONTINUOUS
10
4.259
20
-2.959
11
4.261
21
-2.961
0
LINE
8
RED2
6
CONTINUOUS
10
4.261
20
-2.961
11
4.264
21
-2.966
0
LINE
8
RED2
6
CONTINUOUS
10
4.264
20
-2.966
11
4.264
21
-2.978
0
LINE
8
RED2
6
CONTINUOUS
10
4.264
20
-2.978
11
4.261
21
-2.982
0
LINE
8
RED2
6
CONTINUOUS
10
4.261
20
-2.982
11
4.259
21
-2.985
0
LINE
8
RED2
6
CONTINUOUS
10
4.259
20
-2.985
11
4.254
21
-2.987
0
LINE
8
RED2
6
CONTINUOUS
10
4.254
20
-2.987
11
4.242
21
-2.987
0
LINE
8
RED2
6
CONTINUOUS
10
4.242
20
-2.987
11
4.238
21
-2.985
0
LINE
8
RED2
6
CONTINUOUS
10
4.238
20
-2.985
11
4.235
21
-2.982
0
LINE
8
RED2
6
CONTINUOUS
10
4.2
20
-2.9
11
4.3
21
-2.9
0
LINE
8
CYAN2
6
CONTINUOUS
10
4.04
20
-2.922
11
4.04
21
-2.872
0
LINE
8
CYAN2
6
CONTINUOUS
10
4.099
20
-2.87
11
4.057
21
-2.934
0
LINE
8
CYAN2
6
CONTINUOUS
10
4.126
20
-2.872
11
4.135
21
-2.872
0
LINE
8
CYAN2
6
CONTINUOUS
10
4.135
20
-2.872
11
4.14
21
-2.875
0
LINE
8
CYAN2
6
CONTINUOUS
10
4.14
20
-2.875
11
4.145
21
-2.879
0
LINE
8
CYAN2
6
CONTINUOUS
10
4.145
20
-2.879
11
4.147
21
-2.889
0
LINE
8
CYAN2
6
CONTINUOUS
10
4.147
20
-2.889
11
4.147
21
-2.905
0
LINE
8
CYAN2
6
CONTINUOUS
10
4.147
20
-2.905
11
4.145
21
-2.915
0
LINE
8
CYAN2
6
CONTINUOUS
10
4.145
20
-2.915
11
4.14
21
-2.92
0
LINE
8
CYAN2
6
CONTINUOUS
10
4.14
20
-2.92
11
4.135
21
-2.922
0
LINE
8
CYAN2
6
CONTINUOUS
10
4.135
20
-2.922
11
4.126
21
-2.922
0
LINE
8
CYAN2
6
CONTINUOUS
10
4.126
20
-2.922
11
4.121
21
-2.92
0
LINE
8
CYAN2
6
CONTINUOUS
10
4.121
20
-2.92
11
4.116
21
-2.915
0
LINE
8
CYAN2
6
CONTINUOUS
10
4.116
20
-2.915
11
4.114
21
-2.905
0
LINE
8
CYAN2
6
CONTINUOUS
10
4.114
20
-2.905
11
4.114
21
-2.889
0
LINE
8
CYAN2
6
CONTINUOUS
10
4.114
20
-2.889
11
4.116
21
-2.879
0
LINE
8
CYAN2
6
CONTINUOUS
10
4.116
20
-2.879
11
4.121
21
-2.875
0
LINE
8
CYAN2
6
CONTINUOUS
10
4.121
20
-2.875
11
4.126
21
-2.872
0
LINE
8
RED2
6
CONTINUOUS
10
4.259
20
-2.837
11
4.25
21
-2.837
0
LINE
8
RED2
6
CONTINUOUS
10
4.25
20
-2.837
11
4.245
21
-2.84
0
LINE
8
RED2
6
CONTINUOUS
10
4.245
20
-2.84
11
4.242
21
-2.842
0
LINE
8
RED2
6
CONTINUOUS
10
4.242
20
-2.842
11
4.238
21
-2.849
0
LINE
8
RED2
6
CONTINUOUS
10
4.238
20
-2.849
11
4.235
21
-2.859
0
LINE
8
RED2
6
CONTINUOUS
10
4.235
20
-2.859
11
4.235
21
-2.878
0
LINE
8
RED2
6
CONTINUOUS
10
4.235
20
-2.878
11
4.238
21
-2.882
0
LINE
8
RED2
6
CONTINUOUS
10
4.238
20
-2.882
11
4.24
21
-2.885
0
LINE
8
RED2
6
CONTINUOUS
10
4.24
20
-2.885
11
4.245
21
-2.887
0
LINE
8
RED2
6
CONTINUOUS
10
4.245
20
-2.887
11
4.254
21
-2.887
0
LINE
8
RED2
6
CONTINUOUS
10
4.254
20
-2.887
11
4.259
21
-2.885
0
LINE
8
RED2
6
CONTINUOUS
10
4.259
20
-2.885
11
4.261
21
-2.882
0
LINE
8
RED2
6
CONTINUOUS
10
4.261
20
-2.882
11
4.264
21
-2.878
0
LINE
8
RED2
6
CONTINUOUS
10
4.264
20
-2.878
11
4.264
21
-2.866
0
LINE
8
RED2
6
CONTINUOUS
10
4.264
20
-2.866
11
4.261
21
-2.861
0
LINE
8
RED2
6
CONTINUOUS
10
4.261
20
-2.861
11
4.259
21
-2.859
0
LINE
8
RED2
6
CONTINUOUS
10
4.259
20
-2.859
11
4.254
21
-2.856
0
LINE
8
RED2
6
CONTINUOUS
10
4.254
20
-2.856
11
4.245
21
-2.856
0
LINE
8
RED2
6
CONTINUOUS
10
4.245
20
-2.856
11
4.24
21
-2.859
0
LINE
8
RED2
6
CONTINUOUS
10
4.24
20
-2.859
11
4.238
21
-2.861
0
LINE
8
RED2
6
CONTINUOUS
10
4.238
20
-2.861
11
4.235
21
-2.866
0
LINE
8
RED2
6
CONTINUOUS
10
4.2
20
-2.8
11
4.3
21
-2.8
0
LINE
8
CYAN2
6
CONTINUOUS
10
3.978
20
-2.82
11
3.985
21
-2.822
0
LINE
8
CYAN2
6
CONTINUOUS
10
3.985
20
-2.822
11
3.997
21
-2.822
0
LINE
8
CYAN2
6
CONTINUOUS
10
3.997
20
-2.822
11
4.002
21
-2.82
0
LINE
8
CYAN2
6
CONTINUOUS
10
4.002
20
-2.82
11
4.004
21
-2.817
0
LINE
8
CYAN2
6
CONTINUOUS
10
4.004
20
-2.817
11
4.007
21
-2.813
0
LINE
8
CYAN2
6
CONTINUOUS
10
4.007
20
-2.813
11
4.007
21
-2.808
0
LINE
8
CYAN2
6
CONTINUOUS
10
4.007
20
-2.808
11
4.004
21
-2.803
0
LINE
8
CYAN2
6
CONTINUOUS
10
4.004
20
-2.803
11
4.002
21
-2.801
0
LINE
8
CYAN2
6
CONTINUOUS
10
4.002
20
-2.801
11
3.997
21
-2.798
0
LINE
8
CYAN2
6
CONTINUOUS
10
3.997
20
-2.798
11
3.987
21
-2.796
0
LINE
8
CYAN2
6
CONTINUOUS
10
3.987
20
-2.796
11
3.983
21
-2.794
0
LINE
8
CYAN2
6
CONTINUOUS
10
3.983
20
-2.794
11
3.98
21
-2.791
0
LINE
8
CYAN2
6
CONTINUOUS
10
3.98
20
-2.791
11
3.978
21
-2.786
0
LINE
8
CYAN2
6
CONTINUOUS
10
3.978
20
-2.786
11
3.978
21
-2.782
0
LINE
8
CYAN2
6
CONTINUOUS
10
3.978
20
-2.782
11
3.98
21
-2.777
0
LINE
8
CYAN2
6
CONTINUOUS
10
3.98
20
-2.777
11
3.983
21
-2.775
0
LINE
8
CYAN2
6
CONTINUOUS
10
3.983
20
-2.775
11
3.987
21
-2.772
0
LINE
8
CYAN2
6
CONTINUOUS
10
3.987
20
-2.772
11
3.999
21
-2.772
0
LINE
8
CYAN2
6
CONTINUOUS
10
3.999
20
-2.772
11
4.007
21
-2.775
0
LINE
8
CYAN2
6
CONTINUOUS
10
4.057
20
-2.817
11
4.054
21
-2.82
0
LINE
8
CYAN2
6
CONTINUOUS
10
4.054
20
-2.82
11
4.047
21
-2.822
0
LINE
8
CYAN2
6
CONTINUOUS
10
4.047
20
-2.822
11
4.042
21
-2.822
0
LINE
8
CYAN2
6
CONTINUOUS
10
4.042
20
-2.822
11
4.035
21
-2.82
0
LINE
8
CYAN2
6
CONTINUOUS
10
4.035
20
-2.82
11
4.03
21
-2.815
0
LINE
8
CYAN2
6
CONTINUOUS
10
4.03
20
-2.815
11
4.028
21
-2.81
0
LINE
8
CYAN2
6
CONTINUOUS
10
4.028
20
-2.81
11
4.026
21
-2.801
0
LINE
8
CYAN2
6
CONTINUOUS
10
4.026
20
-2.801
11
4.026
21
-2.794
0
LINE
8
CYAN2
6
CONTINUOUS
10
4.026
20
-2.794
11
4.028
21
-2.784
0
LINE
8
CYAN2
6
CONTINUOUS
10
4.028
20
-2.784
11
4.03
21
-2.779
0
LINE
8
CYAN2
6
CONTINUOUS
10
4.03
20
-2.779
11
4.035
21
-2.775
0
LINE
8
CYAN2
6
CONTINUOUS
10
4.035
20
-2.775
11
4.042
21
-2.772
0
LINE
8
CYAN2
6
CONTINUOUS
10
4.042
20
-2.772
11
4.047
21
-2.772
0
LINE
8
CYAN2
6
CONTINUOUS
10
4.047
20
-2.772
11
4.054
21
-2.775
0
LINE
8
CYAN2
6
CONTINUOUS
10
4.054
20
-2.775
11
4.057
21
-2.777
0
LINE
8
CYAN2
6
CONTINUOUS
10
4.102
20
-2.822
11
4.078
21
-2.822
0
LINE
8
CYAN2
6
CONTINUOUS
10
4.078
20
-2.822
11
4.078
21
-2.772
0
LINE
8
CYAN2
6
CONTINUOUS
10
4.118
20
-2.822
11
4.118
21
-2.772
0
LINE
8
CYAN2
6
CONTINUOUS
10
4.147
20
-2.822
11
4.126
21
-2.794
0
LINE
8
CYAN2
6
CONTINUOUS
10
4.147
20
-2.772
11
4.118
21
-2.801
0
LINE
8
RED2
6
CONTINUOUS
10
4.233
20
-2.737
11
4.266
21
-2.737
0
LINE
8
RED2
6
CONTINUOUS
10
4.266
20
-2.737
11
4.245
21
-2.787
0
LINE
8
RED2
6
CONTINUOUS
10
4.2
20
-2.7
11
4.3
21
-2.7
0
LINE
8
CYAN2
6
CONTINUOUS
10
3.971
20
-2.672
11
3.987
21
-2.722
0
LINE
8
CYAN2
6
CONTINUOUS
10
3.987
20
-2.722
11
4.004
21
-2.672
0
LINE
8
CYAN2
6
CONTINUOUS
10
4.049
20
-2.717
11
4.047
21
-2.72
0
LINE
8
CYAN2
6
CONTINUOUS
10
4.047
20
-2.72
11
4.04
21
-2.722
0
LINE
8
CYAN2
6
CONTINUOUS
10
4.04
20
-2.722
11
4.035
21
-2.722
0
LINE
8
CYAN2
6
CONTINUOUS
10
4.035
20
-2.722
11
4.028
21
-2.72
0
LINE
8
CYAN2
6
CONTINUOUS
10
4.028
20
-2.72
11
4.023
21
-2.715
0
LINE
8
CYAN2
6
CONTINUOUS
10
4.023
20
-2.715
11
4.021
21
-2.71
0
LINE
8
CYAN2
6
CONTINUOUS
10
4.021
20
-2.71
11
4.018
21
-2.701
0
LINE
8
CYAN2
6
CONTINUOUS
10
4.018
20
-2.701
11
4.018
21
-2.694
0
LINE
8
CYAN2
6
CONTINUOUS
10
4.018
20
-2.694
11
4.021
21
-2.684
0
LINE
8
CYAN2
6
CONTINUOUS
10
4.021
20
-2.684
11
4.023
21
-2.679
0
LINE
8
CYAN2
6
CONTINUOUS
10
4.023
20
-2.679
11
4.028
21
-2.675
0
LINE
8
CYAN2
6
CONTINUOUS
10
4.028
20
-2.675
11
4.035
21
-2.672
0
LINE
8
CYAN2
6
CONTINUOUS
10
4.035
20
-2.672
11
4.04
21
-2.672
0
LINE
8
CYAN2
6
CONTINUOUS
10
4.04
20
-2.672
11
4.047
21
-2.675
0
LINE
8
CYAN2
6
CONTINUOUS
10
4.047
20
-2.675
11
4.049
21
-2.677
0
LINE
8
CYAN2
6
CONTINUOUS
10
4.099
20
-2.717
11
4.097
21
-2.72
0
LINE
8
CYAN2
6
CONTINUOUS
10
4.097
20
-2.72
11
4.09
21
-2.722
0
LINE
8
CYAN2
6
CONTINUOUS
10
4.09
20
-2.722
11
4.085
21
-2.722
0
LINE
8
CYAN2
6
CONTINUOUS
10
4.085
20
-2.722
11
4.078
21
-2.72
0
LINE
8
CYAN2
6
CONTINUOUS
10
4.078
20
-2.72
11
4.073
21
-2.715
0
LINE
8
CYAN2
6
CONTINUOUS
10
4.073
20
-2.715
11
4.071
21
-2.71
0
LINE
8
CYAN2
6
CONTINUOUS
10
4.071
20
-2.71
11
4.068
21
-2.701
0
LINE
8
CYAN2
6
CONTINUOUS
10
4.068
20
-2.701
11
4.068
21
-2.694
0
LINE
8
CYAN2
6
CONTINUOUS
10
4.068
20
-2.694
11
4.071
21
-2.684
0
LINE
8
CYAN2
6
CONTINUOUS
10
4.071
20
-2.684
11
4.073
21
-2.679
0
LINE
8
CYAN2
6
CONTINUOUS
10
4.073
20
-2.679
11
4.078
21
-2.675
0
LINE
8
CYAN2
6
CONTINUOUS
10
4.078
20
-2.675
11
4.085
21
-2.672
0
LINE
8
CYAN2
6
CONTINUOUS
10
4.085
20
-2.672
11
4.09
21
-2.672
0
LINE
8
CYAN2
6
CONTINUOUS
10
4.09
20
-2.672
11
4.097
21
-2.675
0
LINE
8
CYAN2
6
CONTINUOUS
10
4.097
20
-2.675
11
4.099
21
-2.677
0
LINE
8
CYAN2
6
CONTINUOUS
10
4.118
20
-2.677
11
4.121
21
-2.675
0
LINE
8
CYAN2
6
CONTINUOUS
10
4.121
20
-2.675
11
4.126
21
-2.672
0
LINE
8
CYAN2
6
CONTINUOUS
10
4.126
20
-2.672
11
4.137
21
-2.672
0
LINE
8
CYAN2
6
CONTINUOUS
10
4.137
20
-2.672
11
4.142
21
-2.675
0
LINE
8
CYAN2
6
CONTINUOUS
10
4.142
20
-2.675
11
4.145
21
-2.677
0
LINE
8
CYAN2
6
CONTINUOUS
10
4.145
20
-2.677
11
4.147
21
-2.682
0
LINE
8
CYAN2
6
CONTINUOUS
10
4.147
20
-2.682
11
4.147
21
-2.686
0
LINE
8
CYAN2
6
CONTINUOUS
10
4.147
20
-2.686
11
4.145
21
-2.694
0
LINE
8
CYAN2
6
CONTINUOUS
10
4.145
20
-2.694
11
4.116
21
-2.722
0
LINE
8
CYAN2
6
CONTINUOUS
10
4.116
20
-2.722
11
4.147
21
-2.722
0
LINE
8
RED2
6
CONTINUOUS
10
4.245
20
-2.659
11
4.24
21
-2.656
0
LINE
8
RED2
6
CONTINUOUS
10
4.24
20
-2.656
11
4.238
21
-2.654
0
LINE
8
RED2
6
CONTINUOUS
10
4.238
20
-2.654
11
4.235
21
-2.649
0
LINE
8
RED2
6
CONTINUOUS
10
4.235
20
-2.649
11
4.235
21
-2.647
0
LINE
8
RED2
6
CONTINUOUS
10
4.235
20
-2.647
11
4.238
21
-2.642
0
LINE
8
RED2
6
CONTINUOUS
10
4.238
20
-2.642
11
4.24
21
-2.64
0
LINE
8
RED2
6
CONTINUOUS
10
4.24
20
-2.64
11
4.245
21
-2.637
0
LINE
8
RED2
6
CONTINUOUS
10
4.245
20
-2.637
11
4.254
21
-2.637
0
LINE
8
RED2
6
CONTINUOUS
10
4.254
20
-2.637
11
4.259
21
-2.64
0
LINE
8
RED2
6
CONTINUOUS
10
4.259
20
-2.64
11
4.261
21
-2.642
0
LINE
8
RED2
6
CONTINUOUS
10
4.261
20
-2.642
11
4.264
21
-2.647
0
LINE
8
RED2
6
CONTINUOUS
10
4.264
20
-2.647
11
4.264
21
-2.649
0
LINE
8
RED2
6
CONTINUOUS
10
4.264
20
-2.649
11
4.261
21
-2.654
0
LINE
8
RED2
6
CONTINUOUS
10
4.261
20
-2.654
11
4.259
21
-2.656
0
LINE
8
RED2
6
CONTINUOUS
10
4.259
20
-2.656
11
4.254
21
-2.659
0
LINE
8
RED2
6
CONTINUOUS
10
4.254
20
-2.659
11
4.245
21
-2.659
0
LINE
8
RED2
6
CONTINUOUS
10
4.245
20
-2.659
11
4.24
21
-2.661
0
LINE
8
RED2
6
CONTINUOUS
10
4.24
20
-2.661
11
4.238
21
-2.663
0
LINE
8
RED2
6
CONTINUOUS
10
4.238
20
-2.663
11
4.235
21
-2.668
0
LINE
8
RED2
6
CONTINUOUS
10
4.235
20
-2.668
11
4.235
21
-2.678
0
LINE
8
RED2
6
CONTINUOUS
10
4.235
20
-2.678
11
4.238
21
-2.682
0
LINE
8
RED2
6
CONTINUOUS
10
4.238
20
-2.682
11
4.24
21
-2.685
0
LINE
8
RED2
6
CONTINUOUS
10
4.24
20
-2.685
11
4.245
21
-2.687
0
LINE
8
RED2
6
CONTINUOUS
10
4.245
20
-2.687
11
4.254
21
-2.687
0
LINE
8
RED2
6
CONTINUOUS
10
4.254
20
-2.687
11
4.259
21
-2.685
0
LINE
8
RED2
6
CONTINUOUS
10
4.259
20
-2.685
11
4.261
21
-2.682
0
LINE
8
RED2
6
CONTINUOUS
10
4.261
20
-2.682
11
4.264
21
-2.678
0
LINE
8
RED2
6
CONTINUOUS
10
4.264
20
-2.678
11
4.264
21
-2.668
0
LINE
8
RED2
6
CONTINUOUS
10
4.264
20
-2.668
11
4.261
21
-2.663
0
LINE
8
RED2
6
CONTINUOUS
10
4.261
20
-2.663
11
4.259
21
-2.661
0
LINE
8
RED2
6
CONTINUOUS
10
4.259
20
-2.661
11
4.254
21
-2.659
0
LINE
8
CYAN2
6
CONTINUOUS
10
3.914
20
-2.409
11
3.914
21
-2.45
0
LINE
8
CYAN2
6
CONTINUOUS
10
3.914
20
-2.45
11
3.916
21
-2.454
0
LINE
8
CYAN2
6
CONTINUOUS
10
3.916
20
-2.454
11
3.919
21
-2.457
0
LINE
8
CYAN2
6
CONTINUOUS
10
3.919
20
-2.457
11
3.923
21
-2.459
0
LINE
8
CYAN2
6
CONTINUOUS
10
3.923
20
-2.459
11
3.933
21
-2.459
0
LINE
8
CYAN2
6
CONTINUOUS
10
3.933
20
-2.459
11
3.938
21
-2.457
0
LINE
8
CYAN2
6
CONTINUOUS
10
3.938
20
-2.457
11
3.94
21
-2.454
0
LINE
8
CYAN2
6
CONTINUOUS
10
3.94
20
-2.454
11
3.942
21
-2.45
0
LINE
8
CYAN2
6
CONTINUOUS
10
3.942
20
-2.45
11
3.942
21
-2.409
0
LINE
8
CYAN2
6
CONTINUOUS
10
3.973
20
-2.454
11
3.976
21
-2.457
0
LINE
8
CYAN2
6
CONTINUOUS
10
3.976
20
-2.457
11
3.973
21
-2.459
0
LINE
8
CYAN2
6
CONTINUOUS
10
3.973
20
-2.459
11
3.971
21
-2.457
0
LINE
8
CYAN2
6
CONTINUOUS
10
3.971
20
-2.457
11
3.973
21
-2.454
0
LINE
8
CYAN2
6
CONTINUOUS
10
3.973
20
-2.454
11
3.973
21
-2.459
0
LINE
8
CYAN2
6
CONTINUOUS
10
3.964
20
-2.412
11
3.969
21
-2.409
0
LINE
8
CYAN2
6
CONTINUOUS
10
3.969
20
-2.409
11
3.98
21
-2.409
0
LINE
8
CYAN2
6
CONTINUOUS
10
3.98
20
-2.409
11
3.985
21
-2.412
0
LINE
8
CYAN2
6
CONTINUOUS
10
3.985
20
-2.412
11
3.988
21
-2.416
0
LINE
8
CYAN2
6
CONTINUOUS
10
3.988
20
-2.416
11
3.988
21
-2.421
0
LINE
8
CYAN2
6
CONTINUOUS
10
3.988
20
-2.421
11
3.985
21
-2.426
0
LINE
8
CYAN2
6
CONTINUOUS
10
3.985
20
-2.426
11
3.983
21
-2.428
0
LINE
8
CYAN2
6
CONTINUOUS
10
3.983
20
-2.428
11
3.978
21
-2.431
0
LINE
8
CYAN2
6
CONTINUOUS
10
3.978
20
-2.431
11
3.976
21
-2.433
0
LINE
8
CYAN2
6
CONTINUOUS
10
3.976
20
-2.433
11
3.973
21
-2.438
0
LINE
8
CYAN2
6
CONTINUOUS
10
3.973
20
-2.438
11
3.973
21
-2.44
0
LINE
8
CYAN2
6
CONTINUOUS
10
3.817
20
-2.55
11
3.817
21
-2.5
0
LINE
8
CYAN2
6
CONTINUOUS
10
3.817
20
-2.5
11
3.829
21
-2.5
0
LINE
8
CYAN2
6
CONTINUOUS
10
3.829
20
-2.5
11
3.836
21
-2.503
0
LINE
8
CYAN2
6
CONTINUOUS
10
3.836
20
-2.503
11
3.841
21
-2.507
0
LINE
8
CYAN2
6
CONTINUOUS
10
3.841
20
-2.507
11
3.844
21
-2.512
0
LINE
8
CYAN2
6
CONTINUOUS
10
3.844
20
-2.512
11
3.846
21
-2.522
0
LINE
8
CYAN2
6
CONTINUOUS
10
3.846
20
-2.522
11
3.846
21
-2.529
0
LINE
8
CYAN2
6
CONTINUOUS
10
3.846
20
-2.529
11
3.844
21
-2.538
0
LINE
8
CYAN2
6
CONTINUOUS
10
3.844
20
-2.538
11
3.841
21
-2.543
0
LINE
8
CYAN2
6
CONTINUOUS
10
3.841
20
-2.543
11
3.836
21
-2.548
0
LINE
8
CYAN2
6
CONTINUOUS
10
3.836
20
-2.548
11
3.829
21
-2.55
0
LINE
8
CYAN2
6
CONTINUOUS
10
3.829
20
-2.55
11
3.817
21
-2.55
0
LINE
8
CYAN2
6
CONTINUOUS
10
3.865
20
-2.548
11
3.872
21
-2.55
0
LINE
8
CYAN2
6
CONTINUOUS
10
3.872
20
-2.55
11
3.884
21
-2.55
0
LINE
8
CYAN2
6
CONTINUOUS
10
3.884
20
-2.55
11
3.889
21
-2.548
0
LINE
8
CYAN2
6
CONTINUOUS
10
3.889
20
-2.548
11
3.891
21
-2.545
0
LINE
8
CYAN2
6
CONTINUOUS
10
3.891
20
-2.545
11
3.894
21
-2.541
0
LINE
8
CYAN2
6
CONTINUOUS
10
3.894
20
-2.541
11
3.894
21
-2.536
0
LINE
8
CYAN2
6
CONTINUOUS
10
3.894
20
-2.536
11
3.891
21
-2.531
0
LINE
8
CYAN2
6
CONTINUOUS
10
3.891
20
-2.531
11
3.889
21
-2.529
0
LINE
8
CYAN2
6
CONTINUOUS
10
3.889
20
-2.529
11
3.884
21
-2.526
0
LINE
8
CYAN2
6
CONTINUOUS
10
3.884
20
-2.526
11
3.875
21
-2.524
0
LINE
8
CYAN2
6
CONTINUOUS
10
3.875
20
-2.524
11
3.87
21
-2.522
0
LINE
8
CYAN2
6
CONTINUOUS
10
3.87
20
-2.522
11
3.867
21
-2.519
0
LINE
8
CYAN2
6
CONTINUOUS
10
3.867
20
-2.519
11
3.865
21
-2.514
0
LINE
8
CYAN2
6
CONTINUOUS
10
3.865
20
-2.514
11
3.865
21
-2.51
0
LINE
8
CYAN2
6
CONTINUOUS
10
3.865
20
-2.51
11
3.867
21
-2.505
0
LINE
8
CYAN2
6
CONTINUOUS
10
3.867
20
-2.505
11
3.87
21
-2.503
0
LINE
8
CYAN2
6
CONTINUOUS
10
3.87
20
-2.503
11
3.875
21
-2.5
0
LINE
8
CYAN2
6
CONTINUOUS
10
3.875
20
-2.5
11
3.886
21
-2.5
0
LINE
8
CYAN2
6
CONTINUOUS
10
3.886
20
-2.5
11
3.894
21
-2.503
0
LINE
8
CYAN2
6
CONTINUOUS
10
3.941
20
-2.55
11
3.913
21
-2.55
0
LINE
8
CYAN2
6
CONTINUOUS
10
3.927
20
-2.55
11
3.927
21
-2.5
0
LINE
8
CYAN2
6
CONTINUOUS
10
3.927
20
-2.5
11
3.922
21
-2.507
0
LINE
8
CYAN2
6
CONTINUOUS
10
3.922
20
-2.507
11
3.917
21
-2.512
0
LINE
8
CYAN2
6
CONTINUOUS
10
3.917
20
-2.512
11
3.913
21
-2.514
0
LINE
8
CYAN2
6
CONTINUOUS
10
3.958
20
-2.5
11
3.989
21
-2.5
0
LINE
8
CYAN2
6
CONTINUOUS
10
3.989
20
-2.5
11
3.972
21
-2.519
0
LINE
8
CYAN2
6
CONTINUOUS
10
3.972
20
-2.519
11
3.979
21
-2.519
0
LINE
8
CYAN2
6
CONTINUOUS
10
3.979
20
-2.519
11
3.984
21
-2.522
0
LINE
8
CYAN2
6
CONTINUOUS
10
3.984
20
-2.522
11
3.986
21
-2.524
0
LINE
8
CYAN2
6
CONTINUOUS
10
3.986
20
-2.524
11
3.989
21
-2.529
0
LINE
8
CYAN2
6
CONTINUOUS
10
3.989
20
-2.529
11
3.989
21
-2.541
0
LINE
8
CYAN2
6
CONTINUOUS
10
3.989
20
-2.541
11
3.986
21
-2.545
0
LINE
8
CYAN2
6
CONTINUOUS
10
3.986
20
-2.545
11
3.984
21
-2.548
0
LINE
8
CYAN2
6
CONTINUOUS
10
3.984
20
-2.548
11
3.979
21
-2.55
0
LINE
8
CYAN2
6
CONTINUOUS
10
3.979
20
-2.55
11
3.965
21
-2.55
0
LINE
8
CYAN2
6
CONTINUOUS
10
3.965
20
-2.55
11
3.96
21
-2.548
0
LINE
8
CYAN2
6
CONTINUOUS
10
3.96
20
-2.548
11
3.958
21
-2.545
0
LINE
8
CYAN2
6
CONTINUOUS
10
4.02
20
-2.5
11
4.024
21
-2.5
0
LINE
8
CYAN2
6
CONTINUOUS
10
4.024
20
-2.5
11
4.029
21
-2.503
0
LINE
8
CYAN2
6
CONTINUOUS
10
4.029
20
-2.503
11
4.032
21
-2.505
0
LINE
8
CYAN2
6
CONTINUOUS
10
4.032
20
-2.505
11
4.034
21
-2.51
0
LINE
8
CYAN2
6
CONTINUOUS
10
4.034
20
-2.51
11
4.036
21
-2.519
0
LINE
8
CYAN2
6
CONTINUOUS
10
4.036
20
-2.519
11
4.036
21
-2.531
0
LINE
8
CYAN2
6
CONTINUOUS
10
4.036
20
-2.531
11
4.034
21
-2.541
0
LINE
8
CYAN2
6
CONTINUOUS
10
4.034
20
-2.541
11
4.032
21
-2.545
0
LINE
8
CYAN2
6
CONTINUOUS
10
4.032
20
-2.545
11
4.029
21
-2.548
0
LINE
8
CYAN2
6
CONTINUOUS
10
4.029
20
-2.548
11
4.024
21
-2.55
0
LINE
8
CYAN2
6
CONTINUOUS
10
4.024
20
-2.55
11
4.02
21
-2.55
0
LINE
8
CYAN2
6
CONTINUOUS
10
4.02
20
-2.55
11
4.015
21
-2.548
0
LINE
8
CYAN2
6
CONTINUOUS
10
4.015
20
-2.548
11
4.013
21
-2.545
0
LINE
8
CYAN2
6
CONTINUOUS
10
4.013
20
-2.545
11
4.01
21
-2.541
0
LINE
8
CYAN2
6
CONTINUOUS
10
4.01
20
-2.541
11
4.008
21
-2.531
0
LINE
8
CYAN2
6
CONTINUOUS
10
4.008
20
-2.531
11
4.008
21
-2.519
0
LINE
8
CYAN2
6
CONTINUOUS
10
4.008
20
-2.519
11
4.01
21
-2.51
0
LINE
8
CYAN2
6
CONTINUOUS
10
4.01
20
-2.51
11
4.013
21
-2.505
0
LINE
8
CYAN2
6
CONTINUOUS
10
4.013
20
-2.505
11
4.015
21
-2.503
0
LINE
8
CYAN2
6
CONTINUOUS
10
4.015
20
-2.503
11
4.02
21
-2.5
0
LINE
8
CYAN2
6
CONTINUOUS
10
4.055
20
-2.505
11
4.058
21
-2.503
0
LINE
8
CYAN2
6
CONTINUOUS
10
4.058
20
-2.503
11
4.063
21
-2.5
0
LINE
8
CYAN2
6
CONTINUOUS
10
4.063
20
-2.5
11
4.075
21
-2.5
0
LINE
8
CYAN2
6
CONTINUOUS
10
4.075
20
-2.5
11
4.079
21
-2.503
0
LINE
8
CYAN2
6
CONTINUOUS
10
4.079
20
-2.503
11
4.082
21
-2.505
0
LINE
8
CYAN2
6
CONTINUOUS
10
4.082
20
-2.505
11
4.084
21
-2.51
0
LINE
8
CYAN2
6
CONTINUOUS
10
4.084
20
-2.51
11
4.084
21
-2.514
0
LINE
8
CYAN2
6
CONTINUOUS
10
4.084
20
-2.514
11
4.082
21
-2.522
0
LINE
8
CYAN2
6
CONTINUOUS
10
4.082
20
-2.522
11
4.053
21
-2.55
0
LINE
8
CYAN2
6
CONTINUOUS
10
4.053
20
-2.55
11
4.084
21
-2.55
0
LINE
8
RED2
6
CONTINUOUS
10
6.7
20
-3.25
11
6.7
21
-3.3
0
LINE
8
RED2
6
CONTINUOUS
10
6.7
20
-3.3
11
6.75
21
-3.3
0
LINE
8
RED2
6
CONTINUOUS
10
6.75
20
-3.3
11
6.7
21
-3.35
0
LINE
8
RED2
6
CONTINUOUS
10
6.7
20
-3.35
11
6.65
21
-3.3
0
LINE
8
RED2
6
CONTINUOUS
10
6.65
20
-3.3
11
6.7
21
-3.3
0
LINE
8
CYAN2
6
CONTINUOUS
10
6.666
20
-3.402
11
6.662
21
-3.399
0
LINE
8
CYAN2
6
CONTINUOUS
10
6.662
20
-3.399
11
6.655
21
-3.399
0
LINE
8
CYAN2
6
CONTINUOUS
10
6.655
20
-3.399
11
6.647
21
-3.402
0
LINE
8
CYAN2
6
CONTINUOUS
10
6.647
20
-3.402
11
6.643
21
-3.406
0
LINE
8
CYAN2
6
CONTINUOUS
10
6.643
20
-3.406
11
6.64
21
-3.411
0
LINE
8
CYAN2
6
CONTINUOUS
10
6.64
20
-3.411
11
6.638
21
-3.421
0
LINE
8
CYAN2
6
CONTINUOUS
10
6.638
20
-3.421
11
6.638
21
-3.428
0
LINE
8
CYAN2
6
CONTINUOUS
10
6.638
20
-3.428
11
6.64
21
-3.437
0
LINE
8
CYAN2
6
CONTINUOUS
10
6.64
20
-3.437
11
6.643
21
-3.442
0
LINE
8
CYAN2
6
CONTINUOUS
10
6.643
20
-3.442
11
6.647
21
-3.447
0
LINE
8
CYAN2
6
CONTINUOUS
10
6.647
20
-3.447
11
6.655
21
-3.449
0
LINE
8
CYAN2
6
CONTINUOUS
10
6.655
20
-3.449
11
6.659
21
-3.449
0
LINE
8
CYAN2
6
CONTINUOUS
10
6.659
20
-3.449
11
6.666
21
-3.447
0
LINE
8
CYAN2
6
CONTINUOUS
10
6.666
20
-3.447
11
6.669
21
-3.444
0
LINE
8
CYAN2
6
CONTINUOUS
10
6.669
20
-3.444
11
6.669
21
-3.428
0
LINE
8
CYAN2
6
CONTINUOUS
10
6.669
20
-3.428
11
6.659
21
-3.428
0
LINE
8
CYAN2
6
CONTINUOUS
10
6.69
20
-3.449
11
6.69
21
-3.399
0
LINE
8
CYAN2
6
CONTINUOUS
10
6.69
20
-3.399
11
6.719
21
-3.449
0
LINE
8
CYAN2
6
CONTINUOUS
10
6.719
20
-3.449
11
6.719
21
-3.399
0
LINE
8
CYAN2
6
CONTINUOUS
10
6.743
20
-3.449
11
6.743
21
-3.399
0
LINE
8
CYAN2
6
CONTINUOUS
10
6.743
20
-3.399
11
6.755
21
-3.399
0
LINE
8
CYAN2
6
CONTINUOUS
10
6.755
20
-3.399
11
6.762
21
-3.402
0
LINE
8
CYAN2
6
CONTINUOUS
10
6.762
20
-3.402
11
6.766
21
-3.406
0
LINE
8
CYAN2
6
CONTINUOUS
10
6.766
20
-3.406
11
6.769
21
-3.411
0
LINE
8
CYAN2
6
CONTINUOUS
10
6.769
20
-3.411
11
6.771
21
-3.421
0
LINE
8
CYAN2
6
CONTINUOUS
10
6.771
20
-3.421
11
6.771
21
-3.428
0
LINE
8
CYAN2
6
CONTINUOUS
10
6.771
20
-3.428
11
6.769
21
-3.437
0
LINE
8
CYAN2
6
CONTINUOUS
10
6.769
20
-3.437
11
6.766
21
-3.442
0
LINE
8
CYAN2
6
CONTINUOUS
10
6.766
20
-3.442
11
6.762
21
-3.447
0
LINE
8
CYAN2
6
CONTINUOUS
10
6.762
20
-3.447
11
6.755
21
-3.449
0
LINE
8
CYAN2
6
CONTINUOUS
10
6.755
20
-3.449
11
6.743
21
-3.449
0
LINE
8
RED2
6
CONTINUOUS
10
6.66
20
-2.45
11
6.66
21
-2.75
0
LINE
8
RED2
6
CONTINUOUS
10
6.66
20
-2.75
11
6.74
21
-2.75
0
LINE
8
RED2
6
CONTINUOUS
10
6.74
20
-2.75
11
6.74
21
-2.45
0
LINE
8
RED2
6
CONTINUOUS
10
6.74
20
-2.45
11
6.66
21
-2.45
0
LINE
8
RED2
6
CONTINUOUS
10
6.7
20
-2.45
11
6.7
21
-2.35
0
LINE
8
RED2
6
CONTINUOUS
10
6.7
20
-2.75
11
6.7
21
-2.85
0
LINE
8
CYAN2
6
CONTINUOUS
10
6.812
20
-2.577
11
6.796
21
-2.553
0
LINE
8
CYAN2
6
CONTINUOUS
10
6.784
20
-2.577
11
6.784
21
-2.527
0
LINE
8
CYAN2
6
CONTINUOUS
10
6.784
20
-2.527
11
6.803
21
-2.527
0
LINE
8
CYAN2
6
CONTINUOUS
10
6.803
20
-2.527
11
6.808
21
-2.53
0
LINE
8
CYAN2
6
CONTINUOUS
10
6.808
20
-2.53
11
6.81
21
-2.532
0
LINE
8
CYAN2
6
CONTINUOUS
10
6.81
20
-2.532
11
6.812
21
-2.537
0
LINE
8
CYAN2
6
CONTINUOUS
10
6.812
20
-2.537
11
6.812
21
-2.544
0
LINE
8
CYAN2
6
CONTINUOUS
10
6.812
20
-2.544
11
6.81
21
-2.549
0
LINE
8
CYAN2
6
CONTINUOUS
10
6.81
20
-2.549
11
6.808
21
-2.551
0
LINE
8
CYAN2
6
CONTINUOUS
10
6.808
20
-2.551
11
6.803
21
-2.553
0
LINE
8
CYAN2
6
CONTINUOUS
10
6.803
20
-2.553
11
6.784
21
-2.553
0
LINE
8
CYAN2
6
CONTINUOUS
10
6.86
20
-2.577
11
6.831
21
-2.577
0
LINE
8
CYAN2
6
CONTINUOUS
10
6.846
20
-2.577
11
6.846
21
-2.527
0
LINE
8
CYAN2
6
CONTINUOUS
10
6.846
20
-2.527
11
6.841
21
-2.534
0
LINE
8
CYAN2
6
CONTINUOUS
10
6.841
20
-2.534
11
6.836
21
-2.539
0
LINE
8
CYAN2
6
CONTINUOUS
10
6.836
20
-2.539
11
6.831
21
-2.541
0
LINE
8
CYAN2
6
CONTINUOUS
10
6.908
20
-2.577
11
6.879
21
-2.577
0
LINE
8
CYAN2
6
CONTINUOUS
10
6.893
20
-2.577
11
6.893
21
-2.527
0
LINE
8
CYAN2
6
CONTINUOUS
10
6.893
20
-2.527
11
6.889
21
-2.534
0
LINE
8
CYAN2
6
CONTINUOUS
10
6.889
20
-2.534
11
6.884
21
-2.539
0
LINE
8
CYAN2
6
CONTINUOUS
10
6.884
20
-2.539
11
6.879
21
-2.541
0
LINE
8
CYAN2
6
CONTINUOUS
10
6.811
20
-2.67
11
6.782
21
-2.67
0
LINE
8
CYAN2
6
CONTINUOUS
10
6.797
20
-2.67
11
6.797
21
-2.62
0
LINE
8
CYAN2
6
CONTINUOUS
10
6.797
20
-2.62
11
6.792
21
-2.627
0
LINE
8
CYAN2
6
CONTINUOUS
10
6.792
20
-2.627
11
6.787
21
-2.632
0
LINE
8
CYAN2
6
CONTINUOUS
10
6.787
20
-2.632
11
6.782
21
-2.634
0
LINE
8
CYAN2
6
CONTINUOUS
10
6.832
20
-2.67
11
6.832
21
-2.62
0
LINE
8
CYAN2
6
CONTINUOUS
10
6.861
20
-2.67
11
6.839
21
-2.642
0
LINE
8
CYAN2
6
CONTINUOUS
10
6.861
20
-2.62
11
6.832
21
-2.649
0
LINE
8
RED2
6
CONTINUOUS
10
6.75
20
-3.1
11
6.65
21
-3.1
0
LINE
8
RED2
6
CONTINUOUS
10
6.7
20
-3.1
11
6.7
21
-3
0
LINE
8
RED2
6
CONTINUOUS
10
6.75
20
-3
11
6.65
21
-3
0
LINE
8
RED2
6
CONTINUOUS
10
6.65
20
-3
11
6.7
21
-3.1
0
LINE
8
RED2
6
CONTINUOUS
10
6.7
20
-3.1
11
6.75
21
-3
0
LINE
8
RED2
6
CONTINUOUS
10
6.73
20
-3.17
11
6.79
21
-3.23
0
LINE
8
RED2
6
CONTINUOUS
10
6.79
20
-3.23
11
6.79
21
-3.2
0
LINE
8
RED2
6
CONTINUOUS
10
6.79
20
-3.2
11
6.79
21
-3.23
0
LINE
8
RED2
6
CONTINUOUS
10
6.79
20
-3.23
11
6.76
21
-3.23
0
LINE
8
RED2
6
CONTINUOUS
10
6.73
20
-3.12
11
6.79
21
-3.18
0
LINE
8
RED2
6
CONTINUOUS
10
6.79
20
-3.18
11
6.79
21
-3.15
0
LINE
8
RED2
6
CONTINUOUS
10
6.79
20
-3.15
11
6.79
21
-3.18
0
LINE
8
RED2
6
CONTINUOUS
10
6.79
20
-3.18
11
6.76
21
-3.18
0
LINE
8
RED2
6
CONTINUOUS
10
6.7
20
-3.1
11
6.7
21
-3.2
0
LINE
8
RED2
6
CONTINUOUS
10
6.7
20
-3
11
6.7
21
-2.9
0
LINE
8
CYAN2
6
CONTINUOUS
10
6.834
20
-3.029
11
6.834
21
-2.979
0
LINE
8
CYAN2
6
CONTINUOUS
10
6.834
20
-2.979
11
6.846
21
-2.979
0
LINE
8
CYAN2
6
CONTINUOUS
10
6.846
20
-2.979
11
6.853
21
-2.982
0
LINE
8
CYAN2
6
CONTINUOUS
10
6.853
20
-2.982
11
6.857
21
-2.986
0
LINE
8
CYAN2
6
CONTINUOUS
10
6.857
20
-2.986
11
6.86
21
-2.991
0
LINE
8
CYAN2
6
CONTINUOUS
10
6.86
20
-2.991
11
6.862
21
-3.001
0
LINE
8
CYAN2
6
CONTINUOUS
10
6.862
20
-3.001
11
6.862
21
-3.008
0
LINE
8
CYAN2
6
CONTINUOUS
10
6.862
20
-3.008
11
6.86
21
-3.017
0
LINE
8
CYAN2
6
CONTINUOUS
10
6.86
20
-3.017
11
6.857
21
-3.022
0
LINE
8
CYAN2
6
CONTINUOUS
10
6.857
20
-3.022
11
6.853
21
-3.027
0
LINE
8
CYAN2
6
CONTINUOUS
10
6.853
20
-3.027
11
6.846
21
-3.029
0
LINE
8
CYAN2
6
CONTINUOUS
10
6.846
20
-3.029
11
6.834
21
-3.029
0
LINE
8
CYAN2
6
CONTINUOUS
10
6.905
20
-2.996
11
6.905
21
-3.029
0
LINE
8
CYAN2
6
CONTINUOUS
10
6.893
20
-2.977
11
6.881
21
-3.012
0
LINE
8
CYAN2
6
CONTINUOUS
10
6.881
20
-3.012
11
6.912
21
-3.012
0
LINE
8
CYAN2
6
CONTINUOUS
10
6.834
20
-3.122
11
6.834
21
-3.072
0
LINE
8
CYAN2
6
CONTINUOUS
10
6.834
20
-3.072
11
6.853
21
-3.072
0
LINE
8
CYAN2
6
CONTINUOUS
10
6.853
20
-3.072
11
6.857
21
-3.075
0
LINE
8
CYAN2
6
CONTINUOUS
10
6.857
20
-3.075
11
6.86
21
-3.077
0
LINE
8
CYAN2
6
CONTINUOUS
10
6.86
20
-3.077
11
6.862
21
-3.082
0
LINE
8
CYAN2
6
CONTINUOUS
10
6.862
20
-3.082
11
6.862
21
-3.089
0
LINE
8
CYAN2
6
CONTINUOUS
10
6.862
20
-3.089
11
6.86
21
-3.094
0
LINE
8
CYAN2
6
CONTINUOUS
10
6.86
20
-3.094
11
6.857
21
-3.096
0
LINE
8
CYAN2
6
CONTINUOUS
10
6.857
20
-3.096
11
6.853
21
-3.098
0
LINE
8
CYAN2
6
CONTINUOUS
10
6.853
20
-3.098
11
6.834
21
-3.098
0
LINE
8
CYAN2
6
CONTINUOUS
10
6.891
20
-3.122
11
6.886
21
-3.12
0
LINE
8
CYAN2
6
CONTINUOUS
10
6.886
20
-3.12
11
6.884
21
-3.117
0
LINE
8
CYAN2
6
CONTINUOUS
10
6.884
20
-3.117
11
6.881
21
-3.113
0
LINE
8
CYAN2
6
CONTINUOUS
10
6.881
20
-3.113
11
6.881
21
-3.098
0
LINE
8
CYAN2
6
CONTINUOUS
10
6.881
20
-3.098
11
6.884
21
-3.094
0
LINE
8
CYAN2
6
CONTINUOUS
10
6.884
20
-3.094
11
6.886
21
-3.091
0
LINE
8
CYAN2
6
CONTINUOUS
10
6.886
20
-3.091
11
6.891
21
-3.089
0
LINE
8
CYAN2
6
CONTINUOUS
10
6.891
20
-3.089
11
6.898
21
-3.089
0
LINE
8
CYAN2
6
CONTINUOUS
10
6.898
20
-3.089
11
6.903
21
-3.091
0
LINE
8
CYAN2
6
CONTINUOUS
10
6.903
20
-3.091
11
6.905
21
-3.094
0
LINE
8
CYAN2
6
CONTINUOUS
10
6.905
20
-3.094
11
6.907
21
-3.098
0
LINE
8
CYAN2
6
CONTINUOUS
10
6.907
20
-3.098
11
6.907
21
-3.113
0
LINE
8
CYAN2
6
CONTINUOUS
10
6.907
20
-3.113
11
6.905
21
-3.117
0
LINE
8
CYAN2
6
CONTINUOUS
10
6.905
20
-3.117
11
6.903
21
-3.12
0
LINE
8
CYAN2
6
CONTINUOUS
10
6.903
20
-3.12
11
6.898
21
-3.122
0
LINE
8
CYAN2
6
CONTINUOUS
10
6.898
20
-3.122
11
6.891
21
-3.122
0
LINE
8
CYAN2
6
CONTINUOUS
10
6.924
20
-3.089
11
6.934
21
-3.122
0
LINE
8
CYAN2
6
CONTINUOUS
10
6.934
20
-3.122
11
6.943
21
-3.098
0
LINE
8
CYAN2
6
CONTINUOUS
10
6.943
20
-3.098
11
6.953
21
-3.122
0
LINE
8
CYAN2
6
CONTINUOUS
10
6.953
20
-3.122
11
6.962
21
-3.089
0
LINE
8
CYAN2
6
CONTINUOUS
10
7
20
-3.12
11
6.996
21
-3.122
0
LINE
8
CYAN2
6
CONTINUOUS
10
6.996
20
-3.122
11
6.986
21
-3.122
0
LINE
8
CYAN2
6
CONTINUOUS
10
6.986
20
-3.122
11
6.981
21
-3.12
0
LINE
8
CYAN2
6
CONTINUOUS
10
6.981
20
-3.12
11
6.979
21
-3.115
0
LINE
8
CYAN2
6
CONTINUOUS
10
6.979
20
-3.115
11
6.979
21
-3.096
0
LINE
8
CYAN2
6
CONTINUOUS
10
6.979
20
-3.096
11
6.981
21
-3.091
0
LINE
8
CYAN2
6
CONTINUOUS
10
6.981
20
-3.091
11
6.986
21
-3.089
0
LINE
8
CYAN2
6
CONTINUOUS
10
6.986
20
-3.089
11
6.996
21
-3.089
0
LINE
8
CYAN2
6
CONTINUOUS
10
6.996
20
-3.089
11
7
21
-3.091
0
LINE
8
CYAN2
6
CONTINUOUS
10
7
20
-3.091
11
7.003
21
-3.096
0
LINE
8
CYAN2
6
CONTINUOUS
10
7.003
20
-3.096
11
7.003
21
-3.101
0
LINE
8
CYAN2
6
CONTINUOUS
10
7.003
20
-3.101
11
6.979
21
-3.105
0
LINE
8
CYAN2
6
CONTINUOUS
10
7.024
20
-3.122
11
7.024
21
-3.089
0
LINE
8
CYAN2
6
CONTINUOUS
10
7.024
20
-3.098
11
7.026
21
-3.094
0
LINE
8
CYAN2
6
CONTINUOUS
10
7.026
20
-3.094
11
7.029
21
-3.091
0
LINE
8
CYAN2
6
CONTINUOUS
10
7.029
20
-3.091
11
7.034
21
-3.089
0
LINE
8
CYAN2
6
CONTINUOUS
10
7.034
20
-3.089
11
7.038
21
-3.089
0
LINE
8
CYAN2
6
CONTINUOUS
10
7.043
20
-3.127
11
7.081
21
-3.127
0
LINE
8
CYAN2
6
CONTINUOUS
10
7.122
20
-3.122
11
7.105
21
-3.098
0
LINE
8
CYAN2
6
CONTINUOUS
10
7.093
20
-3.122
11
7.093
21
-3.072
0
LINE
8
CYAN2
6
CONTINUOUS
10
7.093
20
-3.072
11
7.112
21
-3.072
0
LINE
8
CYAN2
6
CONTINUOUS
10
7.112
20
-3.072
11
7.117
21
-3.075
0
LINE
8
CYAN2
6
CONTINUOUS
10
7.117
20
-3.075
11
7.119
21
-3.077
0
LINE
8
CYAN2
6
CONTINUOUS
10
7.119
20
-3.077
11
7.122
21
-3.082
0
LINE
8
CYAN2
6
CONTINUOUS
10
7.122
20
-3.082
11
7.122
21
-3.089
0
LINE
8
CYAN2
6
CONTINUOUS
10
7.122
20
-3.089
11
7.119
21
-3.094
0
LINE
8
CYAN2
6
CONTINUOUS
10
7.119
20
-3.094
11
7.117
21
-3.096
0
LINE
8
CYAN2
6
CONTINUOUS
10
7.117
20
-3.096
11
7.112
21
-3.098
0
LINE
8
CYAN2
6
CONTINUOUS
10
7.112
20
-3.098
11
7.093
21
-3.098
0
LINE
8
CYAN2
6
CONTINUOUS
10
7.162
20
-3.12
11
7.157
21
-3.122
0
LINE
8
CYAN2
6
CONTINUOUS
10
7.157
20
-3.122
11
7.148
21
-3.122
0
LINE
8
CYAN2
6
CONTINUOUS
10
7.148
20
-3.122
11
7.143
21
-3.12
0
LINE
8
CYAN2
6
CONTINUOUS
10
7.143
20
-3.12
11
7.141
21
-3.115
0
LINE
8
CYAN2
6
CONTINUOUS
10
7.141
20
-3.115
11
7.141
21
-3.096
0
LINE
8
CYAN2
6
CONTINUOUS
10
7.141
20
-3.096
11
7.143
21
-3.091
0
LINE
8
CYAN2
6
CONTINUOUS
10
7.143
20
-3.091
11
7.148
21
-3.089
0
LINE
8
CYAN2
6
CONTINUOUS
10
7.148
20
-3.089
11
7.157
21
-3.089
0
LINE
8
CYAN2
6
CONTINUOUS
10
7.157
20
-3.089
11
7.162
21
-3.091
0
LINE
8
CYAN2
6
CONTINUOUS
10
7.162
20
-3.091
11
7.165
21
-3.096
0
LINE
8
CYAN2
6
CONTINUOUS
10
7.165
20
-3.096
11
7.165
21
-3.101
0
LINE
8
CYAN2
6
CONTINUOUS
10
7.165
20
-3.101
11
7.141
21
-3.105
0
LINE
8
CYAN2
6
CONTINUOUS
10
7.207
20
-3.122
11
7.207
21
-3.072
0
LINE
8
CYAN2
6
CONTINUOUS
10
7.207
20
-3.12
11
7.203
21
-3.122
0
LINE
8
CYAN2
6
CONTINUOUS
10
7.203
20
-3.122
11
7.193
21
-3.122
0
LINE
8
CYAN2
6
CONTINUOUS
10
7.193
20
-3.122
11
7.188
21
-3.12
0
LINE
8
CYAN2
6
CONTINUOUS
10
7.188
20
-3.12
11
7.186
21
-3.117
0
LINE
8
CYAN2
6
CONTINUOUS
10
7.186
20
-3.117
11
7.184
21
-3.113
0
LINE
8
CYAN2
6
CONTINUOUS
10
7.184
20
-3.113
11
7.184
21
-3.098
0
LINE
8
CYAN2
6
CONTINUOUS
10
7.184
20
-3.098
11
7.186
21
-3.094
0
LINE
8
CYAN2
6
CONTINUOUS
10
7.186
20
-3.094
11
7.188
21
-3.091
0
LINE
8
CYAN2
6
CONTINUOUS
10
7.188
20
-3.091
11
7.193
21
-3.089
0
LINE
8
CYAN2
6
CONTINUOUS
10
7.193
20
-3.089
11
7.203
21
-3.089
0
LINE
8
CYAN2
6
CONTINUOUS
10
7.203
20
-3.089
11
7.207
21
-3.091
0
CIRCLE
8
RED2
10
6.7
20
-2.225
40
0.025
0
LINE
8
RED2
6
CONTINUOUS
10
6.7
20
-2.3
11
6.7
21
-2.25
0
LINE
8
CYAN2
6
CONTINUOUS
10
6.65
20
-2.099
11
6.667
21
-2.149
0
LINE
8
CYAN2
6
CONTINUOUS
10
6.667
20
-2.149
11
6.683
21
-2.099
0
LINE
8
CYAN2
6
CONTINUOUS
10
6.728
20
-2.144
11
6.726
21
-2.147
0
LINE
8
CYAN2
6
CONTINUOUS
10
6.726
20
-2.147
11
6.719
21
-2.149
0
LINE
8
CYAN2
6
CONTINUOUS
10
6.719
20
-2.149
11
6.714
21
-2.149
0
LINE
8
CYAN2
6
CONTINUOUS
10
6.714
20
-2.149
11
6.707
21
-2.147
0
LINE
8
CYAN2
6
CONTINUOUS
10
6.707
20
-2.147
11
6.702
21
-2.142
0
LINE
8
CYAN2
6
CONTINUOUS
10
6.702
20
-2.142
11
6.7
21
-2.137
0
LINE
8
CYAN2
6
CONTINUOUS
10
6.7
20
-2.137
11
6.697
21
-2.128
0
LINE
8
CYAN2
6
CONTINUOUS
10
6.697
20
-2.128
11
6.697
21
-2.121
0
LINE
8
CYAN2
6
CONTINUOUS
10
6.697
20
-2.121
11
6.7
21
-2.111
0
LINE
8
CYAN2
6
CONTINUOUS
10
6.7
20
-2.111
11
6.702
21
-2.106
0
LINE
8
CYAN2
6
CONTINUOUS
10
6.702
20
-2.106
11
6.707
21
-2.102
0
LINE
8
CYAN2
6
CONTINUOUS
10
6.707
20
-2.102
11
6.714
21
-2.099
0
LINE
8
CYAN2
6
CONTINUOUS
10
6.714
20
-2.099
11
6.719
21
-2.099
0
LINE
8
CYAN2
6
CONTINUOUS
10
6.719
20
-2.099
11
6.726
21
-2.102
0
LINE
8
CYAN2
6
CONTINUOUS
10
6.726
20
-2.102
11
6.728
21
-2.104
0
LINE
8
CYAN2
6
CONTINUOUS
10
6.778
20
-2.144
11
6.776
21
-2.147
0
LINE
8
CYAN2
6
CONTINUOUS
10
6.776
20
-2.147
11
6.769
21
-2.149
0
LINE
8
CYAN2
6
CONTINUOUS
10
6.769
20
-2.149
11
6.764
21
-2.149
0
LINE
8
CYAN2
6
CONTINUOUS
10
6.764
20
-2.149
11
6.757
21
-2.147
0
LINE
8
CYAN2
6
CONTINUOUS
10
6.757
20
-2.147
11
6.752
21
-2.142
0
LINE
8
CYAN2
6
CONTINUOUS
10
6.752
20
-2.142
11
6.75
21
-2.137
0
LINE
8
CYAN2
6
CONTINUOUS
10
6.75
20
-2.137
11
6.747
21
-2.128
0
LINE
8
CYAN2
6
CONTINUOUS
10
6.747
20
-2.128
11
6.747
21
-2.121
0
LINE
8
CYAN2
6
CONTINUOUS
10
6.747
20
-2.121
11
6.75
21
-2.111
0
LINE
8
CYAN2
6
CONTINUOUS
10
6.75
20
-2.111
11
6.752
21
-2.106
0
LINE
8
CYAN2
6
CONTINUOUS
10
6.752
20
-2.106
11
6.757
21
-2.102
0
LINE
8
CYAN2
6
CONTINUOUS
10
6.757
20
-2.102
11
6.764
21
-2.099
0
LINE
8
CYAN2
6
CONTINUOUS
10
6.764
20
-2.099
11
6.769
21
-2.099
0
LINE
8
CYAN2
6
CONTINUOUS
10
6.769
20
-2.099
11
6.776
21
-2.102
0
LINE
8
CYAN2
6
CONTINUOUS
10
6.776
20
-2.102
11
6.778
21
-2.104
0
CIRCLE
8
RED2
10
5.55
20
-2.425
40
0.025
0
LINE
8
RED2
6
CONTINUOUS
10
5.55
20
-2.5
11
5.55
21
-2.45
0
LINE
8
CYAN2
6
CONTINUOUS
10
5.5
20
-2.299
11
5.517
21
-2.349
0
LINE
8
CYAN2
6
CONTINUOUS
10
5.517
20
-2.349
11
5.533
21
-2.299
0
LINE
8
CYAN2
6
CONTINUOUS
10
5.578
20
-2.344
11
5.576
21
-2.347
0
LINE
8
CYAN2
6
CONTINUOUS
10
5.576
20
-2.347
11
5.569
21
-2.349
0
LINE
8
CYAN2
6
CONTINUOUS
10
5.569
20
-2.349
11
5.564
21
-2.349
0
LINE
8
CYAN2
6
CONTINUOUS
10
5.564
20
-2.349
11
5.557
21
-2.347
0
LINE
8
CYAN2
6
CONTINUOUS
10
5.557
20
-2.347
11
5.552
21
-2.342
0
LINE
8
CYAN2
6
CONTINUOUS
10
5.552
20
-2.342
11
5.55
21
-2.337
0
LINE
8
CYAN2
6
CONTINUOUS
10
5.55
20
-2.337
11
5.547
21
-2.328
0
LINE
8
CYAN2
6
CONTINUOUS
10
5.547
20
-2.328
11
5.547
21
-2.321
0
LINE
8
CYAN2
6
CONTINUOUS
10
5.547
20
-2.321
11
5.55
21
-2.311
0
LINE
8
CYAN2
6
CONTINUOUS
10
5.55
20
-2.311
11
5.552
21
-2.306
0
LINE
8
CYAN2
6
CONTINUOUS
10
5.552
20
-2.306
11
5.557
21
-2.302
0
LINE
8
CYAN2
6
CONTINUOUS
10
5.557
20
-2.302
11
5.564
21
-2.299
0
LINE
8
CYAN2
6
CONTINUOUS
10
5.564
20
-2.299
11
5.569
21
-2.299
0
LINE
8
CYAN2
6
CONTINUOUS
10
5.569
20
-2.299
11
5.576
21
-2.302
0
LINE
8
CYAN2
6
CONTINUOUS
10
5.576
20
-2.302
11
5.578
21
-2.304
0
LINE
8
CYAN2
6
CONTINUOUS
10
5.628
20
-2.344
11
5.626
21
-2.347
0
LINE
8
CYAN2
6
CONTINUOUS
10
5.626
20
-2.347
11
5.619
21
-2.349
0
LINE
8
CYAN2
6
CONTINUOUS
10
5.619
20
-2.349
11
5.614
21
-2.349
0
LINE
8
CYAN2
6
CONTINUOUS
10
5.614
20
-2.349
11
5.607
21
-2.347
0
LINE
8
CYAN2
6
CONTINUOUS
10
5.607
20
-2.347
11
5.602
21
-2.342
0
LINE
8
CYAN2
6
CONTINUOUS
10
5.602
20
-2.342
11
5.6
21
-2.337
0
LINE
8
CYAN2
6
CONTINUOUS
10
5.6
20
-2.337
11
5.597
21
-2.328
0
LINE
8
CYAN2
6
CONTINUOUS
10
5.597
20
-2.328
11
5.597
21
-2.321
0
LINE
8
CYAN2
6
CONTINUOUS
10
5.597
20
-2.321
11
5.6
21
-2.311
0
LINE
8
CYAN2
6
CONTINUOUS
10
5.6
20
-2.311
11
5.602
21
-2.306
0
LINE
8
CYAN2
6
CONTINUOUS
10
5.602
20
-2.306
11
5.607
21
-2.302
0
LINE
8
CYAN2
6
CONTINUOUS
10
5.607
20
-2.302
11
5.614
21
-2.299
0
LINE
8
CYAN2
6
CONTINUOUS
10
5.614
20
-2.299
11
5.619
21
-2.299
0
LINE
8
CYAN2
6
CONTINUOUS
10
5.619
20
-2.299
11
5.626
21
-2.302
0
LINE
8
CYAN2
6
CONTINUOUS
10
5.626
20
-2.302
11
5.628
21
-2.304
0
CIRCLE
8
RED2
10
5.95
20
-2.8
40
0.02
0
CIRCLE
8
RED2
10
5.95
20
-2.75
40
0.02
0
CIRCLE
8
RED2
10
5.95
20
-2.7
40
0.021
0
CIRCLE
8
RED2
10
5.95
20
-2.648
40
0.021
0
LINE
8
LYELLOW
6
CONTINUOUS
10
5.97
20
-2.578
11
5.97
21
-2.618
0
LINE
8
LYELLOW
6
CONTINUOUS
10
5.97
20
-2.618
11
5.928
21
-2.618
0
LINE
8
LYELLOW
6
CONTINUOUS
10
5.928
20
-2.618
11
5.928
21
-2.578
0
LINE
8
LYELLOW
6
CONTINUOUS
10
5.928
20
-2.578
11
5.97
21
-2.578
0
LINE
8
RED2
6
CONTINUOUS
10
5.97
20
-2.578
11
5.97
21
-2.618
0
LINE
8
RED2
6
CONTINUOUS
10
5.97
20
-2.618
11
5.928
21
-2.618
0
LINE
8
RED2
6
CONTINUOUS
10
5.928
20
-2.618
11
5.928
21
-2.578
0
LINE
8
RED2
6
CONTINUOUS
10
5.928
20
-2.578
11
5.97
21
-2.578
0
CIRCLE
8
RED2
10
5.95
20
-2.8
40
0.02
0
CIRCLE
8
RED2
10
5.95
20
-2.75
40
0.02
0
CIRCLE
8
RED2
10
5.95
20
-2.7
40
0.021
0
CIRCLE
8
RED2
10
5.95
20
-2.648
40
0.021
0
LINE
8
RED2
6
CONTINUOUS
10
5.97
20
-2.578
11
5.97
21
-2.618
0
LINE
8
RED2
6
CONTINUOUS
10
5.97
20
-2.618
11
5.928
21
-2.618
0
LINE
8
RED2
6
CONTINUOUS
10
5.928
20
-2.618
11
5.928
21
-2.578
0
LINE
8
RED2
6
CONTINUOUS
10
5.928
20
-2.578
11
5.97
21
-2.578
0
LINE
8
RED2
6
CONTINUOUS
10
6.005
20
-2.55
11
6.005
21
-2.85
0
LINE
8
RED2
6
CONTINUOUS
10
6.005
20
-2.85
11
5.995
21
-2.85
0
LINE
8
RED2
6
CONTINUOUS
10
5.995
20
-2.85
11
5.995
21
-2.55
0
LINE
8
RED2
6
CONTINUOUS
10
5.995
20
-2.55
11
6.005
21
-2.55
0
LINE
8
RED2
6
CONTINUOUS
10
6
20
-2.84
11
6
21
-2.85
0
LINE
8
RED2
6
CONTINUOUS
10
6
20
-2.85
11
5.965
21
-2.85
0
LINE
8
RED2
6
CONTINUOUS
10
5.965
20
-2.85
11
5.965
21
-2.84
0
LINE
8
RED2
6
CONTINUOUS
10
5.965
20
-2.84
11
6
21
-2.84
0
LINE
8
RED2
6
CONTINUOUS
10
6
20
-2.55
11
6
21
-2.85
0
LINE
8
RED2
6
CONTINUOUS
10
6
20
-2.85
11
5.9
21
-2.85
0
LINE
8
RED2
6
CONTINUOUS
10
5.9
20
-2.85
11
5.9
21
-2.55
0
LINE
8
RED2
6
CONTINUOUS
10
5.9
20
-2.55
11
6
21
-2.55
0
LINE
8
RED2
6
CONTINUOUS
10
5.966
20
-2.85
11
5.966
21
-2.848
0
LINE
8
RED2
6
CONTINUOUS
10
5.966
20
-2.848
11
5.93
21
-2.848
0
LINE
8
RED2
6
CONTINUOUS
10
5.93
20
-2.848
11
5.93
21
-2.85
0
LINE
8
RED2
6
CONTINUOUS
10
5.93
20
-2.85
11
5.966
21
-2.85
0
LINE
8
RED2
6
CONTINUOUS
10
5.966
20
-2.55
11
5.966
21
-2.552
0
LINE
8
RED2
6
CONTINUOUS
10
5.966
20
-2.552
11
5.928
21
-2.552
0
LINE
8
RED2
6
CONTINUOUS
10
5.928
20
-2.552
11
5.928
21
-2.55
0
LINE
8
RED2
6
CONTINUOUS
10
5.928
20
-2.55
11
5.966
21
-2.55
0
LINE
8
RED2
6
CONTINUOUS
10
5.965
20
-2.56
11
5.965
21
-2.55
0
LINE
8
RED2
6
CONTINUOUS
10
5.965
20
-2.55
11
6
21
-2.55
0
LINE
8
RED2
6
CONTINUOUS
10
6
20
-2.55
11
6
21
-2.56
0
LINE
8
RED2
6
CONTINUOUS
10
6
20
-2.56
11
5.965
21
-2.56
0
LINE
8
RED2
6
CONTINUOUS
10
5.93
20
-2.84
11
5.93
21
-2.85
0
LINE
8
RED2
6
CONTINUOUS
10
5.93
20
-2.85
11
5.895
21
-2.85
0
LINE
8
RED2
6
CONTINUOUS
10
5.895
20
-2.85
11
5.895
21
-2.84
0
LINE
8
RED2
6
CONTINUOUS
10
5.895
20
-2.84
11
5.93
21
-2.84
0
LINE
8
RED2
6
CONTINUOUS
10
5.93
20
-2.56
11
5.93
21
-2.55
0
LINE
8
RED2
6
CONTINUOUS
10
5.93
20
-2.55
11
5.895
21
-2.55
0
LINE
8
RED2
6
CONTINUOUS
10
5.895
20
-2.55
11
5.895
21
-2.56
0
LINE
8
RED2
6
CONTINUOUS
10
5.895
20
-2.56
11
5.93
21
-2.56
0
LINE
8
RED2
6
CONTINUOUS
10
5.905
20
-2.85
11
5.905
21
-2.82
0
LINE
8
RED2
6
CONTINUOUS
10
5.905
20
-2.82
11
5.895
21
-2.82
0
LINE
8
RED2
6
CONTINUOUS
10
5.895
20
-2.82
11
5.895
21
-2.85
0
LINE
8
RED2
6
CONTINUOUS
10
5.895
20
-2.85
11
5.905
21
-2.85
0
LINE
8
RED2
6
CONTINUOUS
10
5.905
20
-2.58
11
5.905
21
-2.55
0
LINE
8
RED2
6
CONTINUOUS
10
5.905
20
-2.55
11
5.895
21
-2.55
0
LINE
8
RED2
6
CONTINUOUS
10
5.895
20
-2.55
11
5.895
21
-2.58
0
LINE
8
RED2
6
CONTINUOUS
10
5.895
20
-2.58
11
5.905
21
-2.58
0
LINE
8
RED2
6
CONTINUOUS
10
5.9
20
-2.58
11
5.9
21
-2.82
0
LINE
8
RED2
6
CONTINUOUS
10
5.9
20
-2.6
11
5.8
21
-2.6
0
LINE
8
RED2
6
CONTINUOUS
10
5.855
20
-2.591
11
5.844
21
-2.591
0
LINE
8
RED2
6
CONTINUOUS
10
5.85
20
-2.591
11
5.85
21
-2.571
0
LINE
8
RED2
6
CONTINUOUS
10
5.85
20
-2.571
11
5.848
21
-2.573
0
LINE
8
RED2
6
CONTINUOUS
10
5.848
20
-2.573
11
5.846
21
-2.575
0
LINE
8
RED2
6
CONTINUOUS
10
5.846
20
-2.575
11
5.844
21
-2.576
0
LINE
8
RED2
6
CONTINUOUS
10
5.9
20
-2.65
11
5.8
21
-2.65
0
LINE
8
RED2
6
CONTINUOUS
10
5.844
20
-2.622
11
5.845
21
-2.622
0
LINE
8
RED2
6
CONTINUOUS
10
5.845
20
-2.622
11
5.847
21
-2.621
0
LINE
8
RED2
6
CONTINUOUS
10
5.847
20
-2.621
11
5.851
21
-2.621
0
LINE
8
RED2
6
CONTINUOUS
10
5.851
20
-2.621
11
5.853
21
-2.622
0
LINE
8
RED2
6
CONTINUOUS
10
5.853
20
-2.622
11
5.854
21
-2.622
0
LINE
8
RED2
6
CONTINUOUS
10
5.854
20
-2.622
11
5.855
21
-2.624
0
LINE
8
RED2
6
CONTINUOUS
10
5.855
20
-2.624
11
5.855
21
-2.626
0
LINE
8
RED2
6
CONTINUOUS
10
5.855
20
-2.626
11
5.854
21
-2.629
0
LINE
8
RED2
6
CONTINUOUS
10
5.854
20
-2.629
11
5.843
21
-2.641
0
LINE
8
RED2
6
CONTINUOUS
10
5.843
20
-2.641
11
5.855
21
-2.641
0
LINE
8
RED2
6
CONTINUOUS
10
5.9
20
-2.7
11
5.8
21
-2.7
0
LINE
8
RED2
6
CONTINUOUS
10
5.843
20
-2.671
11
5.855
21
-2.671
0
LINE
8
RED2
6
CONTINUOUS
10
5.855
20
-2.671
11
5.849
21
-2.678
0
LINE
8
RED2
6
CONTINUOUS
10
5.849
20
-2.678
11
5.851
21
-2.678
0
LINE
8
RED2
6
CONTINUOUS
10
5.851
20
-2.678
11
5.853
21
-2.679
0
LINE
8
RED2
6
CONTINUOUS
10
5.853
20
-2.679
11
5.854
21
-2.68
0
LINE
8
RED2
6
CONTINUOUS
10
5.854
20
-2.68
11
5.855
21
-2.682
0
LINE
8
RED2
6
CONTINUOUS
10
5.855
20
-2.682
11
5.855
21
-2.687
0
LINE
8
RED2
6
CONTINUOUS
10
5.855
20
-2.687
11
5.854
21
-2.689
0
LINE
8
RED2
6
CONTINUOUS
10
5.854
20
-2.689
11
5.853
21
-2.69
0
LINE
8
RED2
6
CONTINUOUS
10
5.853
20
-2.69
11
5.851
21
-2.691
0
LINE
8
RED2
6
CONTINUOUS
10
5.851
20
-2.691
11
5.846
21
-2.691
0
LINE
8
RED2
6
CONTINUOUS
10
5.846
20
-2.691
11
5.844
21
-2.69
0
LINE
8
RED2
6
CONTINUOUS
10
5.844
20
-2.69
11
5.843
21
-2.689
0
LINE
8
RED2
6
CONTINUOUS
10
5.9
20
-2.75
11
5.8
21
-2.75
0
LINE
8
RED2
6
CONTINUOUS
10
5.853
20
-2.727
11
5.853
21
-2.741
0
LINE
8
RED2
6
CONTINUOUS
10
5.849
20
-2.72
11
5.844
21
-2.734
0
LINE
8
RED2
6
CONTINUOUS
10
5.844
20
-2.734
11
5.856
21
-2.734
0
LINE
8
RED2
6
CONTINUOUS
10
5.9
20
-2.8
11
5.8
21
-2.8
0
LINE
8
RED2
6
CONTINUOUS
10
5.854
20
-2.771
11
5.845
21
-2.771
0
LINE
8
RED2
6
CONTINUOUS
10
5.845
20
-2.771
11
5.844
21
-2.78
0
LINE
8
RED2
6
CONTINUOUS
10
5.844
20
-2.78
11
5.845
21
-2.779
0
LINE
8
RED2
6
CONTINUOUS
10
5.845
20
-2.779
11
5.847
21
-2.778
0
LINE
8
RED2
6
CONTINUOUS
10
5.847
20
-2.778
11
5.851
21
-2.778
0
LINE
8
RED2
6
CONTINUOUS
10
5.851
20
-2.778
11
5.853
21
-2.779
0
LINE
8
RED2
6
CONTINUOUS
10
5.853
20
-2.779
11
5.854
21
-2.78
0
LINE
8
RED2
6
CONTINUOUS
10
5.854
20
-2.78
11
5.855
21
-2.782
0
LINE
8
RED2
6
CONTINUOUS
10
5.855
20
-2.782
11
5.855
21
-2.787
0
LINE
8
RED2
6
CONTINUOUS
10
5.855
20
-2.787
11
5.854
21
-2.789
0
LINE
8
RED2
6
CONTINUOUS
10
5.854
20
-2.789
11
5.853
21
-2.79
0
LINE
8
RED2
6
CONTINUOUS
10
5.853
20
-2.79
11
5.851
21
-2.791
0
LINE
8
RED2
6
CONTINUOUS
10
5.851
20
-2.791
11
5.847
21
-2.791
0
LINE
8
RED2
6
CONTINUOUS
10
5.847
20
-2.791
11
5.845
21
-2.79
0
LINE
8
RED2
6
CONTINUOUS
10
5.845
20
-2.79
11
5.844
21
-2.789
0
LINE
8
CYAN2
6
CONTINUOUS
10
6.065
20
-2.616
11
6.065
21
-2.659
0
LINE
8
CYAN2
6
CONTINUOUS
10
6.065
20
-2.659
11
6.062
21
-2.667
0
LINE
8
CYAN2
6
CONTINUOUS
10
6.062
20
-2.667
11
6.056
21
-2.673
0
LINE
8
CYAN2
6
CONTINUOUS
10
6.056
20
-2.673
11
6.047
21
-2.676
0
LINE
8
CYAN2
6
CONTINUOUS
10
6.047
20
-2.676
11
6.042
21
-2.676
0
LINE
8
CYAN2
6
CONTINUOUS
10
6.119
20
-2.636
11
6.119
21
-2.676
0
LINE
8
CYAN2
6
CONTINUOUS
10
6.105
20
-2.613
11
6.09
21
-2.656
0
LINE
8
CYAN2
6
CONTINUOUS
10
6.09
20
-2.656
11
6.127
21
-2.656
0
LINE
8
CYAN2
6
CONTINUOUS
10
6.048
20
-2.752
11
6.068
21
-2.752
0
LINE
8
CYAN2
6
CONTINUOUS
10
6.077
20
-2.784
11
6.048
21
-2.784
0
LINE
8
CYAN2
6
CONTINUOUS
10
6.048
20
-2.784
11
6.048
21
-2.724
0
LINE
8
CYAN2
6
CONTINUOUS
10
6.048
20
-2.724
11
6.077
21
-2.724
0
LINE
8
CYAN2
6
CONTINUOUS
10
6.128
20
-2.784
11
6.128
21
-2.724
0
LINE
8
CYAN2
6
CONTINUOUS
10
6.128
20
-2.781
11
6.122
21
-2.784
0
LINE
8
CYAN2
6
CONTINUOUS
10
6.122
20
-2.784
11
6.111
21
-2.784
0
LINE
8
CYAN2
6
CONTINUOUS
10
6.111
20
-2.784
11
6.105
21
-2.781
0
LINE
8
CYAN2
6
CONTINUOUS
10
6.105
20
-2.781
11
6.102
21
-2.778
0
LINE
8
CYAN2
6
CONTINUOUS
10
6.102
20
-2.778
11
6.099
21
-2.772
0
LINE
8
CYAN2
6
CONTINUOUS
10
6.099
20
-2.772
11
6.099
21
-2.755
0
LINE
8
CYAN2
6
CONTINUOUS
10
6.099
20
-2.755
11
6.102
21
-2.749
0
LINE
8
CYAN2
6
CONTINUOUS
10
6.102
20
-2.749
11
6.105
21
-2.747
0
LINE
8
CYAN2
6
CONTINUOUS
10
6.105
20
-2.747
11
6.111
21
-2.744
0
LINE
8
CYAN2
6
CONTINUOUS
10
6.111
20
-2.744
11
6.122
21
-2.744
0
LINE
8
CYAN2
6
CONTINUOUS
10
6.122
20
-2.744
11
6.128
21
-2.747
0
LINE
8
CYAN2
6
CONTINUOUS
10
6.182
20
-2.744
11
6.182
21
-2.792
0
LINE
8
CYAN2
6
CONTINUOUS
10
6.182
20
-2.792
11
6.179
21
-2.798
0
LINE
8
CYAN2
6
CONTINUOUS
10
6.179
20
-2.798
11
6.177
21
-2.801
0
LINE
8
CYAN2
6
CONTINUOUS
10
6.177
20
-2.801
11
6.171
21
-2.804
0
LINE
8
CYAN2
6
CONTINUOUS
10
6.171
20
-2.804
11
6.162
21
-2.804
0
LINE
8
CYAN2
6
CONTINUOUS
10
6.162
20
-2.804
11
6.157
21
-2.801
0
LINE
8
CYAN2
6
CONTINUOUS
10
6.182
20
-2.781
11
6.177
21
-2.784
0
LINE
8
CYAN2
6
CONTINUOUS
10
6.177
20
-2.784
11
6.165
21
-2.784
0
LINE
8
CYAN2
6
CONTINUOUS
10
6.165
20
-2.784
11
6.159
21
-2.781
0
LINE
8
CYAN2
6
CONTINUOUS
10
6.159
20
-2.781
11
6.157
21
-2.778
0
LINE
8
CYAN2
6
CONTINUOUS
10
6.157
20
-2.778
11
6.154
21
-2.772
0
LINE
8
CYAN2
6
CONTINUOUS
10
6.154
20
-2.772
11
6.154
21
-2.755
0
LINE
8
CYAN2
6
CONTINUOUS
10
6.154
20
-2.755
11
6.157
21
-2.749
0
LINE
8
CYAN2
6
CONTINUOUS
10
6.157
20
-2.749
11
6.159
21
-2.747
0
LINE
8
CYAN2
6
CONTINUOUS
10
6.159
20
-2.747
11
6.165
21
-2.744
0
LINE
8
CYAN2
6
CONTINUOUS
10
6.165
20
-2.744
11
6.177
21
-2.744
0
LINE
8
CYAN2
6
CONTINUOUS
10
6.177
20
-2.744
11
6.182
21
-2.747
0
LINE
8
CYAN2
6
CONTINUOUS
10
6.234
20
-2.781
11
6.228
21
-2.784
0
LINE
8
CYAN2
6
CONTINUOUS
10
6.228
20
-2.784
11
6.217
21
-2.784
0
LINE
8
CYAN2
6
CONTINUOUS
10
6.217
20
-2.784
11
6.211
21
-2.781
0
LINE
8
CYAN2
6
CONTINUOUS
10
6.211
20
-2.781
11
6.208
21
-2.775
0
LINE
8
CYAN2
6
CONTINUOUS
10
6.208
20
-2.775
11
6.208
21
-2.752
0
LINE
8
CYAN2
6
CONTINUOUS
10
6.208
20
-2.752
11
6.211
21
-2.747
0
LINE
8
CYAN2
6
CONTINUOUS
10
6.211
20
-2.747
11
6.217
21
-2.744
0
LINE
8
CYAN2
6
CONTINUOUS
10
6.217
20
-2.744
11
6.228
21
-2.744
0
LINE
8
CYAN2
6
CONTINUOUS
10
6.228
20
-2.744
11
6.234
21
-2.747
0
LINE
8
CYAN2
6
CONTINUOUS
10
6.234
20
-2.747
11
6.237
21
-2.752
0
LINE
8
CYAN2
6
CONTINUOUS
10
6.237
20
-2.752
11
6.237
21
-2.758
0
LINE
8
CYAN2
6
CONTINUOUS
10
6.237
20
-2.758
11
6.208
21
-2.764
0
LINE
8
CYAN2
6
CONTINUOUS
10
6.248
20
-2.789
11
6.294
21
-2.789
0
LINE
8
CYAN2
6
CONTINUOUS
10
6.342
20
-2.778
11
6.339
21
-2.781
0
LINE
8
CYAN2
6
CONTINUOUS
10
6.339
20
-2.781
11
6.331
21
-2.784
0
LINE
8
CYAN2
6
CONTINUOUS
10
6.331
20
-2.784
11
6.325
21
-2.784
0
LINE
8
CYAN2
6
CONTINUOUS
10
6.325
20
-2.784
11
6.317
21
-2.781
0
LINE
8
CYAN2
6
CONTINUOUS
10
6.317
20
-2.781
11
6.311
21
-2.775
0
LINE
8
CYAN2
6
CONTINUOUS
10
6.311
20
-2.775
11
6.308
21
-2.769
0
LINE
8
CYAN2
6
CONTINUOUS
10
6.308
20
-2.769
11
6.305
21
-2.758
0
LINE
8
CYAN2
6
CONTINUOUS
10
6.305
20
-2.758
11
6.305
21
-2.749
0
LINE
8
CYAN2
6
CONTINUOUS
10
6.305
20
-2.749
11
6.308
21
-2.738
0
LINE
8
CYAN2
6
CONTINUOUS
10
6.308
20
-2.738
11
6.311
21
-2.732
0
LINE
8
CYAN2
6
CONTINUOUS
10
6.311
20
-2.732
11
6.317
21
-2.727
0
LINE
8
CYAN2
6
CONTINUOUS
10
6.317
20
-2.727
11
6.325
21
-2.724
0
LINE
8
CYAN2
6
CONTINUOUS
10
6.325
20
-2.724
11
6.331
21
-2.724
0
LINE
8
CYAN2
6
CONTINUOUS
10
6.331
20
-2.724
11
6.339
21
-2.727
0
LINE
8
CYAN2
6
CONTINUOUS
10
6.339
20
-2.727
11
6.342
21
-2.729
0
LINE
8
CYAN2
6
CONTINUOUS
10
6.377
20
-2.784
11
6.371
21
-2.781
0
LINE
8
CYAN2
6
CONTINUOUS
10
6.371
20
-2.781
11
6.368
21
-2.778
0
LINE
8
CYAN2
6
CONTINUOUS
10
6.368
20
-2.778
11
6.365
21
-2.772
0
LINE
8
CYAN2
6
CONTINUOUS
10
6.365
20
-2.772
11
6.365
21
-2.755
0
LINE
8
CYAN2
6
CONTINUOUS
10
6.365
20
-2.755
11
6.368
21
-2.749
0
LINE
8
CYAN2
6
CONTINUOUS
10
6.368
20
-2.749
11
6.371
21
-2.747
0
LINE
8
CYAN2
6
CONTINUOUS
10
6.371
20
-2.747
11
6.377
21
-2.744
0
LINE
8
CYAN2
6
CONTINUOUS
10
6.377
20
-2.744
11
6.385
21
-2.744
0
LINE
8
CYAN2
6
CONTINUOUS
10
6.385
20
-2.744
11
6.391
21
-2.747
0
LINE
8
CYAN2
6
CONTINUOUS
10
6.391
20
-2.747
11
6.394
21
-2.749
0
LINE
8
CYAN2
6
CONTINUOUS
10
6.394
20
-2.749
11
6.397
21
-2.755
0
LINE
8
CYAN2
6
CONTINUOUS
10
6.397
20
-2.755
11
6.397
21
-2.772
0
LINE
8
CYAN2
6
CONTINUOUS
10
6.397
20
-2.772
11
6.394
21
-2.778
0
LINE
8
CYAN2
6
CONTINUOUS
10
6.394
20
-2.778
11
6.391
21
-2.781
0
LINE
8
CYAN2
6
CONTINUOUS
10
6.391
20
-2.781
11
6.385
21
-2.784
0
LINE
8
CYAN2
6
CONTINUOUS
10
6.385
20
-2.784
11
6.377
21
-2.784
0
LINE
8
CYAN2
6
CONTINUOUS
10
6.422
20
-2.744
11
6.422
21
-2.784
0
LINE
8
CYAN2
6
CONTINUOUS
10
6.422
20
-2.749
11
6.425
21
-2.747
0
LINE
8
CYAN2
6
CONTINUOUS
10
6.425
20
-2.747
11
6.431
21
-2.744
0
LINE
8
CYAN2
6
CONTINUOUS
10
6.431
20
-2.744
11
6.439
21
-2.744
0
LINE
8
CYAN2
6
CONTINUOUS
10
6.439
20
-2.744
11
6.445
21
-2.747
0
LINE
8
CYAN2
6
CONTINUOUS
10
6.445
20
-2.747
11
6.448
21
-2.752
0
LINE
8
CYAN2
6
CONTINUOUS
10
6.448
20
-2.752
11
6.448
21
-2.784
0
LINE
8
CYAN2
6
CONTINUOUS
10
6.505
20
-2.724
11
6.477
21
-2.724
0
LINE
8
CYAN2
6
CONTINUOUS
10
6.477
20
-2.724
11
6.474
21
-2.752
0
LINE
8
CYAN2
6
CONTINUOUS
10
6.474
20
-2.752
11
6.477
21
-2.749
0
LINE
8
CYAN2
6
CONTINUOUS
10
6.477
20
-2.749
11
6.482
21
-2.747
0
LINE
8
CYAN2
6
CONTINUOUS
10
6.482
20
-2.747
11
6.497
21
-2.747
0
LINE
8
CYAN2
6
CONTINUOUS
10
6.497
20
-2.747
11
6.502
21
-2.749
0
LINE
8
CYAN2
6
CONTINUOUS
10
6.502
20
-2.749
11
6.505
21
-2.752
0
LINE
8
CYAN2
6
CONTINUOUS
10
6.505
20
-2.752
11
6.508
21
-2.758
0
LINE
8
CYAN2
6
CONTINUOUS
10
6.508
20
-2.758
11
6.508
21
-2.772
0
LINE
8
CYAN2
6
CONTINUOUS
10
6.508
20
-2.772
11
6.505
21
-2.778
0
LINE
8
CYAN2
6
CONTINUOUS
10
6.505
20
-2.778
11
6.502
21
-2.781
0
LINE
8
CYAN2
6
CONTINUOUS
10
6.502
20
-2.781
11
6.497
21
-2.784
0
LINE
8
CYAN2
6
CONTINUOUS
10
6.497
20
-2.784
11
6.482
21
-2.784
0
LINE
8
CYAN2
6
CONTINUOUS
10
6.482
20
-2.784
11
6.477
21
-2.781
0
LINE
8
CYAN2
6
CONTINUOUS
10
6.477
20
-2.781
11
6.474
21
-2.778
0
LINE
8
RED2
6
CONTINUOUS
10
5.7
20
-2.85
11
5.7
21
-2.9
0
LINE
8
RED2
6
CONTINUOUS
10
5.7
20
-2.9
11
5.75
21
-2.9
0
LINE
8
RED2
6
CONTINUOUS
10
5.75
20
-2.9
11
5.7
21
-2.95
0
LINE
8
RED2
6
CONTINUOUS
10
5.7
20
-2.95
11
5.65
21
-2.9
0
LINE
8
RED2
6
CONTINUOUS
10
5.65
20
-2.9
11
5.7
21
-2.9
0
LINE
8
CYAN2
6
CONTINUOUS
10
5.666
20
-3.002
11
5.662
21
-2.999
0
LINE
8
CYAN2
6
CONTINUOUS
10
5.662
20
-2.999
11
5.655
21
-2.999
0
LINE
8
CYAN2
6
CONTINUOUS
10
5.655
20
-2.999
11
5.647
21
-3.002
0
LINE
8
CYAN2
6
CONTINUOUS
10
5.647
20
-3.002
11
5.643
21
-3.006
0
LINE
8
CYAN2
6
CONTINUOUS
10
5.643
20
-3.006
11
5.64
21
-3.011
0
LINE
8
CYAN2
6
CONTINUOUS
10
5.64
20
-3.011
11
5.638
21
-3.021
0
LINE
8
CYAN2
6
CONTINUOUS
10
5.638
20
-3.021
11
5.638
21
-3.028
0
LINE
8
CYAN2
6
CONTINUOUS
10
5.638
20
-3.028
11
5.64
21
-3.037
0
LINE
8
CYAN2
6
CONTINUOUS
10
5.64
20
-3.037
11
5.643
21
-3.042
0
LINE
8
CYAN2
6
CONTINUOUS
10
5.643
20
-3.042
11
5.647
21
-3.047
0
LINE
8
CYAN2
6
CONTINUOUS
10
5.647
20
-3.047
11
5.655
21
-3.049
0
LINE
8
CYAN2
6
CONTINUOUS
10
5.655
20
-3.049
11
5.659
21
-3.049
0
LINE
8
CYAN2
6
CONTINUOUS
10
5.659
20
-3.049
11
5.666
21
-3.047
0
LINE
8
CYAN2
6
CONTINUOUS
10
5.666
20
-3.047
11
5.669
21
-3.044
0
LINE
8
CYAN2
6
CONTINUOUS
10
5.669
20
-3.044
11
5.669
21
-3.028
0
LINE
8
CYAN2
6
CONTINUOUS
10
5.669
20
-3.028
11
5.659
21
-3.028
0
LINE
8
CYAN2
6
CONTINUOUS
10
5.69
20
-3.049
11
5.69
21
-2.999
0
LINE
8
CYAN2
6
CONTINUOUS
10
5.69
20
-2.999
11
5.719
21
-3.049
0
LINE
8
CYAN2
6
CONTINUOUS
10
5.719
20
-3.049
11
5.719
21
-2.999
0
LINE
8
CYAN2
6
CONTINUOUS
10
5.743
20
-3.049
11
5.743
21
-2.999
0
LINE
8
CYAN2
6
CONTINUOUS
10
5.743
20
-2.999
11
5.755
21
-2.999
0
LINE
8
CYAN2
6
CONTINUOUS
10
5.755
20
-2.999
11
5.762
21
-3.002
0
LINE
8
CYAN2
6
CONTINUOUS
10
5.762
20
-3.002
11
5.766
21
-3.006
0
LINE
8
CYAN2
6
CONTINUOUS
10
5.766
20
-3.006
11
5.769
21
-3.011
0
LINE
8
CYAN2
6
CONTINUOUS
10
5.769
20
-3.011
11
5.771
21
-3.021
0
LINE
8
CYAN2
6
CONTINUOUS
10
5.771
20
-3.021
11
5.771
21
-3.028
0
LINE
8
CYAN2
6
CONTINUOUS
10
5.771
20
-3.028
11
5.769
21
-3.037
0
LINE
8
CYAN2
6
CONTINUOUS
10
5.769
20
-3.037
11
5.766
21
-3.042
0
LINE
8
CYAN2
6
CONTINUOUS
10
5.766
20
-3.042
11
5.762
21
-3.047
0
LINE
8
CYAN2
6
CONTINUOUS
10
5.762
20
-3.047
11
5.755
21
-3.049
0
LINE
8
CYAN2
6
CONTINUOUS
10
5.755
20
-3.049
11
5.743
21
-3.049
0
LINE
8
RED2
6
CONTINUOUS
10
5.4
20
-2.8
11
5.4
21
-2.85
0
LINE
8
RED2
6
CONTINUOUS
10
5.4
20
-2.85
11
5.45
21
-2.85
0
LINE
8
RED2
6
CONTINUOUS
10
5.45
20
-2.85
11
5.4
21
-2.9
0
LINE
8
RED2
6
CONTINUOUS
10
5.4
20
-2.9
11
5.35
21
-2.85
0
LINE
8
RED2
6
CONTINUOUS
10
5.35
20
-2.85
11
5.4
21
-2.85
0
LINE
8
CYAN2
6
CONTINUOUS
10
5.366
20
-2.952
11
5.362
21
-2.949
0
LINE
8
CYAN2
6
CONTINUOUS
10
5.362
20
-2.949
11
5.355
21
-2.949
0
LINE
8
CYAN2
6
CONTINUOUS
10
5.355
20
-2.949
11
5.347
21
-2.952
0
LINE
8
CYAN2
6
CONTINUOUS
10
5.347
20
-2.952
11
5.343
21
-2.956
0
LINE
8
CYAN2
6
CONTINUOUS
10
5.343
20
-2.956
11
5.34
21
-2.961
0
LINE
8
CYAN2
6
CONTINUOUS
10
5.34
20
-2.961
11
5.338
21
-2.971
0
LINE
8
CYAN2
6
CONTINUOUS
10
5.338
20
-2.971
11
5.338
21
-2.978
0
LINE
8
CYAN2
6
CONTINUOUS
10
5.338
20
-2.978
11
5.34
21
-2.987
0
LINE
8
CYAN2
6
CONTINUOUS
10
5.34
20
-2.987
11
5.343
21
-2.992
0
LINE
8
CYAN2
6
CONTINUOUS
10
5.343
20
-2.992
11
5.347
21
-2.997
0
LINE
8
CYAN2
6
CONTINUOUS
10
5.347
20
-2.997
11
5.355
21
-2.999
0
LINE
8
CYAN2
6
CONTINUOUS
10
5.355
20
-2.999
11
5.359
21
-2.999
0
LINE
8
CYAN2
6
CONTINUOUS
10
5.359
20
-2.999
11
5.366
21
-2.997
0
LINE
8
CYAN2
6
CONTINUOUS
10
5.366
20
-2.997
11
5.369
21
-2.994
0
LINE
8
CYAN2
6
CONTINUOUS
10
5.369
20
-2.994
11
5.369
21
-2.978
0
LINE
8
CYAN2
6
CONTINUOUS
10
5.369
20
-2.978
11
5.359
21
-2.978
0
LINE
8
CYAN2
6
CONTINUOUS
10
5.39
20
-2.999
11
5.39
21
-2.949
0
LINE
8
CYAN2
6
CONTINUOUS
10
5.39
20
-2.949
11
5.419
21
-2.999
0
LINE
8
CYAN2
6
CONTINUOUS
10
5.419
20
-2.999
11
5.419
21
-2.949
0
LINE
8
CYAN2
6
CONTINUOUS
10
5.443
20
-2.999
11
5.443
21
-2.949
0
LINE
8
CYAN2
6
CONTINUOUS
10
5.443
20
-2.949
11
5.455
21
-2.949
0
LINE
8
CYAN2
6
CONTINUOUS
10
5.455
20
-2.949
11
5.462
21
-2.952
0
LINE
8
CYAN2
6
CONTINUOUS
10
5.462
20
-2.952
11
5.466
21
-2.956
0
LINE
8
CYAN2
6
CONTINUOUS
10
5.466
20
-2.956
11
5.469
21
-2.961
0
LINE
8
CYAN2
6
CONTINUOUS
10
5.469
20
-2.961
11
5.471
21
-2.971
0
LINE
8
CYAN2
6
CONTINUOUS
10
5.471
20
-2.971
11
5.471
21
-2.978
0
LINE
8
CYAN2
6
CONTINUOUS
10
5.471
20
-2.978
11
5.469
21
-2.987
0
LINE
8
CYAN2
6
CONTINUOUS
10
5.469
20
-2.987
11
5.466
21
-2.992
0
LINE
8
CYAN2
6
CONTINUOUS
10
5.466
20
-2.992
11
5.462
21
-2.997
0
LINE
8
CYAN2
6
CONTINUOUS
10
5.462
20
-2.997
11
5.455
21
-2.999
0
LINE
8
CYAN2
6
CONTINUOUS
10
5.455
20
-2.999
11
5.443
21
-2.999
0
CIRCLE
8
RED2
10
5
20
-2.7
40
0.15
0
LINE
8
RED2
6
CONTINUOUS
10
4.9
20
-2.7
11
4.85
21
-2.7
0
LINE
8
RED2
6
CONTINUOUS
10
4.9
20
-2.61
11
4.9
21
-2.789
0
LINE
8
RED2
6
CONTINUOUS
10
4.969
20
-2.65
11
4.969
21
-2.75
0
LINE
8
RED2
6
CONTINUOUS
10
5.039
20
-2.61
11
5.039
21
-2.789
0
LINE
8
RED2
6
CONTINUOUS
10
5.1
20
-2.7
11
5.15
21
-2.7
0
LINE
8
RED2
6
CONTINUOUS
10
5.1
20
-2.65
11
5.1
21
-2.75
0
LINE
8
RED2
6
CONTINUOUS
10
4.85
20
-2.7
11
4.7
21
-2.7
0
LINE
8
CYAN2
6
CONTINUOUS
10
4.755
20
-2.668
11
4.794
21
-2.668
0
LINE
8
CYAN2
6
CONTINUOUS
10
4.775
20
-2.687
11
4.775
21
-2.649
0
LINE
8
RED2
6
CONTINUOUS
10
4.789
20
-2.757
11
4.76
21
-2.757
0
LINE
8
RED2
6
CONTINUOUS
10
4.775
20
-2.757
11
4.775
21
-2.707
0
LINE
8
RED2
6
CONTINUOUS
10
4.775
20
-2.707
11
4.77
21
-2.714
0
LINE
8
RED2
6
CONTINUOUS
10
4.77
20
-2.714
11
4.765
21
-2.719
0
LINE
8
RED2
6
CONTINUOUS
10
4.765
20
-2.719
11
4.76
21
-2.721
0
LINE
8
RED2
6
CONTINUOUS
10
5.15
20
-2.7
11
5.3
21
-2.7
0
LINE
8
CYAN2
6
CONTINUOUS
10
5.205
20
-2.668
11
5.244
21
-2.668
0
LINE
8
RED2
6
CONTINUOUS
10
5.21
20
-2.712
11
5.213
21
-2.71
0
LINE
8
RED2
6
CONTINUOUS
10
5.213
20
-2.71
11
5.217
21
-2.707
0
LINE
8
RED2
6
CONTINUOUS
10
5.217
20
-2.707
11
5.229
21
-2.707
0
LINE
8
RED2
6
CONTINUOUS
10
5.229
20
-2.707
11
5.234
21
-2.71
0
LINE
8
RED2
6
CONTINUOUS
10
5.234
20
-2.71
11
5.236
21
-2.712
0
LINE
8
RED2
6
CONTINUOUS
10
5.236
20
-2.712
11
5.239
21
-2.717
0
LINE
8
RED2
6
CONTINUOUS
10
5.239
20
-2.717
11
5.239
21
-2.721
0
LINE
8
RED2
6
CONTINUOUS
10
5.239
20
-2.721
11
5.236
21
-2.729
0
LINE
8
RED2
6
CONTINUOUS
10
5.236
20
-2.729
11
5.208
21
-2.757
0
LINE
8
RED2
6
CONTINUOUS
10
5.208
20
-2.757
11
5.239
21
-2.757
0
LINE
8
CYAN2
6
CONTINUOUS
10
4.96
20
-2.38
11
4.967
21
-2.382
0
LINE
8
CYAN2
6
CONTINUOUS
10
4.967
20
-2.382
11
4.97
21
-2.385
0
LINE
8
CYAN2
6
CONTINUOUS
10
4.97
20
-2.385
11
4.972
21
-2.389
0
LINE
8
CYAN2
6
CONTINUOUS
10
4.972
20
-2.389
11
4.972
21
-2.397
0
LINE
8
CYAN2
6
CONTINUOUS
10
4.972
20
-2.397
11
4.97
21
-2.401
0
LINE
8
CYAN2
6
CONTINUOUS
10
4.97
20
-2.401
11
4.967
21
-2.404
0
LINE
8
CYAN2
6
CONTINUOUS
10
4.967
20
-2.404
11
4.963
21
-2.406
0
LINE
8
CYAN2
6
CONTINUOUS
10
4.963
20
-2.406
11
4.944
21
-2.406
0
LINE
8
CYAN2
6
CONTINUOUS
10
4.944
20
-2.406
11
4.944
21
-2.356
0
LINE
8
CYAN2
6
CONTINUOUS
10
4.944
20
-2.356
11
4.96
21
-2.356
0
LINE
8
CYAN2
6
CONTINUOUS
10
4.96
20
-2.356
11
4.965
21
-2.359
0
LINE
8
CYAN2
6
CONTINUOUS
10
4.965
20
-2.359
11
4.967
21
-2.361
0
LINE
8
CYAN2
6
CONTINUOUS
10
4.967
20
-2.361
11
4.97
21
-2.366
0
LINE
8
CYAN2
6
CONTINUOUS
10
4.97
20
-2.366
11
4.97
21
-2.37
0
LINE
8
CYAN2
6
CONTINUOUS
10
4.97
20
-2.37
11
4.967
21
-2.375
0
LINE
8
CYAN2
6
CONTINUOUS
10
4.967
20
-2.375
11
4.965
21
-2.378
0
LINE
8
CYAN2
6
CONTINUOUS
10
4.965
20
-2.378
11
4.96
21
-2.38
0
LINE
8
CYAN2
6
CONTINUOUS
10
4.96
20
-2.38
11
4.944
21
-2.38
0
LINE
8
CYAN2
6
CONTINUOUS
10
4.986
20
-2.356
11
5.015
21
-2.356
0
LINE
8
CYAN2
6
CONTINUOUS
10
5.001
20
-2.406
11
5.001
21
-2.356
0
LINE
8
CYAN2
6
CONTINUOUS
10
5.058
20
-2.406
11
5.029
21
-2.406
0
LINE
8
CYAN2
6
CONTINUOUS
10
5.044
20
-2.406
11
5.044
21
-2.356
0
LINE
8
CYAN2
6
CONTINUOUS
10
5.044
20
-2.356
11
5.039
21
-2.363
0
LINE
8
CYAN2
6
CONTINUOUS
10
5.039
20
-2.363
11
5.034
21
-2.368
0
LINE
8
CYAN2
6
CONTINUOUS
10
5.034
20
-2.368
11
5.029
21
-2.37
0
LINE
8
CYAN2
6
CONTINUOUS
10
4.875
20
-2.473
11
4.882
21
-2.475
0
LINE
8
CYAN2
6
CONTINUOUS
10
4.882
20
-2.475
11
4.884
21
-2.478
0
LINE
8
CYAN2
6
CONTINUOUS
10
4.884
20
-2.478
11
4.886
21
-2.482
0
LINE
8
CYAN2
6
CONTINUOUS
10
4.886
20
-2.482
11
4.886
21
-2.49
0
LINE
8
CYAN2
6
CONTINUOUS
10
4.886
20
-2.49
11
4.884
21
-2.494
0
LINE
8
CYAN2
6
CONTINUOUS
10
4.884
20
-2.494
11
4.882
21
-2.497
0
LINE
8
CYAN2
6
CONTINUOUS
10
4.882
20
-2.497
11
4.877
21
-2.499
0
LINE
8
CYAN2
6
CONTINUOUS
10
4.877
20
-2.499
11
4.858
21
-2.499
0
LINE
8
CYAN2
6
CONTINUOUS
10
4.858
20
-2.499
11
4.858
21
-2.449
0
LINE
8
CYAN2
6
CONTINUOUS
10
4.858
20
-2.449
11
4.875
21
-2.449
0
LINE
8
CYAN2
6
CONTINUOUS
10
4.875
20
-2.449
11
4.879
21
-2.452
0
LINE
8
CYAN2
6
CONTINUOUS
10
4.879
20
-2.452
11
4.882
21
-2.454
0
LINE
8
CYAN2
6
CONTINUOUS
10
4.882
20
-2.454
11
4.884
21
-2.459
0
LINE
8
CYAN2
6
CONTINUOUS
10
4.884
20
-2.459
11
4.884
21
-2.463
0
LINE
8
CYAN2
6
CONTINUOUS
10
4.884
20
-2.463
11
4.882
21
-2.468
0
LINE
8
CYAN2
6
CONTINUOUS
10
4.882
20
-2.468
11
4.879
21
-2.471
0
LINE
8
CYAN2
6
CONTINUOUS
10
4.879
20
-2.471
11
4.875
21
-2.473
0
LINE
8
CYAN2
6
CONTINUOUS
10
4.875
20
-2.473
11
4.858
21
-2.473
0
LINE
8
CYAN2
6
CONTINUOUS
10
4.905
20
-2.485
11
4.929
21
-2.485
0
LINE
8
CYAN2
6
CONTINUOUS
10
4.901
20
-2.499
11
4.917
21
-2.449
0
LINE
8
CYAN2
6
CONTINUOUS
10
4.917
20
-2.449
11
4.934
21
-2.499
0
LINE
8
CYAN2
6
CONTINUOUS
10
4.944
20
-2.449
11
4.972
21
-2.449
0
LINE
8
CYAN2
6
CONTINUOUS
10
4.958
20
-2.499
11
4.958
21
-2.449
0
LINE
8
CYAN2
6
CONTINUOUS
10
4.982
20
-2.449
11
5.01
21
-2.449
0
LINE
8
CYAN2
6
CONTINUOUS
10
4.996
20
-2.499
11
4.996
21
-2.449
0
LINE
8
CYAN2
6
CONTINUOUS
10
5.027
20
-2.473
11
5.044
21
-2.473
0
LINE
8
CYAN2
6
CONTINUOUS
10
5.051
20
-2.499
11
5.027
21
-2.499
0
LINE
8
CYAN2
6
CONTINUOUS
10
5.027
20
-2.499
11
5.027
21
-2.449
0
LINE
8
CYAN2
6
CONTINUOUS
10
5.027
20
-2.449
11
5.051
21
-2.449
0
LINE
8
CYAN2
6
CONTINUOUS
10
5.101
20
-2.499
11
5.084
21
-2.475
0
LINE
8
CYAN2
6
CONTINUOUS
10
5.072
20
-2.499
11
5.072
21
-2.449
0
LINE
8
CYAN2
6
CONTINUOUS
10
5.072
20
-2.449
11
5.091
21
-2.449
0
LINE
8
CYAN2
6
CONTINUOUS
10
5.091
20
-2.449
11
5.096
21
-2.452
0
LINE
8
CYAN2
6
CONTINUOUS
10
5.096
20
-2.452
11
5.098
21
-2.454
0
LINE
8
CYAN2
6
CONTINUOUS
10
5.098
20
-2.454
11
5.101
21
-2.459
0
LINE
8
CYAN2
6
CONTINUOUS
10
5.101
20
-2.459
11
5.101
21
-2.466
0
LINE
8
CYAN2
6
CONTINUOUS
10
5.101
20
-2.466
11
5.098
21
-2.471
0
LINE
8
CYAN2
6
CONTINUOUS
10
5.098
20
-2.471
11
5.096
21
-2.473
0
LINE
8
CYAN2
6
CONTINUOUS
10
5.096
20
-2.473
11
5.091
21
-2.475
0
LINE
8
CYAN2
6
CONTINUOUS
10
5.091
20
-2.475
11
5.072
21
-2.475
0
LINE
8
CYAN2
6
CONTINUOUS
10
5.132
20
-2.475
11
5.132
21
-2.499
0
LINE
8
CYAN2
6
CONTINUOUS
10
5.115
20
-2.449
11
5.132
21
-2.475
0
LINE
8
CYAN2
6
CONTINUOUS
10
5.132
20
-2.475
11
5.148
21
-2.449
0
LINE
8
RED2
6
CONTINUOUS
10
3.35
20
-3.1
11
3.35
21
-3.15
0
LINE
8
RED2
6
CONTINUOUS
10
3.35
20
-3.15
11
3.4
21
-3.15
0
LINE
8
RED2
6
CONTINUOUS
10
3.4
20
-3.15
11
3.35
21
-3.2
0
LINE
8
RED2
6
CONTINUOUS
10
3.35
20
-3.2
11
3.3
21
-3.15
0
LINE
8
RED2
6
CONTINUOUS
10
3.3
20
-3.15
11
3.35
21
-3.15
0
LINE
8
CYAN2
6
CONTINUOUS
10
3.316
20
-3.252
11
3.312
21
-3.249
0
LINE
8
CYAN2
6
CONTINUOUS
10
3.312
20
-3.249
11
3.305
21
-3.249
0
LINE
8
CYAN2
6
CONTINUOUS
10
3.305
20
-3.249
11
3.297
21
-3.252
0
LINE
8
CYAN2
6
CONTINUOUS
10
3.297
20
-3.252
11
3.293
21
-3.256
0
LINE
8
CYAN2
6
CONTINUOUS
10
3.293
20
-3.256
11
3.29
21
-3.261
0
LINE
8
CYAN2
6
CONTINUOUS
10
3.29
20
-3.261
11
3.288
21
-3.271
0
LINE
8
CYAN2
6
CONTINUOUS
10
3.288
20
-3.271
11
3.288
21
-3.278
0
LINE
8
CYAN2
6
CONTINUOUS
10
3.288
20
-3.278
11
3.29
21
-3.287
0
LINE
8
CYAN2
6
CONTINUOUS
10
3.29
20
-3.287
11
3.293
21
-3.292
0
LINE
8
CYAN2
6
CONTINUOUS
10
3.293
20
-3.292
11
3.297
21
-3.297
0
LINE
8
CYAN2
6
CONTINUOUS
10
3.297
20
-3.297
11
3.305
21
-3.299
0
LINE
8
CYAN2
6
CONTINUOUS
10
3.305
20
-3.299
11
3.309
21
-3.299
0
LINE
8
CYAN2
6
CONTINUOUS
10
3.309
20
-3.299
11
3.316
21
-3.297
0
LINE
8
CYAN2
6
CONTINUOUS
10
3.316
20
-3.297
11
3.319
21
-3.294
0
LINE
8
CYAN2
6
CONTINUOUS
10
3.319
20
-3.294
11
3.319
21
-3.278
0
LINE
8
CYAN2
6
CONTINUOUS
10
3.319
20
-3.278
11
3.309
21
-3.278
0
LINE
8
CYAN2
6
CONTINUOUS
10
3.34
20
-3.299
11
3.34
21
-3.249
0
LINE
8
CYAN2
6
CONTINUOUS
10
3.34
20
-3.249
11
3.369
21
-3.299
0
LINE
8
CYAN2
6
CONTINUOUS
10
3.369
20
-3.299
11
3.369
21
-3.249
0
LINE
8
CYAN2
6
CONTINUOUS
10
3.393
20
-3.299
11
3.393
21
-3.249
0
LINE
8
CYAN2
6
CONTINUOUS
10
3.393
20
-3.249
11
3.405
21
-3.249
0
LINE
8
CYAN2
6
CONTINUOUS
10
3.405
20
-3.249
11
3.412
21
-3.252
0
LINE
8
CYAN2
6
CONTINUOUS
10
3.412
20
-3.252
11
3.416
21
-3.256
0
LINE
8
CYAN2
6
CONTINUOUS
10
3.416
20
-3.256
11
3.419
21
-3.261
0
LINE
8
CYAN2
6
CONTINUOUS
10
3.419
20
-3.261
11
3.421
21
-3.271
0
LINE
8
CYAN2
6
CONTINUOUS
10
3.421
20
-3.271
11
3.421
21
-3.278
0
LINE
8
CYAN2
6
CONTINUOUS
10
3.421
20
-3.278
11
3.419
21
-3.287
0
LINE
8
CYAN2
6
CONTINUOUS
10
3.419
20
-3.287
11
3.416
21
-3.292
0
LINE
8
CYAN2
6
CONTINUOUS
10
3.416
20
-3.292
11
3.412
21
-3.297
0
LINE
8
CYAN2
6
CONTINUOUS
10
3.412
20
-3.297
11
3.405
21
-3.299
0
LINE
8
CYAN2
6
CONTINUOUS
10
3.405
20
-3.299
11
3.393
21
-3.299
0
CIRCLE
8
RED2
10
3.2
20
-2.425
40
0.025
0
LINE
8
RED2
6
CONTINUOUS
10
3.2
20
-2.5
11
3.2
21
-2.45
0
LINE
8
CYAN2
6
CONTINUOUS
10
3.15
20
-2.299
11
3.167
21
-2.349
0
LINE
8
CYAN2
6
CONTINUOUS
10
3.167
20
-2.349
11
3.183
21
-2.299
0
LINE
8
CYAN2
6
CONTINUOUS
10
3.228
20
-2.344
11
3.226
21
-2.347
0
LINE
8
CYAN2
6
CONTINUOUS
10
3.226
20
-2.347
11
3.219
21
-2.349
0
LINE
8
CYAN2
6
CONTINUOUS
10
3.219
20
-2.349
11
3.214
21
-2.349
0
LINE
8
CYAN2
6
CONTINUOUS
10
3.214
20
-2.349
11
3.207
21
-2.347
0
LINE
8
CYAN2
6
CONTINUOUS
10
3.207
20
-2.347
11
3.202
21
-2.342
0
LINE
8
CYAN2
6
CONTINUOUS
10
3.202
20
-2.342
11
3.2
21
-2.337
0
LINE
8
CYAN2
6
CONTINUOUS
10
3.2
20
-2.337
11
3.197
21
-2.328
0
LINE
8
CYAN2
6
CONTINUOUS
10
3.197
20
-2.328
11
3.197
21
-2.321
0
LINE
8
CYAN2
6
CONTINUOUS
10
3.197
20
-2.321
11
3.2
21
-2.311
0
LINE
8
CYAN2
6
CONTINUOUS
10
3.2
20
-2.311
11
3.202
21
-2.306
0
LINE
8
CYAN2
6
CONTINUOUS
10
3.202
20
-2.306
11
3.207
21
-2.302
0
LINE
8
CYAN2
6
CONTINUOUS
10
3.207
20
-2.302
11
3.214
21
-2.299
0
LINE
8
CYAN2
6
CONTINUOUS
10
3.214
20
-2.299
11
3.219
21
-2.299
0
LINE
8
CYAN2
6
CONTINUOUS
10
3.219
20
-2.299
11
3.226
21
-2.302
0
LINE
8
CYAN2
6
CONTINUOUS
10
3.226
20
-2.302
11
3.228
21
-2.304
0
LINE
8
CYAN2
6
CONTINUOUS
10
3.278
20
-2.344
11
3.276
21
-2.347
0
LINE
8
CYAN2
6
CONTINUOUS
10
3.276
20
-2.347
11
3.269
21
-2.349
0
LINE
8
CYAN2
6
CONTINUOUS
10
3.269
20
-2.349
11
3.264
21
-2.349
0
LINE
8
CYAN2
6
CONTINUOUS
10
3.264
20
-2.349
11
3.257
21
-2.347
0
LINE
8
CYAN2
6
CONTINUOUS
10
3.257
20
-2.347
11
3.252
21
-2.342
0
LINE
8
CYAN2
6
CONTINUOUS
10
3.252
20
-2.342
11
3.25
21
-2.337
0
LINE
8
CYAN2
6
CONTINUOUS
10
3.25
20
-2.337
11
3.247
21
-2.328
0
LINE
8
CYAN2
6
CONTINUOUS
10
3.247
20
-2.328
11
3.247
21
-2.321
0
LINE
8
CYAN2
6
CONTINUOUS
10
3.247
20
-2.321
11
3.25
21
-2.311
0
LINE
8
CYAN2
6
CONTINUOUS
10
3.25
20
-2.311
11
3.252
21
-2.306
0
LINE
8
CYAN2
6
CONTINUOUS
10
3.252
20
-2.306
11
3.257
21
-2.302
0
LINE
8
CYAN2
6
CONTINUOUS
10
3.257
20
-2.302
11
3.264
21
-2.299
0
LINE
8
CYAN2
6
CONTINUOUS
10
3.264
20
-2.299
11
3.269
21
-2.299
0
LINE
8
CYAN2
6
CONTINUOUS
10
3.269
20
-2.299
11
3.276
21
-2.302
0
LINE
8
CYAN2
6
CONTINUOUS
10
3.276
20
-2.302
11
3.278
21
-2.304
0
LINE
8
RED2
6
CONTINUOUS
10
2.9
20
-2.855
11
2.9
21
-2.945
0
LINE
8
RED2
6
CONTINUOUS
10
2.9
20
-2.945
11
2.7
21
-2.945
0
LINE
8
RED2
6
CONTINUOUS
10
2.7
20
-2.945
11
2.7
21
-2.855
0
LINE
8
RED2
6
CONTINUOUS
10
2.7
20
-2.855
11
2.9
21
-2.855
0
LINE
8
RED2
6
CONTINUOUS
10
2.906
20
-2.824
11
2.694
21
-2.824
0
LINE
8
RED2
6
CONTINUOUS
10
2.906
20
-2.974
11
2.694
21
-2.974
0
LINE
8
RED2
6
CONTINUOUS
10
2.8
20
-2.8
11
2.8
21
-2.825
0
LINE
8
RED2
6
CONTINUOUS
10
2.8
20
-3
11
2.8
21
-2.975
0
LINE
8
RED2
6
CONTINUOUS
10
2.8
20
-2.8
11
2.8
21
-2.75
0
LINE
8
RED2
6
CONTINUOUS
10
2.8
20
-3
11
2.8
21
-3.05
0
LINE
8
CYAN2
6
CONTINUOUS
10
2.959
20
-2.853
11
2.959
21
-2.877
0
LINE
8
CYAN2
6
CONTINUOUS
10
2.942
20
-2.827
11
2.959
21
-2.853
0
LINE
8
CYAN2
6
CONTINUOUS
10
2.959
20
-2.853
11
2.975
21
-2.827
0
LINE
8
CYAN2
6
CONTINUOUS
10
3.018
20
-2.877
11
2.99
21
-2.877
0
LINE
8
CYAN2
6
CONTINUOUS
10
3.004
20
-2.877
11
3.004
21
-2.827
0
LINE
8
CYAN2
6
CONTINUOUS
10
3.004
20
-2.827
11
2.999
21
-2.834
0
LINE
8
CYAN2
6
CONTINUOUS
10
2.999
20
-2.834
11
2.994
21
-2.839
0
LINE
8
CYAN2
6
CONTINUOUS
10
2.994
20
-2.839
11
2.99
21
-2.841
0
LINE
8
CYAN2
6
CONTINUOUS
10
2.945
20
-2.92
11
2.976
21
-2.92
0
LINE
8
CYAN2
6
CONTINUOUS
10
2.976
20
-2.92
11
2.959
21
-2.939
0
LINE
8
CYAN2
6
CONTINUOUS
10
2.959
20
-2.939
11
2.966
21
-2.939
0
LINE
8
CYAN2
6
CONTINUOUS
10
2.966
20
-2.939
11
2.971
21
-2.942
0
LINE
8
CYAN2
6
CONTINUOUS
10
2.971
20
-2.942
11
2.973
21
-2.944
0
LINE
8
CYAN2
6
CONTINUOUS
10
2.973
20
-2.944
11
2.976
21
-2.949
0
LINE
8
CYAN2
6
CONTINUOUS
10
2.976
20
-2.949
11
2.976
21
-2.961
0
LINE
8
CYAN2
6
CONTINUOUS
10
2.976
20
-2.961
11
2.973
21
-2.965
0
LINE
8
CYAN2
6
CONTINUOUS
10
2.973
20
-2.965
11
2.971
21
-2.968
0
LINE
8
CYAN2
6
CONTINUOUS
10
2.971
20
-2.968
11
2.966
21
-2.97
0
LINE
8
CYAN2
6
CONTINUOUS
10
2.966
20
-2.97
11
2.952
21
-2.97
0
LINE
8
CYAN2
6
CONTINUOUS
10
2.952
20
-2.97
11
2.947
21
-2.968
0
LINE
8
CYAN2
6
CONTINUOUS
10
2.947
20
-2.968
11
2.945
21
-2.965
0
LINE
8
CYAN2
6
CONTINUOUS
10
2.995
20
-2.925
11
2.997
21
-2.923
0
LINE
8
CYAN2
6
CONTINUOUS
10
2.997
20
-2.923
11
3.002
21
-2.92
0
LINE
8
CYAN2
6
CONTINUOUS
10
3.002
20
-2.92
11
3.014
21
-2.92
0
LINE
8
CYAN2
6
CONTINUOUS
10
3.014
20
-2.92
11
3.019
21
-2.923
0
LINE
8
CYAN2
6
CONTINUOUS
10
3.019
20
-2.923
11
3.021
21
-2.925
0
LINE
8
CYAN2
6
CONTINUOUS
10
3.021
20
-2.925
11
3.023
21
-2.93
0
LINE
8
CYAN2
6
CONTINUOUS
10
3.023
20
-2.93
11
3.023
21
-2.934
0
LINE
8
CYAN2
6
CONTINUOUS
10
3.023
20
-2.934
11
3.021
21
-2.942
0
LINE
8
CYAN2
6
CONTINUOUS
10
3.021
20
-2.942
11
2.992
21
-2.97
0
LINE
8
CYAN2
6
CONTINUOUS
10
2.992
20
-2.97
11
3.023
21
-2.97
0
LINE
8
CYAN2
6
CONTINUOUS
10
3.045
20
-2.965
11
3.047
21
-2.968
0
LINE
8
CYAN2
6
CONTINUOUS
10
3.047
20
-2.968
11
3.045
21
-2.97
0
LINE
8
CYAN2
6
CONTINUOUS
10
3.045
20
-2.97
11
3.042
21
-2.968
0
LINE
8
CYAN2
6
CONTINUOUS
10
3.042
20
-2.968
11
3.045
21
-2.965
0
LINE
8
CYAN2
6
CONTINUOUS
10
3.045
20
-2.965
11
3.045
21
-2.97
0
LINE
8
CYAN2
6
CONTINUOUS
10
3.064
20
-2.92
11
3.097
21
-2.92
0
LINE
8
CYAN2
6
CONTINUOUS
10
3.097
20
-2.92
11
3.076
21
-2.97
0
LINE
8
CYAN2
6
CONTINUOUS
10
3.138
20
-2.92
11
3.128
21
-2.92
0
LINE
8
CYAN2
6
CONTINUOUS
10
3.128
20
-2.92
11
3.123
21
-2.923
0
LINE
8
CYAN2
6
CONTINUOUS
10
3.123
20
-2.923
11
3.121
21
-2.925
0
LINE
8
CYAN2
6
CONTINUOUS
10
3.121
20
-2.925
11
3.116
21
-2.932
0
LINE
8
CYAN2
6
CONTINUOUS
10
3.116
20
-2.932
11
3.114
21
-2.942
0
LINE
8
CYAN2
6
CONTINUOUS
10
3.114
20
-2.942
11
3.114
21
-2.961
0
LINE
8
CYAN2
6
CONTINUOUS
10
3.114
20
-2.961
11
3.116
21
-2.965
0
LINE
8
CYAN2
6
CONTINUOUS
10
3.116
20
-2.965
11
3.119
21
-2.968
0
LINE
8
CYAN2
6
CONTINUOUS
10
3.119
20
-2.968
11
3.123
21
-2.97
0
LINE
8
CYAN2
6
CONTINUOUS
10
3.123
20
-2.97
11
3.133
21
-2.97
0
LINE
8
CYAN2
6
CONTINUOUS
10
3.133
20
-2.97
11
3.138
21
-2.968
0
LINE
8
CYAN2
6
CONTINUOUS
10
3.138
20
-2.968
11
3.14
21
-2.965
0
LINE
8
CYAN2
6
CONTINUOUS
10
3.14
20
-2.965
11
3.142
21
-2.961
0
LINE
8
CYAN2
6
CONTINUOUS
10
3.142
20
-2.961
11
3.142
21
-2.949
0
LINE
8
CYAN2
6
CONTINUOUS
10
3.142
20
-2.949
11
3.14
21
-2.944
0
LINE
8
CYAN2
6
CONTINUOUS
10
3.14
20
-2.944
11
3.138
21
-2.942
0
LINE
8
CYAN2
6
CONTINUOUS
10
3.138
20
-2.942
11
3.133
21
-2.939
0
LINE
8
CYAN2
6
CONTINUOUS
10
3.133
20
-2.939
11
3.123
21
-2.939
0
LINE
8
CYAN2
6
CONTINUOUS
10
3.123
20
-2.939
11
3.119
21
-2.942
0
LINE
8
CYAN2
6
CONTINUOUS
10
3.119
20
-2.942
11
3.116
21
-2.944
0
LINE
8
CYAN2
6
CONTINUOUS
10
3.116
20
-2.944
11
3.114
21
-2.949
0
LINE
8
CYAN2
6
CONTINUOUS
10
3.171
20
-2.942
11
3.166
21
-2.939
0
LINE
8
CYAN2
6
CONTINUOUS
10
3.166
20
-2.939
11
3.164
21
-2.937
0
LINE
8
CYAN2
6
CONTINUOUS
10
3.164
20
-2.937
11
3.161
21
-2.932
0
LINE
8
CYAN2
6
CONTINUOUS
10
3.161
20
-2.932
11
3.161
21
-2.93
0
LINE
8
CYAN2
6
CONTINUOUS
10
3.161
20
-2.93
11
3.164
21
-2.925
0
LINE
8
CYAN2
6
CONTINUOUS
10
3.164
20
-2.925
11
3.166
21
-2.923
0
LINE
8
CYAN2
6
CONTINUOUS
10
3.166
20
-2.923
11
3.171
21
-2.92
0
LINE
8
CYAN2
6
CONTINUOUS
10
3.171
20
-2.92
11
3.18
21
-2.92
0
LINE
8
CYAN2
6
CONTINUOUS
10
3.18
20
-2.92
11
3.185
21
-2.923
0
LINE
8
CYAN2
6
CONTINUOUS
10
3.185
20
-2.923
11
3.188
21
-2.925
0
LINE
8
CYAN2
6
CONTINUOUS
10
3.188
20
-2.925
11
3.19
21
-2.93
0
LINE
8
CYAN2
6
CONTINUOUS
10
3.19
20
-2.93
11
3.19
21
-2.932
0
LINE
8
CYAN2
6
CONTINUOUS
10
3.19
20
-2.932
11
3.188
21
-2.937
0
LINE
8
CYAN2
6
CONTINUOUS
10
3.188
20
-2.937
11
3.185
21
-2.939
0
LINE
8
CYAN2
6
CONTINUOUS
10
3.185
20
-2.939
11
3.18
21
-2.942
0
LINE
8
CYAN2
6
CONTINUOUS
10
3.18
20
-2.942
11
3.171
21
-2.942
0
LINE
8
CYAN2
6
CONTINUOUS
10
3.171
20
-2.942
11
3.166
21
-2.944
0
LINE
8
CYAN2
6
CONTINUOUS
10
3.166
20
-2.944
11
3.164
21
-2.946
0
LINE
8
CYAN2
6
CONTINUOUS
10
3.164
20
-2.946
11
3.161
21
-2.951
0
LINE
8
CYAN2
6
CONTINUOUS
10
3.161
20
-2.951
11
3.161
21
-2.961
0
LINE
8
CYAN2
6
CONTINUOUS
10
3.161
20
-2.961
11
3.164
21
-2.965
0
LINE
8
CYAN2
6
CONTINUOUS
10
3.164
20
-2.965
11
3.166
21
-2.968
0
LINE
8
CYAN2
6
CONTINUOUS
10
3.166
20
-2.968
11
3.171
21
-2.97
0
LINE
8
CYAN2
6
CONTINUOUS
10
3.171
20
-2.97
11
3.18
21
-2.97
0
LINE
8
CYAN2
6
CONTINUOUS
10
3.18
20
-2.97
11
3.185
21
-2.968
0
LINE
8
CYAN2
6
CONTINUOUS
10
3.185
20
-2.968
11
3.188
21
-2.965
0
LINE
8
CYAN2
6
CONTINUOUS
10
3.188
20
-2.965
11
3.19
21
-2.961
0
LINE
8
CYAN2
6
CONTINUOUS
10
3.19
20
-2.961
11
3.19
21
-2.951
0
LINE
8
CYAN2
6
CONTINUOUS
10
3.19
20
-2.951
11
3.188
21
-2.946
0
LINE
8
CYAN2
6
CONTINUOUS
10
3.188
20
-2.946
11
3.185
21
-2.944
0
LINE
8
CYAN2
6
CONTINUOUS
10
3.185
20
-2.944
11
3.18
21
-2.942
0
LINE
8
CYAN2
6
CONTINUOUS
10
3.211
20
-2.97
11
3.211
21
-2.92
0
LINE
8
CYAN2
6
CONTINUOUS
10
3.24
20
-2.97
11
3.219
21
-2.942
0
LINE
8
CYAN2
6
CONTINUOUS
10
3.24
20
-2.92
11
3.211
21
-2.949
0
LINE
8
CYAN2
6
CONTINUOUS
10
3.261
20
-2.97
11
3.261
21
-2.92
0
LINE
8
CYAN2
6
CONTINUOUS
10
3.261
20
-2.944
11
3.29
21
-2.944
0
LINE
8
CYAN2
6
CONTINUOUS
10
3.29
20
-2.97
11
3.29
21
-2.92
0
LINE
8
CYAN2
6
CONTINUOUS
10
3.309
20
-2.92
11
3.342
21
-2.92
0
LINE
8
CYAN2
6
CONTINUOUS
10
3.342
20
-2.92
11
3.309
21
-2.97
0
LINE
8
CYAN2
6
CONTINUOUS
10
3.309
20
-2.97
11
3.342
21
-2.97
0
LINE
8
GREEN2
6
CONTINUOUS
10
3.2
20
-2.7
11
3.6
21
-2.7
0
LINE
8
GREEN2
6
CONTINUOUS
10
3.2
20
-2.5
11
3.2
21
-2.7
0
LINE
8
GREEN2
6
CONTINUOUS
10
3.35
20
-3
11
3.6
21
-3
0
LINE
8
GREEN2
6
CONTINUOUS
10
5.7
20
-2.85
11
5.7
21
-2.8
0
LINE
8
GREEN2
6
CONTINUOUS
10
5.7
20
-2.8
11
5.8
21
-2.8
0
LINE
8
GREEN2
6
CONTINUOUS
10
4.3
20
-2.7
11
4.7
21
-2.7
0
LINE
8
GREEN2
6
CONTINUOUS
10
5.55
20
-2.75
11
5.8
21
-2.75
0
LINE
8
GREEN2
6
CONTINUOUS
10
5.55
20
-2.5
11
5.55
21
-2.75
0
LINE
8
GREEN2
6
CONTINUOUS
10
4.3
20
-2.8
11
4.7
21
-2.8
0
LINE
8
GREEN2
6
CONTINUOUS
10
6.7
20
-2.85
11
6.7
21
-2.9
0
LINE
8
GREEN2
6
CONTINUOUS
10
6.7
20
-2.3
11
6.7
21
-2.35
0
LINE
8
GREEN2
6
CONTINUOUS
10
4.3
20
-2.9
11
4.7
21
-2.9
0
LINE
8
GREEN2
6
CONTINUOUS
10
4.3
20
-3
11
4.7
21
-3
0
LINE
8
GREEN2
6
CONTINUOUS
10
3.1
20
-2.9
11
3.6
21
-2.9
0
LINE
8
GREEN2
6
CONTINUOUS
10
3.1
20
-2.8
11
3.6
21
-2.8
0
LINE
8
GREEN2
6
CONTINUOUS
10
2.8
20
-2.75
11
2.8
21
-2.65
0
LINE
8
GREEN2
6
CONTINUOUS
10
2.8
20
-2.65
11
3.1
21
-2.65
0
LINE
8
GREEN2
6
CONTINUOUS
10
3.1
20
-2.65
11
3.1
21
-2.8
0
LINE
8
GREEN2
6
CONTINUOUS
10
5.8
20
-2.7
11
5.6
21
-2.7
0
LINE
8
GREEN2
6
CONTINUOUS
10
5.8
20
-2.65
11
5.6
21
-2.65
0
LINE
8
GREEN2
6
CONTINUOUS
10
5.8
20
-2.6
11
5.6
21
-2.6
0
LINE
8
GREEN2
6
CONTINUOUS
10
3.1
20
-2.9
11
3.1
21
-3.1
0
LINE
8
GREEN2
6
CONTINUOUS
10
3.1
20
-3.1
11
2.8
21
-3.1
0
LINE
8
GREEN2
6
CONTINUOUS
10
6.7
20
-3.25
11
6.7
21
-3.2
0
LINE
8
GREEN2
6
CONTINUOUS
10
5.4
20
-2.7
11
5.3
21
-2.7
0
LINE
8
GREEN2
6
CONTINUOUS
10
5.4
20
-2.8
11
5.4
21
-2.7
0
LINE
8
GREEN2
6
CONTINUOUS
10
3.35
20
-3.1
11
3.35
21
-3
0
LINE
8
GREEN2
6
CONTINUOUS
10
2.8
20
-3.1
11
2.8
21
-3.05
0
LINE
8
BLACK
6
CONTINUOUS
10
4.518
20
-2.785
11
4.525
21
-2.787
0
LINE
8
BLACK
6
CONTINUOUS
10
4.525
20
-2.787
11
4.537
21
-2.787
0
LINE
8
BLACK
6
CONTINUOUS
10
4.537
20
-2.787
11
4.542
21
-2.785
0
LINE
8
BLACK
6
CONTINUOUS
10
4.542
20
-2.785
11
4.544
21
-2.782
0
LINE
8
BLACK
6
CONTINUOUS
10
4.544
20
-2.782
11
4.547
21
-2.778
0
LINE
8
BLACK
6
CONTINUOUS
10
4.547
20
-2.778
11
4.547
21
-2.773
0
LINE
8
BLACK
6
CONTINUOUS
10
4.547
20
-2.773
11
4.544
21
-2.768
0
LINE
8
BLACK
6
CONTINUOUS
10
4.544
20
-2.768
11
4.542
21
-2.766
0
LINE
8
BLACK
6
CONTINUOUS
10
4.542
20
-2.766
11
4.537
21
-2.763
0
LINE
8
BLACK
6
CONTINUOUS
10
4.537
20
-2.763
11
4.527
21
-2.761
0
LINE
8
BLACK
6
CONTINUOUS
10
4.527
20
-2.761
11
4.523
21
-2.759
0
LINE
8
BLACK
6
CONTINUOUS
10
4.523
20
-2.759
11
4.52
21
-2.756
0
LINE
8
BLACK
6
CONTINUOUS
10
4.52
20
-2.756
11
4.518
21
-2.751
0
LINE
8
BLACK
6
CONTINUOUS
10
4.518
20
-2.751
11
4.518
21
-2.747
0
LINE
8
BLACK
6
CONTINUOUS
10
4.518
20
-2.747
11
4.52
21
-2.742
0
LINE
8
BLACK
6
CONTINUOUS
10
4.52
20
-2.742
11
4.523
21
-2.74
0
LINE
8
BLACK
6
CONTINUOUS
10
4.523
20
-2.74
11
4.527
21
-2.737
0
LINE
8
BLACK
6
CONTINUOUS
10
4.527
20
-2.737
11
4.539
21
-2.737
0
LINE
8
BLACK
6
CONTINUOUS
10
4.539
20
-2.737
11
4.547
21
-2.74
0
LINE
8
BLACK
6
CONTINUOUS
10
4.597
20
-2.782
11
4.594
21
-2.785
0
LINE
8
BLACK
6
CONTINUOUS
10
4.594
20
-2.785
11
4.587
21
-2.787
0
LINE
8
BLACK
6
CONTINUOUS
10
4.587
20
-2.787
11
4.582
21
-2.787
0
LINE
8
BLACK
6
CONTINUOUS
10
4.582
20
-2.787
11
4.575
21
-2.785
0
LINE
8
BLACK
6
CONTINUOUS
10
4.575
20
-2.785
11
4.57
21
-2.78
0
LINE
8
BLACK
6
CONTINUOUS
10
4.57
20
-2.78
11
4.568
21
-2.775
0
LINE
8
BLACK
6
CONTINUOUS
10
4.568
20
-2.775
11
4.566
21
-2.766
0
LINE
8
BLACK
6
CONTINUOUS
10
4.566
20
-2.766
11
4.566
21
-2.759
0
LINE
8
BLACK
6
CONTINUOUS
10
4.566
20
-2.759
11
4.568
21
-2.749
0
LINE
8
BLACK
6
CONTINUOUS
10
4.568
20
-2.749
11
4.57
21
-2.744
0
LINE
8
BLACK
6
CONTINUOUS
10
4.57
20
-2.744
11
4.575
21
-2.74
0
LINE
8
BLACK
6
CONTINUOUS
10
4.575
20
-2.74
11
4.582
21
-2.737
0
LINE
8
BLACK
6
CONTINUOUS
10
4.582
20
-2.737
11
4.587
21
-2.737
0
LINE
8
BLACK
6
CONTINUOUS
10
4.587
20
-2.737
11
4.594
21
-2.74
0
LINE
8
BLACK
6
CONTINUOUS
10
4.594
20
-2.74
11
4.597
21
-2.742
0
LINE
8
BLACK
6
CONTINUOUS
10
4.642
20
-2.787
11
4.618
21
-2.787
0
LINE
8
BLACK
6
CONTINUOUS
10
4.618
20
-2.787
11
4.618
21
-2.737
0
LINE
8
BLACK
6
CONTINUOUS
10
4.658
20
-2.787
11
4.658
21
-2.737
0
LINE
8
BLACK
6
CONTINUOUS
10
4.687
20
-2.787
11
4.666
21
-2.759
0
LINE
8
BLACK
6
CONTINUOUS
10
4.687
20
-2.737
11
4.658
21
-2.766
0
LINE
8
BLACK
6
CONTINUOUS
10
4.535
20
-2.887
11
4.535
21
-2.837
0
LINE
8
BLACK
6
CONTINUOUS
10
4.535
20
-2.837
11
4.547
21
-2.837
0
LINE
8
BLACK
6
CONTINUOUS
10
4.547
20
-2.837
11
4.554
21
-2.84
0
LINE
8
BLACK
6
CONTINUOUS
10
4.554
20
-2.84
11
4.558
21
-2.844
0
LINE
8
BLACK
6
CONTINUOUS
10
4.558
20
-2.844
11
4.561
21
-2.849
0
LINE
8
BLACK
6
CONTINUOUS
10
4.561
20
-2.849
11
4.563
21
-2.859
0
LINE
8
BLACK
6
CONTINUOUS
10
4.563
20
-2.859
11
4.563
21
-2.866
0
LINE
8
BLACK
6
CONTINUOUS
10
4.563
20
-2.866
11
4.561
21
-2.875
0
LINE
8
BLACK
6
CONTINUOUS
10
4.561
20
-2.875
11
4.558
21
-2.88
0
LINE
8
BLACK
6
CONTINUOUS
10
4.558
20
-2.88
11
4.554
21
-2.885
0
LINE
8
BLACK
6
CONTINUOUS
10
4.554
20
-2.885
11
4.547
21
-2.887
0
LINE
8
BLACK
6
CONTINUOUS
10
4.547
20
-2.887
11
4.535
21
-2.887
0
LINE
8
BLACK
6
CONTINUOUS
10
4.582
20
-2.873
11
4.606
21
-2.873
0
LINE
8
BLACK
6
CONTINUOUS
10
4.577
20
-2.887
11
4.594
21
-2.837
0
LINE
8
BLACK
6
CONTINUOUS
10
4.594
20
-2.837
11
4.611
21
-2.887
0
LINE
8
BLACK
6
CONTINUOUS
10
4.62
20
-2.837
11
4.649
21
-2.837
0
LINE
8
BLACK
6
CONTINUOUS
10
4.635
20
-2.887
11
4.635
21
-2.837
0
LINE
8
BLACK
6
CONTINUOUS
10
4.663
20
-2.873
11
4.687
21
-2.873
0
LINE
8
BLACK
6
CONTINUOUS
10
4.658
20
-2.887
11
4.675
21
-2.837
0
LINE
8
BLACK
6
CONTINUOUS
10
4.675
20
-2.837
11
4.692
21
-2.887
0
LINE
8
BLACK
6
CONTINUOUS
10
4.601
20
-2.987
11
4.585
21
-2.963
0
LINE
8
BLACK
6
CONTINUOUS
10
4.573
20
-2.987
11
4.573
21
-2.937
0
LINE
8
BLACK
6
CONTINUOUS
10
4.573
20
-2.937
11
4.592
21
-2.937
0
LINE
8
BLACK
6
CONTINUOUS
10
4.592
20
-2.937
11
4.597
21
-2.94
0
LINE
8
BLACK
6
CONTINUOUS
10
4.597
20
-2.94
11
4.599
21
-2.942
0
LINE
8
BLACK
6
CONTINUOUS
10
4.599
20
-2.942
11
4.601
21
-2.947
0
LINE
8
BLACK
6
CONTINUOUS
10
4.601
20
-2.947
11
4.601
21
-2.954
0
LINE
8
BLACK
6
CONTINUOUS
10
4.601
20
-2.954
11
4.599
21
-2.959
0
LINE
8
BLACK
6
CONTINUOUS
10
4.599
20
-2.959
11
4.597
21
-2.961
0
LINE
8
BLACK
6
CONTINUOUS
10
4.597
20
-2.961
11
4.592
21
-2.963
0
LINE
8
BLACK
6
CONTINUOUS
10
4.592
20
-2.963
11
4.573
21
-2.963
0
LINE
8
BLACK
6
CONTINUOUS
10
4.62
20
-2.985
11
4.627
21
-2.987
0
LINE
8
BLACK
6
CONTINUOUS
10
4.627
20
-2.987
11
4.639
21
-2.987
0
LINE
8
BLACK
6
CONTINUOUS
10
4.639
20
-2.987
11
4.644
21
-2.985
0
LINE
8
BLACK
6
CONTINUOUS
10
4.644
20
-2.985
11
4.647
21
-2.982
0
LINE
8
BLACK
6
CONTINUOUS
10
4.647
20
-2.982
11
4.649
21
-2.978
0
LINE
8
BLACK
6
CONTINUOUS
10
4.649
20
-2.978
11
4.649
21
-2.973
0
LINE
8
BLACK
6
CONTINUOUS
10
4.649
20
-2.973
11
4.647
21
-2.968
0
LINE
8
BLACK
6
CONTINUOUS
10
4.647
20
-2.968
11
4.644
21
-2.966
0
LINE
8
BLACK
6
CONTINUOUS
10
4.644
20
-2.966
11
4.639
21
-2.963
0
LINE
8
BLACK
6
CONTINUOUS
10
4.639
20
-2.963
11
4.63
21
-2.961
0
LINE
8
BLACK
6
CONTINUOUS
10
4.63
20
-2.961
11
4.625
21
-2.959
0
LINE
8
BLACK
6
CONTINUOUS
10
4.625
20
-2.959
11
4.623
21
-2.956
0
LINE
8
BLACK
6
CONTINUOUS
10
4.623
20
-2.956
11
4.62
21
-2.951
0
LINE
8
BLACK
6
CONTINUOUS
10
4.62
20
-2.951
11
4.62
21
-2.947
0
LINE
8
BLACK
6
CONTINUOUS
10
4.62
20
-2.947
11
4.623
21
-2.942
0
LINE
8
BLACK
6
CONTINUOUS
10
4.623
20
-2.942
11
4.625
21
-2.94
0
LINE
8
BLACK
6
CONTINUOUS
10
4.625
20
-2.94
11
4.63
21
-2.937
0
LINE
8
BLACK
6
CONTINUOUS
10
4.63
20
-2.937
11
4.642
21
-2.937
0
LINE
8
BLACK
6
CONTINUOUS
10
4.642
20
-2.937
11
4.649
21
-2.94
0
LINE
8
BLACK
6
CONTINUOUS
10
4.663
20
-2.937
11
4.692
21
-2.937
0
LINE
8
BLACK
6
CONTINUOUS
10
4.677
20
-2.987
11
4.677
21
-2.937
0
LINE
8
BLACK
6
CONTINUOUS
10
5.608
20
-2.688
11
5.612
21
-2.689
0
LINE
8
BLACK
6
CONTINUOUS
10
5.612
20
-2.689
11
5.62
21
-2.689
0
LINE
8
BLACK
6
CONTINUOUS
10
5.62
20
-2.689
11
5.623
21
-2.688
0
LINE
8
BLACK
6
CONTINUOUS
10
5.623
20
-2.688
11
5.624
21
-2.686
0
LINE
8
BLACK
6
CONTINUOUS
10
5.624
20
-2.686
11
5.626
21
-2.683
0
LINE
8
BLACK
6
CONTINUOUS
10
5.626
20
-2.683
11
5.626
21
-2.68
0
LINE
8
BLACK
6
CONTINUOUS
10
5.626
20
-2.68
11
5.624
21
-2.677
0
LINE
8
BLACK
6
CONTINUOUS
10
5.624
20
-2.677
11
5.623
21
-2.676
0
LINE
8
BLACK
6
CONTINUOUS
10
5.623
20
-2.676
11
5.62
21
-2.674
0
LINE
8
BLACK
6
CONTINUOUS
10
5.62
20
-2.674
11
5.614
21
-2.673
0
LINE
8
BLACK
6
CONTINUOUS
10
5.614
20
-2.673
11
5.611
21
-2.671
0
LINE
8
BLACK
6
CONTINUOUS
10
5.611
20
-2.671
11
5.609
21
-2.67
0
LINE
8
BLACK
6
CONTINUOUS
10
5.609
20
-2.67
11
5.608
21
-2.667
0
LINE
8
BLACK
6
CONTINUOUS
10
5.608
20
-2.667
11
5.608
21
-2.664
0
LINE
8
BLACK
6
CONTINUOUS
10
5.608
20
-2.664
11
5.609
21
-2.661
0
LINE
8
BLACK
6
CONTINUOUS
10
5.609
20
-2.661
11
5.611
21
-2.66
0
LINE
8
BLACK
6
CONTINUOUS
10
5.611
20
-2.66
11
5.614
21
-2.658
0
LINE
8
BLACK
6
CONTINUOUS
10
5.614
20
-2.658
11
5.621
21
-2.658
0
LINE
8
BLACK
6
CONTINUOUS
10
5.621
20
-2.658
11
5.626
21
-2.66
0
LINE
8
BLACK
6
CONTINUOUS
10
5.657
20
-2.686
11
5.655
21
-2.688
0
LINE
8
BLACK
6
CONTINUOUS
10
5.655
20
-2.688
11
5.651
21
-2.689
0
LINE
8
BLACK
6
CONTINUOUS
10
5.651
20
-2.689
11
5.648
21
-2.689
0
LINE
8
BLACK
6
CONTINUOUS
10
5.648
20
-2.689
11
5.643
21
-2.688
0
LINE
8
BLACK
6
CONTINUOUS
10
5.643
20
-2.688
11
5.64
21
-2.685
0
LINE
8
BLACK
6
CONTINUOUS
10
5.64
20
-2.685
11
5.639
21
-2.682
0
LINE
8
BLACK
6
CONTINUOUS
10
5.639
20
-2.682
11
5.637
21
-2.676
0
LINE
8
BLACK
6
CONTINUOUS
10
5.637
20
-2.676
11
5.637
21
-2.671
0
LINE
8
BLACK
6
CONTINUOUS
10
5.637
20
-2.671
11
5.639
21
-2.665
0
LINE
8
BLACK
6
CONTINUOUS
10
5.639
20
-2.665
11
5.64
21
-2.662
0
LINE
8
BLACK
6
CONTINUOUS
10
5.64
20
-2.662
11
5.643
21
-2.66
0
LINE
8
BLACK
6
CONTINUOUS
10
5.643
20
-2.66
11
5.648
21
-2.658
0
LINE
8
BLACK
6
CONTINUOUS
10
5.648
20
-2.658
11
5.651
21
-2.658
0
LINE
8
BLACK
6
CONTINUOUS
10
5.651
20
-2.658
11
5.655
21
-2.66
0
LINE
8
BLACK
6
CONTINUOUS
10
5.655
20
-2.66
11
5.657
21
-2.661
0
LINE
8
BLACK
6
CONTINUOUS
10
5.685
20
-2.689
11
5.67
21
-2.689
0
LINE
8
BLACK
6
CONTINUOUS
10
5.67
20
-2.689
11
5.67
21
-2.658
0
LINE
8
BLACK
6
CONTINUOUS
10
5.695
20
-2.689
11
5.695
21
-2.658
0
LINE
8
BLACK
6
CONTINUOUS
10
5.713
20
-2.689
11
5.699
21
-2.671
0
LINE
8
BLACK
6
CONTINUOUS
10
5.713
20
-2.658
11
5.695
21
-2.676
0
LINE
8
BLACK
6
CONTINUOUS
10
5.609
20
-2.639
11
5.609
21
-2.608
0
LINE
8
BLACK
6
CONTINUOUS
10
5.609
20
-2.608
11
5.617
21
-2.608
0
LINE
8
BLACK
6
CONTINUOUS
10
5.617
20
-2.608
11
5.621
21
-2.61
0
LINE
8
BLACK
6
CONTINUOUS
10
5.621
20
-2.61
11
5.624
21
-2.612
0
LINE
8
BLACK
6
CONTINUOUS
10
5.624
20
-2.612
11
5.626
21
-2.615
0
LINE
8
BLACK
6
CONTINUOUS
10
5.626
20
-2.615
11
5.627
21
-2.621
0
LINE
8
BLACK
6
CONTINUOUS
10
5.627
20
-2.621
11
5.627
21
-2.626
0
LINE
8
BLACK
6
CONTINUOUS
10
5.627
20
-2.626
11
5.626
21
-2.632
0
LINE
8
BLACK
6
CONTINUOUS
10
5.626
20
-2.632
11
5.624
21
-2.635
0
LINE
8
BLACK
6
CONTINUOUS
10
5.624
20
-2.635
11
5.621
21
-2.638
0
LINE
8
BLACK
6
CONTINUOUS
10
5.621
20
-2.638
11
5.617
21
-2.639
0
LINE
8
BLACK
6
CONTINUOUS
10
5.617
20
-2.639
11
5.609
21
-2.639
0
LINE
8
BLACK
6
CONTINUOUS
10
5.639
20
-2.63
11
5.654
21
-2.63
0
LINE
8
BLACK
6
CONTINUOUS
10
5.636
20
-2.639
11
5.646
21
-2.608
0
LINE
8
BLACK
6
CONTINUOUS
10
5.646
20
-2.608
11
5.657
21
-2.639
0
LINE
8
BLACK
6
CONTINUOUS
10
5.663
20
-2.608
11
5.68
21
-2.608
0
LINE
8
BLACK
6
CONTINUOUS
10
5.671
20
-2.639
11
5.671
21
-2.608
0
LINE
8
BLACK
6
CONTINUOUS
10
5.689
20
-2.63
11
5.704
21
-2.63
0
LINE
8
BLACK
6
CONTINUOUS
10
5.686
20
-2.639
11
5.696
21
-2.608
0
LINE
8
BLACK
6
CONTINUOUS
10
5.696
20
-2.608
11
5.707
21
-2.639
0
LINE
8
BLACK
6
CONTINUOUS
10
5.627
20
-2.589
11
5.617
21
-2.574
0
LINE
8
BLACK
6
CONTINUOUS
10
5.609
20
-2.589
11
5.609
21
-2.558
0
LINE
8
BLACK
6
CONTINUOUS
10
5.609
20
-2.558
11
5.621
21
-2.558
0
LINE
8
BLACK
6
CONTINUOUS
10
5.621
20
-2.558
11
5.624
21
-2.56
0
LINE
8
BLACK
6
CONTINUOUS
10
5.624
20
-2.56
11
5.626
21
-2.561
0
LINE
8
BLACK
6
CONTINUOUS
10
5.626
20
-2.561
11
5.627
21
-2.564
0
LINE
8
BLACK
6
CONTINUOUS
10
5.627
20
-2.564
11
5.627
21
-2.568
0
LINE
8
BLACK
6
CONTINUOUS
10
5.627
20
-2.568
11
5.626
21
-2.571
0
LINE
8
BLACK
6
CONTINUOUS
10
5.626
20
-2.571
11
5.624
21
-2.573
0
LINE
8
BLACK
6
CONTINUOUS
10
5.624
20
-2.573
11
5.621
21
-2.574
0
LINE
8
BLACK
6
CONTINUOUS
10
5.621
20
-2.574
11
5.609
21
-2.574
0
LINE
8
BLACK
6
CONTINUOUS
10
5.639
20
-2.588
11
5.643
21
-2.589
0
LINE
8
BLACK
6
CONTINUOUS
10
5.643
20
-2.589
11
5.651
21
-2.589
0
LINE
8
BLACK
6
CONTINUOUS
10
5.651
20
-2.589
11
5.654
21
-2.588
0
LINE
8
BLACK
6
CONTINUOUS
10
5.654
20
-2.588
11
5.655
21
-2.586
0
LINE
8
BLACK
6
CONTINUOUS
10
5.655
20
-2.586
11
5.657
21
-2.583
0
LINE
8
BLACK
6
CONTINUOUS
10
5.657
20
-2.583
11
5.657
21
-2.58
0
LINE
8
BLACK
6
CONTINUOUS
10
5.657
20
-2.58
11
5.655
21
-2.577
0
LINE
8
BLACK
6
CONTINUOUS
10
5.655
20
-2.577
11
5.654
21
-2.576
0
LINE
8
BLACK
6
CONTINUOUS
10
5.654
20
-2.576
11
5.651
21
-2.574
0
LINE
8
BLACK
6
CONTINUOUS
10
5.651
20
-2.574
11
5.645
21
-2.573
0
LINE
8
BLACK
6
CONTINUOUS
10
5.645
20
-2.573
11
5.642
21
-2.571
0
LINE
8
BLACK
6
CONTINUOUS
10
5.642
20
-2.571
11
5.64
21
-2.57
0
LINE
8
BLACK
6
CONTINUOUS
10
5.64
20
-2.57
11
5.639
21
-2.567
0
LINE
8
BLACK
6
CONTINUOUS
10
5.639
20
-2.567
11
5.639
21
-2.564
0
LINE
8
BLACK
6
CONTINUOUS
10
5.639
20
-2.564
11
5.64
21
-2.561
0
LINE
8
BLACK
6
CONTINUOUS
10
5.64
20
-2.561
11
5.642
21
-2.56
0
LINE
8
BLACK
6
CONTINUOUS
10
5.642
20
-2.56
11
5.645
21
-2.558
0
LINE
8
BLACK
6
CONTINUOUS
10
5.645
20
-2.558
11
5.652
21
-2.558
0
LINE
8
BLACK
6
CONTINUOUS
10
5.652
20
-2.558
11
5.657
21
-2.56
0
LINE
8
BLACK
6
CONTINUOUS
10
5.665
20
-2.558
11
5.683
21
-2.558
0
LINE
8
BLACK
6
CONTINUOUS
10
5.674
20
-2.589
11
5.674
21
-2.558
  0
ENDSEC
  0
EOF
