<?xml version="1.0" encoding="utf-8"?>
<!-- Generator: Adobe Illustrator 23.0.2, SVG Export Plug-In . SVG Version: 6.00 Build 0)  -->
<svg version="1.1" id="图层_1" xmlns="http://www.w3.org/2000/svg" xmlns:xlink="http://www.w3.org/1999/xlink" x="0px" y="0px"
	 width="113.4px" height="62.4px" viewBox="0 0 113.4 62.4" style="enable-background:new 0 0 113.4 62.4;" xml:space="preserve">
<style type="text/css">
	.st0{fill:#282828;}
	.st1{fill:none;stroke:#FFFFFF;stroke-width:0.4844;stroke-miterlimit:10;}
	.st2{fill:#E8DF9C;}
	.st3{font-family:'SourceHanSansCN-Bold-GBpc-EUC-H';}
	.st4{font-size:5.6334px;}
	.st5{fill:#C7D5D4;}
	.st6{fill:#CAB084;}
	.st7{fill:#FFFFFF;}
	.st8{font-size:7.3495px;}
	.st9{fill:#E6E6E2;}
	.st10{fill:#F3F2E9;}
	.st11{fill:none;stroke:#FFFFFF;stroke-width:0.5;stroke-miterlimit:10;}
	.st12{fill:#E9DCC1;}
	.st13{fill:#876830;}
	.st14{fill:#E6E6E6;}
	.st15{fill:#F2F2F2;}
	.st16{fill:#F0F268;}
	.st17{fill:none;stroke:#FFFFFF;stroke-width:0.2986;stroke-miterlimit:10;}
	.st18{font-size:3.5193px;}
	.st19{font-family:'ArialMT';}
	.st20{font-size:12px;}
	.st21{fill:#BCB6AE;}
	.st22{fill:#090909;}
	.st23{fill:#484A47;}
	.st24{fill:#313230;}
	.st25{fill:#222221;}
	.st26{fill:#0766A0;}
	.st27{fill:#1681D8;}
</style>
<path class="st0" d="M0,56.2V6.6c0-3.5,2.9-6.4,6.4-6.4H107c3.5,0,6.4,2.9,6.4,6.4v49.6c0,3.5-2.9,6.4-6.4,6.4H6.4
	C2.9,62.7,0,59.8,0,56.2z"/>
<polyline class="st1" points="69.6,24.9 69.6,18.5 104.8,18.5 104.8,26.4 "/>
<polyline class="st1" points="104.8,38.8 104.8,46.8 69.6,46.8 69.6,39.5 "/>
<text transform="matrix(1 0 0 1 66.6773 59.0045)" class="st2 st3 st4">Button - Module</text>
<rect x="36.8" y="0.8" class="st5" width="17.8" height="62.4"/>
<circle class="st6" cx="45.8" cy="9.2" r="7.6"/>
<circle class="st7" cx="45.8" cy="9.2" r="6.8"/>
<circle class="st6" cx="45.8" cy="55.1" r="7.6"/>
<circle class="st7" cx="45.8" cy="55.1" r="6.8"/>
<text transform="matrix(6.123234e-17 1 -1 6.123234e-17 29.1055 21.5444)" class="st7 st3 st8">G  V  S</text>
<path class="st9" d="M21.4,33.8V31H26c0.5,0,0.8,0.7,0.8,1.3l0,0c0,0.8-0.4,1.3-0.8,1.3h-4.6V33.8z"/>
<path class="st9" d="M21.4,39.6v-2.8H26c0.5,0,0.8,0.7,0.8,1.3l0,0c0,0.8-0.4,1.3-0.8,1.3h-4.6V39.6z"/>
<path class="st9" d="M21.4,27.9v-2.8H26c0.5,0,0.8,0.7,0.8,1.3l0,0c0,0.8-0.4,1.3-0.8,1.3h-4.6V27.9z"/>
<rect x="19.2" y="17.7" class="st10" width="5.6" height="2.3"/>
<rect x="19.2" y="44.7" class="st10" width="5.6" height="2.3"/>
<line class="st11" x1="23.2" y1="20" x2="23.2" y2="25.1"/>
<line class="st11" x1="23.2" y1="39.5" x2="23.2" y2="44.8"/>
<g>
	<rect y="17.7" class="st10" width="21.4" height="29.3"/>
	<g>
		<polygon class="st12" points="15.3,25.1 15.3,23.6 16.8,23.6 16.8,22.3 21.4,22.3 21.4,25.1 		"/>
		<polygon class="st13" points="17.4,22.3 17.4,23.8 15.3,23.8 15.3,25.1 9.1,25.1 9.1,22.3 		"/>
	</g>
	<g>
		<polygon class="st12" points="15.3,42.1 15.3,40.6 16.8,40.6 16.9,39.4 21.4,39.4 21.4,42.1 		"/>
		<polygon class="st13" points="17.4,39.4 17.4,40.9 15.3,40.9 15.3,42.1 9.1,42.1 9.1,39.4 		"/>
	</g>
</g>
<g>
	<rect x="79" y="6.1" class="st11" width="7.3" height="4.3"/>
	<rect x="84.5" y="6.7" class="st14" width="1.1" height="2.9"/>
	<rect x="79.4" y="6.7" class="st14" width="1.1" height="2.9"/>
</g>
<g>
	<rect x="83.3" y="48.9" class="st11" width="7.3" height="4.3"/>
	<rect x="88.8" y="49.5" class="st14" width="1.1" height="2.9"/>
	<rect x="83.7" y="49.5" class="st14" width="1.1" height="2.9"/>
</g>
<g>
	<rect x="84.3" y="13.9" class="st11" width="7.3" height="4.3"/>
	<rect x="89.8" y="14.4" class="st14" width="1.1" height="2.9"/>
	<rect x="84.7" y="14.4" class="st14" width="1.1" height="2.9"/>
</g>
<g>
	<rect x="94.2" y="6.4" class="st15" width="2.4" height="3.6"/>
	<rect x="88.5" y="6.4" class="st15" width="2.4" height="3.6"/>
	<rect x="90.9" y="6.4" class="st16" width="3.3" height="3.6"/>
	<polyline class="st17" points="88.8,6.1 96.9,6.1 96.9,10.3 88.8,10.3 	"/>
</g>
<g>
	<rect x="9.4" y="6.2" class="st11" width="7.3" height="4.3"/>
	<rect x="10.1" y="7" class="st14" width="1.1" height="2.9"/>
	<rect x="15.2" y="7" class="st14" width="1.1" height="2.9"/>
	<rect x="18.6" y="6.6" class="st15" width="2.4" height="3.6"/>
	<rect x="24.3" y="6.6" class="st15" width="2.4" height="3.6"/>
	<rect x="21" y="6.6" class="st16" width="3.3" height="3.6"/>
	<polyline class="st17" points="26.4,10.5 18.3,10.5 18.3,6.3 26.4,6.3 	"/>
	<text transform="matrix(1 0 0 1 13.0875 5.3203)" class="st7 st3 st18">Power</text>
</g>
<path class="st11" d="M97.3,35.1"/>
<path class="st11" d="M97.4,28.6"/>
<g>
	<rect x="6.3" y="49.8" class="st5" width="9.6" height="11"/>
	<text transform="matrix(1 0 0 1 6.6477 59.6966)" class="st19 st20">D</text>
</g>
<g>
	<path class="st5" d="M17.8,60.4c0,0-1.1-0.7,0-1.7h2.8v-2.8h5.8c0,0,0.5,0.1,0.4,0.9v1.9h2.5c0,0,1.7,1.3,0,1.9H18.5
		C18.5,60.6,18,60.6,17.8,60.4z"/>
	<path class="st5" d="M23.5,54.7L22,53c0,0-0.5-0.6,0.4-0.7l0.7,0.4L23,50.8c0,0,0.4-1.4,1,0v2l0.9-0.6c0,0,1-0.1,0.5,0.8L23.5,54.7
		z"/>
</g>
<g>
	<rect x="102.3" y="23.3" class="st21" width="6.7" height="3.8"/>
	<rect x="102.3" y="38" class="st21" width="6.7" height="3.8"/>
</g>
<g>
	<rect x="64.8" y="23.3" class="st21" width="6.9" height="3.8"/>
	<rect x="64.8" y="38" class="st21" width="6.9" height="3.8"/>
</g>
<polygon class="st10" points="13.3,26.6 13.3,38.1 6,38.1 5.6,43.8 0,43.8 0,20.9 5.7,20.9 6,26.6 "/>
<path class="st22" d="M70.3,46.4V18.8c0-1.3,1.1-2.4,2.4-2.4h28.5c1.3,0,2.4,1.1,2.4,2.4v27.6c0,1.3-1.1,2.4-2.4,2.4H72.7
	C71.4,48.8,70.3,47.7,70.3,46.4z"/>
<path class="st23" d="M72.4,44.7V20.6c0-1.1,0.9-2.1,2.1-2.1h24.9c1.1,0,2.1,0.9,2.1,2.1v24.1c0,1.1-0.9,2.1-2.1,2.1H74.5
	C73.3,46.8,72.4,45.8,72.4,44.7z"/>
<circle class="st24" cx="86.9" cy="32.5" r="10"/>
<rect x="81.6" y="26.6" transform="matrix(0.9946 -0.1033 0.1033 0.9946 -2.8559 9.1804)" class="st25" width="11.2" height="11.2"/>
<circle cx="87.3" cy="32.3" r="2.9"/>
<circle cx="98.3" cy="21" r="2"/>
<circle cx="75.9" cy="21" r="2"/>
<circle cx="98.8" cy="43.5" r="2"/>
<circle cx="76.3" cy="43.5" r="2"/>
<circle class="st26" cx="87.3" cy="32.3" r="18.4"/>
<circle class="st27" cx="87.3" cy="32.3" r="16.3"/>
</svg>
