<?xml version="1.0" encoding="utf-8"?>
<!-- Generator: Adobe Illustrator 23.0.2, SVG Export Plug-In . SVG Version: 6.00 Build 0)  -->
<svg version="1.1" id="图层_1" xmlns="http://www.w3.org/2000/svg" xmlns:xlink="http://www.w3.org/1999/xlink" x="0px" y="0px"
	 width="126.2px" height="62.4px" viewBox="0 0 126.2 62.4" style="enable-background:new 0 0 126.2 62.4;" xml:space="preserve">
<style type="text/css">
	.st0{fill:#282828;}
	.st1{fill:none;stroke:#FFFFFF;stroke-width:0.5;stroke-miterlimit:10;}
	.st2{fill:#E6E6E6;}
	.st3{fill:#C7D5D6;}
	.st4{fill:#CBB084;}
	.st5{fill:#FFFFFF;}
	.st6{fill:#F2F2F2;}
	.st7{fill:#F1F268;}
	.st8{fill:none;stroke:#FFFFFF;stroke-width:0.2986;stroke-miterlimit:10;}
	.st9{font-family:'SourceHanSansCN-Bold-GBpc-EUC-H';}
	.st10{font-size:3.5193px;}
	.st11{fill:#F5F3E9;}
	.st12{fill:#EADCC1;}
	.st13{fill:#886830;}
	.st14{display:none;fill:#FFFFFF;enable-background:new    ;}
	.st15{font-size:6.3511px;}
	.st16{fill:#E4E4E1;}
	.st17{fill:#E6E6E2;}
	.st18{font-family:'AdobeSongStd-Light-GBpc-EUC-H';}
	.st19{font-size:12px;}
	.st20{fill:none;stroke:#C7D5D6;stroke-width:0.6272;stroke-miterlimit:10;}
	.st21{fill:none;stroke:#C7D5D6;stroke-width:0.5;stroke-miterlimit:10;}
	.st22{fill:#CFDADA;}
	.st23{font-size:5.7837px;}
	.st24{fill:#977C58;}
	.st25{font-size:5.17px;}
</style>
<path class="st0" d="M114.9,56v-8.7h-13.8V15.2h13.8V6.4c0-3.5-2.9-6.4-6.4-6.4H7.8C4.3,0,1.4,2.9,1.4,6.4V56c0,3.6,2.9,6.5,6.4,6.4
	h100.7C112,62.4,114.9,59.5,114.9,56z"/>
<g>
	<rect x="78" y="6" width="4.3" height="3"/>
	<g>
		<rect x="76.4" y="5.2" class="st1" width="7.3" height="4.3"/>
		<rect x="77.1" y="6" class="st2" width="1.1" height="2.9"/>
		<rect x="82.2" y="6" class="st2" width="1.1" height="2.9"/>
	</g>
</g>
<rect x="38.3" y="0" class="st3" width="17.8" height="62.4"/>
<circle class="st4" cx="47.3" cy="8.4" r="7.6"/>
<circle class="st5" cx="47.3" cy="8.4" r="6.8"/>
<circle class="st4" cx="47.3" cy="54.3" r="7.6"/>
<circle class="st5" cx="47.3" cy="54.3" r="6.8"/>
<g>
	<rect x="62.3" y="27.4" class="st6" width="3.6" height="2.4"/>
	<rect x="62.3" y="33.1" class="st6" width="3.6" height="2.4"/>
	<rect x="62.3" y="29.8" class="st7" width="3.6" height="3.3"/>
</g>
<g>
	<rect x="79.1" y="27.4" class="st6" width="3.6" height="2.4"/>
	<rect x="79.1" y="33.1" class="st6" width="3.6" height="2.4"/>
	<rect x="79.1" y="29.8" class="st7" width="3.6" height="3.3"/>
</g>
<g>
	<g>
		<rect x="12" y="5.2" class="st1" width="7.3" height="4.3"/>
		<rect x="12.7" y="6" class="st2" width="1.1" height="2.9"/>
		<rect x="17.8" y="6" class="st2" width="1.1" height="2.9"/>
	</g>
	<g>
		<rect x="21.1" y="5.6" class="st6" width="2.4" height="3.6"/>
		<rect x="26.8" y="5.6" class="st6" width="2.4" height="3.6"/>
		<rect x="23.5" y="5.6" class="st7" width="3.3" height="3.6"/>
	</g>
	<polyline class="st8" points="28.9,9.5 20.8,9.5 20.8,5.3 28.9,5.3 	"/>
	<text transform="matrix(1 0 0 1 14.7373 4.3594)" class="st5 st9 st10">Power</text>
</g>
<path class="st1" d="M98.8,34.3"/>
<path class="st1" d="M98.9,27.8"/>
<rect x="20.6" y="16.8" class="st11" width="5.6" height="2.3"/>
<rect x="20.6" y="43.8" class="st11" width="5.6" height="2.3"/>
<line class="st1" x1="24.6" y1="19.1" x2="24.6" y2="24.2"/>
<line class="st1" x1="24.6" y1="38.6" x2="24.6" y2="43.9"/>
<g>
	<rect x="1.4" y="16.8" class="st11" width="21.4" height="29.3"/>
	<g>
		<polygon class="st12" points="16.7,24.2 16.7,22.7 18.2,22.7 18.2,21.4 22.8,21.4 22.8,24.2 		"/>
		<polygon class="st13" points="18.8,21.4 18.8,22.9 16.7,22.9 16.7,24.2 10.5,24.2 10.5,21.4 		"/>
	</g>
	<g>
		<polygon class="st12" points="16.7,41.2 16.7,39.7 18.2,39.7 18.3,38.5 22.8,38.5 22.8,41.2 		"/>
		<polygon class="st13" points="18.8,38.5 18.8,40 16.7,40 16.7,41.2 10.5,41.2 10.5,38.5 		"/>
	</g>
</g>
<polygon class="st11" points="14.7,25.7 14.7,37.2 7.4,37.2 7.1,42.8 1.4,42.8 1.4,20 7.1,20 7.4,25.7 "/>
<text transform="matrix(6.123234e-17 -1 1 6.123234e-17 97.3262 42.3998)" class="st14 st9 st15">V  G  A  D</text>
<rect x="71.1" y="33.1" class="st2" width="2.2" height="2.5"/>
<rect x="73.7" y="27.5" class="st2" width="2.2" height="2.5"/>
<rect x="68.6" y="27.5" class="st2" width="2.2" height="2.5"/>
<rect x="67.9" y="29.5" width="8.5" height="3.9"/>
<rect x="88.9" y="24.1" class="st2" width="12.1" height="4.3"/>
<rect x="88.9" y="34" class="st2" width="12.1" height="4.3"/>
<path class="st16" d="M120,44c3.5-0.5,6.2-6.2,6.2-12.8s-2.7-12.3-6.2-12.8l0,0h-18.9V44H120L120,44z"/>
<path class="st17" d="M22.8,32.6v-2.8h4.6c0.5,0,0.8,0.7,0.8,1.3l0,0c0,0.8-0.4,1.3-0.8,1.3h-4.6V32.6z"/>
<path class="st17" d="M22.8,39v-2.8h4.6c0.5,0,0.8,0.7,0.8,1.3l0,0c0,0.8-0.4,1.3-0.8,1.3h-4.6V39z"/>
<path class="st17" d="M22.8,26.2v-2.8h4.6c0.5,0,0.8,0.7,0.8,1.3l0,0c0,0.8-0.4,1.3-0.8,1.3h-4.6V26.2z"/>
<path class="st11" d="M1.4,32.8V30H6c0.5,0,0.8,0.7,0.8,1.3l0,0c0,0.8-0.4,1.3-0.8,1.3H1.4V32.8z"/>
<path class="st11" d="M1.4,39.2v-2.8H6c0.5,0,0.8,0.7,0.8,1.3l0,0C6.8,38.5,6.4,39,6,39H1.4V39.2z"/>
<path class="st11" d="M1.4,26.4v-2.8H6c0.5,0,0.8,0.7,0.8,1.3l0,0c0,0.8-0.4,1.3-0.8,1.3H1.4V26.4z"/>
<g>
	<rect x="91.1" y="6.1" class="st2" width="2.2" height="2.5"/>
	<rect x="85.6" y="6.1" class="st2" width="2.2" height="2.5"/>
	<rect x="87.8" y="6.1" width="3.3" height="2.5"/>
</g>
<g>
	<g>
		<rect x="7.1" y="48.6" class="st3" width="9.6" height="11"/>
		<text transform="matrix(1 0 0 1 7.3877 57.3844)" class="st18 st19">D</text>
	</g>
	<g>
		<g>
			<path class="st3" d="M30.5,51l0.2-0.5c1.3,0.5,2.2,2.2,2.2,4.2c0,1.9-0.8,3.6-2,4.1l-0.2-0.4c1-0.5,1.7-2,1.7-3.7
				C32.3,53,31.6,51.4,30.5,51z"/>
		</g>
		<path class="st20" d="M29.6,51.5c0.9,0.8,1.5,2,1.5,3.4c0,1.3-0.6,2.5-1.5,3.4"/>
		<path class="st21" d="M32.2,50.2c1.1,1,1.8,2.7,1.8,4.6c0,2-0.8,3.8-1.9,4.8"/>
	</g>
	<g>
		<g>
			<path class="st3" d="M19.8,54.7c0,1.7,0.7,3.2,1.7,3.7l-0.2,0.4c-1.2-0.5-2-2.2-2-4.1c0-2,0.9-3.7,2.2-4.2l0.2,0.5
				C20.6,51.4,19.9,53,19.8,54.7z"/>
		</g>
		<path class="st20" d="M22.6,58.3c-0.9-0.9-1.5-2.1-1.5-3.4c0-1.4,0.6-2.6,1.5-3.4"/>
		<path class="st21" d="M20.1,59.6c-1.1-1-1.9-2.8-1.9-4.8c0-1.9,0.7-3.6,1.8-4.6"/>
	</g>
	<g>
		<circle class="st22" cx="26" cy="49.3" r="1.2"/>
		<path class="st22" d="M24.4,50.6c0,0,1.6,0.4,3.4-0.2c0,0,0.7,0.1,0.7,1.1c0,0,0.1,3.6-0.1,3.8c0,0-0.7,1.1-0.8-0.1h-0.2v4
			c0,0-0.2,1.7-1.3,0.3c0,0-1.3,1.1-1.4-0.3v-4c0,0-0.9,1.2-0.9,0C23.9,55.2,23.3,50.4,24.4,50.6z"/>
	</g>
</g>
<text transform="matrix(6.123234e-17 1 -1 6.123234e-17 29.6992 22.9605)" class="st5 st9 st23">G  V  S</text>
<text transform="matrix(1 0 0 1 64.6592 57.9456)" class="st24 st9 st25">Human  Body-Sensor</text>
</svg>
