<?xml version="1.0" encoding="utf-8"?>
<!-- Generator: Adobe Illustrator 23.0.2, SVG Export Plug-In . SVG Version: 6.00 Build 0)  -->
<svg version="1.1" id="图层_1" xmlns="http://www.w3.org/2000/svg" xmlns:xlink="http://www.w3.org/1999/xlink" x="0px" y="0px"
	 width="113.4px" height="62.4px" viewBox="0 0 113.4 62.4" style="enable-background:new 0 0 113.4 62.4;" xml:space="preserve">
<style type="text/css">
	.st0{fill:#EADF9C;}
	.st1{font-family:'SourceHanSansCN-Bold-GBpc-EUC-H';}
	.st2{font-size:5.6334px;}
	.st3{fill:#E2E9E8;}
	.st4{fill:#CBB084;}
	.st5{fill:#FFFFFF;}
	.st6{font-size:7.3495px;}
	.st7{fill:#948C79;}
	.st8{fill:#E6E6E2;}
	.st9{fill:#F5F3E9;}
	.st10{fill:none;stroke:#FFFFFF;stroke-width:0.5;stroke-miterlimit:10;}
	.st11{fill:#EADCC1;}
	.st12{fill:#886830;}
	.st13{fill:#F2F2F2;}
	.st14{fill:#CCCBCB;}
	.st15{fill:#E6E6E6;}
	.st16{fill:#F1F268;}
	.st17{fill:none;stroke:#FFFFFF;stroke-width:0.2986;stroke-miterlimit:10;}
	.st18{font-size:3.5193px;}
	.st19{fill:#CCB286;}
	.st20{fill:#282828;}
	.st21{fill:#E0E7E6;}
	.st22{fill:#F2F1E9;}
</style>
<path d="M0,55.9V6.4C0,2.9,2.9,0,6.4,0H107c3.5,0,6.4,2.9,6.4,6.4v49.5c0,3.5-2.9,6.4-6.4,6.4H6.4C2.9,62.4,0,59.5,0,55.9z"/>
<text transform="matrix(1 0 0 1 66.7265 58.0405)" class="st0 st1 st2">Touch-Module</text>
<rect x="36.8" y="0" class="st3" width="17.8" height="62.4"/>
<circle class="st4" cx="45.8" cy="8.4" r="7.6"/>
<circle class="st5" cx="45.8" cy="8.4" r="6.8"/>
<circle class="st4" cx="45.8" cy="54.3" r="7.6"/>
<circle class="st5" cx="45.8" cy="54.3" r="6.8"/>
<text transform="matrix(-1.836970e-16 1 -1 -1.836970e-16 29.1211 20.8009)" class="st5 st1 st6">G  V  S</text>
<rect x="21.4" y="24.3" class="st7" width="6.4" height="3"/>
<path class="st8" d="M21.4,26v-1.7H26c0.5,0,0.8,0.4,0.8,0.8l0,0c0,0.5-0.4,0.8-0.8,0.8h-4.6V26z"/>
<rect x="21.4" y="30.1" class="st7" width="6.4" height="3"/>
<path class="st8" d="M21.4,31.8v-1.7H26c0.5,0,0.8,0.4,0.8,0.8l0,0c0,0.5-0.4,0.8-0.8,0.8h-4.6V31.8z"/>
<rect x="21.4" y="36" class="st7" width="6.4" height="3"/>
<path class="st8" d="M21.4,37.7V36H26c0.5,0,0.8,0.4,0.8,0.8l0,0c0,0.5-0.4,0.8-0.8,0.8h-4.6V37.7z"/>
<rect y="16.9" class="st9" width="21.4" height="29.3"/>
<rect x="19.2" y="16.9" class="st9" width="5.6" height="2.3"/>
<rect x="19.2" y="44" class="st9" width="5.6" height="2.3"/>
<line class="st10" x1="23.2" y1="19.2" x2="23.2" y2="24.3"/>
<line class="st10" x1="23.2" y1="39" x2="23.2" y2="44"/>
<polygon class="st11" points="15.3,25.8 15.3,24.3 16.8,24.3 16.8,23 21.4,23 21.4,25.8 "/>
<polygon class="st12" points="17.4,23 17.4,24.5 15.3,24.5 15.3,25.8 9.1,25.8 9.1,23 "/>
<polygon class="st11" points="15.3,42.9 15.3,41.4 16.8,41.4 16.9,40.2 21.4,40.2 21.4,42.9 "/>
<polygon class="st12" points="17.4,40.2 17.4,41.7 15.3,41.7 15.3,42.9 9.1,42.9 9.1,40.2 "/>
<g>
	<rect x="62.9" y="39.5" class="st13" width="2.4" height="3.6"/>
	<rect x="57.2" y="39.5" class="st13" width="2.4" height="3.6"/>
	<rect x="59.6" y="39.5" class="st14" width="3.3" height="3.6"/>
</g>
<g>
	<g>
		<rect x="5.5" y="5.6" class="st10" width="7.3" height="4.3"/>
		<rect x="11" y="6.4" class="st15" width="1.1" height="2.9"/>
		<rect x="5.9" y="6.4" class="st15" width="1.1" height="2.9"/>
		<rect x="19.9" y="6" class="st13" width="2.4" height="3.6"/>
		<rect x="14.2" y="6" class="st13" width="2.4" height="3.6"/>
		<rect x="16.6" y="6" class="st16" width="3.3" height="3.6"/>
		<polyline class="st17" points="14.5,5.7 22.6,5.7 22.6,9.9 14.5,9.9 		"/>
	</g>
	<text transform="matrix(1 0 0 1 9.6227 4.6974)" class="st5 st1 st18">Power</text>
</g>
<path class="st10" d="M97.3,34.3"/>
<path class="st10" d="M97.4,27.8"/>
<circle class="st19" cx="91.7" cy="30.9" r="17.9"/>
<g>
	<rect x="63.6" y="33.2" class="st5" width="2.1" height="3.3"/>
	<rect x="60.1" y="33.2" class="st5" width="2.1" height="3.3"/>
	<rect x="56.9" y="33.2" class="st5" width="2.1" height="3.3"/>
	<rect x="63.6" y="26.3" class="st5" width="2.1" height="3.3"/>
	<rect x="60.1" y="26.3" class="st5" width="2.1" height="3.3"/>
	<rect x="56.9" y="26.3" class="st5" width="2.1" height="3.3"/>
	<rect x="56.7" y="28.1" class="st20" width="9.1" height="6.4"/>
</g>
<g>
	<rect x="57.3" y="19.4" class="st10" width="7.3" height="4.3"/>
	<rect x="62.9" y="20" class="st15" width="1.1" height="2.9"/>
	<rect x="57.8" y="20" class="st15" width="1.1" height="2.9"/>
</g>
<g>
	<rect x="15.6" y="52.6" class="st10" width="7.3" height="4.3"/>
	<rect x="21.2" y="53.3" class="st15" width="1.1" height="2.9"/>
	<rect x="16.1" y="53.3" class="st15" width="1.1" height="2.9"/>
	<rect x="30" y="53" class="st13" width="2.4" height="3.6"/>
	<rect x="24.3" y="53" class="st13" width="2.4" height="3.6"/>
	<rect x="26.7" y="53" class="st16" width="3.3" height="3.6"/>
	<polyline class="st17" points="24.6,52.7 32.8,52.7 32.8,56.9 24.6,56.9 	"/>
</g>
<path class="st21" d="M10.2,60.5l3.1-1.1c0,0,0-0.6-0.4-0.7c0,0-0.2-1.3,0.1-1.4c0,0,0.3-1.2-0.3-1.8c0,0-0.3-0.4-0.4-1
	c0,0-0.2-1.6-1.2-1c0,0-1.3-0.8-1.6,0.3c0,0-0.4-0.6-0.6-0.6c0,0,0.6-1.8-1-2.6c0,0-3-1.1-3,2.3c0,0,0.5,1.7,2,1.5
	c0,0,0.7,1,0.5,1.4c0,0-1.6,0-1,1.4C6.4,57.3,8.7,58.7,10.2,60.5z"/>
<polygon class="st22" points="13.3,27.4 13.3,38.9 6,38.9 5.6,44.6 0,44.6 0,21.7 5.7,21.7 6,27.4 "/>
</svg>
