<?xml version="1.0" encoding="utf-8"?>
<!-- Generator: Adobe Illustrator 23.0.2, SVG Export Plug-In . SVG Version: 6.00 Build 0)  -->
<svg version="1.1" id="图层_1" xmlns="http://www.w3.org/2000/svg" xmlns:xlink="http://www.w3.org/1999/xlink" x="0px" y="0px"
	 width="62.4px" height="189.9px" viewBox="0 0 62.4 189.9" style="enable-background:new 0 0 62.4 189.9;" xml:space="preserve">
<style type="text/css">
	.st0{fill:#282828;}
	.st1{fill:#F2F2F2;}
	.st2{fill:#EFF268;}
	.st3{fill:none;stroke:#FFFFFF;stroke-width:0.2467;stroke-miterlimit:10;}
	.st4{fill:#FFFFFF;}
	.st5{font-family:'SourceHanSansCN-Bold-GBpc-EUC-H';}
	.st6{font-size:3.5193px;}
	.st7{fill:none;stroke:#FFFFFF;stroke-width:0.413;stroke-miterlimit:10;}
	.st8{fill:#E6E6E6;}
	.st9{fill:#C7D5D3;}
	.st10{fill:#C9B084;}
	.st11{font-size:7.3495px;}
	.st12{fill:#E6E6E2;}
	.st13{fill:#F2F1E9;}
	.st14{fill:none;stroke:#FFFFFF;stroke-width:0.5;stroke-miterlimit:10;}
	.st15{fill:#E8DCC1;}
	.st16{fill:#876830;}
	.st17{fill:#F5E02C;}
	.st18{font-size:6.7811px;}
	.st19{fill:#E7DF9C;}
	.st20{font-size:5.6334px;}
</style>
<path class="st0" d="M56.4,189.9H6c-3.3,0-6-2.7-6-6V6c0-3.3,2.7-6,6-6h50.4c3.3,0,6,2.7,6,6v177.9
	C62.4,187.2,59.7,189.9,56.4,189.9z"/>
<g>
	<rect x="7.2" y="159.2" class="st1" width="3" height="2"/>
	<rect x="7.2" y="163.9" class="st1" width="3" height="2"/>
	<rect x="7.2" y="161.2" class="st2" width="3" height="2.7"/>
	<polyline class="st3" points="7,165.6 7,158.9 10.4,158.9 10.4,165.6 	"/>
</g>
<text transform="matrix(-1.836970e-16 -1 1 -1.836970e-16 4.8373 170.2543)" class="st4 st5 st6">Power</text>
<g>
	<rect x="6.9" y="167.5" class="st7" width="3.6" height="6"/>
	<rect x="7.4" y="168.1" class="st8" width="2.4" height="0.9"/>
	<rect x="7.4" y="172.3" class="st8" width="2.4" height="0.9"/>
	<rect x="7.4" y="169.1" width="2.4" height="3.3"/>
</g>
<g>
	<rect y="135.8" class="st9" width="62.4" height="17.8"/>
	<circle class="st10" cx="54" cy="144.8" r="7.6"/>
	<circle class="st4" cx="54" cy="144.8" r="6.8"/>
	<circle class="st10" cx="8.1" cy="144.8" r="7.6"/>
	<circle class="st4" cx="8.1" cy="144.8" r="6.8"/>
</g>
<g>
	<text transform="matrix(1 0 0 1 20.4639 160.8166)" class="st4 st5 st11">V  G  A</text>
	<path class="st12" d="M32.7,168.5h-2.8v-4.6c0-0.5,0.7-0.8,1.3-0.8l0,0c0.8,0,1.3,0.4,1.3,0.8v4.6H32.7z"/>
	<path class="st12" d="M38.5,168.5h-2.8v-4.6c0-0.5,0.7-0.8,1.3-0.8l0,0c0.8,0,1.3,0.4,1.3,0.8v4.6H38.5z"/>
	<path class="st12" d="M26.8,168.5H24v-4.6c0-0.5,0.7-0.8,1.3-0.8l0,0c0.8,0,1.3,0.4,1.3,0.8v4.6H26.8z"/>
	<rect x="16.6" y="165.1" class="st13" width="2.3" height="5.6"/>
	<rect x="43.6" y="165.1" class="st13" width="2.3" height="5.6"/>
	<line class="st14" x1="18.9" y1="166.7" x2="24" y2="166.7"/>
	<line class="st14" x1="38.4" y1="166.7" x2="43.7" y2="166.7"/>
	<g>
		<rect x="16.6" y="168.5" class="st13" width="29.3" height="21.4"/>
		<g>
			<polygon class="st15" points="24,174.6 22.5,174.6 22.5,173.1 21.2,173.1 21.2,168.5 24,168.5 			"/>
			<polygon class="st16" points="21.2,172.5 22.7,172.5 22.7,174.6 24,174.6 24,180.8 21.2,180.8 			"/>
		</g>
		<g>
			<polygon class="st15" points="41,174.6 39.5,174.6 39.5,173.1 38.3,173 38.3,168.5 41,168.5 			"/>
			<polygon class="st16" points="38.3,172.5 39.8,172.5 39.8,174.6 41,174.6 41,180.8 38.3,180.8 			"/>
		</g>
	</g>
	<polygon class="st13" points="25.5,176.6 37,176.6 37,183.9 42.7,184.3 42.7,189.9 19.8,189.9 19.8,184.2 25.5,183.9 	"/>
	<path class="st13" d="M32.7,189.9h-2.8v-4.6c0-0.5,0.7-0.8,1.3-0.8l0,0c0.8,0,1.3,0.4,1.3,0.8v4.6H32.7z"/>
	<path class="st13" d="M38.5,189.9h-2.8v-4.6c0-0.5,0.7-0.8,1.3-0.8l0,0c0.8,0,1.3,0.4,1.3,0.8v4.6H38.5z"/>
	<path class="st13" d="M26.8,189.9H24v-4.6c0-0.5,0.7-0.8,1.3-0.8l0,0c0.8,0,1.3,0.4,1.3,0.8v4.6H26.8z"/>
</g>
<path class="st4" d="M16.8,2v129.8h28.8V2H16.8z M30.9,3.5c1.6,0,2.9,1.3,2.9,2.9s-1.3,2.9-2.9,2.9S28,8,28,6.4S29.3,3.5,30.9,3.5z
	 M30.9,129.3c-1.6,0-2.9-1.3-2.9-2.9s1.3-2.9,2.9-2.9s2.9,1.3,2.9,2.9S32.5,129.3,30.9,129.3z M36.3,121h-1.7h-7H26V11.8h1.7h7h1.7
	V121H36.3z"/>
<rect x="16.8" y="33.9" class="st17" width="28.8" height="31.4"/>
<rect x="16.8" y="68.4" class="st17" width="28.8" height="31.4"/>
<rect x="17.6" y="65.3" class="st0" width="27.1" height="3.1"/>
<text transform="matrix(6.123234e-17 -1 1 6.123234e-17 60.0322 32.5121)" class="st9 st5 st18">10K</text>
<text transform="matrix(6.123234e-17 -1 1 6.123234e-17 60.0322 105.0121)" class="st9 st5 st18">0R</text>
<text transform="matrix(6.123234e-17 -1 1 6.123234e-17 11.3029 95.0512)" class="st19 st5 st20">Slide  Potentiometer</text>
<g>
	<g>
		<path class="st9" d="M58.9,72.5h-6V60.3h6V72.5z M53.7,71.8h4.5V61h-4.5V71.8z"/>
	</g>
	<g>
		<polyline class="st9" points="55.5,60.7 55.5,52.2 56.3,52.2 56.3,60.6 		"/>
	</g>
	<g>
		<polyline class="st9" points="55.5,80.5 55.5,72.1 56.3,72.1 56.3,80.4 		"/>
	</g>
	<path class="st9" d="M49.9,68.1c0,0,1.8-0.7,2.3-1.7c0,0-0.3-0.8-2.3-1.4c0,0-0.3,0.3,0,0.8l-3.5-0.1c0,0-0.9,0.9,0,1.2h3.4
		l0.3,0.2C50.1,67.1,49.7,67.5,49.9,68.1z"/>
</g>
</svg>
