<?xml version="1.0" encoding="utf-8"?>
<!-- Generator: Adobe Illustrator 23.0.2, SVG Export Plug-In . SVG Version: 6.00 Build 0)  -->
<svg version="1.1" id="图层_1" xmlns="http://www.w3.org/2000/svg" xmlns:xlink="http://www.w3.org/1999/xlink" x="0px" y="0px"
	 width="113.4px" height="62.4px" viewBox="0 0 113.4 62.4" style="enable-background:new 0 0 113.4 62.4;" xml:space="preserve">
<style type="text/css">
	.st0{fill:#EADF9C;}
	.st1{font-family:'SourceHanSansCN-Bold-GBpc-EUC-H';}
	.st2{font-size:5px;}
	.st3{fill:#E2E9E8;}
	.st4{fill:#CBB084;}
	.st5{fill:#FFFFFF;}
	.st6{font-size:7.3495px;}
	.st7{fill:#948C79;}
	.st8{fill:#E6E6E2;}
	.st9{fill:#F5F3E9;}
	.st10{fill:none;stroke:#FFFFFF;stroke-width:0.5;stroke-miterlimit:10;}
	.st11{fill:#EADCC1;}
	.st12{fill:#886830;}
	.st13{fill:#F2F1E9;}
	.st14{fill:#EFDBB5;}
	.st15{font-size:1.7495px;}
	.st16{fill:#75502F;}
	.st17{font-family:'SourceHanSansCN-Regular-GBpc-EUC-H';}
	.st18{fill:#B7B7B7;}
	.st19{fill:#1667B7;}
	.st20{fill:#C9CACA;}
	.st21{clip-path:url(#SVGID_2_);}
	.st22{fill:#9FA0A0;}
	.st23{fill:#185BA0;}
	.st24{font-size:4px;}
	.st25{fill:#333333;}
	.st26{fill:#E0E7E6;}
	.st27{font-family:'AdobeSongStd-Light-GBpc-EUC-H';}
	.st28{font-size:11.2745px;}
	.st29{fill:none;stroke:#DFE6E5;stroke-width:0.5;stroke-miterlimit:10;}
</style>
<path d="M0,55.9V6.4C0,2.9,2.9,0,6.4,0H107c3.5,0,6.4,2.9,6.4,6.4v49.5c0,3.5-2.9,6.4-6.4,6.4H6.4C2.9,62.4,0,59.5,0,55.9z"/>
<text transform="matrix(1 0 0 1 66.7958 59.4441)" class="st0 st1 st2">Shock — Sensor</text>
<rect x="36.8" y="0" class="st3" width="17.8" height="62.4"/>
<circle class="st4" cx="45.8" cy="8.4" r="7.6"/>
<circle class="st5" cx="45.8" cy="8.4" r="6.8"/>
<circle class="st4" cx="45.8" cy="54.3" r="7.6"/>
<circle class="st5" cx="45.8" cy="54.3" r="6.8"/>
<text transform="matrix(-1.836970e-16 1 -1 -1.836970e-16 29.1055 21.2834)" class="st5 st1 st6">GVAD</text>
<g>
	<g>
		<rect x="21.4" y="27.6" class="st7" width="6.4" height="3"/>
		<path class="st8" d="M21.4,29.3v-1.7H26c0.5,0,0.8,0.4,0.8,0.8l0,0c0,0.5-0.4,0.8-0.8,0.8h-4.6V29.3z"/>
	</g>
	<g>
		<rect x="21.4" y="22.6" class="st7" width="6.4" height="3"/>
		<path class="st8" d="M21.4,24.3v-1.7H26c0.5,0,0.8,0.4,0.8,0.8l0,0c0,0.5-0.4,0.8-0.8,0.8h-4.6V24.3z"/>
	</g>
	<g>
		<rect x="21.4" y="32.5" class="st7" width="6.4" height="3"/>
		<path class="st8" d="M21.4,34.2v-1.7H26c0.5,0,0.8,0.4,0.8,0.8l0,0c0,0.5-0.4,0.8-0.8,0.8h-4.6V34.2z"/>
	</g>
	<g>
		<rect x="21.4" y="37.5" class="st7" width="6.4" height="3"/>
		<path class="st8" d="M21.4,39.2v-1.7H26c0.5,0,0.8,0.4,0.8,0.8l0,0c0,0.5-0.4,0.8-0.8,0.8h-4.6V39.2z"/>
	</g>
</g>
<rect y="16.9" class="st9" width="21.4" height="29.3"/>
<rect x="19.2" y="16.9" class="st9" width="5.6" height="2.3"/>
<rect x="19.2" y="44" class="st9" width="5.6" height="2.3"/>
<line class="st10" x1="23.2" y1="19.2" x2="23.2" y2="22.6"/>
<line class="st10" x1="23.2" y1="40.5" x2="23.2" y2="44"/>
<polygon class="st11" points="15.3,25.8 15.3,24.3 16.8,24.3 16.8,23 21.4,23 21.4,25.8 "/>
<polygon class="st12" points="17.4,23 17.4,24.5 15.3,24.5 15.3,25.8 9.1,25.8 9.1,23 "/>
<polygon class="st11" points="15.3,42.9 15.3,41.4 16.8,41.4 16.9,40.2 21.4,40.2 21.4,42.9 "/>
<polygon class="st12" points="17.4,40.2 17.4,41.7 15.3,41.7 15.3,42.9 9.1,42.9 9.1,40.2 "/>
<polygon class="st13" points="13.3,27.2 13.3,38.7 6,38.7 5.6,44.4 0,44.4 0,21.5 5.7,21.5 6,27.2 "/>
<g>
	<g>
		<rect x="70.4" y="16.2" class="st10" width="7.3" height="4.3"/>
		<rect x="76" y="16.9" class="st14" width="1.1" height="2.9"/>
		<rect x="70.9" y="16.9" class="st14" width="1.1" height="2.9"/>
		<text transform="matrix(-1 0 0 -1 75.5566 17.8647)" class="st5 st1 st15">103</text>
	</g>
	<g>
		<rect x="70.4" y="10.4" class="st10" width="7.3" height="4.3"/>
		<rect x="76" y="11.1" class="st14" width="1.1" height="2.9"/>
		<rect x="70.9" y="11.1" class="st14" width="1.1" height="2.9"/>
		<text transform="matrix(-1 0 0 -1 75.5566 12.0229)" class="st5 st1 st15">304</text>
	</g>
	<g>
		<rect x="70.2" y="21.8" class="st16" width="7.7" height="3.2"/>
		<rect x="76.9" y="21.8" class="st14" width="1.1" height="3.2"/>
		<rect x="70.3" y="21.8" class="st14" width="1.1" height="3.2"/>
	</g>
	<g>
		<rect x="70.2" y="26" class="st16" width="7.7" height="3.2"/>
		<rect x="76.9" y="26" class="st14" width="1.1" height="3.2"/>
		<rect x="70.3" y="26" class="st14" width="1.1" height="3.2"/>
	</g>
</g>
<g>
	<rect x="79.7" y="4.9" class="st10" width="7.3" height="4.3"/>
	<rect x="80.3" y="5.6" class="st14" width="1.1" height="2.9"/>
	<rect x="85.4" y="5.6" class="st14" width="1.1" height="2.9"/>
	<text transform="matrix(1 0 0 1 81.8395 7.547)" class="st5 st1 st15">102</text>
</g>
<g>
	<rect x="88.9" y="5.2" class="st5" width="7.7" height="3.6"/>
	<rect x="95.5" y="5.2" class="st14" width="1.1" height="3.6"/>
	<rect x="89" y="5.2" class="st14" width="1.1" height="3.6"/>
</g>
<g>
	<g>
		<rect x="8.8" y="5.7" class="st10" width="7.3" height="4.3"/>
		<rect x="14.4" y="6.4" class="st14" width="1.1" height="2.9"/>
		<rect x="9.3" y="6.4" class="st14" width="1.1" height="2.9"/>
		<text transform="matrix(-1 0 0 -1 14.0361 7.3881)" class="st5 st1 st15">102</text>
	</g>
	<g>
		<rect x="17.8" y="6.2" class="st5" width="7.7" height="3.6"/>
		<rect x="24.4" y="6.2" class="st14" width="1.1" height="3.6"/>
		<rect x="17.9" y="6.2" class="st14" width="1.1" height="3.6"/>
	</g>
	<text transform="matrix(1 0 0 1 10.814 4.7072)" class="st5 st17 st2">Power</text>
</g>
<g>
	<rect x="102.2" y="23.4" class="st10" width="10.1" height="15.5"/>
	<rect x="103" y="24.2" class="st0" width="8.5" height="14"/>
	<ellipse class="st0" cx="107.2" cy="24.1" rx="4.3" ry="1.5"/>
	<ellipse class="st0" cx="107.2" cy="38.2" rx="4.3" ry="1.5"/>
	<path class="st18" d="M102.9,24.8h8.7c0.1,0,0.3,0.1,0.3,0.3v12.1c0,0.1-0.1,0.3-0.3,0.3h-8.7c-0.1,0-0.3-0.1-0.3-0.3V25.1
		C102.6,24.9,102.7,24.8,102.9,24.8z"/>
</g>
<g>
	<rect x="69" y="30.3" class="st10" width="22.6" height="22.6"/>
	<rect x="70.1" y="31.4" class="st19" width="20.4" height="20.4"/>
	<circle class="st20" cx="80.3" cy="41.6" r="5"/>
	<g>
		<g>
			<defs>
				<circle id="SVGID_1_" cx="80.3" cy="41.6" r="5"/>
			</defs>
			<clipPath id="SVGID_2_">
				<use xlink:href="#SVGID_1_"  style="overflow:visible;"/>
			</clipPath>
			<g class="st21">
				<rect x="79.6" y="36.4" class="st22" width="1.3" height="10.4"/>
				<rect x="75" y="40.9" class="st22" width="10.4" height="1.3"/>
			</g>
		</g>
	</g>
	<g>
		<path class="st23" d="M80.3,36.1c-3,0-5.5,2.5-5.5,5.5s2.5,5.5,5.5,5.5s5.5-2.5,5.5-5.5C85.8,38.5,83.3,36.1,80.3,36.1z
			 M80.3,46.6c-2.8,0-5-2.3-5-5s2.3-5,5-5c2.8,0,5,2.3,5,5S83.1,46.6,80.3,46.6z"/>
		<path class="st23" d="M80.3,32.5L80.3,32.5c0.1,0,0.3,0.1,0.3,0.3v3.5c0,0.1-0.1,0.3-0.3,0.3l0,0c-0.1,0-0.3-0.1-0.3-0.3v-3.5
			C80,32.6,80.1,32.5,80.3,32.5z"/>
		<path class="st23" d="M88.1,46.2L88.1,46.2c-0.1,0.1-0.3,0.2-0.4,0.1l-2.9-2c-0.1-0.1-0.2-0.3-0.1-0.4l0,0
			c0.1-0.1,0.3-0.2,0.4-0.1l2.9,2C88.1,46,88.2,46.1,88.1,46.2z"/>
		<path class="st23" d="M77.7,34.3L77.7,34.3c0.1-0.1,0.3,0,0.3,0.2l0.7,2c0.1,0.1,0,0.3-0.2,0.3l0,0c-0.1,0.1-0.3,0-0.3-0.2l-0.7-2
			C77.5,34.5,77.6,34.4,77.7,34.3z"/>
		<path class="st23" d="M75.3,35.6L75.3,35.6c0.1-0.1,0.3-0.1,0.4,0l1.3,1.6c0.1,0.1,0.1,0.3,0,0.4l0,0c-0.1,0.1-0.3,0.1-0.4,0
			L75.3,36C75.2,35.9,75.2,35.7,75.3,35.6z"/>
		<path class="st23" d="M73.6,37.7L73.6,37.7c0.1-0.1,0.2-0.2,0.4-0.1l1.8,1c0.1,0.1,0.2,0.2,0.1,0.4l0,0c-0.1,0.1-0.2,0.2-0.4,0.1
			l-1.8-1C73.5,38,73.5,37.8,73.6,37.7z"/>
		<path class="st23" d="M72.6,40.2L72.6,40.2c0-0.1,0.2-0.2,0.3-0.2l2.1,0.4c0.1,0,0.2,0.2,0.2,0.3l0,0c0,0.1-0.2,0.2-0.3,0.2
			l-2.1-0.4C72.7,40.5,72.6,40.4,72.6,40.2z"/>
		<path class="st23" d="M72.6,42.9L72.6,42.9c0-0.1,0.1-0.3,0.2-0.3l2.1-0.4c0.1,0,0.3,0.1,0.3,0.2l0,0c0,0.1-0.1,0.3-0.2,0.3
			l-2.1,0.4C72.8,43.2,72.6,43.1,72.6,42.9z"/>
		<path class="st23" d="M82.7,34.3L82.7,34.3c-0.1-0.1-0.3,0-0.3,0.2l-0.7,2c-0.1,0.1,0,0.3,0.2,0.3l0,0c0.1,0.1,0.3,0,0.3-0.2
			l0.7-2C83,34.5,82.9,34.4,82.7,34.3z"/>
		<path class="st23" d="M85.2,35.6L85.2,35.6c-0.1-0.1-0.3-0.1-0.4,0l-1.3,1.7c-0.1,0.1-0.1,0.3,0,0.4l0,0c0.1,0.1,0.3,0.1,0.4,0
			l1.3-1.6C85.3,35.9,85.3,35.7,85.2,35.6z"/>
		<path class="st23" d="M86.9,37.7L86.9,37.7c-0.1-0.1-0.2-0.2-0.4-0.1l-1.8,1c-0.1,0.1-0.2,0.2-0.1,0.4l0,0
			c0.1,0.1,0.2,0.2,0.4,0.1l1.8-1C87,38,87,37.8,86.9,37.7z"/>
		<path class="st23" d="M87.9,40.2L87.9,40.2c0-0.1-0.2-0.2-0.3-0.2l-2.1,0.4c-0.1,0-0.2,0.2-0.2,0.3l0,0c0,0.1,0.2,0.2,0.3,0.2
			l2.1-0.4C87.8,40.5,87.9,40.4,87.9,40.2z"/>
		<path class="st23" d="M87.9,42.9L87.9,42.9c0-0.1-0.1-0.3-0.2-0.3l-2.1-0.4c-0.1,0-0.3,0.1-0.3,0.2l0,0c0,0.1,0.1,0.3,0.2,0.3
			l2.1,0.4C87.7,43.2,87.8,43.1,87.9,42.9z"/>
		<path class="st23" d="M73.7,45.4L73.7,45.4c-0.1-0.1,0-0.3,0.1-0.4l1.8-1c0.1-0.1,0.3,0,0.4,0.1l0,0c0.1,0.1,0,0.3-0.1,0.4l-1.8,1
			C73.9,45.6,73.7,45.5,73.7,45.4z"/>
	</g>
	<circle class="st5" cx="72.9" cy="46.1" r="0.7"/>
	<text transform="matrix(1 0 0 1 70.4594 51.2287)" class="st23 st17 st24">1    3362   3</text>
</g>
<g>
	<rect x="81.7" y="14.3" class="st25" width="6.4" height="10.9"/>
	<rect x="87.8" y="15.4" class="st5" width="1.9" height="1.2"/>
	<rect x="87.8" y="19.2" class="st5" width="1.9" height="1.2"/>
	<rect x="87.8" y="23" class="st5" width="1.9" height="1.2"/>
	<rect x="80.1" y="15.4" class="st5" width="1.9" height="1.2"/>
	<rect x="80.1" y="23" class="st5" width="1.9" height="1.2"/>
</g>
<g>
	<rect x="9.1" y="49.2" class="st26" width="9.6" height="11"/>
	<text transform="matrix(1 0 0 1 10.0445 58.2435)" class="st27 st28">D</text>
	<g>
		<path class="st29" d="M22.9,59.5l-2.8-2.8c-0.3-0.3-0.3-0.8,0-1.1l6.3-6.3c0.3-0.3,0.8-0.3,1.1,0l2.8,2.8c0.3,0.3,0.3,0.8,0,1.1
			L24,59.5C23.7,59.8,23.2,59.8,22.9,59.5z"/>
		<path class="st26" d="M22.3,58.9l-1.6-1.6c0,0,0-0.1,0-0.2l0.4-0.4c0,0,0.1,0,0.2,0l1.6,1.6c0,0,0,0.1,0,0.2l-0.4,0.4
			C22.5,59,22.4,59,22.3,58.9z"/>
		<g>
			<path class="st26" d="M27.2,57.6L27.2,57.6c-0.1-0.1-0.1-0.3,0-0.4l2.9-2.9c0.1-0.1,0.3-0.1,0.4,0l0,0c0.1,0.1,0.1,0.3,0,0.4
				l-2.9,2.9C27.4,57.7,27.3,57.7,27.2,57.6z"/>
			<path class="st26" d="M28.2,57.4L28.2,57.4c-0.1-0.1-0.1-0.2,0-0.3l1.8-1.8c0.1-0.1,0.2-0.1,0.3,0l0,0c0.1,0.1,0.1,0.2,0,0.3
				l-1.8,1.8C28.4,57.5,28.3,57.5,28.2,57.4z"/>
		</g>
		<g>
			<path class="st26" d="M23.2,51.3L23.2,51.3c0.1,0.1,0.1,0.3,0,0.4l-2.9,2.9c-0.1,0.1-0.3,0.1-0.4,0l0,0c-0.1-0.1-0.1-0.3,0-0.4
				l2.9-2.9C23,51.2,23.1,51.2,23.2,51.3z"/>
			<path class="st26" d="M22.2,51.4L22.2,51.4c0.1,0.1,0.1,0.2,0,0.3l-1.8,1.8c-0.1,0.1-0.2,0.1-0.3,0l0,0c-0.1-0.1-0.1-0.2,0-0.3
				l1.8-1.8C22,51.3,22.1,51.3,22.2,51.4z"/>
		</g>
	</g>
</g>
</svg>
