<?xml version="1.0" encoding="utf-8"?>
<!-- Generator: Adobe Illustrator 23.0.2, SVG Export Plug-In . SVG Version: 6.00 Build 0)  -->
<svg version="1.1" id="图层_1" xmlns="http://www.w3.org/2000/svg" xmlns:xlink="http://www.w3.org/1999/xlink" x="0px" y="0px"
	 width="126.2px" height="62.4px" viewBox="0 0 126.2 62.4" style="enable-background:new 0 0 126.2 62.4;" xml:space="preserve">
<style type="text/css">
	.st0{fill:#282828;}
	.st1{fill:#C7D5D6;}
	.st2{fill:#CBB084;}
	.st3{fill:#FFFFFF;}
	.st4{fill:none;stroke:#FFFFFF;stroke-width:0.5;stroke-miterlimit:10;}
	.st5{fill:#E6E6E6;}
	.st6{fill:#F2F2F2;}
	.st7{fill:#F1F268;}
	.st8{fill:none;stroke:#FFFFFF;stroke-width:0.2986;stroke-miterlimit:10;}
	.st9{font-family:'SourceHanSansCN-Bold-GBpc-EUC-H';}
	.st10{font-size:3.5193px;}
	.st11{fill:#F5F3E9;}
	.st12{fill:#EADCC1;}
	.st13{fill:#886830;}
	.st14{display:none;fill:#FFFFFF;enable-background:new    ;}
	.st15{font-size:6.3511px;}
	.st16{font-family:'AdobeSongStd-Light-GBpc-EUC-H';}
	.st17{font-size:12px;}
	.st18{fill:#317EB4;}
	.st19{fill:#A49D94;}
	.st20{fill:#2C3230;}
	.st21{fill:#E6E6E2;}
	.st22{fill:#EADF9C;}
	.st23{font-family:'MicrosoftYaHei';}
	.st24{font-size:5.6334px;}
</style>
<path class="st0" d="M114.9,56V41.6h-13.8V20.8h13.8V6.4c0-3.5-2.9-6.4-6.4-6.4H7.8C4.3,0,1.4,2.9,1.4,6.4V56c0,3.6,2.9,6.5,6.4,6.4
	h100.7C112,62.4,114.9,59.5,114.9,56z"/>
<rect x="38.3" y="0" class="st1" width="17.8" height="62.4"/>
<circle class="st2" cx="47.3" cy="8.4" r="7.6"/>
<circle class="st3" cx="47.3" cy="8.4" r="6.8"/>
<circle class="st2" cx="47.3" cy="54.3" r="7.6"/>
<circle class="st3" cx="47.3" cy="54.3" r="6.8"/>
<g>
	<g>
		<rect x="18.1" y="4.7" class="st4" width="7.3" height="4.3"/>
		<rect x="18.8" y="5.5" class="st5" width="1.1" height="2.9"/>
		<rect x="23.9" y="5.5" class="st5" width="1.1" height="2.9"/>
	</g>
	<rect x="8.6" y="5.1" class="st6" width="2.4" height="3.6"/>
	<rect x="14.3" y="5.1" class="st6" width="2.4" height="3.6"/>
	<rect x="11" y="5.1" class="st7" width="3.3" height="3.6"/>
	<polyline class="st8" points="16.4,9 8.3,9 8.3,4.8 16.4,4.8 	"/>
	<text transform="matrix(1 0 0 1 12.3754 3.8394)" class="st3 st9 st10">Power</text>
</g>
<g>
	<g>
		<rect x="87.4" y="4.7" class="st4" width="7.3" height="4.3"/>
		<rect x="88.1" y="5.5" class="st5" width="1.1" height="2.9"/>
		<rect x="93.2" y="5.5" class="st5" width="1.1" height="2.9"/>
	</g>
	<rect x="77.9" y="5.1" class="st6" width="2.4" height="3.6"/>
	<rect x="83.6" y="5.1" class="st6" width="2.4" height="3.6"/>
	<rect x="80.3" y="5.1" class="st7" width="3.3" height="3.6"/>
	<polyline class="st8" points="85.7,9 77.6,9 77.6,4.8 85.7,4.8 	"/>
</g>
<path class="st4" d="M98.8,34.3"/>
<path class="st4" d="M98.9,27.8"/>
<rect x="20.6" y="16.8" class="st11" width="5.6" height="2.3"/>
<rect x="20.6" y="43.8" class="st11" width="5.6" height="2.3"/>
<line class="st4" x1="24.6" y1="19.1" x2="24.6" y2="24.2"/>
<line class="st4" x1="24.6" y1="38.6" x2="24.6" y2="43.9"/>
<g>
	<rect x="1.4" y="16.8" class="st11" width="21.4" height="29.3"/>
	<g>
		<polygon class="st12" points="16.7,24.2 16.7,22.7 18.2,22.7 18.2,21.4 22.8,21.4 22.8,24.2 		"/>
		<polygon class="st13" points="18.8,21.4 18.8,22.9 16.7,22.9 16.7,24.2 10.5,24.2 10.5,21.4 		"/>
	</g>
	<g>
		<polygon class="st12" points="16.7,41.2 16.7,39.7 18.2,39.7 18.3,38.5 22.8,38.5 22.8,41.2 		"/>
		<polygon class="st13" points="18.8,38.5 18.8,40 16.7,40 16.7,41.2 10.5,41.2 10.5,38.5 		"/>
	</g>
</g>
<polygon class="st11" points="14.7,25.7 14.7,37.2 7.4,37.2 7.1,42.8 1.4,42.8 1.4,20 7.1,20 7.4,25.7 "/>
<text transform="matrix(6.123234e-17 -1 1 6.123234e-17 97.3262 42.3998)" class="st14 st9 st15">V  G  A  D</text>
<g>
	<rect x="9.7" y="48.6" class="st1" width="9.6" height="11"/>
	<text transform="matrix(1 0 0 1 10.0312 57.3844)" class="st16 st17">A</text>
</g>
<rect x="88.9" y="24.1" class="st5" width="12.1" height="4.3"/>
<rect x="88.9" y="34" class="st5" width="12.1" height="4.3"/>
<path d="M120,38.3c3.5-0.3,6.2-3.4,6.2-7.1s-2.7-6.8-6.2-7.1l0,0h-18.9v14.2H120L120,38.3z"/>
<g>
	<g>
		<rect x="74" y="16.7" width="4.3" height="3"/>
		<g>
			<rect x="72.6" y="16.2" class="st4" width="7.3" height="4.3"/>
			<rect x="78.1" y="16.8" class="st5" width="1.1" height="2.9"/>
			<rect x="73" y="16.8" class="st5" width="1.1" height="2.9"/>
		</g>
	</g>
	<g>
		<rect x="73.9" y="31.6" width="4.3" height="3"/>
		<g>
			<rect x="72.6" y="31.1" class="st4" width="7.3" height="4.3"/>
			<rect x="78.1" y="31.7" class="st5" width="1.1" height="2.9"/>
			<rect x="73" y="31.7" class="st5" width="1.1" height="2.9"/>
		</g>
	</g>
	<rect x="75.4" y="27.4" class="st5" width="2.2" height="2.5"/>
	<rect x="72.6" y="21.5" class="st5" width="2.2" height="2.5"/>
	<rect x="78.1" y="21.5" class="st5" width="2.2" height="2.5"/>
	<rect x="72.1" y="24" width="8.5" height="3.9"/>
	<polyline class="st4" points="81.1,21.5 81.1,28.1 78.3,28.1 	"/>
	<polyline class="st4" points="74.4,28.1 71.7,28.1 71.7,23.7 	"/>
	<g>
		<rect x="67.2" y="36" class="st18" width="10.8" height="10.8"/>
		<circle class="st19" cx="72.5" cy="41.4" r="2.3"/>
		<path class="st20" d="M74.8,42c0.1-0.2,0.1-0.3,0.1-0.5s0-0.4-0.1-0.6h-1.7v-1.7c-0.2-0.1-0.4-0.1-0.6-0.1s-0.4,0.1-0.7,0.1v1.6
			h-1.6c-0.1,0.2-0.1,0.4-0.1,0.6c0,0.2,0,0.4,0.1,0.5h1.7v1.7c0.2,0.1,0.4,0.1,0.7,0.1c0.2,0,0.4,0,0.6-0.1v-1.7L74.8,42L74.8,42z"
			/>
	</g>
</g>
<path class="st21" d="M22.8,30.9v-2.8h4.6c0.5,0,0.8,0.7,0.8,1.3l0,0c0,0.8-0.4,1.3-0.8,1.3h-4.6V30.9z"/>
<path class="st21" d="M22.8,35.5v-2.8h4.6c0.5,0,0.8,0.7,0.8,1.3l0,0c0,0.8-0.4,1.3-0.8,1.3h-4.6V35.5z"/>
<path class="st21" d="M22.8,40.1v-2.8h4.6c0.5,0,0.8,0.7,0.8,1.3l0,0c0,0.8-0.4,1.3-0.8,1.3h-4.6V40.1z"/>
<path class="st21" d="M22.8,26.2v-2.8h4.6c0.5,0,0.8,0.7,0.8,1.3l0,0c0,0.8-0.4,1.3-0.8,1.3h-4.6V26.2z"/>
<path class="st11" d="M1.4,30.9v-2.8H6c0.5,0,0.8,0.7,0.8,1.3l0,0c0,0.8-0.4,1.3-0.8,1.3H1.4V30.9z"/>
<path class="st11" d="M1.4,35.5v-2.8H6c0.5,0,0.8,0.7,0.8,1.3l0,0c0,0.8-0.4,1.3-0.8,1.3H1.4V35.5z"/>
<path class="st11" d="M1.4,40.1v-2.8H6c0.5,0,0.8,0.7,0.8,1.3l0,0c0,0.8-0.4,1.3-0.8,1.3H1.4V40.1z"/>
<path class="st11" d="M1.4,26.2v-2.8H6c0.5,0,0.8,0.7,0.8,1.3l0,0C6.8,25.5,6.4,26,6,26H1.4V26.2z"/>
<path class="st1" d="M26.3,59.9c0,0-3.2-1.3-3.3-4c-0.1-2.7,1.6-3.6,1.7-4.7c0,0,0.4,0.8,0,1.8c0,0,2.3-2.5,1.5-5.7
	c0,0,2.2,1.1,3.1,4.4c0,0,0.7-0.2,0.2-2c0,0,2.2,1,2.2,6.2c0,3.2-3.3,4.1-3.3,4.1s1-1.3,0.8-2.8c-0.3-2.5-1.5-3.3-1.5-3.3
	s0.4,1.8-0.3,2.7c-0.4,0.5-1.2-0.1-0.8-1.1c0,0-0.6,0.4-0.9,1.7C25.3,58.5,26.3,59.9,26.3,59.9z"/>
<text transform="matrix(1 0 0 1 68.6005 58.2455)" class="st22 st23 st24">Flame Sensor</text>
</svg>
