<?xml version="1.0" encoding="UTF-8" standalone="no"?><svg xmlns="http://www.w3.org/2000/svg" xmlns:xlink="http://www.w3.org/1999/xlink" contentStyleType="text/css" height="1131px" preserveAspectRatio="none" style="width:560px;height:1131px;background:#FFFFFF;" version="1.1" viewBox="0 0 560 1131" width="560px" zoomAndPan="magnify"><defs><linearGradient id="g1f9l1jft9m4ls0" x1="0%" x2="100%" y1="0%" y2="100%"><stop offset="0%" stop-color="#FF0000"/><stop offset="100%" stop-color="#FFFF00"/></linearGradient></defs><g><rect fill="none" height="26.2969" id="_title" style="stroke:none;stroke-width:1.0;" width="85" x="233.5" y="10"/><text fill="#000000" font-family="sans-serif" font-size="14" font-weight="bold" lengthAdjust="spacing" textLength="75" x="238.5" y="27.9951">编程示意图</text><rect fill="#FFF0F5" height="848.75" style="stroke:#181818;stroke-width:1.0;" width="10" x="479" y="192.8594"/><rect fill="none" height="116.2031" style="stroke:#000000;stroke-width:1.5;" width="190" x="20" y="470.0547"/><rect fill="#E0FFFF" height="433.3516" style="stroke:#000000;stroke-width:1.5;" width="533" x="10" y="600.2578"/><rect fill="none" height="343.9531" style="stroke:#000000;stroke-width:1.5;" width="160" x="20" y="682.6563"/><line style="stroke:#181818;stroke-width:0.5;stroke-dasharray:5.0,5.0;" x1="47" x2="47" y1="118.5938" y2="1050.6094"/><line style="stroke:#181818;stroke-width:0.5;stroke-dasharray:5.0,5.0;" x1="484" x2="484" y1="118.5938" y2="1050.6094"/><text fill="#000000" font-family="sans-serif" font-size="14" lengthAdjust="spacing" textLength="28" x="30" y="115.292">用户</text><ellipse cx="47" cy="50.7969" fill="url(#g1f9l1jft9m4ls0)" rx="8" ry="8" style="stroke:#181818;stroke-width:0.5;"/><path d="M47,58.7969 L47,85.7969 M34,66.7969 L60,66.7969 M47,85.7969 L34,100.7969 M47,85.7969 L60,100.7969 " fill="none" style="stroke:#181818;stroke-width:0.5;"/><text fill="#000000" font-family="sans-serif" font-size="14" lengthAdjust="spacing" textLength="28" x="30" y="1062.6045">用户</text><ellipse cx="47" cy="1074.4063" fill="url(#g1f9l1jft9m4ls0)" rx="8" ry="8" style="stroke:#181818;stroke-width:0.5;"/><path d="M47,1082.4063 L47,1109.4063 M34,1090.4063 L60,1090.4063 M47,1109.4063 L34,1124.4063 M47,1109.4063 L60,1124.4063 " fill="none" style="stroke:#181818;stroke-width:0.5;"/><rect fill="#E2E2F0" height="30.2969" rx="2.5" ry="2.5" style="stroke:#181818;stroke-width:0.5;" width="98" x="435" y="87.2969"/><text fill="#000000" font-family="sans-serif" font-size="14" lengthAdjust="spacing" textLength="84" x="442" y="107.292">语音识别模块</text><rect fill="#E2E2F0" height="30.2969" rx="2.5" ry="2.5" style="stroke:#181818;stroke-width:0.5;" width="98" x="435" y="1049.6094"/><text fill="#000000" font-family="sans-serif" font-size="14" lengthAdjust="spacing" textLength="84" x="442" y="1069.6045">语音识别模块</text><rect fill="#FFF0F5" height="848.75" style="stroke:#181818;stroke-width:1.0;" width="10" x="479" y="192.8594"/><rect fill="#EEEEEE" height="3" style="stroke:#EEEEEE;stroke-width:1.0;" width="553" x="0" y="149.1602"/><line style="stroke:#000000;stroke-width:1.0;" x1="0" x2="553" y1="149.1602" y2="149.1602"/><line style="stroke:#000000;stroke-width:1.0;" x1="0" x2="553" y1="152.1602" y2="152.1602"/><rect fill="#EEEEEE" height="23.1328" style="stroke:#000000;stroke-width:2.0;" width="61" x="246" y="138.5938"/><text fill="#000000" font-family="sans-serif" font-size="13" font-weight="bold" lengthAdjust="spacing" textLength="42" x="252" y="154.6606">初始化</text><polygon fill="#181818" points="467,188.8594,477,192.8594,467,196.8594,471,192.8594" style="stroke:#181818;stroke-width:1.0;"/><line style="stroke:#181818;stroke-width:1.0;" x1="47" x2="473" y1="192.8594" y2="192.8594"/><text fill="#000000" font-family="sans-serif" font-size="13" lengthAdjust="spacing" textLength="137" x="54" y="187.7935">初始化，默认I2C地址为</text><text fill="#0000FF" font-family="sans-serif" font-size="13" font-weight="bold" lengthAdjust="spacing" textLength="35" x="191" y="187.7935">0x30</text><polygon fill="#181818" points="467,233.125,477,237.125,467,241.125,471,237.125" style="stroke:#181818;stroke-width:1.0;"/><line style="stroke:#181818;stroke-width:1.0;" x1="47" x2="473" y1="237.125" y2="237.125"/><text fill="#000000" font-family="sans-serif" font-size="13" lengthAdjust="spacing" textLength="82" x="54" y="216.9263">设置识别模式:</text><text fill="#0000FF" font-family="sans-serif" font-size="13" font-weight="bold" lengthAdjust="spacing" textLength="408" x="54" y="232.0591">自动模式, 关键词触发模式, 按键触发模式, 关键词或按键触发模式</text><polygon fill="#181818" points="467,262.2578,477,266.2578,467,270.2578,471,266.2578" style="stroke:#181818;stroke-width:1.0;"/><line style="stroke:#181818;stroke-width:1.0;" x1="47" x2="473" y1="266.2578" y2="266.2578"/><text fill="#000000" font-family="sans-serif" font-size="13" lengthAdjust="spacing" textLength="104" x="54" y="261.1919">设置识别超时时间</text><polygon fill="#181818" points="467,291.3906,477,295.3906,467,299.3906,471,295.3906" style="stroke:#181818;stroke-width:1.0;"/><line style="stroke:#181818;stroke-width:1.0;" x1="47" x2="473" y1="295.3906" y2="295.3906"/><text fill="#000000" font-family="sans-serif" font-size="13" lengthAdjust="spacing" textLength="112" x="54" y="290.3247">添加关键词和索引0</text><polygon fill="#181818" points="467,320.5234,477,324.5234,467,328.5234,471,324.5234" style="stroke:#181818;stroke-width:1.0;"/><line style="stroke:#181818;stroke-width:1.0;" x1="47" x2="473" y1="324.5234" y2="324.5234"/><text fill="#000000" font-family="sans-serif" font-size="13" lengthAdjust="spacing" textLength="112" x="54" y="319.4575">添加关键词和索引1</text><polygon fill="#181818" points="467,349.6563,477,353.6563,467,357.6563,471,353.6563" style="stroke:#181818;stroke-width:1.0;"/><line style="stroke:#181818;stroke-width:1.0;" x1="47" x2="473" y1="353.6563" y2="353.6563"/><text fill="#000000" font-family="sans-serif" font-size="13" lengthAdjust="spacing" textLength="111" x="54" y="348.5903">添加关键词和索引x</text><rect fill="#EEEEEE" height="3" style="stroke:#EEEEEE;stroke-width:1.0;" width="553" x="0" y="382.2227"/><line style="stroke:#000000;stroke-width:1.0;" x1="0" x2="553" y1="382.2227" y2="382.2227"/><line style="stroke:#000000;stroke-width:1.0;" x1="0" x2="553" y1="385.2227" y2="385.2227"/><rect fill="#EEEEEE" height="23.1328" style="stroke:#000000;stroke-width:2.0;" width="47" x="253" y="371.6563"/><text fill="#000000" font-family="sans-serif" font-size="13" font-weight="bold" lengthAdjust="spacing" textLength="28" x="259" y="387.7231">重复</text><polygon fill="#181818" points="467,421.9219,477,425.9219,467,429.9219,471,425.9219" style="stroke:#181818;stroke-width:1.0;"/><line style="stroke:#181818;stroke-width:1.0;" x1="47" x2="473" y1="425.9219" y2="425.9219"/><text fill="#008000" font-family="sans-serif" font-size="13" font-weight="bold" lengthAdjust="spacing" textLength="84" x="54" y="420.856">进行语音识别</text><polygon fill="#181818" points="58,451.0547,48,455.0547,58,459.0547,54,455.0547" style="stroke:#181818;stroke-width:1.0;"/><line style="stroke:#181818;stroke-width:1.0;" x1="52" x2="478" y1="455.0547" y2="455.0547"/><text fill="#000000" font-family="sans-serif" font-size="13" lengthAdjust="spacing" textLength="52" x="64" y="449.9888">识别结果</text><path d="M20,470.0547 L84,470.0547 L84,477.1875 L74,487.1875 L20,487.1875 L20,470.0547 " fill="#EEEEEE" style="stroke:#000000;stroke-width:1.5;"/><rect fill="none" height="116.2031" style="stroke:#000000;stroke-width:1.5;" width="190" x="20" y="470.0547"/><text fill="#000000" font-family="sans-serif" font-size="13" font-weight="bold" lengthAdjust="spacing" textLength="19" x="35" y="483.1216">alt</text><text fill="#000000" font-family="sans-serif" font-size="11" font-weight="bold" lengthAdjust="spacing" textLength="106" x="99" y="482.2651">[识别结果大于等于0]</text><line style="stroke:#181818;stroke-width:1.0;" x1="47" x2="89" y1="508.3203" y2="508.3203"/><line style="stroke:#181818;stroke-width:1.0;" x1="89" x2="89" y1="508.3203" y2="521.3203"/><line style="stroke:#181818;stroke-width:1.0;" x1="48" x2="89" y1="521.3203" y2="521.3203"/><polygon fill="#181818" points="58,517.3203,48,521.3203,58,525.3203,54,521.3203" style="stroke:#181818;stroke-width:1.0;"/><text fill="#008000" font-family="sans-serif" font-size="13" font-weight="bold" lengthAdjust="spacing" textLength="98" x="54" y="503.2544">用户自定义处理</text><line style="stroke:#000000;stroke-width:1.0;stroke-dasharray:2.0,2.0;" x1="20" x2="210" y1="530.3203" y2="530.3203"/><text fill="#000000" font-family="sans-serif" font-size="11" font-weight="bold" lengthAdjust="spacing" textLength="84" x="25" y="540.5308">[识别结果小于0]</text><line style="stroke:#181818;stroke-width:1.0;" x1="47" x2="89" y1="565.2578" y2="565.2578"/><line style="stroke:#181818;stroke-width:1.0;" x1="89" x2="89" y1="565.2578" y2="578.2578"/><line style="stroke:#181818;stroke-width:1.0;" x1="48" x2="89" y1="578.2578" y2="578.2578"/><polygon fill="#181818" points="58,574.2578,48,578.2578,58,582.2578,54,578.2578" style="stroke:#181818;stroke-width:1.0;"/><text fill="#008000" font-family="sans-serif" font-size="13" font-weight="bold" lengthAdjust="spacing" textLength="70" x="54" y="560.1919">一般不处理</text><path d="M10,600.2578 L80,600.2578 L80,607.3906 L70,617.3906 L10,617.3906 L10,600.2578 " fill="#FFD700" style="stroke:#000000;stroke-width:1.5;"/><rect fill="none" height="433.3516" style="stroke:#000000;stroke-width:1.5;" width="533" x="10" y="600.2578"/><text fill="#000000" font-family="sans-serif" font-size="13" font-weight="bold" lengthAdjust="spacing" textLength="25" x="25" y="613.3247">opt</text><text fill="#000000" font-family="sans-serif" font-size="11" font-weight="bold" lengthAdjust="spacing" textLength="86" x="95" y="612.4683">[事件处理[可选]]</text><polygon fill="#181818" points="467,634.5234,477,638.5234,467,642.5234,471,638.5234" style="stroke:#181818;stroke-width:1.0;"/><line style="stroke:#181818;stroke-width:1.0;" x1="47" x2="473" y1="638.5234" y2="638.5234"/><text fill="#000000" font-family="sans-serif" font-size="13" lengthAdjust="spacing" textLength="52" x="54" y="633.4575">获取事件</text><polygon fill="#181818" points="58,663.6563,48,667.6563,58,671.6563,54,667.6563" style="stroke:#181818;stroke-width:1.0;"/><line style="stroke:#181818;stroke-width:1.0;" x1="52" x2="478" y1="667.6563" y2="667.6563"/><text fill="#000000" font-family="sans-serif" font-size="13" lengthAdjust="spacing" textLength="26" x="64" y="662.5903">事件</text><path d="M20,682.6563 L84,682.6563 L84,689.7891 L74,699.7891 L20,699.7891 L20,682.6563 " fill="#EEEEEE" style="stroke:#000000;stroke-width:1.5;"/><rect fill="none" height="343.9531" style="stroke:#000000;stroke-width:1.5;" width="160" x="20" y="682.6563"/><text fill="#000000" font-family="sans-serif" font-size="13" font-weight="bold" lengthAdjust="spacing" textLength="19" x="35" y="695.7231">alt</text><text fill="#000000" font-family="sans-serif" font-size="11" font-weight="bold" lengthAdjust="spacing" textLength="76" x="99" y="694.8667">[开始等待触发]</text><line style="stroke:#181818;stroke-width:1.0;" x1="47" x2="89" y1="720.9219" y2="720.9219"/><line style="stroke:#181818;stroke-width:1.0;" x1="89" x2="89" y1="720.9219" y2="733.9219"/><line style="stroke:#181818;stroke-width:1.0;" x1="48" x2="89" y1="733.9219" y2="733.9219"/><polygon fill="#181818" points="58,729.9219,48,733.9219,58,737.9219,54,733.9219" style="stroke:#181818;stroke-width:1.0;"/><text fill="#008000" font-family="sans-serif" font-size="13" font-weight="bold" lengthAdjust="spacing" textLength="98" x="54" y="715.856">用户自定义处理</text><line style="stroke:#000000;stroke-width:1.0;stroke-dasharray:2.0,2.0;" x1="20" x2="180" y1="742.9219" y2="742.9219"/><text fill="#000000" font-family="sans-serif" font-size="11" font-weight="bold" lengthAdjust="spacing" textLength="54" x="25" y="753.1323">[按键触发]</text><line style="stroke:#181818;stroke-width:1.0;" x1="47" x2="89" y1="777.8594" y2="777.8594"/><line style="stroke:#181818;stroke-width:1.0;" x1="89" x2="89" y1="777.8594" y2="790.8594"/><line style="stroke:#181818;stroke-width:1.0;" x1="48" x2="89" y1="790.8594" y2="790.8594"/><polygon fill="#181818" points="58,786.8594,48,790.8594,58,794.8594,54,790.8594" style="stroke:#181818;stroke-width:1.0;"/><text fill="#008000" font-family="sans-serif" font-size="13" font-weight="bold" lengthAdjust="spacing" textLength="98" x="54" y="772.7935">用户自定义处理</text><line style="stroke:#000000;stroke-width:1.0;stroke-dasharray:2.0,2.0;" x1="20" x2="180" y1="799.8594" y2="799.8594"/><text fill="#000000" font-family="sans-serif" font-size="11" font-weight="bold" lengthAdjust="spacing" textLength="65" x="25" y="810.0698">[关键词触发]</text><line style="stroke:#181818;stroke-width:1.0;" x1="47" x2="89" y1="834.7969" y2="834.7969"/><line style="stroke:#181818;stroke-width:1.0;" x1="89" x2="89" y1="834.7969" y2="847.7969"/><line style="stroke:#181818;stroke-width:1.0;" x1="48" x2="89" y1="847.7969" y2="847.7969"/><polygon fill="#181818" points="58,843.7969,48,847.7969,58,851.7969,54,847.7969" style="stroke:#181818;stroke-width:1.0;"/><text fill="#008000" font-family="sans-serif" font-size="13" font-weight="bold" lengthAdjust="spacing" textLength="98" x="54" y="829.731">用户自定义处理</text><line style="stroke:#000000;stroke-width:1.0;stroke-dasharray:2.0,2.0;" x1="20" x2="180" y1="856.7969" y2="856.7969"/><text fill="#000000" font-family="sans-serif" font-size="11" font-weight="bold" lengthAdjust="spacing" textLength="54" x="25" y="867.0073">[开始识别]</text><line style="stroke:#181818;stroke-width:1.0;" x1="47" x2="89" y1="891.7344" y2="891.7344"/><line style="stroke:#181818;stroke-width:1.0;" x1="89" x2="89" y1="891.7344" y2="904.7344"/><line style="stroke:#181818;stroke-width:1.0;" x1="48" x2="89" y1="904.7344" y2="904.7344"/><polygon fill="#181818" points="58,900.7344,48,904.7344,58,908.7344,54,904.7344" style="stroke:#181818;stroke-width:1.0;"/><text fill="#008000" font-family="sans-serif" font-size="13" font-weight="bold" lengthAdjust="spacing" textLength="98" x="54" y="886.6685">用户自定义处理</text><line style="stroke:#000000;stroke-width:1.0;stroke-dasharray:2.0,2.0;" x1="20" x2="180" y1="913.7344" y2="913.7344"/><text fill="#000000" font-family="sans-serif" font-size="11" font-weight="bold" lengthAdjust="spacing" textLength="65" x="25" y="923.9448">[识别到结果]</text><line style="stroke:#181818;stroke-width:1.0;" x1="47" x2="89" y1="948.6719" y2="948.6719"/><line style="stroke:#181818;stroke-width:1.0;" x1="89" x2="89" y1="948.6719" y2="961.6719"/><line style="stroke:#181818;stroke-width:1.0;" x1="48" x2="89" y1="961.6719" y2="961.6719"/><polygon fill="#181818" points="58,957.6719,48,961.6719,58,965.6719,54,961.6719" style="stroke:#181818;stroke-width:1.0;"/><text fill="#008000" font-family="sans-serif" font-size="13" font-weight="bold" lengthAdjust="spacing" textLength="98" x="54" y="943.606">用户自定义处理</text><line style="stroke:#000000;stroke-width:1.0;stroke-dasharray:2.0,2.0;" x1="20" x2="180" y1="970.6719" y2="970.6719"/><text fill="#000000" font-family="sans-serif" font-size="11" font-weight="bold" lengthAdjust="spacing" textLength="54" x="25" y="980.8823">[识别超时]</text><line style="stroke:#181818;stroke-width:1.0;" x1="47" x2="89" y1="1005.6094" y2="1005.6094"/><line style="stroke:#181818;stroke-width:1.0;" x1="89" x2="89" y1="1005.6094" y2="1018.6094"/><line style="stroke:#181818;stroke-width:1.0;" x1="48" x2="89" y1="1018.6094" y2="1018.6094"/><polygon fill="#181818" points="58,1014.6094,48,1018.6094,58,1022.6094,54,1018.6094" style="stroke:#181818;stroke-width:1.0;"/><text fill="#008000" font-family="sans-serif" font-size="13" font-weight="bold" lengthAdjust="spacing" textLength="98" x="54" y="1000.5435">用户自定义处理</text></g></svg>