<?xml version="1.0" encoding="UTF-8" standalone="no"?><svg xmlns="http://www.w3.org/2000/svg" xmlns:xlink="http://www.w3.org/1999/xlink" contentStyleType="text/css" height="1160px" preserveAspectRatio="none" style="width:560px;height:1160px;background:#FFFFFF;" version="1.1" viewBox="0 0 560 1160" width="560px" zoomAndPan="magnify"><defs><linearGradient id="gsr6swpw1ru0d0" x1="0%" x2="100%" y1="0%" y2="100%"><stop offset="0%" stop-color="#FF0000"/><stop offset="100%" stop-color="#FFFF00"/></linearGradient></defs><g><rect fill="none" height="26.2969" id="_title" style="stroke:none;stroke-width:1.0;" width="85" x="233.5" y="10"/><text fill="#000000" font-family="sans-serif" font-size="14" font-weight="bold" lengthAdjust="spacing" textLength="75" x="238.5" y="27.9951">编程示意图</text><rect fill="#FFF0F5" height="877.8828" style="stroke:#181818;stroke-width:1.0;" width="10" x="479" y="192.8594"/><rect fill="none" height="116.2031" style="stroke:#000000;stroke-width:1.5;" width="190" x="20" y="499.1875"/><rect fill="#E0FFFF" height="433.3516" style="stroke:#000000;stroke-width:1.5;" width="533" x="10" y="629.3906"/><rect fill="none" height="343.9531" style="stroke:#000000;stroke-width:1.5;" width="160" x="20" y="711.7891"/><line style="stroke:#181818;stroke-width:0.5;stroke-dasharray:5.0,5.0;" x1="47" x2="47" y1="118.5938" y2="1079.7422"/><line style="stroke:#181818;stroke-width:0.5;stroke-dasharray:5.0,5.0;" x1="484" x2="484" y1="118.5938" y2="1079.7422"/><text fill="#000000" font-family="sans-serif" font-size="14" lengthAdjust="spacing" textLength="28" x="30" y="115.292">用户</text><ellipse cx="47" cy="50.7969" fill="url(#gsr6swpw1ru0d0)" rx="8" ry="8" style="stroke:#181818;stroke-width:0.5;"/><path d="M47,58.7969 L47,85.7969 M34,66.7969 L60,66.7969 M47,85.7969 L34,100.7969 M47,85.7969 L60,100.7969 " fill="none" style="stroke:#181818;stroke-width:0.5;"/><text fill="#000000" font-family="sans-serif" font-size="14" lengthAdjust="spacing" textLength="28" x="30" y="1091.7373">用户</text><ellipse cx="47" cy="1103.5391" fill="url(#gsr6swpw1ru0d0)" rx="8" ry="8" style="stroke:#181818;stroke-width:0.5;"/><path d="M47,1111.5391 L47,1138.5391 M34,1119.5391 L60,1119.5391 M47,1138.5391 L34,1153.5391 M47,1138.5391 L60,1153.5391 " fill="none" style="stroke:#181818;stroke-width:0.5;"/><rect fill="#E2E2F0" height="30.2969" rx="2.5" ry="2.5" style="stroke:#181818;stroke-width:0.5;" width="98" x="435" y="87.2969"/><text fill="#000000" font-family="sans-serif" font-size="14" lengthAdjust="spacing" textLength="84" x="442" y="107.292">语音识别模块</text><rect fill="#E2E2F0" height="30.2969" rx="2.5" ry="2.5" style="stroke:#181818;stroke-width:0.5;" width="98" x="435" y="1078.7422"/><text fill="#000000" font-family="sans-serif" font-size="14" lengthAdjust="spacing" textLength="84" x="442" y="1098.7373">语音识别模块</text><rect fill="#FFF0F5" height="877.8828" style="stroke:#181818;stroke-width:1.0;" width="10" x="479" y="192.8594"/><rect fill="#EEEEEE" height="3" style="stroke:#EEEEEE;stroke-width:1.0;" width="553" x="0" y="149.1602"/><line style="stroke:#000000;stroke-width:1.0;" x1="0" x2="553" y1="149.1602" y2="149.1602"/><line style="stroke:#000000;stroke-width:1.0;" x1="0" x2="553" y1="152.1602" y2="152.1602"/><rect fill="#EEEEEE" height="23.1328" style="stroke:#000000;stroke-width:2.0;" width="61" x="246" y="138.5938"/><text fill="#000000" font-family="sans-serif" font-size="13" font-weight="bold" lengthAdjust="spacing" textLength="42" x="252" y="154.6606">初始化</text><polygon fill="#181818" points="467,188.8594,477,192.8594,467,196.8594,471,192.8594" style="stroke:#181818;stroke-width:1.0;"/><line style="stroke:#181818;stroke-width:1.0;" x1="47" x2="473" y1="192.8594" y2="192.8594"/><text fill="#000000" font-family="sans-serif" font-size="13" lengthAdjust="spacing" textLength="137" x="54" y="187.7935">初始化，默认I2C地址为</text><text fill="#0000FF" font-family="sans-serif" font-size="13" font-weight="bold" lengthAdjust="spacing" textLength="35" x="191" y="187.7935">0x30</text><polygon fill="#181818" points="467,233.125,477,237.125,467,241.125,471,237.125" style="stroke:#181818;stroke-width:1.0;"/><line style="stroke:#181818;stroke-width:1.0;" x1="47" x2="473" y1="237.125" y2="237.125"/><text fill="#000000" font-family="sans-serif" font-size="13" lengthAdjust="spacing" textLength="82" x="54" y="216.9263">设置识别模式:</text><text fill="#0000FF" font-family="sans-serif" font-size="13" font-weight="bold" lengthAdjust="spacing" textLength="408" x="54" y="232.0591">自动模式, 关键词触发模式, 按键触发模式, 关键词或按键触发模式</text><polygon fill="#181818" points="467,262.2578,477,266.2578,467,270.2578,471,266.2578" style="stroke:#181818;stroke-width:1.0;"/><line style="stroke:#181818;stroke-width:1.0;" x1="47" x2="473" y1="266.2578" y2="266.2578"/><text fill="#000000" font-family="sans-serif" font-size="13" lengthAdjust="spacing" textLength="104" x="54" y="261.1919">设置识别超时时间</text><polygon fill="#181818" points="467,291.3906,477,295.3906,467,299.3906,471,295.3906" style="stroke:#181818;stroke-width:1.0;"/><line style="stroke:#181818;stroke-width:1.0;" x1="47" x2="473" y1="295.3906" y2="295.3906"/><text fill="#000000" font-family="sans-serif" font-size="13" lengthAdjust="spacing" textLength="112" x="54" y="290.3247">添加关键词和索引0</text><polygon fill="#181818" points="467,320.5234,477,324.5234,467,328.5234,471,324.5234" style="stroke:#181818;stroke-width:1.0;"/><line style="stroke:#181818;stroke-width:1.0;" x1="47" x2="473" y1="324.5234" y2="324.5234"/><text fill="#000000" font-family="sans-serif" font-size="13" lengthAdjust="spacing" textLength="112" x="54" y="319.4575">添加关键词和索引1</text><polygon fill="#181818" points="467,349.6563,477,353.6563,467,357.6563,471,353.6563" style="stroke:#181818;stroke-width:1.0;"/><line style="stroke:#181818;stroke-width:1.0;" x1="47" x2="473" y1="353.6563" y2="353.6563"/><text fill="#000000" font-family="sans-serif" font-size="13" lengthAdjust="spacing" textLength="111" x="54" y="348.5903">添加关键词和索引x</text><rect fill="#EEEEEE" height="3" style="stroke:#EEEEEE;stroke-width:1.0;" width="553" x="0" y="382.2227"/><line style="stroke:#000000;stroke-width:1.0;" x1="0" x2="553" y1="382.2227" y2="382.2227"/><line style="stroke:#000000;stroke-width:1.0;" x1="0" x2="553" y1="385.2227" y2="385.2227"/><rect fill="#EEEEEE" height="23.1328" style="stroke:#000000;stroke-width:2.0;" width="47" x="253" y="371.6563"/><text fill="#000000" font-family="sans-serif" font-size="13" font-weight="bold" lengthAdjust="spacing" textLength="28" x="259" y="387.7231">重复</text><polygon fill="#181818" points="467,421.9219,477,425.9219,467,429.9219,471,425.9219" style="stroke:#181818;stroke-width:1.0;"/><line style="stroke:#181818;stroke-width:1.0;" x1="47" x2="473" y1="425.9219" y2="425.9219"/><text fill="#008000" font-family="sans-serif" font-size="13" font-weight="bold" lengthAdjust="spacing" textLength="56" x="54" y="420.856">开始识别</text><polygon fill="#181818" points="467,451.0547,477,455.0547,467,459.0547,471,455.0547" style="stroke:#181818;stroke-width:1.0;"/><line style="stroke:#181818;stroke-width:1.0;" x1="47" x2="473" y1="455.0547" y2="455.0547"/><text fill="#000000" font-family="sans-serif" font-size="13" lengthAdjust="spacing" textLength="78" x="54" y="449.9888">获取识别结果</text><polygon fill="#181818" points="58,480.1875,48,484.1875,58,488.1875,54,484.1875" style="stroke:#181818;stroke-width:1.0;"/><line style="stroke:#181818;stroke-width:1.0;" x1="52" x2="478" y1="484.1875" y2="484.1875"/><text fill="#000000" font-family="sans-serif" font-size="13" lengthAdjust="spacing" textLength="52" x="64" y="479.1216">识别结果</text><path d="M20,499.1875 L84,499.1875 L84,506.3203 L74,516.3203 L20,516.3203 L20,499.1875 " fill="#EEEEEE" style="stroke:#000000;stroke-width:1.5;"/><rect fill="none" height="116.2031" style="stroke:#000000;stroke-width:1.5;" width="190" x="20" y="499.1875"/><text fill="#000000" font-family="sans-serif" font-size="13" font-weight="bold" lengthAdjust="spacing" textLength="19" x="35" y="512.2544">alt</text><text fill="#000000" font-family="sans-serif" font-size="11" font-weight="bold" lengthAdjust="spacing" textLength="106" x="99" y="511.3979">[识别结果大于等于0]</text><line style="stroke:#181818;stroke-width:1.0;" x1="47" x2="89" y1="537.4531" y2="537.4531"/><line style="stroke:#181818;stroke-width:1.0;" x1="89" x2="89" y1="537.4531" y2="550.4531"/><line style="stroke:#181818;stroke-width:1.0;" x1="48" x2="89" y1="550.4531" y2="550.4531"/><polygon fill="#181818" points="58,546.4531,48,550.4531,58,554.4531,54,550.4531" style="stroke:#181818;stroke-width:1.0;"/><text fill="#008000" font-family="sans-serif" font-size="13" font-weight="bold" lengthAdjust="spacing" textLength="98" x="54" y="532.3872">用户自定义处理</text><line style="stroke:#000000;stroke-width:1.0;stroke-dasharray:2.0,2.0;" x1="20" x2="210" y1="559.4531" y2="559.4531"/><text fill="#000000" font-family="sans-serif" font-size="11" font-weight="bold" lengthAdjust="spacing" textLength="84" x="25" y="569.6636">[识别结果小于0]</text><line style="stroke:#181818;stroke-width:1.0;" x1="47" x2="89" y1="594.3906" y2="594.3906"/><line style="stroke:#181818;stroke-width:1.0;" x1="89" x2="89" y1="594.3906" y2="607.3906"/><line style="stroke:#181818;stroke-width:1.0;" x1="48" x2="89" y1="607.3906" y2="607.3906"/><polygon fill="#181818" points="58,603.3906,48,607.3906,58,611.3906,54,607.3906" style="stroke:#181818;stroke-width:1.0;"/><text fill="#008000" font-family="sans-serif" font-size="13" font-weight="bold" lengthAdjust="spacing" textLength="70" x="54" y="589.3247">一般不处理</text><path d="M10,629.3906 L80,629.3906 L80,636.5234 L70,646.5234 L10,646.5234 L10,629.3906 " fill="#FFD700" style="stroke:#000000;stroke-width:1.5;"/><rect fill="none" height="433.3516" style="stroke:#000000;stroke-width:1.5;" width="533" x="10" y="629.3906"/><text fill="#000000" font-family="sans-serif" font-size="13" font-weight="bold" lengthAdjust="spacing" textLength="25" x="25" y="642.4575">opt</text><text fill="#000000" font-family="sans-serif" font-size="11" font-weight="bold" lengthAdjust="spacing" textLength="86" x="95" y="641.6011">[事件处理[可选]]</text><polygon fill="#181818" points="467,663.6563,477,667.6563,467,671.6563,471,667.6563" style="stroke:#181818;stroke-width:1.0;"/><line style="stroke:#181818;stroke-width:1.0;" x1="47" x2="473" y1="667.6563" y2="667.6563"/><text fill="#000000" font-family="sans-serif" font-size="13" lengthAdjust="spacing" textLength="52" x="54" y="662.5903">获取事件</text><polygon fill="#181818" points="58,692.7891,48,696.7891,58,700.7891,54,696.7891" style="stroke:#181818;stroke-width:1.0;"/><line style="stroke:#181818;stroke-width:1.0;" x1="52" x2="478" y1="696.7891" y2="696.7891"/><text fill="#000000" font-family="sans-serif" font-size="13" lengthAdjust="spacing" textLength="26" x="64" y="691.7231">事件</text><path d="M20,711.7891 L84,711.7891 L84,718.9219 L74,728.9219 L20,728.9219 L20,711.7891 " fill="#EEEEEE" style="stroke:#000000;stroke-width:1.5;"/><rect fill="none" height="343.9531" style="stroke:#000000;stroke-width:1.5;" width="160" x="20" y="711.7891"/><text fill="#000000" font-family="sans-serif" font-size="13" font-weight="bold" lengthAdjust="spacing" textLength="19" x="35" y="724.856">alt</text><text fill="#000000" font-family="sans-serif" font-size="11" font-weight="bold" lengthAdjust="spacing" textLength="76" x="99" y="723.9995">[开始等待触发]</text><line style="stroke:#181818;stroke-width:1.0;" x1="47" x2="89" y1="750.0547" y2="750.0547"/><line style="stroke:#181818;stroke-width:1.0;" x1="89" x2="89" y1="750.0547" y2="763.0547"/><line style="stroke:#181818;stroke-width:1.0;" x1="48" x2="89" y1="763.0547" y2="763.0547"/><polygon fill="#181818" points="58,759.0547,48,763.0547,58,767.0547,54,763.0547" style="stroke:#181818;stroke-width:1.0;"/><text fill="#008000" font-family="sans-serif" font-size="13" font-weight="bold" lengthAdjust="spacing" textLength="98" x="54" y="744.9888">用户自定义处理</text><line style="stroke:#000000;stroke-width:1.0;stroke-dasharray:2.0,2.0;" x1="20" x2="180" y1="772.0547" y2="772.0547"/><text fill="#000000" font-family="sans-serif" font-size="11" font-weight="bold" lengthAdjust="spacing" textLength="54" x="25" y="782.2651">[按键触发]</text><line style="stroke:#181818;stroke-width:1.0;" x1="47" x2="89" y1="806.9922" y2="806.9922"/><line style="stroke:#181818;stroke-width:1.0;" x1="89" x2="89" y1="806.9922" y2="819.9922"/><line style="stroke:#181818;stroke-width:1.0;" x1="48" x2="89" y1="819.9922" y2="819.9922"/><polygon fill="#181818" points="58,815.9922,48,819.9922,58,823.9922,54,819.9922" style="stroke:#181818;stroke-width:1.0;"/><text fill="#008000" font-family="sans-serif" font-size="13" font-weight="bold" lengthAdjust="spacing" textLength="98" x="54" y="801.9263">用户自定义处理</text><line style="stroke:#000000;stroke-width:1.0;stroke-dasharray:2.0,2.0;" x1="20" x2="180" y1="828.9922" y2="828.9922"/><text fill="#000000" font-family="sans-serif" font-size="11" font-weight="bold" lengthAdjust="spacing" textLength="65" x="25" y="839.2026">[关键词触发]</text><line style="stroke:#181818;stroke-width:1.0;" x1="47" x2="89" y1="863.9297" y2="863.9297"/><line style="stroke:#181818;stroke-width:1.0;" x1="89" x2="89" y1="863.9297" y2="876.9297"/><line style="stroke:#181818;stroke-width:1.0;" x1="48" x2="89" y1="876.9297" y2="876.9297"/><polygon fill="#181818" points="58,872.9297,48,876.9297,58,880.9297,54,876.9297" style="stroke:#181818;stroke-width:1.0;"/><text fill="#008000" font-family="sans-serif" font-size="13" font-weight="bold" lengthAdjust="spacing" textLength="98" x="54" y="858.8638">用户自定义处理</text><line style="stroke:#000000;stroke-width:1.0;stroke-dasharray:2.0,2.0;" x1="20" x2="180" y1="885.9297" y2="885.9297"/><text fill="#000000" font-family="sans-serif" font-size="11" font-weight="bold" lengthAdjust="spacing" textLength="54" x="25" y="896.1401">[开始识别]</text><line style="stroke:#181818;stroke-width:1.0;" x1="47" x2="89" y1="920.8672" y2="920.8672"/><line style="stroke:#181818;stroke-width:1.0;" x1="89" x2="89" y1="920.8672" y2="933.8672"/><line style="stroke:#181818;stroke-width:1.0;" x1="48" x2="89" y1="933.8672" y2="933.8672"/><polygon fill="#181818" points="58,929.8672,48,933.8672,58,937.8672,54,933.8672" style="stroke:#181818;stroke-width:1.0;"/><text fill="#008000" font-family="sans-serif" font-size="13" font-weight="bold" lengthAdjust="spacing" textLength="98" x="54" y="915.8013">用户自定义处理</text><line style="stroke:#000000;stroke-width:1.0;stroke-dasharray:2.0,2.0;" x1="20" x2="180" y1="942.8672" y2="942.8672"/><text fill="#000000" font-family="sans-serif" font-size="11" font-weight="bold" lengthAdjust="spacing" textLength="65" x="25" y="953.0776">[识别到结果]</text><line style="stroke:#181818;stroke-width:1.0;" x1="47" x2="89" y1="977.8047" y2="977.8047"/><line style="stroke:#181818;stroke-width:1.0;" x1="89" x2="89" y1="977.8047" y2="990.8047"/><line style="stroke:#181818;stroke-width:1.0;" x1="48" x2="89" y1="990.8047" y2="990.8047"/><polygon fill="#181818" points="58,986.8047,48,990.8047,58,994.8047,54,990.8047" style="stroke:#181818;stroke-width:1.0;"/><text fill="#008000" font-family="sans-serif" font-size="13" font-weight="bold" lengthAdjust="spacing" textLength="98" x="54" y="972.7388">用户自定义处理</text><line style="stroke:#000000;stroke-width:1.0;stroke-dasharray:2.0,2.0;" x1="20" x2="180" y1="999.8047" y2="999.8047"/><text fill="#000000" font-family="sans-serif" font-size="11" font-weight="bold" lengthAdjust="spacing" textLength="54" x="25" y="1010.0151">[识别超时]</text><line style="stroke:#181818;stroke-width:1.0;" x1="47" x2="89" y1="1034.7422" y2="1034.7422"/><line style="stroke:#181818;stroke-width:1.0;" x1="89" x2="89" y1="1034.7422" y2="1047.7422"/><line style="stroke:#181818;stroke-width:1.0;" x1="48" x2="89" y1="1047.7422" y2="1047.7422"/><polygon fill="#181818" points="58,1043.7422,48,1047.7422,58,1051.7422,54,1047.7422" style="stroke:#181818;stroke-width:1.0;"/><text fill="#008000" font-family="sans-serif" font-size="13" font-weight="bold" lengthAdjust="spacing" textLength="98" x="54" y="1029.6763">用户自定义处理</text></g></svg>