<?xml version="1.0" encoding="UTF-8" standalone="no"?><svg xmlns="http://www.w3.org/2000/svg" xmlns:xlink="http://www.w3.org/1999/xlink" contentStyleType="text/css" height="1266px" preserveAspectRatio="none" style="width:783px;height:1266px;background:#FFFFFF;" version="1.1" viewBox="0 0 783 1266" width="783px" zoomAndPan="magnify"><defs/><g><rect fill="#FFF0F5" height="1040.1172" style="stroke:#181818;stroke-width:1.0;" width="10" x="377" y="136.5625"/><rect fill="none" height="191.9297" style="stroke:#000000;stroke-width:1.5;" width="411" x="30" y="98.2969"/><rect fill="none" height="864.4531" style="stroke:#000000;stroke-width:1.5;" width="441" x="10" y="304.2266"/><rect fill="#90EE90" height="804.1875" style="stroke:#000000;stroke-width:1.5;" width="421" x="20" y="357.4922"/><rect fill="none" height="59.2656" style="stroke:#000000;stroke-width:1.5;" width="228" x="30" y="469.0234"/><rect fill="#FFFFE0" height="104.3984" style="stroke:none;stroke-width:1.0;" width="421" x="20" y="535.2891"/><rect fill="none" height="59.2656" style="stroke:#000000;stroke-width:1.5;" width="228" x="30" y="573.4219"/><rect fill="#ADD8E6" height="104.3984" style="stroke:none;stroke-width:1.0;" width="421" x="20" y="639.6875"/><rect fill="none" height="59.2656" style="stroke:#000000;stroke-width:1.5;" width="228" x="30" y="677.8203"/><rect fill="#FFFFE0" height="104.3984" style="stroke:none;stroke-width:1.0;" width="421" x="20" y="744.0859"/><rect fill="none" height="59.2656" style="stroke:#000000;stroke-width:1.5;" width="228" x="30" y="782.2188"/><rect fill="#ADD8E6" height="104.3984" style="stroke:none;stroke-width:1.0;" width="421" x="20" y="848.4844"/><rect fill="none" height="59.2656" style="stroke:#000000;stroke-width:1.5;" width="228" x="30" y="886.6172"/><rect fill="#FFFFE0" height="104.3984" style="stroke:none;stroke-width:1.0;" width="421" x="20" y="952.8828"/><rect fill="none" height="59.2656" style="stroke:#000000;stroke-width:1.5;" width="228" x="30" y="991.0156"/><rect fill="#ADD8E6" height="104.3984" style="stroke:none;stroke-width:1.0;" width="421" x="20" y="1057.2813"/><rect fill="none" height="59.2656" style="stroke:#000000;stroke-width:1.5;" width="228" x="30" y="1095.4141"/><line style="stroke:#181818;stroke-width:0.5;stroke-dasharray:5.0,5.0;" x1="57" x2="57" y1="81.2969" y2="1185.6797"/><line style="stroke:#181818;stroke-width:0.5;stroke-dasharray:5.0,5.0;" x1="382" x2="382" y1="81.2969" y2="1185.6797"/><text fill="#000000" font-family="sans-serif" font-size="14" lengthAdjust="spacing" textLength="28" x="40" y="77.9951">用户</text><ellipse cx="57" cy="13.5" fill="#E2E2F0" rx="8" ry="8" style="stroke:#181818;stroke-width:0.5;"/><path d="M57,21.5 L57,48.5 M44,29.5 L70,29.5 M57,48.5 L44,63.5 M57,48.5 L70,63.5 " fill="none" style="stroke:#181818;stroke-width:0.5;"/><text fill="#000000" font-family="sans-serif" font-size="14" lengthAdjust="spacing" textLength="28" x="40" y="1197.6748">用户</text><ellipse cx="57" cy="1209.4766" fill="#E2E2F0" rx="8" ry="8" style="stroke:#181818;stroke-width:0.5;"/><path d="M57,1217.4766 L57,1244.4766 M44,1225.4766 L70,1225.4766 M57,1244.4766 L44,1259.4766 M57,1244.4766 L70,1259.4766 " fill="none" style="stroke:#181818;stroke-width:0.5;"/><rect fill="#E2E2F0" height="30.2969" rx="2.5" ry="2.5" style="stroke:#181818;stroke-width:0.5;" width="98" x="333" y="50"/><text fill="#000000" font-family="sans-serif" font-size="14" lengthAdjust="spacing" textLength="84" x="340" y="69.9951">语音识别模块</text><rect fill="#E2E2F0" height="30.2969" rx="2.5" ry="2.5" style="stroke:#181818;stroke-width:0.5;" width="98" x="333" y="1184.6797"/><text fill="#000000" font-family="sans-serif" font-size="14" lengthAdjust="spacing" textLength="84" x="340" y="1204.6748">语音识别模块</text><rect fill="#FFF0F5" height="1040.1172" style="stroke:#181818;stroke-width:1.0;" width="10" x="377" y="136.5625"/><path d="M30,98.2969 L117,98.2969 L117,105.4297 L107,115.4297 L30,115.4297 L30,98.2969 " fill="#EEEEEE" style="stroke:#000000;stroke-width:1.5;"/><rect fill="none" height="191.9297" style="stroke:#000000;stroke-width:1.5;" width="411" x="30" y="98.2969"/><text fill="#000000" font-family="sans-serif" font-size="13" font-weight="bold" lengthAdjust="spacing" textLength="42" x="45" y="111.3638">初始化</text><polygon fill="#181818" points="365,132.5625,375,136.5625,365,140.5625,369,136.5625" style="stroke:#181818;stroke-width:1.0;"/><line style="stroke:#181818;stroke-width:1.0;" x1="57" x2="371" y1="136.5625" y2="136.5625"/><text fill="#000000" font-family="sans-serif" font-size="13" lengthAdjust="spacing" textLength="39" x="64" y="131.4966">初始化</text><polygon fill="#181818" points="365,161.6953,375,165.6953,365,169.6953,369,165.6953" style="stroke:#181818;stroke-width:1.0;"/><line style="stroke:#181818;stroke-width:1.0;" x1="57" x2="371" y1="165.6953" y2="165.6953"/><text fill="#000000" font-family="sans-serif" font-size="13" lengthAdjust="spacing" textLength="296" x="64" y="160.6294">设置触发模式(自动、关键词、按键、关键词和按键)</text><polygon fill="#181818" points="365,190.8281,375,194.8281,365,198.8281,369,194.8281" style="stroke:#181818;stroke-width:1.0;"/><line style="stroke:#181818;stroke-width:1.0;" x1="57" x2="371" y1="194.8281" y2="194.8281"/><text fill="#000000" font-family="sans-serif" font-size="13" lengthAdjust="spacing" textLength="96" x="64" y="189.7622">添加识别词条(0)</text><polygon fill="#181818" points="365,219.9609,375,223.9609,365,227.9609,369,223.9609" style="stroke:#181818;stroke-width:1.0;"/><line style="stroke:#181818;stroke-width:1.0;" x1="57" x2="371" y1="223.9609" y2="223.9609"/><text fill="#000000" font-family="sans-serif" font-size="13" lengthAdjust="spacing" textLength="96" x="64" y="218.895">添加识别词条(1)</text><polygon fill="#181818" points="365,249.0938,375,253.0938,365,257.0938,369,253.0938" style="stroke:#181818;stroke-width:1.0;"/><line style="stroke:#181818;stroke-width:1.0;" x1="57" x2="371" y1="253.0938" y2="253.0938"/><text fill="#000000" font-family="sans-serif" font-size="13" lengthAdjust="spacing" textLength="104" x="64" y="248.0278">添加更多识别词条</text><polygon fill="#181818" points="365,278.2266,375,282.2266,365,286.2266,369,282.2266" style="stroke:#181818;stroke-width:1.0;"/><line style="stroke:#181818;stroke-width:1.0;" x1="57" x2="371" y1="282.2266" y2="282.2266"/><text fill="#000000" font-family="sans-serif" font-size="13" lengthAdjust="spacing" textLength="96" x="64" y="277.1606">添加识别词条(X)</text><path d="M10,304.2266 L83,304.2266 L83,311.3594 L73,321.3594 L10,321.3594 L10,304.2266 " fill="#EEEEEE" style="stroke:#000000;stroke-width:1.5;"/><rect fill="none" height="864.4531" style="stroke:#000000;stroke-width:1.5;" width="441" x="10" y="304.2266"/><text fill="#000000" font-family="sans-serif" font-size="13" font-weight="bold" lengthAdjust="spacing" textLength="28" x="25" y="317.2935">循环</text><path d="M456,309.2266 L456,349.2266 L776,349.2266 L776,319.2266 L766,309.2266 L456,309.2266 " fill="#FEFFDD" style="stroke:#181818;stroke-width:0.5;"/><path d="M766,309.2266 L766,319.2266 L776,319.2266 L766,309.2266 " fill="#FEFFDD" style="stroke:#181818;stroke-width:0.5;"/><text fill="#000000" font-family="sans-serif" font-size="13" lengthAdjust="spacing" textLength="182" x="462" y="326.2935">不断地从语音识别模块读取事件</text><text fill="#000000" font-family="sans-serif" font-size="13" lengthAdjust="spacing" textLength="299" x="462" y="341.4263">根据不同的事件类型做出不同的动作，也可以不处理</text><polygon fill="#181818" points="365,338.4922,375,342.4922,365,346.4922,369,342.4922" style="stroke:#181818;stroke-width:1.0;"/><line style="stroke:#181818;stroke-width:1.0;" x1="57" x2="371" y1="342.4922" y2="342.4922"/><text fill="#000000" font-family="sans-serif" font-size="13" lengthAdjust="spacing" textLength="52" x="64" y="337.4263">读取事件</text><path d="M20,357.4922 L84,357.4922 L84,364.625 L74,374.625 L20,374.625 L20,357.4922 " fill="#FFD700" style="stroke:#000000;stroke-width:1.5;"/><rect fill="none" height="804.1875" style="stroke:#000000;stroke-width:1.5;" width="421" x="20" y="357.4922"/><text fill="#000000" font-family="sans-serif" font-size="13" font-weight="bold" lengthAdjust="spacing" textLength="19" x="35" y="370.5591">alt</text><polygon fill="#181818" points="68,391.7578,58,395.7578,68,399.7578,64,395.7578" style="stroke:#181818;stroke-width:1.0;"/><line style="stroke:#181818;stroke-width:1.0;" x1="62" x2="376" y1="395.7578" y2="395.7578"/><text fill="#000000" font-family="sans-serif" font-size="13" lengthAdjust="spacing" textLength="30" x="74" y="390.6919">事件:</text><text fill="#FF3333" font-family="sans-serif" font-size="13" font-weight="bold" lengthAdjust="spacing" textLength="56" x="108" y="390.6919">识别成功</text><polygon fill="#181818" points="365,420.8906,375,424.8906,365,428.8906,369,424.8906" style="stroke:#181818;stroke-width:1.0;"/><line style="stroke:#181818;stroke-width:1.0;" x1="57" x2="371" y1="424.8906" y2="424.8906"/><text fill="#000000" font-family="sans-serif" font-size="13" lengthAdjust="spacing" textLength="78" x="64" y="419.8247">读取识别结果</text><polygon fill="#181818" points="68,450.0234,58,454.0234,68,458.0234,64,454.0234" style="stroke:#181818;stroke-width:1.0;"/><line style="stroke:#181818;stroke-width:1.0;" x1="62" x2="376" y1="454.0234" y2="454.0234"/><text fill="#000000" font-family="sans-serif" font-size="13" lengthAdjust="spacing" textLength="26" x="74" y="448.9575">结果</text><path d="M30,469.0234 L100,469.0234 L100,476.1563 L90,486.1563 L30,486.1563 L30,469.0234 " fill="#EEEEEE" style="stroke:#000000;stroke-width:1.5;"/><rect fill="none" height="59.2656" style="stroke:#000000;stroke-width:1.5;" width="228" x="30" y="469.0234"/><text fill="#000000" font-family="sans-serif" font-size="13" font-weight="bold" lengthAdjust="spacing" textLength="25" x="45" y="482.0903">opt</text><line style="stroke:#181818;stroke-width:1.0;" x1="57" x2="99" y1="507.2891" y2="507.2891"/><line style="stroke:#181818;stroke-width:1.0;" x1="99" x2="99" y1="507.2891" y2="520.2891"/><line style="stroke:#181818;stroke-width:1.0;" x1="58" x2="99" y1="520.2891" y2="520.2891"/><polygon fill="#181818" points="68,516.2891,58,520.2891,68,524.2891,64,520.2891" style="stroke:#181818;stroke-width:1.0;"/><text fill="#000000" font-family="sans-serif" font-size="13" lengthAdjust="spacing" textLength="182" x="64" y="502.2231">用户自定义操作，也可以不处理</text><line style="stroke:#000000;stroke-width:1.0;stroke-dasharray:2.0,2.0;" x1="20" x2="441" y1="536.2891" y2="536.2891"/><polygon fill="#181818" points="68,554.4219,58,558.4219,68,562.4219,64,558.4219" style="stroke:#181818;stroke-width:1.0;"/><line style="stroke:#181818;stroke-width:1.0;" x1="62" x2="376" y1="558.4219" y2="558.4219"/><text fill="#000000" font-family="sans-serif" font-size="13" lengthAdjust="spacing" textLength="30" x="74" y="553.356">事件:</text><text fill="#FF3333" font-family="sans-serif" font-size="13" font-weight="bold" lengthAdjust="spacing" textLength="56" x="112" y="553.356">等待触发</text><path d="M30,573.4219 L100,573.4219 L100,580.5547 L90,590.5547 L30,590.5547 L30,573.4219 " fill="#EEEEEE" style="stroke:#000000;stroke-width:1.5;"/><rect fill="none" height="59.2656" style="stroke:#000000;stroke-width:1.5;" width="228" x="30" y="573.4219"/><text fill="#000000" font-family="sans-serif" font-size="13" font-weight="bold" lengthAdjust="spacing" textLength="25" x="45" y="586.4888">opt</text><line style="stroke:#181818;stroke-width:1.0;" x1="57" x2="99" y1="611.6875" y2="611.6875"/><line style="stroke:#181818;stroke-width:1.0;" x1="99" x2="99" y1="611.6875" y2="624.6875"/><line style="stroke:#181818;stroke-width:1.0;" x1="58" x2="99" y1="624.6875" y2="624.6875"/><polygon fill="#181818" points="68,620.6875,58,624.6875,68,628.6875,64,624.6875" style="stroke:#181818;stroke-width:1.0;"/><text fill="#000000" font-family="sans-serif" font-size="13" lengthAdjust="spacing" textLength="182" x="64" y="606.6216">用户自定义操作，也可以不处理</text><line style="stroke:#000000;stroke-width:1.0;stroke-dasharray:2.0,2.0;" x1="20" x2="441" y1="640.6875" y2="640.6875"/><polygon fill="#181818" points="68,658.8203,58,662.8203,68,666.8203,64,662.8203" style="stroke:#181818;stroke-width:1.0;"/><line style="stroke:#181818;stroke-width:1.0;" x1="62" x2="376" y1="662.8203" y2="662.8203"/><text fill="#000000" font-family="sans-serif" font-size="13" lengthAdjust="spacing" textLength="39" x="74" y="657.7544">事件：</text><text fill="#FF3333" font-family="sans-serif" font-size="13" font-weight="bold" lengthAdjust="spacing" textLength="56" x="113" y="657.7544">开始识别</text><path d="M30,677.8203 L100,677.8203 L100,684.9531 L90,694.9531 L30,694.9531 L30,677.8203 " fill="#EEEEEE" style="stroke:#000000;stroke-width:1.5;"/><rect fill="none" height="59.2656" style="stroke:#000000;stroke-width:1.5;" width="228" x="30" y="677.8203"/><text fill="#000000" font-family="sans-serif" font-size="13" font-weight="bold" lengthAdjust="spacing" textLength="25" x="45" y="690.8872">opt</text><line style="stroke:#181818;stroke-width:1.0;" x1="57" x2="99" y1="716.0859" y2="716.0859"/><line style="stroke:#181818;stroke-width:1.0;" x1="99" x2="99" y1="716.0859" y2="729.0859"/><line style="stroke:#181818;stroke-width:1.0;" x1="58" x2="99" y1="729.0859" y2="729.0859"/><polygon fill="#181818" points="68,725.0859,58,729.0859,68,733.0859,64,729.0859" style="stroke:#181818;stroke-width:1.0;"/><text fill="#000000" font-family="sans-serif" font-size="13" lengthAdjust="spacing" textLength="182" x="64" y="711.02">用户自定义操作，也可以不处理</text><line style="stroke:#000000;stroke-width:1.0;stroke-dasharray:2.0,2.0;" x1="20" x2="441" y1="745.0859" y2="745.0859"/><polygon fill="#181818" points="68,763.2188,58,767.2188,68,771.2188,64,767.2188" style="stroke:#181818;stroke-width:1.0;"/><line style="stroke:#181818;stroke-width:1.0;" x1="62" x2="376" y1="767.2188" y2="767.2188"/><text fill="#000000" font-family="sans-serif" font-size="13" lengthAdjust="spacing" textLength="39" x="74" y="762.1528">事件：</text><text fill="#FF3333" font-family="sans-serif" font-size="13" font-weight="bold" lengthAdjust="spacing" textLength="56" x="113" y="762.1528">识别超时</text><path d="M30,782.2188 L100,782.2188 L100,789.3516 L90,799.3516 L30,799.3516 L30,782.2188 " fill="#EEEEEE" style="stroke:#000000;stroke-width:1.5;"/><rect fill="none" height="59.2656" style="stroke:#000000;stroke-width:1.5;" width="228" x="30" y="782.2188"/><text fill="#000000" font-family="sans-serif" font-size="13" font-weight="bold" lengthAdjust="spacing" textLength="25" x="45" y="795.2856">opt</text><line style="stroke:#181818;stroke-width:1.0;" x1="57" x2="99" y1="820.4844" y2="820.4844"/><line style="stroke:#181818;stroke-width:1.0;" x1="99" x2="99" y1="820.4844" y2="833.4844"/><line style="stroke:#181818;stroke-width:1.0;" x1="58" x2="99" y1="833.4844" y2="833.4844"/><polygon fill="#181818" points="68,829.4844,58,833.4844,68,837.4844,64,833.4844" style="stroke:#181818;stroke-width:1.0;"/><text fill="#000000" font-family="sans-serif" font-size="13" lengthAdjust="spacing" textLength="182" x="64" y="815.4185">用户自定义操作，也可以不处理</text><line style="stroke:#000000;stroke-width:1.0;stroke-dasharray:2.0,2.0;" x1="20" x2="441" y1="849.4844" y2="849.4844"/><polygon fill="#181818" points="68,867.6172,58,871.6172,68,875.6172,64,871.6172" style="stroke:#181818;stroke-width:1.0;"/><line style="stroke:#181818;stroke-width:1.0;" x1="62" x2="376" y1="871.6172" y2="871.6172"/><text fill="#000000" font-family="sans-serif" font-size="13" lengthAdjust="spacing" textLength="39" x="74" y="866.5513">事件：</text><text fill="#FF3333" font-family="sans-serif" font-size="13" font-weight="bold" lengthAdjust="spacing" textLength="98" x="113" y="866.5513">被按键触发激活</text><path d="M30,886.6172 L100,886.6172 L100,893.75 L90,903.75 L30,903.75 L30,886.6172 " fill="#EEEEEE" style="stroke:#000000;stroke-width:1.5;"/><rect fill="none" height="59.2656" style="stroke:#000000;stroke-width:1.5;" width="228" x="30" y="886.6172"/><text fill="#000000" font-family="sans-serif" font-size="13" font-weight="bold" lengthAdjust="spacing" textLength="25" x="45" y="899.6841">opt</text><line style="stroke:#181818;stroke-width:1.0;" x1="57" x2="99" y1="924.8828" y2="924.8828"/><line style="stroke:#181818;stroke-width:1.0;" x1="99" x2="99" y1="924.8828" y2="937.8828"/><line style="stroke:#181818;stroke-width:1.0;" x1="58" x2="99" y1="937.8828" y2="937.8828"/><polygon fill="#181818" points="68,933.8828,58,937.8828,68,941.8828,64,937.8828" style="stroke:#181818;stroke-width:1.0;"/><text fill="#000000" font-family="sans-serif" font-size="13" lengthAdjust="spacing" textLength="182" x="64" y="919.8169">用户自定义操作，也可以不处理</text><line style="stroke:#000000;stroke-width:1.0;stroke-dasharray:2.0,2.0;" x1="20" x2="441" y1="953.8828" y2="953.8828"/><polygon fill="#181818" points="68,972.0156,58,976.0156,68,980.0156,64,976.0156" style="stroke:#181818;stroke-width:1.0;"/><line style="stroke:#181818;stroke-width:1.0;" x1="62" x2="376" y1="976.0156" y2="976.0156"/><text fill="#000000" font-family="sans-serif" font-size="13" lengthAdjust="spacing" textLength="39" x="74" y="970.9497">事件：</text><text fill="#FF3333" font-family="sans-serif" font-size="13" font-weight="bold" lengthAdjust="spacing" textLength="112" x="113" y="970.9497">被关键词触发激活</text><path d="M30,991.0156 L100,991.0156 L100,998.1484 L90,1008.1484 L30,1008.1484 L30,991.0156 " fill="#EEEEEE" style="stroke:#000000;stroke-width:1.5;"/><rect fill="none" height="59.2656" style="stroke:#000000;stroke-width:1.5;" width="228" x="30" y="991.0156"/><text fill="#000000" font-family="sans-serif" font-size="13" font-weight="bold" lengthAdjust="spacing" textLength="25" x="45" y="1004.0825">opt</text><line style="stroke:#181818;stroke-width:1.0;" x1="57" x2="99" y1="1029.2813" y2="1029.2813"/><line style="stroke:#181818;stroke-width:1.0;" x1="99" x2="99" y1="1029.2813" y2="1042.2813"/><line style="stroke:#181818;stroke-width:1.0;" x1="58" x2="99" y1="1042.2813" y2="1042.2813"/><polygon fill="#181818" points="68,1038.2813,58,1042.2813,68,1046.2813,64,1042.2813" style="stroke:#181818;stroke-width:1.0;"/><text fill="#000000" font-family="sans-serif" font-size="13" lengthAdjust="spacing" textLength="182" x="64" y="1024.2153">用户自定义操作，也可以不处理</text><line style="stroke:#000000;stroke-width:1.0;stroke-dasharray:2.0,2.0;" x1="20" x2="441" y1="1058.2813" y2="1058.2813"/><polygon fill="#181818" points="68,1076.4141,58,1080.4141,68,1084.4141,64,1080.4141" style="stroke:#181818;stroke-width:1.0;"/><line style="stroke:#181818;stroke-width:1.0;" x1="62" x2="376" y1="1080.4141" y2="1080.4141"/><text fill="#000000" font-family="sans-serif" font-size="13" lengthAdjust="spacing" textLength="39" x="74" y="1075.3481">事件：</text><text fill="#FF3333" font-family="sans-serif" font-size="13" font-weight="bold" lengthAdjust="spacing" textLength="14" x="113" y="1075.3481">无</text><path d="M30,1095.4141 L100,1095.4141 L100,1102.5469 L90,1112.5469 L30,1112.5469 L30,1095.4141 " fill="#EEEEEE" style="stroke:#000000;stroke-width:1.5;"/><rect fill="none" height="59.2656" style="stroke:#000000;stroke-width:1.5;" width="228" x="30" y="1095.4141"/><text fill="#000000" font-family="sans-serif" font-size="13" font-weight="bold" lengthAdjust="spacing" textLength="25" x="45" y="1108.481">opt</text><line style="stroke:#181818;stroke-width:1.0;" x1="57" x2="99" y1="1133.6797" y2="1133.6797"/><line style="stroke:#181818;stroke-width:1.0;" x1="99" x2="99" y1="1133.6797" y2="1146.6797"/><line style="stroke:#181818;stroke-width:1.0;" x1="58" x2="99" y1="1146.6797" y2="1146.6797"/><polygon fill="#181818" points="68,1142.6797,58,1146.6797,68,1150.6797,64,1146.6797" style="stroke:#181818;stroke-width:1.0;"/><text fill="#000000" font-family="sans-serif" font-size="13" lengthAdjust="spacing" textLength="182" x="64" y="1128.6138">用户自定义操作，也可以不处理</text></g></svg>