<?xml version="1.0" encoding="us-ascii" standalone="no"?><svg xmlns="http://www.w3.org/2000/svg" xmlns:xlink="http://www.w3.org/1999/xlink" contentStyleType="text/css" height="1326px" preserveAspectRatio="none" style="width:783px;height:1326px;background:#FFFFFF;" version="1.1" viewBox="0 0 783 1326" width="783px" zoomAndPan="magnify"><defs/><g><rect fill="#FFF0F5" height="1100.3828" style="stroke:#181818;stroke-width:1.0;" width="10" x="377" y="136.5625"/><rect fill="none" height="252.1953" style="stroke:#000000;stroke-width:1.5;" width="431" x="20" y="98.2969"/><rect fill="none" height="46.2656" style="stroke:#000000;stroke-width:1.5;" width="411" x="30" y="180.6953"/><rect fill="none" height="864.4531" style="stroke:#000000;stroke-width:1.5;" width="441" x="10" y="364.4922"/><rect fill="#90EE90" height="804.1875" style="stroke:#000000;stroke-width:1.5;" width="421" x="20" y="417.7578"/><rect fill="none" height="59.2656" style="stroke:#000000;stroke-width:1.5;" width="228" x="30" y="529.2891"/><rect fill="#FFFFE0" height="104.3984" style="stroke:none;stroke-width:1.0;" width="421" x="20" y="595.5547"/><rect fill="none" height="59.2656" style="stroke:#000000;stroke-width:1.5;" width="228" x="30" y="633.6875"/><rect fill="#ADD8E6" height="104.3984" style="stroke:none;stroke-width:1.0;" width="421" x="20" y="699.9531"/><rect fill="none" height="59.2656" style="stroke:#000000;stroke-width:1.5;" width="228" x="30" y="738.0859"/><rect fill="#FFFFE0" height="104.3984" style="stroke:none;stroke-width:1.0;" width="421" x="20" y="804.3516"/><rect fill="none" height="59.2656" style="stroke:#000000;stroke-width:1.5;" width="228" x="30" y="842.4844"/><rect fill="#ADD8E6" height="104.3984" style="stroke:none;stroke-width:1.0;" width="421" x="20" y="908.75"/><rect fill="none" height="59.2656" style="stroke:#000000;stroke-width:1.5;" width="228" x="30" y="946.8828"/><rect fill="#FFFFE0" height="104.3984" style="stroke:none;stroke-width:1.0;" width="421" x="20" y="1013.1484"/><rect fill="none" height="59.2656" style="stroke:#000000;stroke-width:1.5;" width="228" x="30" y="1051.2813"/><rect fill="#ADD8E6" height="104.3984" style="stroke:none;stroke-width:1.0;" width="421" x="20" y="1117.5469"/><rect fill="none" height="59.2656" style="stroke:#000000;stroke-width:1.5;" width="228" x="30" y="1155.6797"/><line style="stroke:#181818;stroke-width:0.5;stroke-dasharray:5.0,5.0;" x1="57" x2="57" y1="81.2969" y2="1245.9453"/><line style="stroke:#181818;stroke-width:0.5;stroke-dasharray:5.0,5.0;" x1="382" x2="382" y1="81.2969" y2="1245.9453"/><text fill="#000000" font-family="sans-serif" font-size="14" lengthAdjust="spacing" textLength="28" x="40" y="77.9951">&#29992;&#25143;</text><ellipse cx="57" cy="13.5" fill="#E2E2F0" rx="8" ry="8" style="stroke:#181818;stroke-width:0.5;"/><path d="M57,21.5 L57,48.5 M44,29.5 L70,29.5 M57,48.5 L44,63.5 M57,48.5 L70,63.5 " fill="none" style="stroke:#181818;stroke-width:0.5;"/><text fill="#000000" font-family="sans-serif" font-size="14" lengthAdjust="spacing" textLength="28" x="40" y="1257.9404">&#29992;&#25143;</text><ellipse cx="57" cy="1269.7422" fill="#E2E2F0" rx="8" ry="8" style="stroke:#181818;stroke-width:0.5;"/><path d="M57,1277.7422 L57,1304.7422 M44,1285.7422 L70,1285.7422 M57,1304.7422 L44,1319.7422 M57,1304.7422 L70,1319.7422 " fill="none" style="stroke:#181818;stroke-width:0.5;"/><rect fill="#E2E2F0" height="30.2969" rx="2.5" ry="2.5" style="stroke:#181818;stroke-width:0.5;" width="98" x="333" y="50"/><text fill="#000000" font-family="sans-serif" font-size="14" lengthAdjust="spacing" textLength="84" x="340" y="69.9951">&#35821;&#38899;&#35782;&#21035;&#27169;&#22359;</text><rect fill="#E2E2F0" height="30.2969" rx="2.5" ry="2.5" style="stroke:#181818;stroke-width:0.5;" width="98" x="333" y="1244.9453"/><text fill="#000000" font-family="sans-serif" font-size="14" lengthAdjust="spacing" textLength="84" x="340" y="1264.9404">&#35821;&#38899;&#35782;&#21035;&#27169;&#22359;</text><rect fill="#FFF0F5" height="1100.3828" style="stroke:#181818;stroke-width:1.0;" width="10" x="377" y="136.5625"/><path d="M20,98.2969 L107,98.2969 L107,105.4297 L97,115.4297 L20,115.4297 L20,98.2969 " fill="#EEEEEE" style="stroke:#000000;stroke-width:1.5;"/><rect fill="none" height="252.1953" style="stroke:#000000;stroke-width:1.5;" width="431" x="20" y="98.2969"/><text fill="#000000" font-family="sans-serif" font-size="13" font-weight="bold" lengthAdjust="spacing" textLength="42" x="35" y="111.3638">&#21021;&#22987;&#21270;</text><polygon fill="#181818" points="365,132.5625,375,136.5625,365,140.5625,369,136.5625" style="stroke:#181818;stroke-width:1.0;"/><line style="stroke:#181818;stroke-width:1.0;" x1="57" x2="371" y1="136.5625" y2="136.5625"/><text fill="#000000" font-family="sans-serif" font-size="13" lengthAdjust="spacing" textLength="39" x="64" y="131.4966">&#21021;&#22987;&#21270;</text><polygon fill="#181818" points="365,161.6953,375,165.6953,365,169.6953,369,165.6953" style="stroke:#181818;stroke-width:1.0;"/><line style="stroke:#181818;stroke-width:1.0;" x1="57" x2="371" y1="165.6953" y2="165.6953"/><text fill="#000000" font-family="sans-serif" font-size="13" lengthAdjust="spacing" textLength="296" x="64" y="160.6294">&#35774;&#32622;&#35302;&#21457;&#27169;&#24335;(&#33258;&#21160;&#12289;&#20851;&#38190;&#35789;&#12289;&#25353;&#38190;&#12289;&#20851;&#38190;&#35789;&#21644;&#25353;&#38190;)</text><path d="M30,180.6953 L102,180.6953 L102,187.8281 L92,197.8281 L30,197.8281 L30,180.6953 " fill="#EEEEEE" style="stroke:#000000;stroke-width:1.5;"/><rect fill="none" height="46.2656" style="stroke:#000000;stroke-width:1.5;" width="411" x="30" y="180.6953"/><text fill="#000000" font-family="sans-serif" font-size="13" font-weight="bold" lengthAdjust="spacing" textLength="27" x="45" y="193.7622">opt</text><text fill="#000000" font-family="sans-serif" font-size="11" font-weight="bold" lengthAdjust="spacing" textLength="32" x="117" y="192.9058">[&#21487;&#36873;]</text><polygon fill="#181818" points="365,214.9609,375,218.9609,365,222.9609,369,218.9609" style="stroke:#181818;stroke-width:1.0;"/><line style="stroke:#181818;stroke-width:1.0;" x1="57" x2="371" y1="218.9609" y2="218.9609"/><text fill="#000000" font-family="sans-serif" font-size="13" lengthAdjust="spacing" textLength="151" x="64" y="213.895">&#35774;&#32622;&#36229;&#26102;&#26102;&#38388;&#65292;&#40664;&#35748;&#20026;5&#31186;</text><polygon fill="#181818" points="365,251.0938,375,255.0938,365,259.0938,369,255.0938" style="stroke:#181818;stroke-width:1.0;"/><line style="stroke:#181818;stroke-width:1.0;" x1="57" x2="371" y1="255.0938" y2="255.0938"/><text fill="#000000" font-family="sans-serif" font-size="13" lengthAdjust="spacing" textLength="96" x="64" y="250.0278">&#28155;&#21152;&#35782;&#21035;&#35789;&#26465;(0)</text><polygon fill="#181818" points="365,280.2266,375,284.2266,365,288.2266,369,284.2266" style="stroke:#181818;stroke-width:1.0;"/><line style="stroke:#181818;stroke-width:1.0;" x1="57" x2="371" y1="284.2266" y2="284.2266"/><text fill="#000000" font-family="sans-serif" font-size="13" lengthAdjust="spacing" textLength="96" x="64" y="279.1606">&#28155;&#21152;&#35782;&#21035;&#35789;&#26465;(1)</text><polygon fill="#181818" points="365,309.3594,375,313.3594,365,317.3594,369,313.3594" style="stroke:#181818;stroke-width:1.0;"/><line style="stroke:#181818;stroke-width:1.0;" x1="57" x2="371" y1="313.3594" y2="313.3594"/><text fill="#000000" font-family="sans-serif" font-size="13" lengthAdjust="spacing" textLength="104" x="64" y="308.2935">&#28155;&#21152;&#26356;&#22810;&#35782;&#21035;&#35789;&#26465;</text><polygon fill="#181818" points="365,338.4922,375,342.4922,365,346.4922,369,342.4922" style="stroke:#181818;stroke-width:1.0;"/><line style="stroke:#181818;stroke-width:1.0;" x1="57" x2="371" y1="342.4922" y2="342.4922"/><text fill="#000000" font-family="sans-serif" font-size="13" lengthAdjust="spacing" textLength="97" x="64" y="337.4263">&#28155;&#21152;&#35782;&#21035;&#35789;&#26465;(X)</text><path d="M10,364.4922 L83,364.4922 L83,371.625 L73,381.625 L10,381.625 L10,364.4922 " fill="#EEEEEE" style="stroke:#000000;stroke-width:1.5;"/><rect fill="none" height="864.4531" style="stroke:#000000;stroke-width:1.5;" width="441" x="10" y="364.4922"/><text fill="#000000" font-family="sans-serif" font-size="13" font-weight="bold" lengthAdjust="spacing" textLength="28" x="25" y="377.5591">&#24490;&#29615;</text><path d="M456,369.4922 L456,409.4922 L776,409.4922 L776,379.4922 L766,369.4922 L456,369.4922 " fill="#FEFFDD" style="stroke:#181818;stroke-width:0.5;"/><path d="M766,369.4922 L766,379.4922 L776,379.4922 L766,369.4922 " fill="#FEFFDD" style="stroke:#181818;stroke-width:0.5;"/><text fill="#000000" font-family="sans-serif" font-size="13" lengthAdjust="spacing" textLength="182" x="462" y="386.5591">&#19981;&#26029;&#22320;&#20174;&#35821;&#38899;&#35782;&#21035;&#27169;&#22359;&#35835;&#21462;&#20107;&#20214;</text><text fill="#000000" font-family="sans-serif" font-size="13" lengthAdjust="spacing" textLength="299" x="462" y="401.6919">&#26681;&#25454;&#19981;&#21516;&#30340;&#20107;&#20214;&#31867;&#22411;&#20570;&#20986;&#19981;&#21516;&#30340;&#21160;&#20316;&#65292;&#20063;&#21487;&#20197;&#19981;&#22788;&#29702;</text><polygon fill="#181818" points="365,398.7578,375,402.7578,365,406.7578,369,402.7578" style="stroke:#181818;stroke-width:1.0;"/><line style="stroke:#181818;stroke-width:1.0;" x1="57" x2="371" y1="402.7578" y2="402.7578"/><text fill="#000000" font-family="sans-serif" font-size="13" lengthAdjust="spacing" textLength="52" x="64" y="397.6919">&#35835;&#21462;&#20107;&#20214;</text><path d="M20,417.7578 L86,417.7578 L86,424.8906 L76,434.8906 L20,434.8906 L20,417.7578 " fill="#FFD700" style="stroke:#000000;stroke-width:1.5;"/><rect fill="none" height="804.1875" style="stroke:#000000;stroke-width:1.5;" width="421" x="20" y="417.7578"/><text fill="#000000" font-family="sans-serif" font-size="13" font-weight="bold" lengthAdjust="spacing" textLength="21" x="35" y="430.8247">alt</text><polygon fill="#181818" points="68,452.0234,58,456.0234,68,460.0234,64,456.0234" style="stroke:#181818;stroke-width:1.0;"/><line style="stroke:#181818;stroke-width:1.0;" x1="62" x2="376" y1="456.0234" y2="456.0234"/><text fill="#000000" font-family="sans-serif" font-size="13" lengthAdjust="spacing" textLength="31" x="74" y="450.9575">&#20107;&#20214;:</text><text fill="#FF3333" font-family="sans-serif" font-size="13" font-weight="bold" lengthAdjust="spacing" textLength="56" x="109" y="450.9575">&#35782;&#21035;&#25104;&#21151;</text><polygon fill="#181818" points="365,481.1563,375,485.1563,365,489.1563,369,485.1563" style="stroke:#181818;stroke-width:1.0;"/><line style="stroke:#181818;stroke-width:1.0;" x1="57" x2="371" y1="485.1563" y2="485.1563"/><text fill="#000000" font-family="sans-serif" font-size="13" lengthAdjust="spacing" textLength="78" x="64" y="480.0903">&#35835;&#21462;&#35782;&#21035;&#32467;&#26524;</text><polygon fill="#181818" points="68,510.2891,58,514.2891,68,518.2891,64,514.2891" style="stroke:#181818;stroke-width:1.0;"/><line style="stroke:#181818;stroke-width:1.0;" x1="62" x2="376" y1="514.2891" y2="514.2891"/><text fill="#000000" font-family="sans-serif" font-size="13" lengthAdjust="spacing" textLength="26" x="74" y="509.2231">&#32467;&#26524;</text><path d="M30,529.2891 L102,529.2891 L102,536.4219 L92,546.4219 L30,546.4219 L30,529.2891 " fill="#EEEEEE" style="stroke:#000000;stroke-width:1.5;"/><rect fill="none" height="59.2656" style="stroke:#000000;stroke-width:1.5;" width="228" x="30" y="529.2891"/><text fill="#000000" font-family="sans-serif" font-size="13" font-weight="bold" lengthAdjust="spacing" textLength="27" x="45" y="542.356">opt</text><text fill="#000000" font-family="sans-serif" font-size="11" font-weight="bold" lengthAdjust="spacing" textLength="32" x="117" y="541.4995">[&#21487;&#36873;]</text><line style="stroke:#181818;stroke-width:1.0;" x1="57" x2="99" y1="567.5547" y2="567.5547"/><line style="stroke:#181818;stroke-width:1.0;" x1="99" x2="99" y1="567.5547" y2="580.5547"/><line style="stroke:#181818;stroke-width:1.0;" x1="58" x2="99" y1="580.5547" y2="580.5547"/><polygon fill="#181818" points="68,576.5547,58,580.5547,68,584.5547,64,580.5547" style="stroke:#181818;stroke-width:1.0;"/><text fill="#000000" font-family="sans-serif" font-size="13" lengthAdjust="spacing" textLength="182" x="64" y="562.4888">&#29992;&#25143;&#33258;&#23450;&#20041;&#25805;&#20316;&#65292;&#20063;&#21487;&#20197;&#19981;&#22788;&#29702;</text><line style="stroke:#000000;stroke-width:1.0;stroke-dasharray:2.0,2.0;" x1="20" x2="441" y1="596.5547" y2="596.5547"/><polygon fill="#181818" points="68,614.6875,58,618.6875,68,622.6875,64,618.6875" style="stroke:#181818;stroke-width:1.0;"/><line style="stroke:#181818;stroke-width:1.0;" x1="62" x2="376" y1="618.6875" y2="618.6875"/><text fill="#000000" font-family="sans-serif" font-size="13" lengthAdjust="spacing" textLength="31" x="74" y="613.6216">&#20107;&#20214;:</text><text fill="#FF3333" font-family="sans-serif" font-size="13" font-weight="bold" lengthAdjust="spacing" textLength="56" x="113" y="613.6216">&#31561;&#24453;&#35302;&#21457;</text><path d="M30,633.6875 L102,633.6875 L102,640.8203 L92,650.8203 L30,650.8203 L30,633.6875 " fill="#EEEEEE" style="stroke:#000000;stroke-width:1.5;"/><rect fill="none" height="59.2656" style="stroke:#000000;stroke-width:1.5;" width="228" x="30" y="633.6875"/><text fill="#000000" font-family="sans-serif" font-size="13" font-weight="bold" lengthAdjust="spacing" textLength="27" x="45" y="646.7544">opt</text><text fill="#000000" font-family="sans-serif" font-size="11" font-weight="bold" lengthAdjust="spacing" textLength="32" x="117" y="645.8979">[&#21487;&#36873;]</text><line style="stroke:#181818;stroke-width:1.0;" x1="57" x2="99" y1="671.9531" y2="671.9531"/><line style="stroke:#181818;stroke-width:1.0;" x1="99" x2="99" y1="671.9531" y2="684.9531"/><line style="stroke:#181818;stroke-width:1.0;" x1="58" x2="99" y1="684.9531" y2="684.9531"/><polygon fill="#181818" points="68,680.9531,58,684.9531,68,688.9531,64,684.9531" style="stroke:#181818;stroke-width:1.0;"/><text fill="#000000" font-family="sans-serif" font-size="13" lengthAdjust="spacing" textLength="182" x="64" y="666.8872">&#29992;&#25143;&#33258;&#23450;&#20041;&#25805;&#20316;&#65292;&#20063;&#21487;&#20197;&#19981;&#22788;&#29702;</text><line style="stroke:#000000;stroke-width:1.0;stroke-dasharray:2.0,2.0;" x1="20" x2="441" y1="700.9531" y2="700.9531"/><polygon fill="#181818" points="68,719.0859,58,723.0859,68,727.0859,64,723.0859" style="stroke:#181818;stroke-width:1.0;"/><line style="stroke:#181818;stroke-width:1.0;" x1="62" x2="376" y1="723.0859" y2="723.0859"/><text fill="#000000" font-family="sans-serif" font-size="13" lengthAdjust="spacing" textLength="39" x="74" y="718.02">&#20107;&#20214;&#65306;</text><text fill="#FF3333" font-family="sans-serif" font-size="13" font-weight="bold" lengthAdjust="spacing" textLength="56" x="113" y="718.02">&#24320;&#22987;&#35782;&#21035;</text><path d="M30,738.0859 L102,738.0859 L102,745.2188 L92,755.2188 L30,755.2188 L30,738.0859 " fill="#EEEEEE" style="stroke:#000000;stroke-width:1.5;"/><rect fill="none" height="59.2656" style="stroke:#000000;stroke-width:1.5;" width="228" x="30" y="738.0859"/><text fill="#000000" font-family="sans-serif" font-size="13" font-weight="bold" lengthAdjust="spacing" textLength="27" x="45" y="751.1528">opt</text><text fill="#000000" font-family="sans-serif" font-size="11" font-weight="bold" lengthAdjust="spacing" textLength="32" x="117" y="750.2964">[&#21487;&#36873;]</text><line style="stroke:#181818;stroke-width:1.0;" x1="57" x2="99" y1="776.3516" y2="776.3516"/><line style="stroke:#181818;stroke-width:1.0;" x1="99" x2="99" y1="776.3516" y2="789.3516"/><line style="stroke:#181818;stroke-width:1.0;" x1="58" x2="99" y1="789.3516" y2="789.3516"/><polygon fill="#181818" points="68,785.3516,58,789.3516,68,793.3516,64,789.3516" style="stroke:#181818;stroke-width:1.0;"/><text fill="#000000" font-family="sans-serif" font-size="13" lengthAdjust="spacing" textLength="182" x="64" y="771.2856">&#29992;&#25143;&#33258;&#23450;&#20041;&#25805;&#20316;&#65292;&#20063;&#21487;&#20197;&#19981;&#22788;&#29702;</text><line style="stroke:#000000;stroke-width:1.0;stroke-dasharray:2.0,2.0;" x1="20" x2="441" y1="805.3516" y2="805.3516"/><polygon fill="#181818" points="68,823.4844,58,827.4844,68,831.4844,64,827.4844" style="stroke:#181818;stroke-width:1.0;"/><line style="stroke:#181818;stroke-width:1.0;" x1="62" x2="376" y1="827.4844" y2="827.4844"/><text fill="#000000" font-family="sans-serif" font-size="13" lengthAdjust="spacing" textLength="39" x="74" y="822.4185">&#20107;&#20214;&#65306;</text><text fill="#FF3333" font-family="sans-serif" font-size="13" font-weight="bold" lengthAdjust="spacing" textLength="56" x="113" y="822.4185">&#35782;&#21035;&#36229;&#26102;</text><path d="M30,842.4844 L102,842.4844 L102,849.6172 L92,859.6172 L30,859.6172 L30,842.4844 " fill="#EEEEEE" style="stroke:#000000;stroke-width:1.5;"/><rect fill="none" height="59.2656" style="stroke:#000000;stroke-width:1.5;" width="228" x="30" y="842.4844"/><text fill="#000000" font-family="sans-serif" font-size="13" font-weight="bold" lengthAdjust="spacing" textLength="27" x="45" y="855.5513">opt</text><text fill="#000000" font-family="sans-serif" font-size="11" font-weight="bold" lengthAdjust="spacing" textLength="32" x="117" y="854.6948">[&#21487;&#36873;]</text><line style="stroke:#181818;stroke-width:1.0;" x1="57" x2="99" y1="880.75" y2="880.75"/><line style="stroke:#181818;stroke-width:1.0;" x1="99" x2="99" y1="880.75" y2="893.75"/><line style="stroke:#181818;stroke-width:1.0;" x1="58" x2="99" y1="893.75" y2="893.75"/><polygon fill="#181818" points="68,889.75,58,893.75,68,897.75,64,893.75" style="stroke:#181818;stroke-width:1.0;"/><text fill="#000000" font-family="sans-serif" font-size="13" lengthAdjust="spacing" textLength="182" x="64" y="875.6841">&#29992;&#25143;&#33258;&#23450;&#20041;&#25805;&#20316;&#65292;&#20063;&#21487;&#20197;&#19981;&#22788;&#29702;</text><line style="stroke:#000000;stroke-width:1.0;stroke-dasharray:2.0,2.0;" x1="20" x2="441" y1="909.75" y2="909.75"/><polygon fill="#181818" points="68,927.8828,58,931.8828,68,935.8828,64,931.8828" style="stroke:#181818;stroke-width:1.0;"/><line style="stroke:#181818;stroke-width:1.0;" x1="62" x2="376" y1="931.8828" y2="931.8828"/><text fill="#000000" font-family="sans-serif" font-size="13" lengthAdjust="spacing" textLength="39" x="74" y="926.8169">&#20107;&#20214;&#65306;</text><text fill="#FF3333" font-family="sans-serif" font-size="13" font-weight="bold" lengthAdjust="spacing" textLength="98" x="113" y="926.8169">&#34987;&#25353;&#38190;&#35302;&#21457;&#28608;&#27963;</text><path d="M30,946.8828 L102,946.8828 L102,954.0156 L92,964.0156 L30,964.0156 L30,946.8828 " fill="#EEEEEE" style="stroke:#000000;stroke-width:1.5;"/><rect fill="none" height="59.2656" style="stroke:#000000;stroke-width:1.5;" width="228" x="30" y="946.8828"/><text fill="#000000" font-family="sans-serif" font-size="13" font-weight="bold" lengthAdjust="spacing" textLength="27" x="45" y="959.9497">opt</text><text fill="#000000" font-family="sans-serif" font-size="11" font-weight="bold" lengthAdjust="spacing" textLength="32" x="117" y="959.0933">[&#21487;&#36873;]</text><line style="stroke:#181818;stroke-width:1.0;" x1="57" x2="99" y1="985.1484" y2="985.1484"/><line style="stroke:#181818;stroke-width:1.0;" x1="99" x2="99" y1="985.1484" y2="998.1484"/><line style="stroke:#181818;stroke-width:1.0;" x1="58" x2="99" y1="998.1484" y2="998.1484"/><polygon fill="#181818" points="68,994.1484,58,998.1484,68,1002.1484,64,998.1484" style="stroke:#181818;stroke-width:1.0;"/><text fill="#000000" font-family="sans-serif" font-size="13" lengthAdjust="spacing" textLength="182" x="64" y="980.0825">&#29992;&#25143;&#33258;&#23450;&#20041;&#25805;&#20316;&#65292;&#20063;&#21487;&#20197;&#19981;&#22788;&#29702;</text><line style="stroke:#000000;stroke-width:1.0;stroke-dasharray:2.0,2.0;" x1="20" x2="441" y1="1014.1484" y2="1014.1484"/><polygon fill="#181818" points="68,1032.2813,58,1036.2813,68,1040.2813,64,1036.2813" style="stroke:#181818;stroke-width:1.0;"/><line style="stroke:#181818;stroke-width:1.0;" x1="62" x2="376" y1="1036.2813" y2="1036.2813"/><text fill="#000000" font-family="sans-serif" font-size="13" lengthAdjust="spacing" textLength="39" x="74" y="1031.2153">&#20107;&#20214;&#65306;</text><text fill="#FF3333" font-family="sans-serif" font-size="13" font-weight="bold" lengthAdjust="spacing" textLength="112" x="113" y="1031.2153">&#34987;&#20851;&#38190;&#35789;&#35302;&#21457;&#28608;&#27963;</text><path d="M30,1051.2813 L102,1051.2813 L102,1058.4141 L92,1068.4141 L30,1068.4141 L30,1051.2813 " fill="#EEEEEE" style="stroke:#000000;stroke-width:1.5;"/><rect fill="none" height="59.2656" style="stroke:#000000;stroke-width:1.5;" width="228" x="30" y="1051.2813"/><text fill="#000000" font-family="sans-serif" font-size="13" font-weight="bold" lengthAdjust="spacing" textLength="27" x="45" y="1064.3481">opt</text><text fill="#000000" font-family="sans-serif" font-size="11" font-weight="bold" lengthAdjust="spacing" textLength="32" x="117" y="1063.4917">[&#21487;&#36873;]</text><line style="stroke:#181818;stroke-width:1.0;" x1="57" x2="99" y1="1089.5469" y2="1089.5469"/><line style="stroke:#181818;stroke-width:1.0;" x1="99" x2="99" y1="1089.5469" y2="1102.5469"/><line style="stroke:#181818;stroke-width:1.0;" x1="58" x2="99" y1="1102.5469" y2="1102.5469"/><polygon fill="#181818" points="68,1098.5469,58,1102.5469,68,1106.5469,64,1102.5469" style="stroke:#181818;stroke-width:1.0;"/><text fill="#000000" font-family="sans-serif" font-size="13" lengthAdjust="spacing" textLength="182" x="64" y="1084.481">&#29992;&#25143;&#33258;&#23450;&#20041;&#25805;&#20316;&#65292;&#20063;&#21487;&#20197;&#19981;&#22788;&#29702;</text><line style="stroke:#000000;stroke-width:1.0;stroke-dasharray:2.0,2.0;" x1="20" x2="441" y1="1118.5469" y2="1118.5469"/><polygon fill="#181818" points="68,1136.6797,58,1140.6797,68,1144.6797,64,1140.6797" style="stroke:#181818;stroke-width:1.0;"/><line style="stroke:#181818;stroke-width:1.0;" x1="62" x2="376" y1="1140.6797" y2="1140.6797"/><text fill="#000000" font-family="sans-serif" font-size="13" lengthAdjust="spacing" textLength="52" x="74" y="1135.6138">&#20107;&#20214;&#65306;&#65306;</text><text fill="#FF3333" font-family="sans-serif" font-size="13" font-weight="bold" lengthAdjust="spacing" textLength="14" x="126" y="1135.6138">&#26080;</text><path d="M30,1155.6797 L102,1155.6797 L102,1162.8125 L92,1172.8125 L30,1172.8125 L30,1155.6797 " fill="#EEEEEE" style="stroke:#000000;stroke-width:1.5;"/><rect fill="none" height="59.2656" style="stroke:#000000;stroke-width:1.5;" width="228" x="30" y="1155.6797"/><text fill="#000000" font-family="sans-serif" font-size="13" font-weight="bold" lengthAdjust="spacing" textLength="27" x="45" y="1168.7466">opt</text><text fill="#000000" font-family="sans-serif" font-size="11" font-weight="bold" lengthAdjust="spacing" textLength="32" x="117" y="1167.8901">[&#21487;&#36873;]</text><line style="stroke:#181818;stroke-width:1.0;" x1="57" x2="99" y1="1193.9453" y2="1193.9453"/><line style="stroke:#181818;stroke-width:1.0;" x1="99" x2="99" y1="1193.9453" y2="1206.9453"/><line style="stroke:#181818;stroke-width:1.0;" x1="58" x2="99" y1="1206.9453" y2="1206.9453"/><polygon fill="#181818" points="68,1202.9453,58,1206.9453,68,1210.9453,64,1206.9453" style="stroke:#181818;stroke-width:1.0;"/><text fill="#000000" font-family="sans-serif" font-size="13" lengthAdjust="spacing" textLength="182" x="64" y="1188.8794">&#29992;&#25143;&#33258;&#23450;&#20041;&#25805;&#20316;&#65292;&#20063;&#21487;&#20197;&#19981;&#22788;&#29702;</text><!--SRC=[rLNTJzfG57_lNt4JNkHXqMNnXP0-x05VzWTiZuYTCscemRgzOYBAHn6c1fOE10qE8g7T8a6XoFwOtNFRFlalx9PR6MeNgibSRFfnUkxv-9sFUsuq9ai9P1wsIFe2HJTSYkDM4zBcEe9q5PevK4eSkf5vmIDBxzYrSqlVWNIRj8wXMWxTaep6vBMFKLdm44I1I2Io45cSQS_IHkQLPZM_GU6pmniMvgpTCyYsVYMt87Lk7sgMdgSqKJAKdcR2liAOGUf4MfSH57GxcQ4_FdtsKgJSexTTxbuF5TluOcaDV3bOD9lxr8WGNva9dbmOaAqp7aL4giTp2y77QBtqgqM-Tg6XJki-njtR8EU4TrFyqPcvfy-kb6v0eOG7EMpqdEABSc194bTGuCtQwWTvAI48SIVt7hr03JBJ8SJKGoYyp8TZaaXRaZRAAthnhaQw2DbQU7wyneVdbtaE-GF6UAPnG8ugit7yaRlJELE-9hBZhzELcehx6NAGnrSLsZ6uNwEAs3Z5btbeR9l57SS2wnj1t13SpBmJH57wv3yr7hanEnaOfTWckPkRVux_jRWf-4L_FLJleuTXaeuCflZaw1-MVK_yxjOPZuldbtthfCt6f3jZVoP9rtYMPJXfJsR_VutbWINn38QKwq-4cxwT9oxHSreKtiiS5IAb3bI-OsFlVWYtfZofzqbUSwmM5LFTPbppXm57ETXIONSmMQ87zb-nKFV8SVyR]--></g></svg>