<?xml version="1.0" encoding="UTF-8" standalone="no"?>
<!DOCTYPE svg PUBLIC "-//W3C//DTD SVG 1.1//EN"
 "http://www.w3.org/Graphics/SVG/1.1/DTD/svg11.dtd">
<!-- Generated by graphviz version 2.40.1 (20161225.0304)
 -->
<!-- Title: %0 Pages: 1 -->
<svg width="666pt" height="934pt"
 viewBox="0.00 0.00 666.08 933.80" xmlns="http://www.w3.org/2000/svg" xmlns:xlink="http://www.w3.org/1999/xlink">
<g id="graph0" class="graph" transform="scale(1 1) rotate(0) translate(4 929.8)">
<title>%0</title>
<polygon fill="#ffffff" stroke="transparent" points="-4,4 -4,-929.8 662.0788,-929.8 662.0788,4 -4,4"/>
<text text-anchor="middle" x="329.0394" y="-8.2" font-family="Courier New" font-size="14.00" fill="#000000">关键词或者按键触发识别模式流程图</text>
<!-- start -->
<g id="node1" class="node">
<title>start</title>
<ellipse fill="none" stroke="#000000" cx="163.0788" cy="-907.8" rx="45.5923" ry="18"/>
<text text-anchor="middle" x="163.0788" y="-903.6" font-family="Courier New" font-size="14.00" fill="#000000">开始</text>
</g>
<!-- signal_led_reset -->
<g id="node17" class="node">
<title>signal_led_reset</title>
<polygon fill="none" stroke="#000000" points="221.3622,-853.8 104.7954,-853.8 104.7954,-817.8 221.3622,-817.8 221.3622,-853.8"/>
<text text-anchor="middle" x="163.0788" y="-831.6" font-family="Courier New" font-size="14.00" fill="#000000">信号灯灭</text>
</g>
<!-- start&#45;&gt;signal_led_reset -->
<g id="edge1" class="edge">
<title>start&#45;&gt;signal_led_reset</title>
<path fill="none" stroke="#000000" d="M163.0788,-889.6314C163.0788,-889.6314 163.0788,-864.2133 163.0788,-864.2133"/>
<polygon fill="#000000" stroke="#000000" points="166.5789,-864.2132 163.0788,-854.2133 159.5789,-864.2133 166.5789,-864.2132"/>
</g>
<!-- event_wait_for_trigger -->
<g id="node2" class="node">
<title>event_wait_for_trigger</title>
<polygon fill="none" stroke="#000000" points="284.3411,-781.8 41.8165,-781.8 41.8165,-745.8 284.3411,-745.8 284.3411,-781.8"/>
<text text-anchor="middle" x="163.0788" y="-759.6" font-family="Courier New" font-size="14.00" fill="#000000">生成事件：等待触发</text>
</g>
<!-- wait_for_trigger -->
<g id="node3" class="node">
<title>wait_for_trigger</title>
<polygon fill="none" stroke="#000000" points="16.5019,-673.3 16.5019,-709.3 309.6557,-709.3 309.6557,-673.3 16.5019,-673.3"/>
<text text-anchor="middle" x="163.0788" y="-687.1" font-family="Courier New" font-size="14.00" fill="#000000">等待关键词或者按键触发</text>
</g>
<!-- event_wait_for_trigger&#45;&gt;wait_for_trigger -->
<g id="edge3" class="edge">
<title>event_wait_for_trigger&#45;&gt;wait_for_trigger</title>
<path fill="none" stroke="#000000" d="M163.0788,-745.5052C163.0788,-745.5052 163.0788,-719.3378 163.0788,-719.3378"/>
<polygon fill="#000000" stroke="#000000" points="166.5789,-719.3378 163.0788,-709.3378 159.5789,-719.3378 166.5789,-719.3378"/>
</g>
<!-- is_triggered_by_keyword -->
<g id="node4" class="node">
<title>is_triggered_by_keyword</title>
<polygon fill="none" stroke="#000000" points="163.0788,-636.8 -.0788,-618.8 163.0788,-600.8 326.2364,-618.8 163.0788,-636.8"/>
<text text-anchor="middle" x="163.0788" y="-614.6" font-family="Courier New" font-size="14.00" fill="#000000">关键词触发？</text>
</g>
<!-- wait_for_trigger&#45;&gt;is_triggered_by_keyword -->
<g id="edge4" class="edge">
<title>wait_for_trigger&#45;&gt;is_triggered_by_keyword</title>
<path fill="none" stroke="#000000" d="M163.0788,-673.0052C163.0788,-673.0052 163.0788,-646.8378 163.0788,-646.8378"/>
<polygon fill="#000000" stroke="#000000" points="166.5789,-646.8378 163.0788,-636.8378 159.5789,-646.8378 166.5789,-646.8378"/>
</g>
<!-- is_triggered_by_button -->
<g id="node5" class="node">
<title>is_triggered_by_button</title>
<polygon fill="none" stroke="#000000" points="483.0788,-636.8 344.5781,-618.8 483.0788,-600.8 621.5795,-618.8 483.0788,-636.8"/>
<text text-anchor="middle" x="483.0788" y="-614.6" font-family="Courier New" font-size="14.00" fill="#000000">按键触发？</text>
</g>
<!-- is_triggered_by_keyword&#45;&gt;is_triggered_by_button -->
<g id="edge5" class="edge">
<title>is_triggered_by_keyword&#45;&gt;is_triggered_by_button</title>
<path fill="none" stroke="#000000" d="M326.3598,-618.8C326.3598,-618.8 334.3353,-618.8 334.3353,-618.8"/>
<polygon fill="#000000" stroke="#000000" points="334.3354,-622.3001 344.3353,-618.8 334.3353,-615.3001 334.3354,-622.3001"/>
<text text-anchor="middle" x="338.9577" y="-623" font-family="Courier New" font-size="14.00" fill="#000000">否</text>
</g>
<!-- event_triggered_by_keyword -->
<g id="node6" class="node">
<title>event_triggered_by_keyword</title>
<polygon fill="none" stroke="#000000" points="297.0368,-564.8 29.1208,-564.8 29.1208,-528.8 297.0368,-528.8 297.0368,-564.8"/>
<text text-anchor="middle" x="163.0788" y="-542.6" font-family="Courier New" font-size="14.00" fill="#000000">生成事件：关键词触发</text>
</g>
<!-- is_triggered_by_keyword&#45;&gt;event_triggered_by_keyword -->
<g id="edge9" class="edge">
<title>is_triggered_by_keyword&#45;&gt;event_triggered_by_keyword</title>
<path fill="none" stroke="#000000" d="M163.0788,-600.6314C163.0788,-600.6314 163.0788,-575.2133 163.0788,-575.2133"/>
<polygon fill="#000000" stroke="#000000" points="166.5789,-575.2132 163.0788,-565.2133 159.5789,-575.2133 166.5789,-575.2132"/>
<text text-anchor="middle" x="150.4809" y="-588.0314" font-family="Courier New" font-size="14.00" fill="#000000">是</text>
</g>
<!-- event_triggered_by_button -->
<g id="node7" class="node">
<title>event_triggered_by_button</title>
<polygon fill="none" stroke="#000000" points="604.3411,-564.8 361.8165,-564.8 361.8165,-528.8 604.3411,-528.8 604.3411,-564.8"/>
<text text-anchor="middle" x="483.0788" y="-542.6" font-family="Courier New" font-size="14.00" fill="#000000">生成事件：按键触发</text>
</g>
<!-- is_triggered_by_button&#45;&gt;event_triggered_by_button -->
<g id="edge7" class="edge">
<title>is_triggered_by_button&#45;&gt;event_triggered_by_button</title>
<path fill="none" stroke="#000000" d="M483.0788,-600.6314C483.0788,-600.6314 483.0788,-575.2133 483.0788,-575.2133"/>
<polygon fill="#000000" stroke="#000000" points="486.5789,-575.2132 483.0788,-565.2133 479.5789,-575.2133 486.5789,-575.2132"/>
<text text-anchor="middle" x="470.4809" y="-588.0314" font-family="Courier New" font-size="14.00" fill="#000000">是</text>
</g>
<!-- point_1 -->
<g id="node18" class="node">
<title>point_1</title>
<ellipse fill="#000000" stroke="#000000" cx="640.0788" cy="-618.8" rx="0" ry="0"/>
</g>
<!-- is_triggered_by_button&#45;&gt;point_1 -->
<g id="edge6" class="edge">
<title>is_triggered_by_button&#45;&gt;point_1</title>
<path fill="none" stroke="#000000" d="M621.7616,-618.8C632.2631,-618.8 639.1734,-618.8 639.9962,-618.8"/>
<text text-anchor="middle" x="634.3595" y="-623" font-family="Courier New" font-size="14.00" fill="#000000">否</text>
</g>
<!-- signal_led_set -->
<g id="node15" class="node">
<title>signal_led_set</title>
<polygon fill="none" stroke="#000000" points="221.3622,-492.8 104.7954,-492.8 104.7954,-456.8 221.3622,-456.8 221.3622,-492.8"/>
<text text-anchor="middle" x="163.0788" y="-470.6" font-family="Courier New" font-size="14.00" fill="#000000">信号灯亮</text>
</g>
<!-- event_triggered_by_keyword&#45;&gt;signal_led_set -->
<g id="edge12" class="edge">
<title>event_triggered_by_keyword&#45;&gt;signal_led_set</title>
<path fill="none" stroke="#000000" d="M163.0788,-528.6314C163.0788,-528.6314 163.0788,-503.2133 163.0788,-503.2133"/>
<polygon fill="#000000" stroke="#000000" points="166.5789,-503.2132 163.0788,-493.2133 159.5789,-503.2133 166.5789,-503.2132"/>
</g>
<!-- point_6 -->
<g id="node23" class="node">
<title>point_6</title>
<ellipse fill="#000000" stroke="#000000" cx="483.0788" cy="-474.8" rx="0" ry="0"/>
</g>
<!-- event_triggered_by_button&#45;&gt;point_6 -->
<g id="edge10" class="edge">
<title>event_triggered_by_button&#45;&gt;point_6</title>
<path fill="none" stroke="#000000" d="M483.0788,-528.6314C483.0788,-507.9685 483.0788,-476.8205 483.0788,-474.8939"/>
</g>
<!-- start_recoginzing -->
<g id="node8" class="node">
<title>start_recoginzing</title>
<polygon fill="none" stroke="#000000" points="259.4498,-348.8 66.7078,-348.8 66.7078,-312.8 259.4498,-312.8 259.4498,-348.8"/>
<text text-anchor="middle" x="163.0788" y="-326.6" font-family="Courier New" font-size="14.00" fill="#000000">开始识别索引词</text>
</g>
<!-- is_recoginzed_success -->
<g id="node10" class="node">
<title>is_recoginzed_success</title>
<polygon fill="none" stroke="#000000" points="163.0788,-276.8 24.5781,-258.8 163.0788,-240.8 301.5795,-258.8 163.0788,-276.8"/>
<text text-anchor="middle" x="163.0788" y="-254.6" font-family="Courier New" font-size="14.00" fill="#000000">识别成功？</text>
</g>
<!-- start_recoginzing&#45;&gt;is_recoginzed_success -->
<g id="edge15" class="edge">
<title>start_recoginzing&#45;&gt;is_recoginzed_success</title>
<path fill="none" stroke="#000000" d="M163.0788,-312.6314C163.0788,-312.6314 163.0788,-287.2133 163.0788,-287.2133"/>
<polygon fill="#000000" stroke="#000000" points="166.5789,-287.2132 163.0788,-277.2133 159.5789,-287.2133 166.5789,-287.2132"/>
</g>
<!-- event_start_recognizing -->
<g id="node9" class="node">
<title>event_start_recognizing</title>
<polygon fill="none" stroke="#000000" points="284.3411,-420.8 41.8165,-420.8 41.8165,-384.8 284.3411,-384.8 284.3411,-420.8"/>
<text text-anchor="middle" x="163.0788" y="-398.6" font-family="Courier New" font-size="14.00" fill="#000000">生成事件：开始识别</text>
</g>
<!-- event_start_recognizing&#45;&gt;start_recoginzing -->
<g id="edge14" class="edge">
<title>event_start_recognizing&#45;&gt;start_recoginzing</title>
<path fill="none" stroke="#000000" d="M163.0788,-384.6314C163.0788,-384.6314 163.0788,-359.2133 163.0788,-359.2133"/>
<polygon fill="#000000" stroke="#000000" points="166.5789,-359.2132 163.0788,-349.2133 159.5789,-359.2133 166.5789,-359.2132"/>
</g>
<!-- is_recoginzed_timeout -->
<g id="node11" class="node">
<title>is_recoginzed_timeout</title>
<polygon fill="none" stroke="#000000" points="458.0788,-276.8 319.5781,-258.8 458.0788,-240.8 596.5795,-258.8 458.0788,-276.8"/>
<text text-anchor="middle" x="458.0788" y="-254.6" font-family="Courier New" font-size="14.00" fill="#000000">识别超时？</text>
</g>
<!-- is_recoginzed_success&#45;&gt;is_recoginzed_timeout -->
<g id="edge16" class="edge">
<title>is_recoginzed_success&#45;&gt;is_recoginzed_timeout</title>
<path fill="none" stroke="#000000" d="M301.9406,-258.8C301.9406,-258.8 309.4428,-258.8 309.4428,-258.8"/>
<polygon fill="#000000" stroke="#000000" points="309.4429,-262.3001 319.4428,-258.8 309.4428,-255.3001 309.4429,-262.3001"/>
<text text-anchor="middle" x="314.5385" y="-263" font-family="Courier New" font-size="14.00" fill="#000000">否</text>
</g>
<!-- event_result -->
<g id="node13" class="node">
<title>event_result</title>
<polygon fill="none" stroke="#000000" points="221.3622,-204.8 104.7954,-204.8 104.7954,-168.8 221.3622,-168.8 221.3622,-204.8"/>
<text text-anchor="middle" x="163.0788" y="-182.6" font-family="Courier New" font-size="14.00" fill="#000000">生成结果</text>
</g>
<!-- is_recoginzed_success&#45;&gt;event_result -->
<g id="edge19" class="edge">
<title>is_recoginzed_success&#45;&gt;event_result</title>
<path fill="none" stroke="#000000" d="M163.0788,-240.6314C163.0788,-240.6314 163.0788,-215.2133 163.0788,-215.2133"/>
<polygon fill="#000000" stroke="#000000" points="166.5789,-215.2132 163.0788,-205.2133 159.5789,-215.2133 166.5789,-215.2132"/>
<text text-anchor="middle" x="150.4809" y="-228.0314" font-family="Courier New" font-size="14.00" fill="#000000">是</text>
</g>
<!-- event_recognized_timeout -->
<g id="node14" class="node">
<title>event_recognized_timeout</title>
<polygon fill="none" stroke="#000000" points="579.3411,-204.8 336.8165,-204.8 336.8165,-168.8 579.3411,-168.8 579.3411,-204.8"/>
<text text-anchor="middle" x="458.0788" y="-182.6" font-family="Courier New" font-size="14.00" fill="#000000">生成事件：识别超时</text>
</g>
<!-- is_recoginzed_timeout&#45;&gt;event_recognized_timeout -->
<g id="edge21" class="edge">
<title>is_recoginzed_timeout&#45;&gt;event_recognized_timeout</title>
<path fill="none" stroke="#000000" d="M458.0788,-240.6314C458.0788,-240.6314 458.0788,-215.2133 458.0788,-215.2133"/>
<polygon fill="#000000" stroke="#000000" points="461.5789,-215.2132 458.0788,-205.2133 454.5789,-215.2133 461.5789,-215.2132"/>
<text text-anchor="middle" x="445.4809" y="-228.0314" font-family="Courier New" font-size="14.00" fill="#000000">是</text>
</g>
<!-- point_2 -->
<g id="node19" class="node">
<title>point_2</title>
<ellipse fill="#000000" stroke="#000000" cx="615.0788" cy="-258.8" rx="0" ry="0"/>
</g>
<!-- is_recoginzed_timeout&#45;&gt;point_2 -->
<g id="edge17" class="edge">
<title>is_recoginzed_timeout&#45;&gt;point_2</title>
<path fill="none" stroke="#000000" d="M596.7616,-258.8C607.2631,-258.8 614.1734,-258.8 614.9962,-258.8"/>
<text text-anchor="middle" x="609.3595" y="-263" font-family="Courier New" font-size="14.00" fill="#000000">否</text>
</g>
<!-- event_recognized_success -->
<g id="node12" class="node">
<title>event_recognized_success</title>
<polygon fill="none" stroke="#000000" points="284.3411,-132.8 41.8165,-132.8 41.8165,-96.8 284.3411,-96.8 284.3411,-132.8"/>
<text text-anchor="middle" x="163.0788" y="-110.6" font-family="Courier New" font-size="14.00" fill="#000000">生成事件：识别成功</text>
</g>
<!-- signal_led_blink -->
<g id="node16" class="node">
<title>signal_led_blink</title>
<polygon fill="none" stroke="#000000" points="250.6527,-60.8 75.5049,-60.8 75.5049,-24.8 250.6527,-24.8 250.6527,-60.8"/>
<text text-anchor="middle" x="163.0788" y="-38.6" font-family="Courier New" font-size="14.00" fill="#000000">信号灯闪烁1秒</text>
</g>
<!-- event_recognized_success&#45;&gt;signal_led_blink -->
<g id="edge22" class="edge">
<title>event_recognized_success&#45;&gt;signal_led_blink</title>
<path fill="none" stroke="#000000" d="M163.0788,-96.6314C163.0788,-96.6314 163.0788,-71.2133 163.0788,-71.2133"/>
<polygon fill="#000000" stroke="#000000" points="166.5789,-71.2132 163.0788,-61.2133 159.5789,-71.2133 166.5789,-71.2132"/>
</g>
<!-- event_result&#45;&gt;event_recognized_success -->
<g id="edge20" class="edge">
<title>event_result&#45;&gt;event_recognized_success</title>
<path fill="none" stroke="#000000" d="M163.0788,-168.6314C163.0788,-168.6314 163.0788,-143.2133 163.0788,-143.2133"/>
<polygon fill="#000000" stroke="#000000" points="166.5789,-143.2132 163.0788,-133.2133 159.5789,-143.2133 166.5789,-143.2132"/>
</g>
<!-- point_3 -->
<g id="node20" class="node">
<title>point_3</title>
<ellipse fill="#000000" stroke="#000000" cx="458.0788" cy="-42.8" rx="0" ry="0"/>
</g>
<!-- event_recognized_timeout&#45;&gt;point_3 -->
<g id="edge23" class="edge">
<title>event_recognized_timeout&#45;&gt;point_3</title>
<path fill="none" stroke="#000000" d="M458.0788,-168.5623C458.0788,-168.5623 458.0788,-52.8632 458.0788,-52.8632"/>
<polygon fill="#000000" stroke="#000000" points="461.5789,-52.8632 458.0788,-42.8632 454.5789,-52.8632 461.5789,-52.8632"/>
</g>
<!-- signal_led_set&#45;&gt;event_start_recognizing -->
<g id="edge13" class="edge">
<title>signal_led_set&#45;&gt;event_start_recognizing</title>
<path fill="none" stroke="#000000" d="M163.0788,-456.6314C163.0788,-456.6314 163.0788,-431.2133 163.0788,-431.2133"/>
<polygon fill="#000000" stroke="#000000" points="166.5789,-431.2132 163.0788,-421.2133 159.5789,-431.2133 166.5789,-431.2132"/>
</g>
<!-- signal_led_blink&#45;&gt;point_3 -->
<g id="edge24" class="edge">
<title>signal_led_blink&#45;&gt;point_3</title>
<path fill="none" stroke="#000000" d="M250.7898,-42.8C336.3891,-42.8 454.3266,-42.8 457.9913,-42.8"/>
</g>
<!-- signal_led_reset&#45;&gt;event_wait_for_trigger -->
<g id="edge2" class="edge">
<title>signal_led_reset&#45;&gt;event_wait_for_trigger</title>
<path fill="none" stroke="#000000" d="M163.0788,-817.6314C163.0788,-817.6314 163.0788,-792.2133 163.0788,-792.2133"/>
<polygon fill="#000000" stroke="#000000" points="166.5789,-792.2132 163.0788,-782.2133 159.5789,-792.2133 166.5789,-792.2132"/>
</g>
<!-- point_1&#45;&gt;wait_for_trigger -->
<g id="edge8" class="edge">
<title>point_1&#45;&gt;wait_for_trigger</title>
<path fill="none" stroke="#000000" d="M640.0788,-618.8522C640.0788,-621.0324 640.0788,-690.8 640.0788,-690.8 640.0788,-690.8 319.7614,-690.8 319.7614,-690.8"/>
<polygon fill="#000000" stroke="#000000" points="319.7614,-687.3001 309.7614,-690.8 319.7613,-694.3001 319.7614,-687.3001"/>
</g>
<!-- point_2&#45;&gt;start_recoginzing -->
<g id="edge18" class="edge">
<title>point_2&#45;&gt;start_recoginzing</title>
<path fill="none" stroke="#000000" d="M615.0788,-258.8522C615.0788,-261.0324 615.0788,-330.8 615.0788,-330.8 615.0788,-330.8 269.4897,-330.8 269.4897,-330.8"/>
<polygon fill="#000000" stroke="#000000" points="269.4898,-327.3001 259.4897,-330.8 269.4897,-334.3001 269.4898,-327.3001"/>
</g>
<!-- point_4 -->
<g id="node21" class="node">
<title>point_4</title>
<ellipse fill="#000000" stroke="#000000" cx="658.0788" cy="-42.8" rx="0" ry="0"/>
</g>
<!-- point_3&#45;&gt;point_4 -->
<g id="edge25" class="edge">
<title>point_3&#45;&gt;point_4</title>
<path fill="none" stroke="#000000" d="M458.2238,-42.8C458.2238,-42.8 647.9383,-42.8 647.9383,-42.8"/>
<polygon fill="#000000" stroke="#000000" points="647.9384,-46.3001 657.9383,-42.8 647.9383,-39.3001 647.9384,-46.3001"/>
</g>
<!-- point_5 -->
<g id="node22" class="node">
<title>point_5</title>
<ellipse fill="#000000" stroke="#000000" cx="658.0788" cy="-618.8" rx="0" ry="0"/>
</g>
<!-- point_4&#45;&gt;point_5 -->
<g id="edge26" class="edge">
<title>point_4&#45;&gt;point_5</title>
<path fill="none" stroke="#000000" d="M658.0788,-42.9049C658.0788,-51.6956 658.0788,-609.9741 658.0788,-618.6967"/>
</g>
<!-- point_5&#45;&gt;signal_led_reset -->
<g id="edge27" class="edge">
<title>point_5&#45;&gt;signal_led_reset</title>
<path fill="none" stroke="#000000" d="M658.0788,-618.9573C658.0788,-625.5283 658.0788,-835.8 658.0788,-835.8 658.0788,-835.8 231.8056,-835.8 231.8056,-835.8"/>
<polygon fill="#000000" stroke="#000000" points="231.8057,-832.3001 221.8056,-835.8 231.8056,-839.3001 231.8057,-832.3001"/>
</g>
<!-- point_6&#45;&gt;signal_led_set -->
<g id="edge11" class="edge">
<title>point_6&#45;&gt;signal_led_set</title>
<path fill="none" stroke="#000000" d="M483.0205,-474.8C483.0205,-474.8 231.6961,-474.8 231.6961,-474.8"/>
<polygon fill="#000000" stroke="#000000" points="231.6961,-471.3001 221.6961,-474.8 231.6961,-478.3001 231.6961,-471.3001"/>
</g>
</g>
</svg>
