<?xml version="1.0" encoding="UTF-8" standalone="no"?>
<!DOCTYPE svg PUBLIC "-//W3C//DTD SVG 1.1//EN"
 "http://www.w3.org/Graphics/SVG/1.1/DTD/svg11.dtd">
<!-- Generated by graphviz version 2.40.1 (20161225.0304)
 -->
<!-- Title: %0 Pages: 1 -->
<svg width="694pt" height="945pt"
 viewBox="0.00 0.00 694.08 944.80" xmlns="http://www.w3.org/2000/svg" xmlns:xlink="http://www.w3.org/1999/xlink">
<g id="graph0" class="graph" transform="scale(1 1) rotate(0) translate(4 940.8)">
<title>%0</title>
<polygon fill="#ffffff" stroke="transparent" points="-4,4 -4,-940.8 690.0788,-940.8 690.0788,4 -4,4"/>
<text text-anchor="middle" x="343.0394" y="-8.2" font-family="Courier New" font-size="14.00" fill="#000000">关键词触发识别模式流程图</text>
<!-- start -->
<g id="node1" class="node">
<title>start</title>
<ellipse fill="none" stroke="#000000" cx="163.0788" cy="-918.8" rx="45.5923" ry="18"/>
<text text-anchor="middle" x="163.0788" y="-914.6" font-family="Courier New" font-size="14.00" fill="#000000">开始</text>
</g>
<!-- signal_led_reset -->
<g id="node15" class="node">
<title>signal_led_reset</title>
<polygon fill="none" stroke="#000000" points="221.3622,-863.8 104.7954,-863.8 104.7954,-827.8 221.3622,-827.8 221.3622,-863.8"/>
<text text-anchor="middle" x="163.0788" y="-841.6" font-family="Courier New" font-size="14.00" fill="#000000">信号灯灭</text>
</g>
<!-- start&#45;&gt;signal_led_reset -->
<g id="edge1" class="edge">
<title>start&#45;&gt;signal_led_reset</title>
<path fill="none" stroke="#000000" d="M163.0788,-900.7551C163.0788,-900.7551 163.0788,-873.8904 163.0788,-873.8904"/>
<polygon fill="#000000" stroke="#000000" points="166.5789,-873.8903 163.0788,-863.8904 159.5789,-873.8904 166.5789,-873.8903"/>
</g>
<!-- event_wait_for_trigger -->
<g id="node2" class="node">
<title>event_wait_for_trigger</title>
<polygon fill="none" stroke="#000000" points="284.3411,-790.8 41.8165,-790.8 41.8165,-754.8 284.3411,-754.8 284.3411,-790.8"/>
<text text-anchor="middle" x="163.0788" y="-768.6" font-family="Courier New" font-size="14.00" fill="#000000">生成事件：等待触发</text>
</g>
<!-- wait_for_trigger -->
<g id="node3" class="node">
<title>wait_for_trigger</title>
<polygon fill="none" stroke="#000000" points="259.4498,-717.8 66.7078,-717.8 66.7078,-681.8 259.4498,-681.8 259.4498,-717.8"/>
<text text-anchor="middle" x="163.0788" y="-695.6" font-family="Courier New" font-size="14.00" fill="#000000">等待关键词触发</text>
</g>
<!-- event_wait_for_trigger&#45;&gt;wait_for_trigger -->
<g id="edge3" class="edge">
<title>event_wait_for_trigger&#45;&gt;wait_for_trigger</title>
<path fill="none" stroke="#000000" d="M163.0788,-754.7551C163.0788,-754.7551 163.0788,-727.8904 163.0788,-727.8904"/>
<polygon fill="#000000" stroke="#000000" points="166.5789,-727.8903 163.0788,-717.8904 159.5789,-727.8904 166.5789,-727.8903"/>
</g>
<!-- is_triggered_by_keyword -->
<g id="node4" class="node">
<title>is_triggered_by_keyword</title>
<polygon fill="none" stroke="#000000" points="163.0788,-644.8 -.0788,-626.8 163.0788,-608.8 326.2364,-626.8 163.0788,-644.8"/>
<text text-anchor="middle" x="163.0788" y="-622.6" font-family="Courier New" font-size="14.00" fill="#000000">关键词触发？</text>
</g>
<!-- wait_for_trigger&#45;&gt;is_triggered_by_keyword -->
<g id="edge4" class="edge">
<title>wait_for_trigger&#45;&gt;is_triggered_by_keyword</title>
<path fill="none" stroke="#000000" d="M163.0788,-681.7551C163.0788,-681.7551 163.0788,-654.8904 163.0788,-654.8904"/>
<polygon fill="#000000" stroke="#000000" points="166.5789,-654.8903 163.0788,-644.8904 159.5789,-654.8904 166.5789,-654.8903"/>
</g>
<!-- event_triggered_by_keyword -->
<g id="node5" class="node">
<title>event_triggered_by_keyword</title>
<polygon fill="none" stroke="#000000" points="297.0368,-571.8 29.1208,-571.8 29.1208,-535.8 297.0368,-535.8 297.0368,-571.8"/>
<text text-anchor="middle" x="163.0788" y="-549.6" font-family="Courier New" font-size="14.00" fill="#000000">生成事件：关键词触发</text>
</g>
<!-- is_triggered_by_keyword&#45;&gt;event_triggered_by_keyword -->
<g id="edge7" class="edge">
<title>is_triggered_by_keyword&#45;&gt;event_triggered_by_keyword</title>
<path fill="none" stroke="#000000" d="M163.0788,-608.7551C163.0788,-608.7551 163.0788,-581.8904 163.0788,-581.8904"/>
<polygon fill="#000000" stroke="#000000" points="166.5789,-581.8903 163.0788,-571.8904 159.5789,-581.8904 166.5789,-581.8903"/>
<text text-anchor="middle" x="150.4809" y="-596.1551" font-family="Courier New" font-size="14.00" fill="#000000">是</text>
</g>
<!-- point_1 -->
<g id="node16" class="node">
<title>point_1</title>
<ellipse fill="#000000" stroke="#000000" cx="362.0788" cy="-626.8" rx="0" ry="0"/>
</g>
<!-- is_triggered_by_keyword&#45;&gt;point_1 -->
<g id="edge5" class="edge">
<title>is_triggered_by_keyword&#45;&gt;point_1</title>
<path fill="none" stroke="#000000" d="M326.5016,-626.8C346.302,-626.8 360.2457,-626.8 361.9113,-626.8"/>
<text text-anchor="middle" x="340.0071" y="-631" font-family="Courier New" font-size="14.00" fill="#000000"> </text>
<text text-anchor="middle" x="339.0995" y="-614.2" font-family="Courier New" font-size="14.00" fill="#000000">否</text>
</g>
<!-- signal_led_set -->
<g id="node13" class="node">
<title>signal_led_set</title>
<polygon fill="none" stroke="#000000" points="221.3622,-498.8 104.7954,-498.8 104.7954,-462.8 221.3622,-462.8 221.3622,-498.8"/>
<text text-anchor="middle" x="163.0788" y="-476.6" font-family="Courier New" font-size="14.00" fill="#000000">信号灯亮</text>
</g>
<!-- event_triggered_by_keyword&#45;&gt;signal_led_set -->
<g id="edge8" class="edge">
<title>event_triggered_by_keyword&#45;&gt;signal_led_set</title>
<path fill="none" stroke="#000000" d="M163.0788,-535.7551C163.0788,-535.7551 163.0788,-508.8904 163.0788,-508.8904"/>
<polygon fill="#000000" stroke="#000000" points="166.5789,-508.8903 163.0788,-498.8904 159.5789,-508.8904 166.5789,-508.8903"/>
</g>
<!-- start_recoginzing -->
<g id="node6" class="node">
<title>start_recoginzing</title>
<polygon fill="none" stroke="#000000" points="259.4498,-352.8 66.7078,-352.8 66.7078,-316.8 259.4498,-316.8 259.4498,-352.8"/>
<text text-anchor="middle" x="163.0788" y="-330.6" font-family="Courier New" font-size="14.00" fill="#000000">开始识别索引词</text>
</g>
<!-- is_recoginzed_success -->
<g id="node8" class="node">
<title>is_recoginzed_success</title>
<polygon fill="none" stroke="#000000" points="163.0788,-279.8 24.5781,-261.8 163.0788,-243.8 301.5795,-261.8 163.0788,-279.8"/>
<text text-anchor="middle" x="163.0788" y="-257.6" font-family="Courier New" font-size="14.00" fill="#000000">识别成功？</text>
</g>
<!-- start_recoginzing&#45;&gt;is_recoginzed_success -->
<g id="edge11" class="edge">
<title>start_recoginzing&#45;&gt;is_recoginzed_success</title>
<path fill="none" stroke="#000000" d="M163.0788,-316.7551C163.0788,-316.7551 163.0788,-289.8904 163.0788,-289.8904"/>
<polygon fill="#000000" stroke="#000000" points="166.5789,-289.8903 163.0788,-279.8904 159.5789,-289.8904 166.5789,-289.8903"/>
</g>
<!-- event_start_recognizing -->
<g id="node7" class="node">
<title>event_start_recognizing</title>
<polygon fill="none" stroke="#000000" points="284.3411,-425.8 41.8165,-425.8 41.8165,-389.8 284.3411,-389.8 284.3411,-425.8"/>
<text text-anchor="middle" x="163.0788" y="-403.6" font-family="Courier New" font-size="14.00" fill="#000000">生成事件：开始识别</text>
</g>
<!-- event_start_recognizing&#45;&gt;start_recoginzing -->
<g id="edge10" class="edge">
<title>event_start_recognizing&#45;&gt;start_recoginzing</title>
<path fill="none" stroke="#000000" d="M163.0788,-389.7551C163.0788,-389.7551 163.0788,-362.8904 163.0788,-362.8904"/>
<polygon fill="#000000" stroke="#000000" points="166.5789,-362.8903 163.0788,-352.8904 159.5789,-362.8904 166.5789,-362.8903"/>
</g>
<!-- is_recoginzed_timeout -->
<g id="node9" class="node">
<title>is_recoginzed_timeout</title>
<polygon fill="none" stroke="#000000" points="476.0788,-279.8 337.5781,-261.8 476.0788,-243.8 614.5795,-261.8 476.0788,-279.8"/>
<text text-anchor="middle" x="476.0788" y="-257.6" font-family="Courier New" font-size="14.00" fill="#000000">识别超时？</text>
</g>
<!-- is_recoginzed_success&#45;&gt;is_recoginzed_timeout -->
<g id="edge12" class="edge">
<title>is_recoginzed_success&#45;&gt;is_recoginzed_timeout</title>
<path fill="none" stroke="#000000" d="M301.732,-261.8C301.732,-261.8 327.1905,-261.8 327.1905,-261.8"/>
<polygon fill="#000000" stroke="#000000" points="327.1905,-265.3001 337.1905,-261.8 327.1905,-258.3001 327.1905,-265.3001"/>
<text text-anchor="middle" x="314.3299" y="-266" font-family="Courier New" font-size="14.00" fill="#000000">否</text>
</g>
<!-- event_result -->
<g id="node11" class="node">
<title>event_result</title>
<polygon fill="none" stroke="#000000" points="221.3622,-206.8 104.7954,-206.8 104.7954,-170.8 221.3622,-170.8 221.3622,-206.8"/>
<text text-anchor="middle" x="163.0788" y="-184.6" font-family="Courier New" font-size="14.00" fill="#000000">生成结果</text>
</g>
<!-- is_recoginzed_success&#45;&gt;event_result -->
<g id="edge15" class="edge">
<title>is_recoginzed_success&#45;&gt;event_result</title>
<path fill="none" stroke="#000000" d="M163.0788,-243.7551C163.0788,-243.7551 163.0788,-216.8904 163.0788,-216.8904"/>
<polygon fill="#000000" stroke="#000000" points="166.5789,-216.8903 163.0788,-206.8904 159.5789,-216.8904 166.5789,-216.8903"/>
<text text-anchor="middle" x="150.4809" y="-231.1551" font-family="Courier New" font-size="14.00" fill="#000000">是</text>
</g>
<!-- event_recognized_timeout -->
<g id="node12" class="node">
<title>event_recognized_timeout</title>
<polygon fill="none" stroke="#000000" points="597.3411,-206.8 354.8165,-206.8 354.8165,-170.8 597.3411,-170.8 597.3411,-206.8"/>
<text text-anchor="middle" x="476.0788" y="-184.6" font-family="Courier New" font-size="14.00" fill="#000000">生成事件：识别超时</text>
</g>
<!-- is_recoginzed_timeout&#45;&gt;event_recognized_timeout -->
<g id="edge17" class="edge">
<title>is_recoginzed_timeout&#45;&gt;event_recognized_timeout</title>
<path fill="none" stroke="#000000" d="M476.0788,-243.7551C476.0788,-243.7551 476.0788,-216.8904 476.0788,-216.8904"/>
<polygon fill="#000000" stroke="#000000" points="479.5789,-216.8903 476.0788,-206.8904 472.5789,-216.8904 479.5789,-216.8903"/>
<text text-anchor="middle" x="463.4809" y="-231.1551" font-family="Courier New" font-size="14.00" fill="#000000">是</text>
</g>
<!-- point_2 -->
<g id="node17" class="node">
<title>point_2</title>
<ellipse fill="#000000" stroke="#000000" cx="650.0788" cy="-261.8" rx="0" ry="0"/>
</g>
<!-- is_recoginzed_timeout&#45;&gt;point_2 -->
<g id="edge13" class="edge">
<title>is_recoginzed_timeout&#45;&gt;point_2</title>
<path fill="none" stroke="#000000" d="M614.8673,-261.8C634.2478,-261.8 648.2375,-261.8 649.9105,-261.8"/>
<text text-anchor="middle" x="627.4652" y="-266" font-family="Courier New" font-size="14.00" fill="#000000">否</text>
</g>
<!-- event_recognized_success -->
<g id="node10" class="node">
<title>event_recognized_success</title>
<polygon fill="none" stroke="#000000" points="284.3411,-133.8 41.8165,-133.8 41.8165,-97.8 284.3411,-97.8 284.3411,-133.8"/>
<text text-anchor="middle" x="163.0788" y="-111.6" font-family="Courier New" font-size="14.00" fill="#000000">生成事件：识别成功</text>
</g>
<!-- signal_led_blink -->
<g id="node14" class="node">
<title>signal_led_blink</title>
<polygon fill="none" stroke="#000000" points="250.6527,-60.8 75.5049,-60.8 75.5049,-24.8 250.6527,-24.8 250.6527,-60.8"/>
<text text-anchor="middle" x="163.0788" y="-38.6" font-family="Courier New" font-size="14.00" fill="#000000">信号灯闪烁1秒</text>
</g>
<!-- event_recognized_success&#45;&gt;signal_led_blink -->
<g id="edge18" class="edge">
<title>event_recognized_success&#45;&gt;signal_led_blink</title>
<path fill="none" stroke="#000000" d="M163.0788,-97.7551C163.0788,-97.7551 163.0788,-70.8904 163.0788,-70.8904"/>
<polygon fill="#000000" stroke="#000000" points="166.5789,-70.8903 163.0788,-60.8904 159.5789,-70.8904 166.5789,-70.8903"/>
</g>
<!-- event_result&#45;&gt;event_recognized_success -->
<g id="edge16" class="edge">
<title>event_result&#45;&gt;event_recognized_success</title>
<path fill="none" stroke="#000000" d="M163.0788,-170.7551C163.0788,-170.7551 163.0788,-143.8904 163.0788,-143.8904"/>
<polygon fill="#000000" stroke="#000000" points="166.5789,-143.8903 163.0788,-133.8904 159.5789,-143.8904 166.5789,-143.8903"/>
</g>
<!-- point_3 -->
<g id="node18" class="node">
<title>point_3</title>
<ellipse fill="#000000" stroke="#000000" cx="476.0788" cy="-42.8" rx="0" ry="0"/>
</g>
<!-- event_recognized_timeout&#45;&gt;point_3 -->
<g id="edge19" class="edge">
<title>event_recognized_timeout&#45;&gt;point_3</title>
<path fill="none" stroke="#000000" d="M476.0788,-170.6042C476.0788,-170.6042 476.0788,-52.8644 476.0788,-52.8644"/>
<polygon fill="#000000" stroke="#000000" points="479.5789,-52.8644 476.0788,-42.8644 472.5789,-52.8644 479.5789,-52.8644"/>
</g>
<!-- signal_led_set&#45;&gt;event_start_recognizing -->
<g id="edge9" class="edge">
<title>signal_led_set&#45;&gt;event_start_recognizing</title>
<path fill="none" stroke="#000000" d="M163.0788,-462.7551C163.0788,-462.7551 163.0788,-435.8904 163.0788,-435.8904"/>
<polygon fill="#000000" stroke="#000000" points="166.5789,-435.8903 163.0788,-425.8904 159.5789,-435.8904 166.5789,-435.8903"/>
</g>
<!-- signal_led_blink&#45;&gt;point_3 -->
<g id="edge20" class="edge">
<title>signal_led_blink&#45;&gt;point_3</title>
<path fill="none" stroke="#000000" d="M250.683,-42.8C341.8326,-42.8 471.9386,-42.8 475.9822,-42.8"/>
</g>
<!-- signal_led_reset&#45;&gt;event_wait_for_trigger -->
<g id="edge2" class="edge">
<title>signal_led_reset&#45;&gt;event_wait_for_trigger</title>
<path fill="none" stroke="#000000" d="M163.0788,-827.7551C163.0788,-827.7551 163.0788,-800.8904 163.0788,-800.8904"/>
<polygon fill="#000000" stroke="#000000" points="166.5789,-800.8903 163.0788,-790.8904 159.5789,-800.8904 166.5789,-800.8903"/>
</g>
<!-- point_1&#45;&gt;wait_for_trigger -->
<g id="edge6" class="edge">
<title>point_1&#45;&gt;wait_for_trigger</title>
<path fill="none" stroke="#000000" d="M362.0788,-626.8529C362.0788,-629.0634 362.0788,-699.8 362.0788,-699.8 362.0788,-699.8 269.3728,-699.8 269.3728,-699.8"/>
<polygon fill="#000000" stroke="#000000" points="269.3728,-696.3001 259.3728,-699.8 269.3727,-703.3001 269.3728,-696.3001"/>
</g>
<!-- point_2&#45;&gt;start_recoginzing -->
<g id="edge14" class="edge">
<title>point_2&#45;&gt;start_recoginzing</title>
<path fill="none" stroke="#000000" d="M650.0788,-261.8529C650.0788,-264.0634 650.0788,-334.8 650.0788,-334.8 650.0788,-334.8 269.2943,-334.8 269.2943,-334.8"/>
<polygon fill="#000000" stroke="#000000" points="269.2944,-331.3001 259.2943,-334.8 269.2943,-338.3001 269.2944,-331.3001"/>
</g>
<!-- point_5 -->
<g id="node20" class="node">
<title>point_5</title>
<ellipse fill="#000000" stroke="#000000" cx="686.0788" cy="-261.8" rx="0" ry="0"/>
</g>
<!-- point_2&#45;&gt;point_5 -->
<!-- point_4 -->
<g id="node19" class="node">
<title>point_4</title>
<ellipse fill="#000000" stroke="#000000" cx="686.0788" cy="-42.8" rx="0" ry="0"/>
</g>
<!-- point_3&#45;&gt;point_4 -->
<g id="edge21" class="edge">
<title>point_3&#45;&gt;point_4</title>
<path fill="none" stroke="#000000" d="M476.231,-42.8C476.231,-42.8 675.9313,-42.8 675.9313,-42.8"/>
<polygon fill="#000000" stroke="#000000" points="675.9313,-46.3001 685.9313,-42.8 675.9313,-39.3001 675.9313,-46.3001"/>
</g>
<!-- point_4&#45;&gt;point_5 -->
<g id="edge22" class="edge">
<title>point_4&#45;&gt;point_5</title>
<path fill="none" stroke="#000000" d="M686.0788,-42.9587C686.0788,-49.4867 686.0788,-255.2186 686.0788,-261.6462"/>
</g>
<!-- point_5&#45;&gt;signal_led_reset -->
<g id="edge24" class="edge">
<title>point_5&#45;&gt;signal_led_reset</title>
<path fill="none" stroke="#000000" d="M686.0788,-261.9064C686.0788,-270.8894 686.0788,-845.8 686.0788,-845.8 686.0788,-845.8 231.5512,-845.8 231.5512,-845.8"/>
<polygon fill="#000000" stroke="#000000" points="231.5512,-842.3001 221.5512,-845.8 231.5512,-849.3001 231.5512,-842.3001"/>
</g>
</g>
</svg>
