<?xml version="1.0" encoding="UTF-8" standalone="no"?>
<!DOCTYPE svg PUBLIC "-//W3C//DTD SVG 1.1//EN"
 "http://www.w3.org/Graphics/SVG/1.1/DTD/svg11.dtd">
<!-- Generated by graphviz version 2.40.1 (20161225.0304)
 -->
<!-- Title: %0 Pages: 1 -->
<svg width="352pt" height="580pt"
 viewBox="0.00 0.00 351.55 579.80" xmlns="http://www.w3.org/2000/svg" xmlns:xlink="http://www.w3.org/1999/xlink">
<g id="graph0" class="graph" transform="scale(1 1) rotate(0) translate(4 575.8)">
<title>%0</title>
<polygon fill="#ffffff" stroke="transparent" points="-4,4 -4,-575.8 347.5454,-575.8 347.5454,4 -4,4"/>
<text text-anchor="middle" x="171.7727" y="-8.2" font-family="Courier New" font-size="14.00" fill="#000000">自动触发循环识别模式流程图</text>
<!-- start -->
<g id="node1" class="node">
<title>start</title>
<ellipse fill="none" stroke="#000000" cx="141.5229" cy="-553.8" rx="45.5923" ry="18"/>
<text text-anchor="middle" x="141.5229" y="-549.6" font-family="Courier New" font-size="14.00" fill="#000000">开始</text>
</g>
<!-- signal_led_set -->
<g id="node7" class="node">
<title>signal_led_set</title>
<polygon fill="none" stroke="#000000" points="199.8063,-498.8 83.2395,-498.8 83.2395,-462.8 199.8063,-462.8 199.8063,-498.8"/>
<text text-anchor="middle" x="141.5229" y="-476.6" font-family="Courier New" font-size="14.00" fill="#000000">信号灯亮</text>
</g>
<!-- start&#45;&gt;signal_led_set -->
<g id="edge1" class="edge">
<title>start&#45;&gt;signal_led_set</title>
<path fill="none" stroke="#000000" d="M141.5229,-535.7551C141.5229,-535.7551 141.5229,-508.8904 141.5229,-508.8904"/>
<polygon fill="#000000" stroke="#000000" points="145.023,-508.8903 141.5229,-498.8904 138.023,-508.8904 145.023,-508.8903"/>
</g>
<!-- start_recoginzing -->
<g id="node2" class="node">
<title>start_recoginzing</title>
<polygon fill="none" stroke="#000000" points="237.8938,-352.8 45.1519,-352.8 45.1519,-316.8 237.8938,-316.8 237.8938,-352.8"/>
<text text-anchor="middle" x="141.5229" y="-330.6" font-family="Courier New" font-size="14.00" fill="#000000">开始识别索引词</text>
</g>
<!-- is_recoginzed_success -->
<g id="node4" class="node">
<title>is_recoginzed_success</title>
<polygon fill="none" stroke="#000000" points="141.5229,-279.8 3.0222,-261.8 141.5229,-243.8 280.0235,-261.8 141.5229,-279.8"/>
<text text-anchor="middle" x="141.5229" y="-257.6" font-family="Courier New" font-size="14.00" fill="#000000">识别成功？</text>
</g>
<!-- start_recoginzing&#45;&gt;is_recoginzed_success -->
<g id="edge4" class="edge">
<title>start_recoginzing&#45;&gt;is_recoginzed_success</title>
<path fill="none" stroke="#000000" d="M141.5229,-316.7551C141.5229,-316.7551 141.5229,-289.8904 141.5229,-289.8904"/>
<polygon fill="#000000" stroke="#000000" points="145.023,-289.8903 141.5229,-279.8904 138.023,-289.8904 145.023,-289.8903"/>
</g>
<!-- event_start_recognizing -->
<g id="node3" class="node">
<title>event_start_recognizing</title>
<polygon fill="none" stroke="#000000" points="262.7852,-425.8 20.2605,-425.8 20.2605,-389.8 262.7852,-389.8 262.7852,-425.8"/>
<text text-anchor="middle" x="141.5229" y="-403.6" font-family="Courier New" font-size="14.00" fill="#000000">生成事件：开始识别</text>
</g>
<!-- event_start_recognizing&#45;&gt;start_recoginzing -->
<g id="edge3" class="edge">
<title>event_start_recognizing&#45;&gt;start_recoginzing</title>
<path fill="none" stroke="#000000" d="M141.5229,-389.7551C141.5229,-389.7551 141.5229,-362.8904 141.5229,-362.8904"/>
<polygon fill="#000000" stroke="#000000" points="145.023,-362.8903 141.5229,-352.8904 138.023,-362.8904 145.023,-362.8903"/>
</g>
<!-- event_result -->
<g id="node5" class="node">
<title>event_result</title>
<polygon fill="none" stroke="#000000" points="199.8063,-206.8 83.2395,-206.8 83.2395,-170.8 199.8063,-170.8 199.8063,-206.8"/>
<text text-anchor="middle" x="141.5229" y="-184.6" font-family="Courier New" font-size="14.00" fill="#000000">生成结果</text>
</g>
<!-- is_recoginzed_success&#45;&gt;event_result -->
<g id="edge7" class="edge">
<title>is_recoginzed_success&#45;&gt;event_result</title>
<path fill="none" stroke="#000000" d="M141.5229,-243.7551C141.5229,-243.7551 141.5229,-216.8904 141.5229,-216.8904"/>
<polygon fill="#000000" stroke="#000000" points="145.023,-216.8903 141.5229,-206.8904 138.023,-216.8904 145.023,-216.8903"/>
<text text-anchor="middle" x="128.925" y="-231.1551" font-family="Courier New" font-size="14.00" fill="#000000">是</text>
</g>
<!-- point_2 -->
<g id="node9" class="node">
<title>point_2</title>
<ellipse fill="#000000" stroke="#000000" cx="322.5229" cy="-261.8" rx="0" ry="0"/>
</g>
<!-- is_recoginzed_success&#45;&gt;point_2 -->
<g id="edge5" class="edge">
<title>is_recoginzed_success&#45;&gt;point_2</title>
<path fill="none" stroke="#000000" d="M280.0864,-261.8C280.0864,-261.8 312.4708,-261.8 312.4708,-261.8"/>
<polygon fill="#000000" stroke="#000000" points="312.4708,-265.3001 322.4708,-261.8 312.4707,-258.3001 312.4708,-265.3001"/>
<text text-anchor="middle" x="308.8765" y="-282.8" font-family="Courier New" font-size="14.00" fill="#000000">否</text>
<text text-anchor="middle" x="308.8765" y="-266" font-family="Courier New" font-size="14.00" fill="#000000"> </text>
</g>
<!-- event_recognized_success -->
<g id="node6" class="node">
<title>event_recognized_success</title>
<polygon fill="none" stroke="#000000" points="262.7852,-133.8 20.2605,-133.8 20.2605,-97.8 262.7852,-97.8 262.7852,-133.8"/>
<text text-anchor="middle" x="141.5229" y="-111.6" font-family="Courier New" font-size="14.00" fill="#000000">生成事件：识别成功</text>
</g>
<!-- event_result&#45;&gt;event_recognized_success -->
<g id="edge8" class="edge">
<title>event_result&#45;&gt;event_recognized_success</title>
<path fill="none" stroke="#000000" d="M141.5229,-170.7551C141.5229,-170.7551 141.5229,-143.8904 141.5229,-143.8904"/>
<polygon fill="#000000" stroke="#000000" points="145.023,-143.8903 141.5229,-133.8904 138.023,-143.8904 145.023,-143.8903"/>
</g>
<!-- signal_led_blink -->
<g id="node8" class="node">
<title>signal_led_blink</title>
<polygon fill="none" stroke="#000000" points="229.0968,-60.8 53.9489,-60.8 53.9489,-24.8 229.0968,-24.8 229.0968,-60.8"/>
<text text-anchor="middle" x="141.5229" y="-38.6" font-family="Courier New" font-size="14.00" fill="#000000">信号灯闪烁1秒</text>
</g>
<!-- event_recognized_success&#45;&gt;signal_led_blink -->
<g id="edge9" class="edge">
<title>event_recognized_success&#45;&gt;signal_led_blink</title>
<path fill="none" stroke="#000000" d="M141.5229,-97.7551C141.5229,-97.7551 141.5229,-70.8904 141.5229,-70.8904"/>
<polygon fill="#000000" stroke="#000000" points="145.023,-70.8903 141.5229,-60.8904 138.023,-70.8904 145.023,-70.8903"/>
</g>
<!-- signal_led_set&#45;&gt;event_start_recognizing -->
<g id="edge2" class="edge">
<title>signal_led_set&#45;&gt;event_start_recognizing</title>
<path fill="none" stroke="#000000" d="M141.5229,-462.7551C141.5229,-462.7551 141.5229,-435.8904 141.5229,-435.8904"/>
<polygon fill="#000000" stroke="#000000" points="145.023,-435.8903 141.5229,-425.8904 138.023,-435.8904 145.023,-435.8903"/>
</g>
<!-- point_3 -->
<g id="node10" class="node">
<title>point_3</title>
<ellipse fill="#000000" stroke="#000000" cx="340.5229" cy="-261.8" rx="0" ry="0"/>
</g>
<!-- signal_led_blink&#45;&gt;point_3 -->
<g id="edge10" class="edge">
<title>signal_led_blink&#45;&gt;point_3</title>
<path fill="none" stroke="#000000" d="M229.3864,-42.8C282.6958,-42.8 340.5229,-42.8 340.5229,-42.8 340.5229,-42.8 340.5229,-255.0097 340.5229,-261.6413"/>
</g>
<!-- point_2&#45;&gt;start_recoginzing -->
<g id="edge6" class="edge">
<title>point_2&#45;&gt;start_recoginzing</title>
<path fill="none" stroke="#000000" d="M322.5229,-261.8529C322.5229,-264.0634 322.5229,-334.8 322.5229,-334.8 322.5229,-334.8 247.8523,-334.8 247.8523,-334.8"/>
<polygon fill="#000000" stroke="#000000" points="247.8523,-331.3001 237.8523,-334.8 247.8522,-338.3001 247.8523,-331.3001"/>
</g>
<!-- point_3&#45;&gt;signal_led_set -->
<g id="edge11" class="edge">
<title>point_3&#45;&gt;signal_led_set</title>
<path fill="none" stroke="#000000" d="M340.5229,-261.9587C340.5229,-268.5903 340.5229,-480.8 340.5229,-480.8 340.5229,-480.8 209.8848,-480.8 209.8848,-480.8"/>
<polygon fill="#000000" stroke="#000000" points="209.8849,-477.3001 199.8848,-480.8 209.8848,-484.3001 209.8849,-477.3001"/>
</g>
</g>
</svg>
