<?xml version="1.0" encoding="UTF-8" standalone="no"?>
<!DOCTYPE svg PUBLIC "-//W3C//DTD SVG 1.1//EN"
 "http://www.w3.org/Graphics/SVG/1.1/DTD/svg11.dtd">
<!-- Generated by graphviz version 2.40.1 (20161225.0304)
 -->
<!-- Title: %0 Pages: 1 -->
<svg width="670pt" height="945pt"
 viewBox="0.00 0.00 669.50 944.80" xmlns="http://www.w3.org/2000/svg" xmlns:xlink="http://www.w3.org/1999/xlink">
<g id="graph0" class="graph" transform="scale(1 1) rotate(0) translate(4 940.8)">
<title>%0</title>
<polygon fill="#ffffff" stroke="transparent" points="-4,4 -4,-940.8 665.5003,-940.8 665.5003,4 -4,4"/>
<text text-anchor="middle" x="330.7502" y="-8.2" font-family="Courier New" font-size="14.00" fill="#000000">按键触发识别模式流程图</text>
<!-- start -->
<g id="node1" class="node">
<title>start</title>
<ellipse fill="none" stroke="#000000" cx="138.5003" cy="-918.8" rx="45.5923" ry="18"/>
<text text-anchor="middle" x="138.5003" y="-914.6" font-family="Courier New" font-size="14.00" fill="#000000">开始</text>
</g>
<!-- signal_led_reset -->
<g id="node15" class="node">
<title>signal_led_reset</title>
<polygon fill="none" stroke="#000000" points="196.7837,-863.8 80.2169,-863.8 80.2169,-827.8 196.7837,-827.8 196.7837,-863.8"/>
<text text-anchor="middle" x="138.5003" y="-841.6" font-family="Courier New" font-size="14.00" fill="#000000">信号灯灭</text>
</g>
<!-- start&#45;&gt;signal_led_reset -->
<g id="edge1" class="edge">
<title>start&#45;&gt;signal_led_reset</title>
<path fill="none" stroke="#000000" d="M138.5003,-900.7551C138.5003,-900.7551 138.5003,-873.8904 138.5003,-873.8904"/>
<polygon fill="#000000" stroke="#000000" points="142.0004,-873.8903 138.5003,-863.8904 135.0004,-873.8904 142.0004,-873.8903"/>
</g>
<!-- event_wait_for_trigger -->
<g id="node2" class="node">
<title>event_wait_for_trigger</title>
<polygon fill="none" stroke="#000000" points="259.7626,-790.8 17.238,-790.8 17.238,-754.8 259.7626,-754.8 259.7626,-790.8"/>
<text text-anchor="middle" x="138.5003" y="-768.6" font-family="Courier New" font-size="14.00" fill="#000000">生成事件：等待触发</text>
</g>
<!-- wait_for_trigger -->
<g id="node3" class="node">
<title>wait_for_trigger</title>
<polygon fill="none" stroke="#000000" points="222.1752,-717.8 54.8254,-717.8 54.8254,-681.8 222.1752,-681.8 222.1752,-717.8"/>
<text text-anchor="middle" x="138.5003" y="-695.6" font-family="Courier New" font-size="14.00" fill="#000000">等待按键触发</text>
</g>
<!-- event_wait_for_trigger&#45;&gt;wait_for_trigger -->
<g id="edge3" class="edge">
<title>event_wait_for_trigger&#45;&gt;wait_for_trigger</title>
<path fill="none" stroke="#000000" d="M138.5003,-754.7551C138.5003,-754.7551 138.5003,-727.8904 138.5003,-727.8904"/>
<polygon fill="#000000" stroke="#000000" points="142.0004,-727.8903 138.5003,-717.8904 135.0004,-727.8904 142.0004,-727.8903"/>
</g>
<!-- is_triggered_by_button -->
<g id="node4" class="node">
<title>is_triggered_by_button</title>
<polygon fill="none" stroke="#000000" points="138.5003,-644.8 -.0003,-626.8 138.5003,-608.8 277.001,-626.8 138.5003,-644.8"/>
<text text-anchor="middle" x="138.5003" y="-622.6" font-family="Courier New" font-size="14.00" fill="#000000">按键触发？</text>
</g>
<!-- wait_for_trigger&#45;&gt;is_triggered_by_button -->
<g id="edge4" class="edge">
<title>wait_for_trigger&#45;&gt;is_triggered_by_button</title>
<path fill="none" stroke="#000000" d="M138.5003,-681.7551C138.5003,-681.7551 138.5003,-654.8904 138.5003,-654.8904"/>
<polygon fill="#000000" stroke="#000000" points="142.0004,-654.8903 138.5003,-644.8904 135.0004,-654.8904 142.0004,-654.8903"/>
</g>
<!-- event_triggered_by_button -->
<g id="node5" class="node">
<title>event_triggered_by_button</title>
<polygon fill="none" stroke="#000000" points="259.7626,-571.8 17.238,-571.8 17.238,-535.8 259.7626,-535.8 259.7626,-571.8"/>
<text text-anchor="middle" x="138.5003" y="-549.6" font-family="Courier New" font-size="14.00" fill="#000000">生成事件：按键触发</text>
</g>
<!-- is_triggered_by_button&#45;&gt;event_triggered_by_button -->
<g id="edge7" class="edge">
<title>is_triggered_by_button&#45;&gt;event_triggered_by_button</title>
<path fill="none" stroke="#000000" d="M138.5003,-608.7551C138.5003,-608.7551 138.5003,-581.8904 138.5003,-581.8904"/>
<polygon fill="#000000" stroke="#000000" points="142.0004,-581.8903 138.5003,-571.8904 135.0004,-581.8904 142.0004,-581.8903"/>
<text text-anchor="middle" x="125.9024" y="-596.1551" font-family="Courier New" font-size="14.00" fill="#000000">是</text>
</g>
<!-- point_1 -->
<g id="node16" class="node">
<title>point_1</title>
<ellipse fill="#000000" stroke="#000000" cx="312.5003" cy="-626.8" rx="0" ry="0"/>
</g>
<!-- is_triggered_by_button&#45;&gt;point_1 -->
<g id="edge5" class="edge">
<title>is_triggered_by_button&#45;&gt;point_1</title>
<path fill="none" stroke="#000000" d="M277.2888,-626.8C296.6694,-626.8 310.659,-626.8 312.332,-626.8"/>
<text text-anchor="middle" x="290.6111" y="-631" font-family="Courier New" font-size="14.00" fill="#000000"> </text>
<text text-anchor="middle" x="289.8867" y="-614.2" font-family="Courier New" font-size="14.00" fill="#000000">否</text>
</g>
<!-- signal_led_set -->
<g id="node13" class="node">
<title>signal_led_set</title>
<polygon fill="none" stroke="#000000" points="196.7837,-498.8 80.2169,-498.8 80.2169,-462.8 196.7837,-462.8 196.7837,-498.8"/>
<text text-anchor="middle" x="138.5003" y="-476.6" font-family="Courier New" font-size="14.00" fill="#000000">信号灯亮</text>
</g>
<!-- event_triggered_by_button&#45;&gt;signal_led_set -->
<g id="edge8" class="edge">
<title>event_triggered_by_button&#45;&gt;signal_led_set</title>
<path fill="none" stroke="#000000" d="M138.5003,-535.7551C138.5003,-535.7551 138.5003,-508.8904 138.5003,-508.8904"/>
<polygon fill="#000000" stroke="#000000" points="142.0004,-508.8903 138.5003,-498.8904 135.0004,-508.8904 142.0004,-508.8903"/>
</g>
<!-- start_recoginzing -->
<g id="node6" class="node">
<title>start_recoginzing</title>
<polygon fill="none" stroke="#000000" points="234.8713,-352.8 42.1294,-352.8 42.1294,-316.8 234.8713,-316.8 234.8713,-352.8"/>
<text text-anchor="middle" x="138.5003" y="-330.6" font-family="Courier New" font-size="14.00" fill="#000000">开始识别索引词</text>
</g>
<!-- is_recoginzed_success -->
<g id="node8" class="node">
<title>is_recoginzed_success</title>
<polygon fill="none" stroke="#000000" points="138.5003,-279.8 -.0003,-261.8 138.5003,-243.8 277.001,-261.8 138.5003,-279.8"/>
<text text-anchor="middle" x="138.5003" y="-257.6" font-family="Courier New" font-size="14.00" fill="#000000">识别成功？</text>
</g>
<!-- start_recoginzing&#45;&gt;is_recoginzed_success -->
<g id="edge11" class="edge">
<title>start_recoginzing&#45;&gt;is_recoginzed_success</title>
<path fill="none" stroke="#000000" d="M138.5003,-316.7551C138.5003,-316.7551 138.5003,-289.8904 138.5003,-289.8904"/>
<polygon fill="#000000" stroke="#000000" points="142.0004,-289.8903 138.5003,-279.8904 135.0004,-289.8904 142.0004,-289.8903"/>
</g>
<!-- event_start_recognizing -->
<g id="node7" class="node">
<title>event_start_recognizing</title>
<polygon fill="none" stroke="#000000" points="259.7626,-425.8 17.238,-425.8 17.238,-389.8 259.7626,-389.8 259.7626,-425.8"/>
<text text-anchor="middle" x="138.5003" y="-403.6" font-family="Courier New" font-size="14.00" fill="#000000">生成事件：开始识别</text>
</g>
<!-- event_start_recognizing&#45;&gt;start_recoginzing -->
<g id="edge10" class="edge">
<title>event_start_recognizing&#45;&gt;start_recoginzing</title>
<path fill="none" stroke="#000000" d="M138.5003,-389.7551C138.5003,-389.7551 138.5003,-362.8904 138.5003,-362.8904"/>
<polygon fill="#000000" stroke="#000000" points="142.0004,-362.8903 138.5003,-352.8904 135.0004,-362.8904 142.0004,-362.8903"/>
</g>
<!-- is_recoginzed_timeout -->
<g id="node9" class="node">
<title>is_recoginzed_timeout</title>
<polygon fill="none" stroke="#000000" points="451.5003,-279.8 312.9997,-261.8 451.5003,-243.8 590.001,-261.8 451.5003,-279.8"/>
<text text-anchor="middle" x="451.5003" y="-257.6" font-family="Courier New" font-size="14.00" fill="#000000">识别超时？</text>
</g>
<!-- is_recoginzed_success&#45;&gt;is_recoginzed_timeout -->
<g id="edge12" class="edge">
<title>is_recoginzed_success&#45;&gt;is_recoginzed_timeout</title>
<path fill="none" stroke="#000000" d="M277.1536,-261.8C277.1536,-261.8 302.612,-261.8 302.612,-261.8"/>
<polygon fill="#000000" stroke="#000000" points="302.6121,-265.3001 312.612,-261.8 302.612,-258.3001 302.6121,-265.3001"/>
<text text-anchor="middle" x="289.7515" y="-266" font-family="Courier New" font-size="14.00" fill="#000000">否</text>
</g>
<!-- event_result -->
<g id="node11" class="node">
<title>event_result</title>
<polygon fill="none" stroke="#000000" points="196.7837,-206.8 80.2169,-206.8 80.2169,-170.8 196.7837,-170.8 196.7837,-206.8"/>
<text text-anchor="middle" x="138.5003" y="-184.6" font-family="Courier New" font-size="14.00" fill="#000000">生成结果</text>
</g>
<!-- is_recoginzed_success&#45;&gt;event_result -->
<g id="edge15" class="edge">
<title>is_recoginzed_success&#45;&gt;event_result</title>
<path fill="none" stroke="#000000" d="M138.5003,-243.7551C138.5003,-243.7551 138.5003,-216.8904 138.5003,-216.8904"/>
<polygon fill="#000000" stroke="#000000" points="142.0004,-216.8903 138.5003,-206.8904 135.0004,-216.8904 142.0004,-216.8903"/>
<text text-anchor="middle" x="125.9024" y="-231.1551" font-family="Courier New" font-size="14.00" fill="#000000">是</text>
</g>
<!-- event_recognized_timeout -->
<g id="node12" class="node">
<title>event_recognized_timeout</title>
<polygon fill="none" stroke="#000000" points="572.7626,-206.8 330.238,-206.8 330.238,-170.8 572.7626,-170.8 572.7626,-206.8"/>
<text text-anchor="middle" x="451.5003" y="-184.6" font-family="Courier New" font-size="14.00" fill="#000000">生成事件：识别超时</text>
</g>
<!-- is_recoginzed_timeout&#45;&gt;event_recognized_timeout -->
<g id="edge17" class="edge">
<title>is_recoginzed_timeout&#45;&gt;event_recognized_timeout</title>
<path fill="none" stroke="#000000" d="M451.5003,-243.7551C451.5003,-243.7551 451.5003,-216.8904 451.5003,-216.8904"/>
<polygon fill="#000000" stroke="#000000" points="455.0004,-216.8903 451.5003,-206.8904 448.0004,-216.8904 455.0004,-216.8903"/>
<text text-anchor="middle" x="438.9024" y="-231.1551" font-family="Courier New" font-size="14.00" fill="#000000">是</text>
</g>
<!-- point_2 -->
<g id="node17" class="node">
<title>point_2</title>
<ellipse fill="#000000" stroke="#000000" cx="625.5003" cy="-261.8" rx="0" ry="0"/>
</g>
<!-- is_recoginzed_timeout&#45;&gt;point_2 -->
<g id="edge13" class="edge">
<title>is_recoginzed_timeout&#45;&gt;point_2</title>
<path fill="none" stroke="#000000" d="M590.2888,-261.8C609.6694,-261.8 623.659,-261.8 625.332,-261.8"/>
<text text-anchor="middle" x="602.8867" y="-266" font-family="Courier New" font-size="14.00" fill="#000000">否</text>
</g>
<!-- event_recognized_success -->
<g id="node10" class="node">
<title>event_recognized_success</title>
<polygon fill="none" stroke="#000000" points="259.7626,-133.8 17.238,-133.8 17.238,-97.8 259.7626,-97.8 259.7626,-133.8"/>
<text text-anchor="middle" x="138.5003" y="-111.6" font-family="Courier New" font-size="14.00" fill="#000000">生成事件：识别成功</text>
</g>
<!-- signal_led_blink -->
<g id="node14" class="node">
<title>signal_led_blink</title>
<polygon fill="none" stroke="#000000" points="226.0742,-60.8 50.9264,-60.8 50.9264,-24.8 226.0742,-24.8 226.0742,-60.8"/>
<text text-anchor="middle" x="138.5003" y="-38.6" font-family="Courier New" font-size="14.00" fill="#000000">信号灯闪烁1秒</text>
</g>
<!-- event_recognized_success&#45;&gt;signal_led_blink -->
<g id="edge18" class="edge">
<title>event_recognized_success&#45;&gt;signal_led_blink</title>
<path fill="none" stroke="#000000" d="M138.5003,-97.7551C138.5003,-97.7551 138.5003,-70.8904 138.5003,-70.8904"/>
<polygon fill="#000000" stroke="#000000" points="142.0004,-70.8903 138.5003,-60.8904 135.0004,-70.8904 142.0004,-70.8903"/>
</g>
<!-- event_result&#45;&gt;event_recognized_success -->
<g id="edge16" class="edge">
<title>event_result&#45;&gt;event_recognized_success</title>
<path fill="none" stroke="#000000" d="M138.5003,-170.7551C138.5003,-170.7551 138.5003,-143.8904 138.5003,-143.8904"/>
<polygon fill="#000000" stroke="#000000" points="142.0004,-143.8903 138.5003,-133.8904 135.0004,-143.8904 142.0004,-143.8903"/>
</g>
<!-- point_3 -->
<g id="node18" class="node">
<title>point_3</title>
<ellipse fill="#000000" stroke="#000000" cx="451.5003" cy="-42.8" rx="0" ry="0"/>
</g>
<!-- event_recognized_timeout&#45;&gt;point_3 -->
<g id="edge19" class="edge">
<title>event_recognized_timeout&#45;&gt;point_3</title>
<path fill="none" stroke="#000000" d="M451.5003,-170.6042C451.5003,-170.6042 451.5003,-52.8644 451.5003,-52.8644"/>
<polygon fill="#000000" stroke="#000000" points="455.0004,-52.8644 451.5003,-42.8644 448.0004,-52.8644 455.0004,-52.8644"/>
</g>
<!-- signal_led_set&#45;&gt;event_start_recognizing -->
<g id="edge9" class="edge">
<title>signal_led_set&#45;&gt;event_start_recognizing</title>
<path fill="none" stroke="#000000" d="M138.5003,-462.7551C138.5003,-462.7551 138.5003,-435.8904 138.5003,-435.8904"/>
<polygon fill="#000000" stroke="#000000" points="142.0004,-435.8903 138.5003,-425.8904 135.0004,-435.8904 142.0004,-435.8903"/>
</g>
<!-- signal_led_blink&#45;&gt;point_3 -->
<g id="edge20" class="edge">
<title>signal_led_blink&#45;&gt;point_3</title>
<path fill="none" stroke="#000000" d="M226.1045,-42.8C317.2541,-42.8 447.3602,-42.8 451.4037,-42.8"/>
</g>
<!-- signal_led_reset&#45;&gt;event_wait_for_trigger -->
<g id="edge2" class="edge">
<title>signal_led_reset&#45;&gt;event_wait_for_trigger</title>
<path fill="none" stroke="#000000" d="M138.5003,-827.7551C138.5003,-827.7551 138.5003,-800.8904 138.5003,-800.8904"/>
<polygon fill="#000000" stroke="#000000" points="142.0004,-800.8903 138.5003,-790.8904 135.0004,-800.8904 142.0004,-800.8903"/>
</g>
<!-- point_1&#45;&gt;wait_for_trigger -->
<g id="edge6" class="edge">
<title>point_1&#45;&gt;wait_for_trigger</title>
<path fill="none" stroke="#000000" d="M312.5003,-626.8529C312.5003,-629.0634 312.5003,-699.8 312.5003,-699.8 312.5003,-699.8 232.1876,-699.8 232.1876,-699.8"/>
<polygon fill="#000000" stroke="#000000" points="232.1876,-696.3001 222.1876,-699.8 232.1875,-703.3001 232.1876,-696.3001"/>
</g>
<!-- point_2&#45;&gt;start_recoginzing -->
<g id="edge14" class="edge">
<title>point_2&#45;&gt;start_recoginzing</title>
<path fill="none" stroke="#000000" d="M625.5003,-261.8529C625.5003,-264.0634 625.5003,-334.8 625.5003,-334.8 625.5003,-334.8 244.7159,-334.8 244.7159,-334.8"/>
<polygon fill="#000000" stroke="#000000" points="244.7159,-331.3001 234.7159,-334.8 244.7158,-338.3001 244.7159,-331.3001"/>
</g>
<!-- point_5 -->
<g id="node20" class="node">
<title>point_5</title>
<ellipse fill="#000000" stroke="#000000" cx="661.5003" cy="-261.8" rx="0" ry="0"/>
</g>
<!-- point_2&#45;&gt;point_5 -->
<!-- point_4 -->
<g id="node19" class="node">
<title>point_4</title>
<ellipse fill="#000000" stroke="#000000" cx="661.5003" cy="-42.8" rx="0" ry="0"/>
</g>
<!-- point_3&#45;&gt;point_4 -->
<g id="edge21" class="edge">
<title>point_3&#45;&gt;point_4</title>
<path fill="none" stroke="#000000" d="M451.6525,-42.8C451.6525,-42.8 651.3528,-42.8 651.3528,-42.8"/>
<polygon fill="#000000" stroke="#000000" points="651.3529,-46.3001 661.3528,-42.8 651.3528,-39.3001 651.3529,-46.3001"/>
</g>
<!-- point_4&#45;&gt;point_5 -->
<g id="edge22" class="edge">
<title>point_4&#45;&gt;point_5</title>
<path fill="none" stroke="#000000" d="M661.5003,-42.9587C661.5003,-49.4867 661.5003,-255.2186 661.5003,-261.6462"/>
</g>
<!-- point_5&#45;&gt;signal_led_reset -->
<g id="edge24" class="edge">
<title>point_5&#45;&gt;signal_led_reset</title>
<path fill="none" stroke="#000000" d="M661.5003,-261.9064C661.5003,-270.8894 661.5003,-845.8 661.5003,-845.8 661.5003,-845.8 206.9727,-845.8 206.9727,-845.8"/>
<polygon fill="#000000" stroke="#000000" points="206.9728,-842.3001 196.9727,-845.8 206.9727,-849.3001 206.9728,-842.3001"/>
</g>
</g>
</svg>
