<?xml version="1.0" encoding="utf-8"?>
<!-- Generator: Adobe Illustrator 23.0.2, SVG Export Plug-In . SVG Version: 6.00 Build 0)  -->
<svg version="1.1" id="图层_1" xmlns="http://www.w3.org/2000/svg" xmlns:xlink="http://www.w3.org/1999/xlink" x="0px" y="0px"
	 width="113.5px" height="62.4px" viewBox="0 0 113.5 62.4" style="enable-background:new 0 0 113.5 62.4;" xml:space="preserve">
<style type="text/css">
	.st0{fill:#282828;}
	.st1{fill:none;stroke:#FFFFFF;stroke-width:0.5;stroke-miterlimit:10;}
	.st2{fill:#E6E6E6;}
	.st3{fill:#C7D5D6;}
	.st4{fill:#CBB084;}
	.st5{fill:#FFFFFF;}
	.st6{fill:#F2F2F2;}
	.st7{fill:#F1F268;}
	.st8{fill:none;stroke:#FFFFFF;stroke-width:0.2986;stroke-miterlimit:10;}
	.st9{font-family:'SourceHanSansCN-Bold-GBpc-EUC-H';}
	.st10{font-size:3.5193px;}
	.st11{font-family:'AdobeSongStd-Light-GBpc-EUC-H';}
	.st12{font-size:6.5535px;}
	.st13{fill:#F5F3E9;}
	.st14{fill:#EADCC1;}
	.st15{fill:#886830;}
	.st16{fill:#E6E6E2;}
	.st17{font-size:3.4215px;}
	.st18{fill:#2D2D2D;}
	.st19{fill:#FBC5AA;}
	.st20{fill:#E9EADC;}
	.st21{fill:#977C58;}
	.st22{font-family:'SourceHanSansCN-Regular-GBpc-EUC-H';}
	.st23{font-size:5.17px;}
</style>
<path class="st0" d="M6.4,62.4h100.7c3.5,0,6.4-2.9,6.4-6.4V43.8v-2.2V20.8V18V6.4c0-3.5-2.9-6.4-6.4-6.4H6.4C2.9,0,0,2.9,0,6.4V56
	C0,59.6,2.9,62.5,6.4,62.4z"/>
<g>
	<rect x="94.5" y="38.3" width="3" height="4.3"/>
	<g>
		<rect x="94" y="36.8" class="st1" width="4.3" height="7.3"/>
		<rect x="94.6" y="37.5" class="st2" width="2.9" height="1.1"/>
		<rect x="94.6" y="42.5" class="st2" width="2.9" height="1.1"/>
	</g>
</g>
<g>
	<rect x="89.1" y="20.7" width="3" height="4.3"/>
	<g>
		<rect x="88.6" y="19.1" class="st1" width="4.3" height="7.3"/>
		<rect x="89.2" y="19.8" class="st2" width="2.9" height="1.1"/>
		<rect x="89.2" y="24.9" class="st2" width="2.9" height="1.1"/>
	</g>
</g>
<g>
	<rect x="83.7" y="38.3" width="3" height="4.3"/>
	<g>
		<rect x="83.2" y="36.8" class="st1" width="4.3" height="7.3"/>
		<rect x="83.8" y="37.5" class="st2" width="2.9" height="1.1"/>
		<rect x="83.8" y="42.5" class="st2" width="2.9" height="1.1"/>
	</g>
</g>
<rect x="36.9" y="0" class="st3" width="17.8" height="62.4"/>
<circle class="st4" cx="45.9" cy="8.4" r="7.6"/>
<circle class="st5" cx="45.9" cy="8.4" r="6.8"/>
<circle class="st4" cx="45.9" cy="54.3" r="7.6"/>
<circle class="st5" cx="45.9" cy="54.3" r="6.8"/>
<g>
	<rect x="88.9" y="42.1" class="st6" width="3.6" height="2.4"/>
	<rect x="88.9" y="36.5" class="st6" width="3.6" height="2.4"/>
	<rect x="88.9" y="38.8" class="st7" width="3.6" height="3.3"/>
</g>
<g>
	<rect x="94.3" y="24.5" class="st6" width="3.6" height="2.4"/>
	<rect x="94.3" y="18.8" class="st6" width="3.6" height="2.4"/>
	<rect x="94.3" y="21.1" class="st7" width="3.6" height="3.3"/>
</g>
<g>
	<rect x="71.6" y="24.4" class="st6" width="3.6" height="2.4"/>
	<rect x="71.6" y="18.7" class="st6" width="3.6" height="2.4"/>
	<rect x="71.6" y="21.1" class="st7" width="3.6" height="3.3"/>
</g>
<g>
	<rect x="78.6" y="42.1" class="st6" width="3.6" height="2.4"/>
	<rect x="78.6" y="36.5" class="st6" width="3.6" height="2.4"/>
	<rect x="78.6" y="38.8" class="st7" width="3.6" height="3.3"/>
</g>
<g>
	<rect x="72.6" y="42.8" class="st6" width="5.1" height="3.4"/>
	<rect x="72.6" y="34.8" class="st6" width="5.1" height="3.4"/>
	<rect x="72.6" y="38.2" class="st7" width="5.1" height="4.6"/>
</g>
<g>
	<rect x="66.4" y="42.7" class="st6" width="5.1" height="3.4"/>
	<rect x="66.4" y="34.7" class="st6" width="5.1" height="3.4"/>
	<rect x="66.4" y="38.1" class="st7" width="5.1" height="4.6"/>
</g>
<g>
	<g>
		<rect x="7.9" y="6.2" class="st1" width="7.3" height="4.3"/>
		<rect x="8.6" y="7" class="st2" width="1.1" height="2.9"/>
		<rect x="13.7" y="7" class="st2" width="1.1" height="2.9"/>
	</g>
	<g>
		<rect x="17.3" y="6.6" class="st6" width="2.4" height="3.6"/>
		<rect x="23" y="6.6" class="st6" width="2.4" height="3.6"/>
		<rect x="19.7" y="6.6" class="st7" width="3.3" height="3.6"/>
	</g>
	<polyline class="st8" points="25.1,10.5 17,10.5 17,6.3 25.1,6.3 	"/>
	<text transform="matrix(1 0 0 1 11.9609 5.3805)" class="st5 st9 st10">Power</text>
</g>
<path class="st1" d="M97.4,34.3"/>
<path class="st1" d="M97.5,27.8"/>
<g>
	<rect x="6.4" y="51.1" class="st3" width="12.3" height="7.9"/>
	<text transform="matrix(1 0 0 1 8.1704 57.2672)" class="st11 st12">IIC</text>
</g>
<rect x="19.2" y="16.8" class="st13" width="5.6" height="2.3"/>
<rect x="19.2" y="43.8" class="st13" width="5.6" height="2.3"/>
<line class="st1" x1="23.2" y1="19.1" x2="23.2" y2="24.2"/>
<line class="st1" x1="23.2" y1="38.6" x2="23.2" y2="43.9"/>
<g>
	<rect y="16.8" class="st13" width="21.4" height="29.3"/>
	<g>
		<polygon class="st14" points="15.3,24.2 15.3,22.7 16.8,22.7 16.8,21.4 21.4,21.4 21.4,24.2 		"/>
		<polygon class="st15" points="17.4,21.4 17.4,22.9 15.3,22.9 15.3,24.2 9.1,24.2 9.1,21.4 		"/>
	</g>
	<g>
		<polygon class="st14" points="15.3,41.2 15.3,39.7 16.8,39.7 16.9,38.5 21.4,38.5 21.4,41.2 		"/>
		<polygon class="st15" points="17.4,38.5 17.4,40 15.3,40 15.3,41.2 9.1,41.2 9.1,38.5 		"/>
	</g>
</g>
<polygon class="st13" points="13.3,25.7 13.3,37.2 6,37.2 5.7,42.8 0,42.8 0,20 5.7,20 6,25.7 "/>
<path class="st16" d="M21.4,30.9v-2.8H26c0.5,0,0.8,0.7,0.8,1.3l0,0c0,0.8-0.4,1.3-0.8,1.3h-4.6V30.9z"/>
<path class="st16" d="M21.4,35.5v-2.8H26c0.5,0,0.8,0.7,0.8,1.3l0,0c0,0.8-0.4,1.3-0.8,1.3h-4.6V35.5z"/>
<path class="st16" d="M21.4,40.1v-2.8H26c0.5,0,0.8,0.7,0.8,1.3l0,0c0,0.8-0.4,1.3-0.8,1.3h-4.6V40.1z"/>
<path class="st16" d="M21.4,26.2v-2.8H26c0.5,0,0.8,0.7,0.8,1.3l0,0c0,0.8-0.4,1.3-0.8,1.3h-4.6V26.2z"/>
<path class="st13" d="M0,30.9v-2.8h4.6c0.5,0,0.8,0.7,0.8,1.3l0,0c0,0.8-0.4,1.3-0.8,1.3H0V30.9z"/>
<path class="st13" d="M0,35.5v-2.8h4.6c0.5,0,0.8,0.7,0.8,1.3l0,0c0,0.8-0.4,1.3-0.8,1.3H0V35.5z"/>
<path class="st13" d="M0,40.1v-2.8h4.6c0.5,0,0.8,0.7,0.8,1.3l0,0c0,0.8-0.4,1.3-0.8,1.3H0V40.1z"/>
<path class="st13" d="M0,26.2v-2.8h4.6c0.5,0,0.8,0.7,0.8,1.3l0,0C5.4,25.5,5,26,4.6,26H0V26.2z"/>
<text transform="matrix(1 0 0 1 29.4561 30.7652)" class="st5 st9 st17">V</text>
<text transform="matrix(1 0 0 1 29.2881 25.8531)" class="st5 st9 st17">G</text>
<text transform="matrix(1 0 0 1 27.1426 34.9957)" class="st5 st9 st17">SDA</text>
<text transform="matrix(1 0 0 1 27.3359 40.0973)" class="st5 st9 st17">SCL</text>
<path class="st3" d="M22.3,55v-5.2c0,0,1.1-1.2,1.6,0.5v2.8c0,0,0.3,0.2,0.3-0.3l-0.1-3.7c0,0,0.6-1.5,1.5-0.1l0.1,4
	c0,0,0.3,0.2,0.4-0.2v-3.5c0,0,0.8-1.1,1.4,0.3v3.8c0,0,0.2,0.3,0.4-0.1v-2.4c0,0,0-0.8,1-0.5c0,0,0.4,0.1,0.4,1v6
	c0,0-0.1,2.7-3.2,3c0,0-2.5,0.3-3.9-1.9c0,0-2.4-3.3-2.3-4c0,0,0.2-1.6,1.7-0.5l0.8,1.4l0.1,0.1L22.3,55z"/>
<g>
	<g>
		<rect x="80.4" y="28.4" width="6.6" height="5.6"/>
		<rect x="78" y="28.4" class="st18" width="2.7" height="5.6"/>
		<rect x="77.4" y="28.4" width="2.7" height="5.6"/>
	</g>
	<circle class="st19" cx="85.2" cy="31.2" r="1.3"/>
	<circle class="st19" cx="78.8" cy="31.2" r="1.1"/>
	<rect x="84.4" y="30.4" width="1.6" height="1.6"/>
	<rect x="78.2" y="30.7" width="1.1" height="1.1"/>
</g>
<g>
	<rect x="83.7" y="24.4" class="st20" width="1.6" height="2.5"/>
	<rect x="79.1" y="24.4" class="st20" width="1.6" height="2.5"/>
	<rect x="83.7" y="18.9" class="st20" width="1.6" height="2.5"/>
	<rect x="81.3" y="18.9" class="st20" width="1.6" height="2.5"/>
	<rect x="79" y="18.9" class="st20" width="1.6" height="2.5"/>
	<rect x="78.8" y="21.1" width="6.8" height="3.5"/>
</g>
<text transform="matrix(1 0 0 1 62.5004 54.1677)" class="st21 st22 st23">Gesture  Recognition</text>
<text transform="matrix(1 0 0 1 78.6 60.3669)" class="st21 st22 st23">Module</text>
</svg>
