<?xml version="1.0" encoding="utf-8"?>
<!-- Generator: Adobe Illustrator 23.0.2, SVG Export Plug-In . SVG Version: 6.00 Build 0)  -->
<svg version="1.1" id="图层_1" xmlns="http://www.w3.org/2000/svg" xmlns:xlink="http://www.w3.org/1999/xlink" x="0px" y="0px"
	 width="113.4px" height="62.4px" viewBox="0 0 113.4 62.4" style="enable-background:new 0 0 113.4 62.4;" xml:space="preserve">
<style type="text/css">
	.st0{fill:#EADF9C;}
	.st1{font-family:'SourceHanSansCN-Bold-GBpc-EUC-H';}
	.st2{font-size:5px;}
	.st3{fill:#E2E9E8;}
	.st4{fill:#CBB084;}
	.st5{fill:#FFFFFF;}
	.st6{font-size:7.3495px;}
	.st7{fill:#948C79;}
	.st8{fill:#E6E6E2;}
	.st9{fill:#F5F3E9;}
	.st10{fill:none;stroke:#FFFFFF;stroke-width:0.5;stroke-miterlimit:10;}
	.st11{fill:#EADCC1;}
	.st12{fill:#886830;}
	.st13{fill:#F2F1E9;}
	.st14{fill:#EFDBB5;}
	.st15{font-size:1.7495px;}
	.st16{fill:#75502F;}
	.st17{fill:#A4270D;}
	.st18{fill:#0067B6;}
	.st19{font-family:'SourceHanSansCN-Regular-GBpc-EUC-H';}
	.st20{fill:#E0E7E6;}
	.st21{font-family:'AdobeSongStd-Light-GBpc-EUC-H';}
	.st22{font-size:11.2745px;}
	.st23{fill:none;stroke:#DFE6E5;stroke-width:0.5;stroke-miterlimit:10;}
</style>
<path d="M0,55.9V6.4C0,2.9,2.9,0,6.4,0H107c3.5,0,6.4,2.9,6.4,6.4v49.5c0,3.5-2.9,6.4-6.4,6.4H6.4C2.9,62.4,0,59.5,0,55.9z"/>
<text transform="matrix(1 0 0 1 62.0745 58.179)" class="st0 st1 st2">Tilt switch — Module</text>
<rect x="36.8" y="0" class="st3" width="17.8" height="62.4"/>
<circle class="st4" cx="45.8" cy="8.4" r="7.6"/>
<circle class="st5" cx="45.8" cy="8.4" r="6.8"/>
<circle class="st4" cx="45.8" cy="54.3" r="7.6"/>
<circle class="st5" cx="45.8" cy="54.3" r="6.8"/>
<text transform="matrix(-1.836970e-16 1 -1 -1.836970e-16 29.1055 20.7853)" class="st5 st1 st6">G  V  S</text>
<rect x="21.4" y="24.3" class="st7" width="6.4" height="3"/>
<path class="st8" d="M21.4,26v-1.7H26c0.5,0,0.8,0.4,0.8,0.8l0,0c0,0.5-0.4,0.8-0.8,0.8h-4.6V26z"/>
<rect x="21.4" y="30.1" class="st7" width="6.4" height="3"/>
<path class="st8" d="M21.4,31.8v-1.7H26c0.5,0,0.8,0.4,0.8,0.8l0,0c0,0.5-0.4,0.8-0.8,0.8h-4.6V31.8z"/>
<rect x="21.4" y="36" class="st7" width="6.4" height="3"/>
<path class="st8" d="M21.4,37.7V36H26c0.5,0,0.8,0.4,0.8,0.8l0,0c0,0.5-0.4,0.8-0.8,0.8h-4.6V37.7z"/>
<rect y="16.9" class="st9" width="21.4" height="29.3"/>
<rect x="19.2" y="16.9" class="st9" width="5.6" height="2.3"/>
<rect x="19.2" y="44" class="st9" width="5.6" height="2.3"/>
<line class="st10" x1="23.2" y1="19.2" x2="23.2" y2="24.3"/>
<line class="st10" x1="23.2" y1="39" x2="23.2" y2="44"/>
<polygon class="st11" points="15.3,25.8 15.3,24.3 16.8,24.3 16.8,23 21.4,23 21.4,25.8 "/>
<polygon class="st12" points="17.4,23 17.4,24.5 15.3,24.5 15.3,25.8 9.1,25.8 9.1,23 "/>
<polygon class="st11" points="15.3,42.9 15.3,41.4 16.8,41.4 16.9,40.2 21.4,40.2 21.4,42.9 "/>
<polygon class="st12" points="17.4,40.2 17.4,41.7 15.3,41.7 15.3,42.9 9.1,42.9 9.1,40.2 "/>
<polygon class="st13" points="13.3,27.2 13.3,38.7 6,38.7 5.6,44.4 0,44.4 0,21.5 5.7,21.5 6,27.2 "/>
<g>
	<rect x="62.4" y="26.9" class="st10" width="7.3" height="4.3"/>
	<rect x="63" y="27.6" class="st14" width="1.1" height="2.9"/>
	<rect x="68.1" y="27.6" class="st14" width="1.1" height="2.9"/>
	<text transform="matrix(1 0 0 1 64.5123 29.4787)" class="st5 st1 st15">103</text>
</g>
<g>
	<rect x="62.1" y="33.1" class="st16" width="7.7" height="3.2"/>
	<rect x="62.1" y="33.1" class="st14" width="1.1" height="3.2"/>
	<rect x="68.7" y="33.1" class="st14" width="1.1" height="3.2"/>
</g>
<g>
	<rect x="77" y="6.3" class="st10" width="7.3" height="4.3"/>
	<rect x="82.6" y="7" class="st14" width="1.1" height="2.9"/>
	<rect x="77.5" y="7" class="st14" width="1.1" height="2.9"/>
	<text transform="matrix(-1 0 0 -1 82.1475 7.9682)" class="st5 st1 st15">102</text>
</g>
<g>
	<rect x="86.6" y="6.7" class="st5" width="7.7" height="3.6"/>
	<rect x="86.6" y="6.7" class="st14" width="1.1" height="3.6"/>
	<rect x="93.2" y="6.7" class="st14" width="1.1" height="3.6"/>
</g>
<g>
	<path class="st17" d="M104.1,36.5L96,44.6c-0.5,0.5-1.4,0.5-1.9,0L77,27.5c-0.5-0.5-0.5-1.4,0-1.9l8.1-8.1c0.5-0.5,1.4-0.5,1.9,0
		l17.1,17.1C104.6,35.1,104.6,36,104.1,36.5z"/>
	
		<rect x="82.4" y="16.8" transform="matrix(0.7071 -0.7071 0.7071 0.7071 4.4807 73.1051)" class="st10" width="16.2" height="28.7"/>
	<g>
		<circle class="st14" cx="102.2" cy="42.7" r="1.9"/>
		<circle class="st5" cx="102.2" cy="42.7" r="1.3"/>
		<rect x="99.7" y="37.4" transform="matrix(0.7071 -0.7071 0.7071 0.7071 0.4913 82.9166)" class="st5" width="1.3" height="7"/>
	</g>
	<g>
		<circle class="st14" cx="79.1" cy="19.6" r="1.9"/>
		<circle class="st5" cx="79.1" cy="19.6" r="1.3"/>
		<rect x="80.3" y="18" transform="matrix(0.7071 -0.7071 0.7071 0.7071 8.5427 63.5325)" class="st5" width="1.3" height="7"/>
	</g>
	<path class="st18" d="M103.9,34.4c0,0-2.4,1-5.7,4.3c-3.3,3.3-4.3,5.7-4.3,5.7L77.1,27.6c0,0,2.4-1,5.7-4.3s4.3-5.7,4.3-5.7
		L103.9,34.4z"/>
</g>
<g>
	<g>
		<rect x="9.6" y="6.2" class="st10" width="7.3" height="4.3"/>
		<rect x="15.2" y="6.9" class="st14" width="1.1" height="2.9"/>
		<rect x="10.1" y="6.9" class="st14" width="1.1" height="2.9"/>
		<text transform="matrix(-1 0 0 -1 14.7607 7.892)" class="st5 st1 st15">102</text>
	</g>
	<g>
		<rect x="19.3" y="6.7" class="st5" width="7.7" height="3.6"/>
		<rect x="25.9" y="6.7" class="st14" width="1.1" height="3.6"/>
		<rect x="19.4" y="6.7" class="st14" width="1.1" height="3.6"/>
	</g>
	<text transform="matrix(1 0 0 1 12.539 5.2107)" class="st5 st19 st2">Power</text>
</g>
<g>
	<rect x="8.4" y="49.1" class="st20" width="9.6" height="11"/>
	<text transform="matrix(1 0 0 1 9.3469 58.1794)" class="st21 st22">D</text>
	<g>
		<path class="st23" d="M25,60.2l-3.6-1.7c-0.4-0.2-0.6-0.7-0.4-1.1l3.8-8c0.2-0.4,0.7-0.6,1.1-0.4l3.6,1.7c0.4,0.2,0.6,0.7,0.4,1.1
			l-3.8,8C25.9,60.2,25.4,60.4,25,60.2z"/>
		<path class="st20" d="M22.4,54.6l-1.3,2.8c-0.2,0.4,0,0.9,0.4,1.1l3.6,1.7c0.4,0.2,0.9,0,1.1-0.4l2.3-4.9L22.4,54.6z"/>
		<path class="st20" d="M28.3,50.3L27,49.8c0,0-0.1-0.1,0-0.1l0.1-0.3c0,0,0.1-0.1,0.1,0l1.3,0.6c0,0,0.1,0.1,0,0.1L28.3,50.3
			C28.4,50.3,28.3,50.3,28.3,50.3z"/>
	</g>
</g>
</svg>
