<?xml version="1.0" encoding="utf-8"?>
<!-- Generator: Adobe Illustrator 23.0.2, SVG Export Plug-In . SVG Version: 6.00 Build 0)  -->
<svg version="1.1" id="图层_1" xmlns="http://www.w3.org/2000/svg" xmlns:xlink="http://www.w3.org/1999/xlink" x="0px" y="0px"
	 width="113.4px" height="62.4px" viewBox="0 0 113.4 62.4" style="enable-background:new 0 0 113.4 62.4;" xml:space="preserve">
<style type="text/css">
	.st0{fill:#282828;}
	.st1{fill:#EADF9C;}
	.st2{font-family:'SourceHanSansCN-Bold-GBpc-EUC-H';}
	.st3{font-size:5.3517px;}
	.st4{fill:none;stroke:#FFFFFF;stroke-width:0.5;stroke-miterlimit:10;}
	.st5{fill:#E6E6E6;}
	.st6{fill:#C7D5D6;}
	.st7{fill:#CBB084;}
	.st8{fill:#FFFFFF;}
	.st9{fill:#F2F2F2;}
	.st10{fill:#F1F268;}
	.st11{fill:none;stroke:#FFFFFF;stroke-width:0.2986;stroke-miterlimit:10;}
	.st12{font-size:3.5193px;}
	.st13{fill:#9B6F4A;}
	.st14{fill:#E5E5DF;}
	.st15{fill:#E6E6E2;}
	.st16{fill:#F5F3E9;}
	.st17{fill:#EADCC1;}
	.st18{fill:#886830;}
	.st19{font-size:7.3495px;}
	.st20{font-family:'AdobeSongStd-Light-GBpc-EUC-H';}
	.st21{font-size:12px;}
	.st22{fill:none;stroke:#C7D5D6;stroke-width:0.5;stroke-miterlimit:10;}
	.st23{fill:#9B7E74;}
	.st24{fill:#1C1C1C;}
	.st25{fill:#282C2A;}
	.st26{font-family:'SourceHanSansCN-Regular-GBpc-EUC-H';}
	.st27{font-size:2.9323px;}
</style>
<path class="st0" d="M0.1,56V6.4C0.1,2.9,3,0,6.5,0h100.6c3.5,0,6.4,2.9,6.4,6.4V56c0,3.5-2.9,6.4-6.4,6.4H6.5
	C3,62.5,0.1,59.6,0.1,56z"/>
<text transform="matrix(1 0 0 1 71.0299 56.1793)" class="st1 st2 st3">IR  Receiver</text>
<g>
	<rect x="83.8" y="44" width="4.3" height="3"/>
	<g>
		<rect x="82.3" y="43.3" class="st4" width="7.3" height="4.3"/>
		<rect x="83" y="44.1" class="st5" width="1.1" height="2.9"/>
		<rect x="88.1" y="44.1" class="st5" width="1.1" height="2.9"/>
	</g>
</g>
<rect x="36.9" y="0" class="st6" width="17.8" height="62.4"/>
<circle class="st7" cx="45.9" cy="8.4" r="7.6"/>
<circle class="st8" cx="45.9" cy="8.4" r="6.8"/>
<circle class="st7" cx="45.9" cy="54.3" r="7.6"/>
<circle class="st8" cx="45.9" cy="54.3" r="6.8"/>
<g>
	<g>
		<rect x="10.3" y="5.5" class="st4" width="7.3" height="4.3"/>
		<rect x="11" y="6.3" class="st5" width="1.1" height="2.9"/>
		<rect x="16.1" y="6.3" class="st5" width="1.1" height="2.9"/>
	</g>
	<rect x="19.8" y="5.9" class="st9" width="2.4" height="3.6"/>
	<rect x="25.5" y="5.9" class="st9" width="2.4" height="3.6"/>
	<rect x="22.2" y="5.9" class="st10" width="3.3" height="3.6"/>
	<polyline class="st11" points="27.6,9.8 19.5,9.8 19.5,5.6 27.6,5.6 	"/>
	<text transform="matrix(1 0 0 1 12.7538 4.6796)" class="st8 st2 st12">Power</text>
</g>
<path class="st4" d="M97.4,34.3"/>
<path class="st4" d="M97.5,27.8"/>
<g>
	<rect x="84.2" y="15.8" class="st13" width="3.7" height="2.1"/>
	<rect x="87.2" y="15.9" class="st14" width="2.1" height="2.1"/>
	<rect x="82.7" y="15.8" class="st14" width="2.1" height="2.1"/>
</g>
<g>
	<path class="st15" d="M21.3,32.8V30h4.6c0.5,0,0.8,0.7,0.8,1.3l0,0c0,0.8-0.4,1.3-0.8,1.3h-4.6V32.8z"/>
	<path class="st15" d="M21.3,38.7v-2.8h4.6c0.5,0,0.8,0.7,0.8,1.3l0,0c0,0.8-0.4,1.3-0.8,1.3h-4.6V38.7z"/>
	<path class="st15" d="M21.3,27v-2.8h4.6c0.5,0,0.8,0.7,0.8,1.3l0,0c0,0.8-0.4,1.3-0.8,1.3h-4.6V27z"/>
	<rect x="19.1" y="16.8" class="st16" width="5.6" height="2.3"/>
	<rect x="19.1" y="43.8" class="st16" width="5.6" height="2.3"/>
	<line class="st4" x1="23.1" y1="19.1" x2="23.1" y2="24.2"/>
	<line class="st4" x1="23.1" y1="38.6" x2="23.1" y2="43.9"/>
	<g>
		<rect x="-0.1" y="16.8" class="st16" width="21.4" height="29.3"/>
		<g>
			<polygon class="st17" points="15.2,24.2 15.2,22.7 16.7,22.7 16.7,21.4 21.3,21.4 21.3,24.2 			"/>
			<polygon class="st18" points="17.3,21.4 17.3,22.9 15.2,22.9 15.2,24.2 9,24.2 9,21.4 			"/>
		</g>
		<g>
			<polygon class="st17" points="15.2,41.2 15.2,39.7 16.7,39.7 16.8,38.5 21.3,38.5 21.3,41.2 			"/>
			<polygon class="st18" points="17.3,38.5 17.3,40 15.2,40 15.2,41.2 9,41.2 9,38.5 			"/>
		</g>
	</g>
	<polygon class="st16" points="13.3,25.7 13.3,37.2 6,37.2 5.6,42.8 0,42.8 0,20 5.6,20 6,25.7 	"/>
</g>
<text transform="matrix(6.123234e-17 1 -1 6.123234e-17 28.8633 19.7437)" class="st8 st2 st19">G  V  S</text>
<g>
	<rect x="7.8" y="48.6" class="st6" width="9.6" height="11"/>
	<text transform="matrix(1 0 0 1 8.1052 57.3863)" class="st20 st21">A</text>
</g>
<g>
	<path class="st6" d="M25.1,51.8h0.5v-0.6c0-0.3,0.3-0.6,0.6-0.6h1.9c0.3,0,0.6,0.3,0.6,0.6v7.3c0,0.3-0.3,0.6-0.6,0.6h-1.9
		c-0.3,0-0.6-0.3-0.6-0.6v-0.7h-0.5c-0.2,0-0.4-0.2-0.4-0.4v-5.1C24.7,52,24.9,51.8,25.1,51.8z M26.1,57.4v1.1
		c0,0.1,0.1,0.1,0.1,0.1h1.9c0.1,0,0.1-0.1,0.1-0.1v-7.3c0-0.1-0.1-0.1-0.1-0.1h-1.9c-0.1,0-0.1,0.1-0.1,0.1v1.2h-0.9v5H26.1z"/>
</g>
<g>
	<path class="st6" d="M23.1,54.8c0-1.7-0.7-3.2-1.7-3.7l0.2-0.4c1.2,0.5,2,2.2,2,4.1c0,2-0.9,3.7-2.2,4.2l-0.2-0.5
		C22.3,58.1,23.1,56.5,23.1,54.8z"/>
</g>
<path class="st22" d="M20.8,52.2c0.6,0.5,1,1.5,1,2.5c0,1.2-0.5,2.2-1.3,2.7"/>
<path class="st22" d="M19.5,53.4c0.3,0.3,0.5,0.8,0.5,1.3c0,0.6-0.3,1.2-0.7,1.5"/>
<g>
	<g>
		<g>
			<rect x="88.4" y="36.1" class="st23" width="1.9" height="5.2"/>
			<rect x="81" y="36.1" class="st23" width="1.9" height="5.2"/>
			<rect x="88.4" y="20.8" class="st23" width="1.9" height="5.2"/>
			<rect x="81" y="20.8" class="st23" width="1.9" height="5.2"/>
		</g>
		<rect x="88.4" y="36.4" class="st23" width="1.9" height="5.2"/>
	</g>
	<g>
		<rect x="79" y="25.7" class="st24" width="13.7" height="10.6"/>
		<circle cx="87.9" cy="31" r="4.2"/>
		<text transform="matrix(6.123234e-17 1 -1 6.123234e-17 79.5645 26.8512)" class="st25 st26 st27">A 4 1 4</text>
	</g>
</g>
</svg>
