<?xml version="1.0" encoding="utf-8"?>
<!-- Generator: Adobe Illustrator 23.0.2, SVG Export Plug-In . SVG Version: 6.00 Build 0)  -->
<svg version="1.1" id="图层_1" xmlns="http://www.w3.org/2000/svg" xmlns:xlink="http://www.w3.org/1999/xlink" x="0px" y="0px"
	 width="113.4px" height="62.4px" viewBox="0 0 113.4 62.4" style="enable-background:new 0 0 113.4 62.4;" xml:space="preserve">
<style type="text/css">
	.st0{fill:#282828;}
	.st1{fill:#C7D5D4;}
	.st2{fill:#CAB084;}
	.st3{fill:#FFFFFF;}
	.st4{font-family:'SourceHanSansCN-Bold-GBpc-EUC-H';}
	.st5{font-size:5.9167px;}
	.st6{fill:#E6E6E2;}
	.st7{fill:#F3F2E9;}
	.st8{fill:none;stroke:#FFFFFF;stroke-width:0.5;stroke-miterlimit:10;}
	.st9{fill:#E9DCC1;}
	.st10{fill:#876830;}
	.st11{fill:#E8DF9C;}
	.st12{font-size:4.3579px;}
	.st13{fill:#E6E6E6;}
	.st14{fill:#F2F2F2;}
	.st15{fill:#F0F268;}
	.st16{fill:none;stroke:#FFFFFF;stroke-width:0.2986;stroke-miterlimit:10;}
	.st17{font-size:3.5193px;}
	.st18{fill:none;stroke:#F3F2E9;stroke-width:0.5;stroke-miterlimit:10;}
	.st19{fill:#C9C8C3;}
	.st20{fill:#BCB5AC;}
	.st21{fill:none;stroke:#B8B7B2;stroke-miterlimit:10;}
	.st22{fill:none;stroke:#C9C8C3;stroke-miterlimit:10;}
	.st23{fill:#B8B7B2;}
</style>
<path class="st0" d="M0,56V6.4C0,2.9,2.9,0,6.4,0H107c3.5,0,6.4,2.9,6.4,6.4V56c0,3.5-2.9,6.4-6.4,6.4H6.4C2.9,62.5,0,59.6,0,56z"/>
<rect x="36.8" y="0" class="st1" width="17.8" height="62.4"/>
<circle class="st2" cx="45.8" cy="8.2" r="7.6"/>
<circle class="st2" cx="45.8" cy="54.1" r="7.6"/>
<circle class="st3" cx="45.8" cy="8.4" r="6.8"/>
<circle class="st3" cx="45.8" cy="54.3" r="6.8"/>
<text transform="matrix(6.123234e-17 1 -1 6.123234e-17 28.4785 17.3937)" class="st3 st4 st5">G  V  A  B  D</text>
<path class="st6" d="M18,27.2v-2.8h7.5c0.8,0,1.3,0.7,1.3,1.3l0,0c0,0.8-0.7,1.3-1.3,1.3H18V27.2z"/>
<path class="st6" d="M18,33.1v-2.8h7.5c0.8,0,1.3,0.7,1.3,1.3l0,0c0,0.8-0.7,1.3-1.3,1.3H18V33.1z"/>
<path class="st6" d="M18,38.9v-2.8h7.5c0.8,0,1.3,0.7,1.3,1.3l0,0c0,0.8-0.7,1.3-1.3,1.3H18V38.9z"/>
<path class="st6" d="M18,44.8V42h7.5c0.8,0,1.3,0.7,1.3,1.3l0,0c0,0.8-0.7,1.3-1.3,1.3H18V44.8z"/>
<path class="st6" d="M18,21.3v-2.8h7.5c0.8,0,1.3,0.7,1.3,1.3l0,0c0,0.8-0.7,1.3-1.3,1.3H18V21.3z"/>
<rect x="17.7" y="11.5" class="st7" width="5.6" height="2.3"/>
<rect x="17.7" y="49.5" class="st7" width="5.6" height="2.3"/>
<line class="st8" x1="21.5" y1="13.8" x2="21.5" y2="18.9"/>
<line class="st8" x1="21.5" y1="44.5" x2="21.5" y2="49.6"/>
<g>
	<rect x="0" y="11.5" class="st7" width="18.3" height="40.3"/>
	<g>
		<polygon class="st9" points="13.1,19.7 13.1,17.9 14.4,17.9 14.4,16.2 18.3,16.2 18.3,19.7 		"/>
		<polygon class="st10" points="14.9,16.2 14.9,18.1 13.1,18.1 13.1,19.7 7.8,19.7 7.8,16.2 		"/>
	</g>
	<g>
		<polygon class="st9" points="13.2,47.1 13.2,45.2 14.5,45.2 14.5,43.8 18.4,43.8 18.4,47.1 		"/>
		<polygon class="st10" points="15,43.8 15,45.6 13.2,45.6 13.2,47.1 7.9,47.1 7.9,43.8 		"/>
	</g>
</g>
<polygon class="st7" points="13.3,23.1 13.3,40.2 6,40.2 5.6,45.9 0,45.9 0,17.4 5.7,17.4 6,23.1 "/>
<g>
	<text transform="matrix(1 0 0 1 4.9754 55.8935)" class="st11 st4 st12">Rotary  encoder</text>
	<text transform="matrix(1 0 0 1 14.075 61.0927)" class="st11 st4 st12">Module</text>
</g>
<g>
	<rect x="57.6" y="55.9" class="st8" width="7.3" height="4.3"/>
	<rect x="63.1" y="56.5" class="st13" width="1.1" height="2.9"/>
	<rect x="58" y="56.5" class="st13" width="1.1" height="2.9"/>
</g>
<g>
	<rect x="94.9" y="55.9" class="st8" width="7.3" height="4.3"/>
	<rect x="100.4" y="56.5" class="st13" width="1.1" height="2.9"/>
	<rect x="95.3" y="56.5" class="st13" width="1.1" height="2.9"/>
</g>
<g>
	<rect x="58.1" y="1.8" class="st8" width="7.3" height="4.3"/>
	<rect x="63.6" y="2.4" class="st13" width="1.1" height="2.9"/>
	<rect x="58.5" y="2.4" class="st13" width="1.1" height="2.9"/>
</g>
<g>
	<rect x="95.4" y="1.8" class="st8" width="7.3" height="4.3"/>
	<rect x="100.9" y="2.4" class="st13" width="1.1" height="2.9"/>
	<rect x="95.8" y="2.4" class="st13" width="1.1" height="2.9"/>
</g>
<g>
	<g>
		<rect x="9.8" y="4.9" class="st8" width="7.3" height="4.3"/>
		<rect x="10.5" y="5.7" class="st13" width="1.1" height="2.9"/>
		<rect x="15.6" y="5.7" class="st13" width="1.1" height="2.9"/>
	</g>
	<rect x="18.9" y="5.3" class="st14" width="2.4" height="3.6"/>
	<rect x="24.6" y="5.3" class="st14" width="2.4" height="3.6"/>
	<rect x="21.3" y="5.3" class="st15" width="3.3" height="3.6"/>
	<polyline class="st16" points="26.7,9.2 18.6,9.2 18.6,5 26.7,5 	"/>
	<text transform="matrix(1 0 0 1 12.3337 3.9438)" class="st3 st4 st17">Power</text>
</g>
<rect x="55.6" y="6.8" class="st18" width="48.5" height="48.5"/>
<rect x="74.7" y="46.5" class="st19" width="9.9" height="7.9"/>
<g>
	<rect x="97" y="21.4" class="st19" width="7.2" height="4.6"/>
	<rect x="97" y="35.5" class="st19" width="7.2" height="4.6"/>
	<rect x="56" y="21.8" class="st19" width="7.2" height="4.6"/>
	<rect x="56" y="35.9" class="st19" width="7.2" height="4.6"/>
	<rect x="56" y="28.9" class="st19" width="7.2" height="4.6"/>
</g>
<path class="st20" d="M63.2,44.5V17.8c0-1.5,1.2-2.8,2.8-2.8h28.8c1.5,0,2.8,1.2,2.8,2.8v26.7c0,1.5-1.2,2.8-2.8,2.8H66
	C64.5,47.3,63.2,46.1,63.2,44.5z"/>
<rect x="74.7" y="7.3" class="st19" width="9.9" height="7.9"/>
<rect x="76" y="15.6" class="st19" width="7.9" height="7.9"/>
<rect x="75.9" y="38.7" class="st19" width="7.9" height="7.9"/>
<circle class="st19" cx="80.7" cy="31.4" r="11.8"/>
<circle class="st21" cx="80.7" cy="31.4" r="9.3"/>
<path class="st22" d="M87.3,35.9c-1.4,2.1-3.9,3.5-6.6,3.5c-4.4,0-8-3.6-8-8s3.6-8,8-8c0.7,0,1.3,0.1,2,0.2"/>
<circle class="st23" cx="80.7" cy="31.4" r="7.3"/>
</svg>
