<?xml version="1.0" encoding="utf-8"?>
<!-- Generator: Adobe Illustrator 23.0.2, SVG Export Plug-In . SVG Version: 6.00 Build 0)  -->
<svg version="1.1" id="图层_1" xmlns="http://www.w3.org/2000/svg" xmlns:xlink="http://www.w3.org/1999/xlink" x="0px" y="0px"
	 width="113.4px" height="62.4px" viewBox="0 0 113.4 62.4" style="enable-background:new 0 0 113.4 62.4;" xml:space="preserve">
<style type="text/css">
	.st0{fill:#EADF9C;}
	.st1{font-family:'SourceHanSansCN-Bold-GBpc-EUC-H';}
	.st2{font-size:5.8803px;}
	.st3{fill:#E6E6E6;}
	.st4{fill:#F5F5F5;}
	.st5{fill:none;stroke:#FFFFFF;stroke-width:0.5;stroke-miterlimit:10;}
	.st6{fill:#FFFFFF;}
	.st7{font-size:1.7495px;}
	.st8{fill:#E2E9E8;}
	.st9{fill:#CBB084;}
	.st10{font-size:7.3495px;}
	.st11{fill:#948C79;}
	.st12{fill:#E6E6E2;}
	.st13{fill:#F5F3E9;}
	.st14{fill:#EADCC1;}
	.st15{fill:#886830;}
	.st16{fill:#F2F2F2;}
	.st17{fill:#F0CC60;}
	.st18{fill:#E0E7E6;}
	.st19{font-family:'AdobeSongStd-Light-GBpc-EUC-H';}
	.st20{font-size:12px;}
	.st21{fill:none;stroke:#E2E9E8;stroke-miterlimit:10;}
	.st22{fill:none;stroke:#E2E9E8;stroke-width:0.8677;stroke-miterlimit:10;}
	.st23{fill:#F1F268;}
	.st24{fill:none;stroke:#FFFFFF;stroke-width:0.25;stroke-miterlimit:10;}
	.st25{font-size:3.5193px;}
	.st26{fill:#F2F1E9;}
</style>
<path d="M0,55.9V6.4C0,2.9,2.9,0,6.4,0H107c3.5,0,6.4,2.9,6.4,6.4v49.5c0,3.5-2.9,6.4-6.4,6.4H6.4C2.9,62.4,0,59.5,0,55.9z"/>
<g>
	<text transform="matrix(1 0 0 1 67.2673 51.4438)" class="st0 st1 st2">Photosensitive</text>
	<text transform="matrix(1 0 0 1 78.9675 58.5434)" class="st0 st1 st2">Sensor</text>
</g>
<circle class="st3" cx="89.9" cy="31.2" r="8.5"/>
<circle class="st4" cx="89.9" cy="31.2" r="7.2"/>
<rect x="64.3" y="23.6" class="st5" width="7.3" height="4.3"/>
<rect x="69.9" y="24.3" class="st3" width="1.1" height="2.9"/>
<rect x="64.8" y="24.3" class="st3" width="1.1" height="2.9"/>
<text transform="matrix(-1 0 0 -1 69.5322 25.3334)" class="st6 st1 st7">473</text>
<rect x="64.3" y="28.5" class="st5" width="7.3" height="4.3"/>
<rect x="69.9" y="29.2" class="st3" width="1.1" height="2.9"/>
<rect x="64.8" y="29.2" class="st3" width="1.1" height="2.9"/>
<text transform="matrix(-1 0 0 -1 68.5176 30.2182)" class="st6 st1 st7">0</text>
<rect x="36.8" y="0" class="st8" width="17.8" height="62.4"/>
<circle class="st9" cx="45.8" cy="8.4" r="7.6"/>
<circle class="st6" cx="45.8" cy="8.4" r="6.8"/>
<circle class="st9" cx="45.8" cy="54.3" r="7.6"/>
<circle class="st6" cx="45.8" cy="54.3" r="6.8"/>
<text transform="matrix(-1.836970e-16 1 -1 -1.836970e-16 29.1055 20.7853)" class="st6 st1 st10">G  V  S</text>
<rect x="21.4" y="24.3" class="st11" width="6.4" height="3"/>
<path class="st12" d="M21.4,26v-1.7H26c0.5,0,0.8,0.4,0.8,0.8l0,0c0,0.5-0.4,0.8-0.8,0.8h-4.6V26z"/>
<rect x="21.4" y="30.1" class="st11" width="6.4" height="3"/>
<path class="st12" d="M21.4,31.8v-1.7H26c0.5,0,0.8,0.4,0.8,0.8l0,0c0,0.5-0.4,0.8-0.8,0.8h-4.6V31.8z"/>
<rect x="21.4" y="36" class="st11" width="6.4" height="3"/>
<path class="st12" d="M21.4,37.7V36H26c0.5,0,0.8,0.4,0.8,0.8l0,0c0,0.5-0.4,0.8-0.8,0.8h-4.6V37.7z"/>
<rect y="16.9" class="st13" width="21.4" height="29.3"/>
<rect x="19.2" y="16.9" class="st13" width="5.6" height="2.3"/>
<rect x="19.2" y="43.9" class="st13" width="5.6" height="2.3"/>
<line class="st5" x1="23.2" y1="19.2" x2="23.2" y2="24.3"/>
<line class="st5" x1="23.2" y1="39" x2="23.2" y2="44"/>
<polygon class="st14" points="15.3,25.8 15.3,24.3 16.8,24.3 16.8,23 21.4,23 21.4,25.8 "/>
<polygon class="st15" points="17.4,23 17.4,24.5 15.3,24.5 15.3,25.8 9.1,25.8 9.1,23 "/>
<polygon class="st14" points="15.3,42.9 15.3,41.4 16.8,41.4 16.9,40.2 21.4,40.2 21.4,42.9 "/>
<polygon class="st15" points="17.4,40.2 17.4,41.7 15.3,41.7 15.3,42.9 9.1,42.9 9.1,40.2 "/>
<g>
	<rect x="68.9" y="34.2" class="st16" width="2.4" height="3.6"/>
	<rect x="64.6" y="34.2" class="st16" width="2" height="3.6"/>
	<rect x="66.6" y="34.2" class="st17" width="2.8" height="3.6"/>
</g>
<g>
	<rect x="6.8" y="48.6" class="st18" width="9.6" height="11"/>
	<text transform="matrix(1 0 0 1 7.5336 57.4259)" class="st19 st20">A</text>
	<circle class="st21" cx="22.3" cy="53.7" r="3.7"/>
	<line class="st21" x1="22.3" y1="51.6" x2="22.3" y2="47.4"/>
	<line class="st21" x1="22.3" y1="60" x2="22.3" y2="56.1"/>
	<rect x="20.3" y="51.6" class="st22" width="4.1" height="4.4"/>
	<polygon class="st21" points="26.2,56 26.8,57 27.1,56.4 27.3,56 	"/>
	<line class="st21" x1="29" y1="58" x2="26" y2="55.7"/>
	<polygon class="st21" points="26,51.4 26.6,50.4 26.9,51 27,51.4 	"/>
	<line class="st21" x1="28.8" y1="49.3" x2="25.8" y2="51.6"/>
	<polygon class="st21" points="26.4,53.5 27.6,53.2 27.4,53.8 27.3,54.2 	"/>
	<line class="st21" x1="29.9" y1="53.7" x2="26.2" y2="53.6"/>
</g>
<g>
	<rect x="10.5" y="5.6" class="st5" width="7.3" height="4.3"/>
	<rect x="11.2" y="6.4" class="st3" width="1.1" height="2.9"/>
	<rect x="16.3" y="6.4" class="st3" width="1.1" height="2.9"/>
	<rect x="19.8" y="6" class="st16" width="2.4" height="3.6"/>
	<rect x="25.5" y="6" class="st16" width="2.4" height="3.6"/>
	<rect x="22.2" y="6" class="st23" width="3.3" height="3.6"/>
	<rect x="19.8" y="6" class="st24" width="8.1" height="3.6"/>
	<text transform="matrix(1 0 0 1 14.0002 4.7443)" class="st6 st1 st25">Power</text>
</g>
<polygon class="st26" points="13.3,27.2 13.3,38.7 6,38.7 5.6,44.4 0,44.4 0,21.5 5.7,21.5 6,27.2 "/>
</svg>
