<?xml version="1.0" encoding="utf-8"?>
<!-- Generator: Adobe Illustrator 23.0.2, SVG Export Plug-In . SVG Version: 6.00 Build 0)  -->
<svg version="1.1" id="图层_1" xmlns="http://www.w3.org/2000/svg" xmlns:xlink="http://www.w3.org/1999/xlink" x="0px" y="0px"
	 width="126.2px" height="62.4px" viewBox="0 0 126.2 62.4" style="enable-background:new 0 0 126.2 62.4;" xml:space="preserve">
<style type="text/css">
	.st0{fill:#282828;}
	.st1{fill:#EADF9C;}
	.st2{font-family:'SourceHanSansCN-Bold-GBpc-EUC-H';}
	.st3{font-size:5.3517px;}
	.st4{fill:none;stroke:#FFFFFF;stroke-width:0.5;stroke-miterlimit:10;}
	.st5{fill:#E6E6E6;}
	.st6{fill:#C7D5D6;}
	.st7{fill:#CBB084;}
	.st8{fill:#FFFFFF;}
	.st9{fill:#F2F2F2;}
	.st10{fill:#F1F268;}
	.st11{fill:none;stroke:#FFFFFF;stroke-width:0.2986;stroke-miterlimit:10;}
	.st12{font-size:3.5193px;}
	.st13{fill:#E6E6E2;}
	.st14{fill:#F5F3E9;}
	.st15{fill:#EADCC1;}
	.st16{fill:#886830;}
	.st17{font-size:7.3495px;}
	.st18{fill:none;stroke:#C7D5D6;stroke-width:0.5;stroke-miterlimit:10;}
	.st19{fill:none;stroke:#C7D5D6;stroke-width:0.6272;stroke-miterlimit:10;}
	.st20{fill:#2E9EC7;}
</style>
<path class="st0" d="M114.9,56V41.6h-13.8V20.8h13.8V6.4c0-3.5-2.9-6.4-6.4-6.4H7.8C4.3,0,1.4,2.9,1.4,6.4V56c0,3.6,2.9,6.5,6.4,6.4
	h100.7C112,62.4,114.9,59.5,114.9,56z"/>
<text transform="matrix(1 0 0 1 66.2004 53.5487)" class="st1 st2 st3">Infrared  emission</text>
<text transform="matrix(1 0 0 1 80.2004 59.9471)" class="st1 st2 st3">Module</text>
<g>
	<rect x="70.3" y="37" width="4.3" height="3"/>
	<g>
		<rect x="68.7" y="36.2" class="st4" width="7.3" height="4.3"/>
		<rect x="69.4" y="37" class="st5" width="1.1" height="2.9"/>
		<rect x="74.5" y="37" class="st5" width="1.1" height="2.9"/>
	</g>
</g>
<g>
	<rect x="70.4" y="22.1" width="4.3" height="3"/>
	<g>
		<rect x="68.7" y="21.3" class="st4" width="7.3" height="4.3"/>
		<rect x="69.4" y="22.1" class="st5" width="1.1" height="2.9"/>
		<rect x="74.5" y="22.1" class="st5" width="1.1" height="2.9"/>
	</g>
</g>
<rect x="38.3" y="0" class="st6" width="17.8" height="62.4"/>
<circle class="st7" cx="47.3" cy="8.4" r="7.6"/>
<circle class="st8" cx="47.3" cy="8.4" r="6.8"/>
<circle class="st7" cx="47.3" cy="54.3" r="7.6"/>
<circle class="st8" cx="47.3" cy="54.3" r="6.8"/>
<g>
	<g>
		<rect x="12" y="5.6" class="st4" width="7.3" height="4.3"/>
		<rect x="12.7" y="6.4" class="st5" width="1.1" height="2.9"/>
		<rect x="17.8" y="6.4" class="st5" width="1.1" height="2.9"/>
	</g>
	<rect x="21.1" y="6" class="st9" width="2.4" height="3.6"/>
	<rect x="26.8" y="6" class="st9" width="2.4" height="3.6"/>
	<rect x="23.5" y="6" class="st10" width="3.3" height="3.6"/>
	<polyline class="st11" points="28.9,9.9 20.8,9.9 20.8,5.7 28.9,5.7 	"/>
	<text transform="matrix(1 0 0 1 14.7062 4.7281)" class="st8 st2 st12">Power</text>
</g>
<path class="st4" d="M98.8,34.3"/>
<path class="st4" d="M98.9,27.8"/>
<g>
	<path class="st13" d="M22.8,32.8V30h4.6c0.5,0,0.8,0.7,0.8,1.3l0,0c0,0.8-0.4,1.3-0.8,1.3h-4.6V32.8z"/>
	<path class="st13" d="M22.8,38.7v-2.8h4.6c0.5,0,0.8,0.7,0.8,1.3l0,0c0,0.8-0.4,1.3-0.8,1.3h-4.6V38.7z"/>
	<path class="st13" d="M22.8,27v-2.8h4.6c0.5,0,0.8,0.7,0.8,1.3l0,0c0,0.8-0.4,1.3-0.8,1.3h-4.6V27z"/>
	<rect x="20.6" y="16.8" class="st14" width="5.6" height="2.3"/>
	<rect x="20.6" y="43.8" class="st14" width="5.6" height="2.3"/>
	<line class="st4" x1="24.6" y1="19.1" x2="24.6" y2="24.2"/>
	<line class="st4" x1="24.6" y1="38.6" x2="24.6" y2="43.9"/>
	<g>
		<rect x="1.4" y="16.8" class="st14" width="21.4" height="29.3"/>
		<g>
			<polygon class="st15" points="16.7,24.2 16.7,22.7 18.2,22.7 18.2,21.4 22.8,21.4 22.8,24.2 			"/>
			<polygon class="st16" points="18.8,21.4 18.8,22.9 16.7,22.9 16.7,24.2 10.5,24.2 10.5,21.4 			"/>
		</g>
		<g>
			<polygon class="st15" points="16.7,41.2 16.7,39.7 18.2,39.7 18.3,38.5 22.8,38.5 22.8,41.2 			"/>
			<polygon class="st16" points="18.8,38.5 18.8,40 16.7,40 16.7,41.2 10.5,41.2 10.5,38.5 			"/>
		</g>
	</g>
	<polygon class="st14" points="14.7,25.7 14.7,37.2 7.4,37.2 7.1,42.8 1.4,42.8 1.4,20 7.1,20 7.4,25.7 	"/>
</g>
<text transform="matrix(-1.836970e-16 1 -1 -1.836970e-16 30.3555 19.7437)" class="st8 st2 st17">G  V  S</text>
<g>
	<g>
		<path class="st6" d="M22.1,51.6l0.2-0.5c1.3,0.5,2.2,2.2,2.2,4.2c0,1.9-0.8,3.6-2,4.1L22.3,59c1-0.5,1.7-2,1.7-3.7
			C23.9,53.6,23.2,52,22.1,51.6z"/>
	</g>
	<path class="st18" d="M19.9,52.8c0.8,0.5,1.3,1.5,1.3,2.7c0,1-0.4,2-1,2.5"/>
	<path class="st18" d="M18.7,53.9c0.4,0.3,0.7,0.9,0.7,1.5c0,0.5-0.2,1-0.5,1.3"/>
	<path class="st19" d="M21.2,52.1c0.9,0.8,1.5,2,1.5,3.4c0,1.3-0.6,2.5-1.5,3.4"/>
	<path class="st18" d="M23.8,50.8c1.1,1,1.8,2.7,1.8,4.6c0,2-0.8,3.8-1.9,4.8"/>
	<path class="st6" d="M15.2,59.4c0,0,1.1,0.1,0.8-2.6l-0.4-0.2v-2.4l0.3-0.2c0,0,0.5-2.3-0.8-2.4c0,0-0.2-0.8,0.3-0.7
		c0,0,1.2,0,1.1,1.4v1.8l0.7,0.7c0,0,0.4,1.7-0.6,2v2c0,0,0,1.2-1.5,1C15.2,59.8,15.1,59.6,15.2,59.4z"/>
</g>
<rect x="71" y="26.8" class="st5" width="2.2" height="2.5"/>
<rect x="73.8" y="32.7" class="st5" width="2.2" height="2.5"/>
<rect x="68.3" y="32.7" class="st5" width="2.2" height="2.5"/>
<rect x="68" y="28.8" width="8.5" height="3.9"/>
<polyline class="st4" points="67.5,35.2 67.5,28.6 70.3,28.6 "/>
<polyline class="st4" points="74.2,28.6 76.9,28.6 76.9,33 "/>
<rect x="88.9" y="24.1" class="st5" width="12.1" height="4.3"/>
<rect x="88.9" y="34" class="st5" width="12.1" height="4.3"/>
<path class="st20" d="M120,38.3c3.5-0.3,6.2-3.4,6.2-7.1s-2.7-6.8-6.2-7.1l0,0h-18.9v14.2H120L120,38.3z"/>
</svg>
