<?xml version="1.0" encoding="utf-8"?>
<!-- Generator: Adobe Illustrator 23.0.2, SVG Export Plug-In . SVG Version: 6.00 Build 0)  -->
<svg version="1.1" id="图层_1" xmlns="http://www.w3.org/2000/svg" xmlns:xlink="http://www.w3.org/1999/xlink" x="0px" y="0px"
	 width="113.4px" height="62.4px" viewBox="0 0 113.4 62.4" style="enable-background:new 0 0 113.4 62.4;" xml:space="preserve">
<style type="text/css">
	.st0{fill:#282828;}
	.st1{fill:#E8DF9C;}
	.st2{font-family:'SourceHanSansCN-Bold-GBpc-EUC-H';}
	.st3{font-size:5.6334px;}
	.st4{fill:#C7D5D4;}
	.st5{fill:#CAB084;}
	.st6{fill:#FFFFFF;}
	.st7{font-size:7.3495px;}
	.st8{fill:#E6E6E2;}
	.st9{fill:#F3F2E9;}
	.st10{fill:none;stroke:#FFFFFF;stroke-width:0.5;stroke-miterlimit:10;}
	.st11{fill:#E9DCC1;}
	.st12{fill:#876830;}
	.st13{fill:#E6E6E6;}
	.st14{fill:#F2F2F2;}
	.st15{fill:#F0F268;}
	.st16{fill:none;stroke:#FFFFFF;stroke-width:0.2986;stroke-miterlimit:10;}
	.st17{font-size:3.5193px;}
	.st18{fill:none;stroke:#FFFFFF;stroke-width:0.408;stroke-miterlimit:10;}
	.st19{fill:none;stroke:#FFFFFF;stroke-width:0.7552;stroke-miterlimit:10;}
	.st20{font-family:'AdobeSongStd-Light-GBpc-EUC-H';}
	.st21{font-size:12px;}
	.st22{font-size:5.667px;}
</style>
<path class="st0" d="M0,56V6.4C0,2.9,2.9,0,6.4,0H107c3.5,0,6.4,2.9,6.4,6.4V56c0,3.5-2.9,6.4-6.4,6.4H6.4C2.9,62.5,0,59.6,0,56z"/>
<text transform="matrix(1 0 0 1 66.7633 58.4703)" class="st1 st2 st3">Thermal  sensor</text>
<rect x="36.8" y="0" class="st4" width="17.8" height="62.4"/>
<circle class="st5" cx="45.8" cy="8.4" r="7.6"/>
<circle class="st6" cx="45.8" cy="8.4" r="6.8"/>
<circle class="st5" cx="45.8" cy="54.3" r="7.6"/>
<circle class="st6" cx="45.8" cy="54.3" r="6.8"/>
<text transform="matrix(6.123234e-17 1 -1 6.123234e-17 29.1055 20.7818)" class="st6 st2 st7">G  V  S</text>
<path class="st8" d="M21.4,33v-2.8H26c0.5,0,0.8,0.7,0.8,1.3l0,0c0,0.8-0.4,1.3-0.8,1.3h-4.6V33z"/>
<path class="st8" d="M21.4,38.8V36H26c0.5,0,0.8,0.7,0.8,1.3l0,0c0,0.8-0.4,1.3-0.8,1.3h-4.6V38.8z"/>
<path class="st8" d="M21.4,27.1v-2.8H26c0.5,0,0.8,0.7,0.8,1.3l0,0c0,0.8-0.4,1.3-0.8,1.3h-4.6V27.1z"/>
<rect x="19.2" y="16.9" class="st9" width="5.6" height="2.3"/>
<rect x="19.2" y="43.9" class="st9" width="5.6" height="2.3"/>
<line class="st10" x1="23.2" y1="19.2" x2="23.2" y2="24.3"/>
<line class="st10" x1="23.2" y1="38.7" x2="23.2" y2="44"/>
<g>
	<rect y="16.9" class="st9" width="21.4" height="29.3"/>
	<g>
		<polygon class="st11" points="15.3,24.3 15.3,22.8 16.8,22.8 16.8,21.5 21.4,21.5 21.4,24.3 		"/>
		<polygon class="st12" points="17.4,21.5 17.4,23 15.3,23 15.3,24.3 9.1,24.3 9.1,21.5 		"/>
	</g>
	<g>
		<polygon class="st11" points="15.3,41.3 15.3,39.8 16.8,39.8 16.9,38.6 21.4,38.6 21.4,41.3 		"/>
		<polygon class="st12" points="17.4,38.6 17.4,40.1 15.3,40.1 15.3,41.3 9.1,41.3 9.1,38.6 		"/>
	</g>
</g>
<g>
	<rect x="11" y="6" class="st10" width="7.3" height="4.3"/>
	<rect x="11.6" y="6.8" class="st13" width="1.1" height="2.9"/>
	<rect x="16.7" y="6.8" class="st13" width="1.1" height="2.9"/>
	<rect x="20.3" y="6.4" class="st14" width="2.4" height="3.6"/>
	<rect x="25.9" y="6.4" class="st14" width="2.4" height="3.6"/>
	<rect x="22.5" y="6.4" class="st15" width="3.3" height="3.6"/>
	<polyline class="st16" points="27.9,10.3 19.9,10.3 19.9,6.1 27.9,6.1 	"/>
	<text transform="matrix(1 0 0 1 13.4894 5.1679)" class="st6 st2 st17">Power</text>
</g>
<path class="st10" d="M97.3,34.3"/>
<path class="st10" d="M97.4,27.8"/>
<polygon class="st9" points="13.3,25.8 13.3,37.3 6,37.3 5.6,43 0,43 0,20.1 5.7,20.1 6,25.8 "/>
<path class="st9" d="M0,33v-2.8h4.6c0.5,0,0.8,0.7,0.8,1.3l0,0c0,0.8-0.4,1.3-0.8,1.3H0V33z"/>
<path class="st9" d="M0,38.8V36h4.6c0.5,0,0.8,0.7,0.8,1.3l0,0c0,0.8-0.4,1.3-0.8,1.3H0V38.8z"/>
<path class="st9" d="M0,27.1v-2.8h4.6c0.5,0,0.8,0.7,0.8,1.3l0,0c0,0.8-0.4,1.3-0.8,1.3H0V27.1z"/>
<g>
	<g>
		<rect x="89.3" y="30.6" class="st18" width="3.5" height="6"/>
		<rect x="89.9" y="35.2" class="st13" width="2.4" height="0.9"/>
		<rect x="89.9" y="31" class="st13" width="2.4" height="0.9"/>
	</g>
	<rect x="90" y="31.8" width="2.4" height="3.3"/>
</g>
<g>
	<g>
		<rect x="97.7" y="28.2" class="st19" width="6.5" height="11"/>
		<rect x="98.9" y="36.4" class="st13" width="4.4" height="1.7"/>
		<rect x="98.9" y="28.7" class="st13" width="4.4" height="1.7"/>
	</g>
	<rect x="99" y="30.5" width="4.4" height="6"/>
</g>
<g>
	<rect x="7.2" y="48.7" class="st4" width="9.6" height="11"/>
	<text transform="matrix(1 0 0 1 7.547 57.4234)" class="st20 st21">A</text>
	<text transform="matrix(1 0 0 1 19.1398 53.0894)" class="st4 st2 st22">NTC</text>
	<path class="st4" d="M20.1,57.2c0,0-1.6,0.8,0,1.7c0,0,2.6,1.6,5.5-0.9c0,0,1.8-0.7,3.1,0.8c0,0,1.6-0.3,0.5-1.6c0,0-2.4-1.7-5.2,0
		C24.1,57.2,22.1,59.6,20.1,57.2z"/>
	<path class="st4" d="M20.1,54.3c0,0-1.6,0.8,0,1.7c0,0,2.6,1.6,5.5-0.9c0,0,1.8-0.7,3.1,0.8c0,0,1.6-0.3,0.5-1.6c0,0-2.4-1.7-5.2,0
		C24.1,54.3,22.1,56.6,20.1,54.3z"/>
</g>
</svg>
