<?xml version="1.0" encoding="utf-8"?>
<!-- Generator: Adobe Illustrator 23.0.2, SVG Export Plug-In . SVG Version: 6.00 Build 0)  -->
<svg version="1.1" id="图层_1" xmlns="http://www.w3.org/2000/svg" xmlns:xlink="http://www.w3.org/1999/xlink" x="0px" y="0px"
	 width="113.4px" height="62.4px" viewBox="0 0 113.4 62.4" style="enable-background:new 0 0 113.4 62.4;" xml:space="preserve">
<style type="text/css">
	.st0{fill:#EADF9C;}
	.st1{font-family:'SourceHanSansCN-Bold-GBpc-EUC-H';}
	.st2{font-size:4px;}
	.st3{fill:#E2E9E8;}
	.st4{fill:#CBB084;}
	.st5{fill:#FFFFFF;}
	.st6{fill:#EADCC1;}
	.st7{fill:#886830;}
	.st8{fill:#CDC7C1;}
	.st9{fill:none;stroke:#B3B3B3;stroke-miterlimit:10;}
	.st10{fill:#282828;}
	.st11{fill:#F2F2F2;}
	.st12{fill:#F1F268;}
	.st13{fill:none;stroke:#FFFFFF;stroke-width:0.25;stroke-miterlimit:10;}
	.st14{fill:#EFECE3;}
	.st15{fill:#C6BEB6;}
	.st16{fill:#E0E7E6;}
	.st17{font-size:3.5193px;}
	.st18{fill:#948C79;}
	.st19{fill:#E6E6E2;}
	.st20{fill:#F5F3E9;}
	.st21{fill:none;stroke:#FFFFFF;stroke-width:0.5;stroke-miterlimit:10;}
	.st22{font-size:3.1277px;}
	.st23{fill:#F2F1E9;}
	.st24{opacity:0.3;clip-path:url(#SVGID_2_);}
	.st25{fill:none;stroke:#000000;stroke-width:0.1;stroke-miterlimit:10;}
</style>
<path d="M0.2,55.9V6.4C0.2,2.9,3.1,0,6.6,0h100.6c3.5,0,6.4,2.9,6.4,6.4v49.5c0,3.5-2.9,6.4-6.4,6.4H6.6C3.1,62.4,0.2,59.5,0.2,55.9
	z"/>
<text transform="matrix(1 0 0 1 48.0002 60.6602)" class="st0 st1 st2">MQ  Gas  sensor</text>
<rect x="29.3" y="0" class="st3" width="17.8" height="62.4"/>
<circle class="st4" cx="38.2" cy="8.4" r="7.6"/>
<circle class="st5" cx="38.2" cy="8.4" r="6.8"/>
<circle class="st4" cx="38.2" cy="54.3" r="7.6"/>
<circle class="st5" cx="38.2" cy="54.3" r="6.8"/>
<polygon class="st6" points="15.5,42.9 15.5,41.4 17,41.4 17.1,40.2 21.6,40.2 21.6,42.9 "/>
<polygon class="st7" points="17.6,40.2 17.6,41.7 15.5,41.7 15.5,42.9 9.3,42.9 9.3,40.2 "/>
<rect x="47.4" y="43.7" class="st8" width="9.5" height="9.5"/>
<circle class="st5" cx="52.1" cy="48.3" r="2.5"/>
<line class="st9" x1="52.1" y1="45.9" x2="52.1" y2="50.8"/>
<rect x="52" y="32.6" class="st5" width="2" height="1.3"/>
<rect x="52" y="30.5" class="st5" width="2" height="1.3"/>
<rect x="52" y="28.5" class="st5" width="2" height="1.3"/>
<rect x="48" y="29" class="st5" width="2" height="1.3"/>
<rect x="48" y="32.1" class="st5" width="2" height="1.3"/>
<rect x="48.9" y="28.4" class="st10" width="3.9" height="5.6"/>
<rect x="67.7" y="4" class="st11" width="2.4" height="3.6"/>
<rect x="62" y="4" class="st11" width="2.4" height="3.6"/>
<rect x="64.4" y="4" class="st12" width="3.3" height="3.6"/>
<rect x="52.7" y="8.1" class="st11" width="2.4" height="3.6"/>
<rect x="48.3" y="8.1" class="st11" width="2" height="3.6"/>
<rect x="50.3" y="8.1" class="st12" width="2.8" height="3.6"/>
<rect x="53.1" y="12.1" class="st11" width="2" height="3.6"/>
<rect x="48.3" y="12.1" class="st11" width="2" height="3.6"/>
<rect x="50.3" y="12.1" class="st12" width="2.8" height="3.6"/>
<rect x="58.5" y="4" class="st11" width="2.4" height="3.6"/>
<rect x="52.8" y="4" class="st11" width="2.4" height="3.6"/>
<rect x="55.3" y="4" width="3.3" height="3.6"/>
<rect x="61.1" y="8.1" class="st11" width="2.4" height="3.6"/>
<rect x="55.4" y="8.1" class="st11" width="2.4" height="3.6"/>
<rect x="57.9" y="8.1" width="3.3" height="3.6"/>
<rect x="61.1" y="12.1" class="st11" width="2.4" height="3.6"/>
<rect x="55.4" y="12.1" class="st11" width="2.4" height="3.6"/>
<rect x="57.9" y="12.1" width="3.3" height="3.6"/>
<rect x="62" y="4" class="st13" width="8.1" height="3.6"/>
<rect x="52.8" y="4" class="st13" width="8.1" height="3.6"/>
<rect x="55.4" y="8.1" class="st13" width="8.1" height="3.6"/>
<rect x="55.4" y="12.1" class="st13" width="8.1" height="3.6"/>
<circle class="st14" cx="84.1" cy="31.2" r="29.5"/>
<circle class="st15" cx="84.1" cy="31.2" r="27.3"/>
<circle class="st8" cx="84.1" cy="31.2" r="26"/>
<g>
	<path class="st16" d="M14.9,60.4c0,0-0.1-4.5-2.9-7.8c0,0-2.1-5.4,2.9-8.4c0,0-3.6,5-0.9,8.1C14,52.3,16.5,57.9,14.9,60.4z"/>
	<path class="st16" d="M18,60.4c0,0-0.1-4.5-2.9-7.8c0,0-2.1-5.4,2.9-8.4c0,0-3.6,5-0.9,8.1C17.1,52.3,19.6,57.9,18,60.4z"/>
	<path class="st16" d="M21,60.4c0,0-0.1-4.5-2.9-7.8c0,0-2.1-5.4,2.9-8.4c0,0-3.6,5-0.9,8.1C20.1,52.3,22.6,57.9,21,60.4z"/>
</g>
<g>
	<rect x="15.8" y="5.1" class="st11" width="2.4" height="3.6"/>
	<rect x="21.5" y="5.1" class="st11" width="2.4" height="3.6"/>
	<rect x="18.2" y="5.1" class="st12" width="3.3" height="3.6"/>
	<rect x="15.8" y="5.1" class="st13" width="8.1" height="3.6"/>
	<rect x="7.1" y="5.1" class="st11" width="2.4" height="3.6"/>
	<rect x="12.8" y="5.1" class="st11" width="2.4" height="3.6"/>
	<rect x="9.5" y="5.1" width="3.3" height="3.6"/>
	<rect x="7.1" y="5.1" class="st13" width="8.1" height="3.6"/>
	<text transform="matrix(1 0 0 1 10.4174 3.5858)" class="st5 st1 st17">Power</text>
</g>
<g>
	<rect x="21.6" y="20.8" class="st18" width="6.4" height="3"/>
	<path class="st19" d="M21.6,22.5v-1.7h4.6c0.5,0,0.8,0.4,0.8,0.8l0,0c0,0.5-0.4,0.8-0.8,0.8h-4.6V22.5z"/>
	<rect x="21.6" y="24.7" class="st18" width="6.4" height="3"/>
	<path class="st19" d="M21.6,26.3v-1.7h4.6c0.5,0,0.8,0.4,0.8,0.8l0,0c0,0.5-0.4,0.8-0.8,0.8h-4.6V26.3z"/>
	<rect x="21.6" y="32.5" class="st18" width="6.4" height="3"/>
	<path class="st19" d="M21.6,34.2v-1.7h4.6c0.5,0,0.8,0.4,0.8,0.8l0,0c0,0.5-0.4,0.8-0.8,0.8h-4.6V34.2z"/>
	<rect x="21.6" y="28.6" class="st18" width="6.4" height="3"/>
	<path class="st19" d="M21.6,30.3v-1.7h4.6c0.5,0,0.8,0.4,0.8,0.8l0,0c0,0.5-0.4,0.8-0.8,0.8h-4.6V30.3z"/>
	<rect x="0.2" y="13.4" class="st20" width="21.4" height="29.3"/>
	<rect x="19.4" y="13.4" class="st20" width="5.6" height="2.3"/>
	<rect x="19.4" y="40.5" class="st20" width="5.6" height="2.3"/>
	<line class="st21" x1="23.4" y1="15.7" x2="23.4" y2="20.8"/>
	<line class="st21" x1="23.4" y1="35.5" x2="23.4" y2="40.5"/>
	<polygon class="st6" points="15.5,22.3 15.5,20.8 17,20.8 17,19.5 21.6,19.5 21.6,22.3 	"/>
	<polygon class="st7" points="17.6,19.5 17.6,21 15.5,21 15.5,22.3 9.3,22.3 9.3,19.5 	"/>
	<text transform="matrix(6.123234e-17 1 -1 6.123234e-17 25.3613 15.6664)" class="st5 st1 st22">G</text>
	<text transform="matrix(6.123234e-17 1 -1 6.123234e-17 25.0176 40.8119)" class="st5 st1 st22">D</text>
	<polygon class="st23" points="13.7,23.7 13.7,35.2 6.4,35.2 6,40.9 0.4,40.9 0.4,18 6.1,18 6.4,23.7 	"/>
</g>
<g>
	<g>
		<g>
			<defs>
				<circle id="SVGID_1_" cx="84.1" cy="31.2" r="26"/>
			</defs>
			<clipPath id="SVGID_2_">
				<use xlink:href="#SVGID_1_"  style="overflow:visible;"/>
			</clipPath>
			<g class="st24">
				<g>
					<line class="st25" x1="83.2" y1="-27.9" x2="201.5" y2="90.3"/>
					<line class="st25" x1="82.2" y1="-27.9" x2="200.5" y2="90.3"/>
					<line class="st25" x1="81.2" y1="-27.9" x2="199.5" y2="90.3"/>
					<line class="st25" x1="80.2" y1="-27.9" x2="198.5" y2="90.3"/>
					<line class="st25" x1="79.2" y1="-27.9" x2="197.5" y2="90.3"/>
					<line class="st25" x1="78.2" y1="-27.9" x2="196.5" y2="90.3"/>
					<line class="st25" x1="77.2" y1="-27.9" x2="195.5" y2="90.3"/>
					<line class="st25" x1="76.2" y1="-27.9" x2="194.5" y2="90.3"/>
					<line class="st25" x1="75.2" y1="-27.9" x2="193.5" y2="90.3"/>
					<line class="st25" x1="74.2" y1="-27.9" x2="192.5" y2="90.3"/>
					<line class="st25" x1="73.2" y1="-27.9" x2="191.5" y2="90.3"/>
					<line class="st25" x1="72.2" y1="-27.9" x2="190.5" y2="90.3"/>
					<line class="st25" x1="71.2" y1="-27.9" x2="189.5" y2="90.3"/>
					<line class="st25" x1="70.2" y1="-27.9" x2="188.5" y2="90.3"/>
					<line class="st25" x1="69.2" y1="-27.9" x2="187.5" y2="90.3"/>
					<line class="st25" x1="68.2" y1="-27.9" x2="186.5" y2="90.3"/>
					<line class="st25" x1="67.2" y1="-27.9" x2="185.5" y2="90.3"/>
					<line class="st25" x1="66.2" y1="-27.9" x2="184.5" y2="90.3"/>
					<line class="st25" x1="65.2" y1="-27.9" x2="183.5" y2="90.3"/>
					<line class="st25" x1="64.2" y1="-27.9" x2="182.5" y2="90.3"/>
					<line class="st25" x1="63.2" y1="-27.9" x2="181.5" y2="90.3"/>
					<line class="st25" x1="62.2" y1="-27.9" x2="180.5" y2="90.3"/>
					<line class="st25" x1="61.2" y1="-27.9" x2="179.5" y2="90.3"/>
					<line class="st25" x1="60.2" y1="-27.9" x2="178.5" y2="90.3"/>
					<line class="st25" x1="59.2" y1="-27.9" x2="177.5" y2="90.3"/>
					<line class="st25" x1="58.2" y1="-27.9" x2="176.5" y2="90.3"/>
					<line class="st25" x1="57.2" y1="-27.9" x2="175.5" y2="90.3"/>
					<line class="st25" x1="56.2" y1="-27.9" x2="174.5" y2="90.3"/>
					<line class="st25" x1="55.2" y1="-27.9" x2="173.5" y2="90.3"/>
					<line class="st25" x1="54.2" y1="-27.9" x2="172.5" y2="90.3"/>
					<line class="st25" x1="53.2" y1="-27.9" x2="171.5" y2="90.3"/>
					<line class="st25" x1="52.2" y1="-27.9" x2="170.5" y2="90.3"/>
					<line class="st25" x1="51.2" y1="-27.9" x2="169.5" y2="90.3"/>
					<line class="st25" x1="50.2" y1="-27.9" x2="168.5" y2="90.3"/>
					<line class="st25" x1="49.2" y1="-27.9" x2="167.5" y2="90.3"/>
					<line class="st25" x1="48.2" y1="-27.9" x2="166.5" y2="90.3"/>
					<line class="st25" x1="47.2" y1="-27.9" x2="165.5" y2="90.3"/>
					<line class="st25" x1="46.2" y1="-27.9" x2="164.5" y2="90.3"/>
					<line class="st25" x1="45.2" y1="-27.9" x2="163.5" y2="90.3"/>
					<line class="st25" x1="44.2" y1="-27.9" x2="162.5" y2="90.3"/>
					<line class="st25" x1="43.2" y1="-27.9" x2="161.5" y2="90.3"/>
					<line class="st25" x1="42.2" y1="-27.9" x2="160.5" y2="90.3"/>
					<line class="st25" x1="41.2" y1="-27.9" x2="159.5" y2="90.3"/>
					<line class="st25" x1="40.2" y1="-27.9" x2="158.5" y2="90.3"/>
					<line class="st25" x1="39.2" y1="-27.9" x2="157.5" y2="90.3"/>
					<line class="st25" x1="38.2" y1="-27.9" x2="156.5" y2="90.3"/>
					<line class="st25" x1="37.2" y1="-27.9" x2="155.5" y2="90.3"/>
					<line class="st25" x1="36.2" y1="-27.9" x2="154.5" y2="90.3"/>
					<line class="st25" x1="35.2" y1="-27.9" x2="153.5" y2="90.3"/>
					<line class="st25" x1="34.2" y1="-27.9" x2="152.5" y2="90.3"/>
					<line class="st25" x1="33.2" y1="-27.9" x2="151.5" y2="90.3"/>
					<line class="st25" x1="32.2" y1="-27.9" x2="150.5" y2="90.3"/>
					<line class="st25" x1="31.2" y1="-27.9" x2="149.5" y2="90.3"/>
					<line class="st25" x1="30.2" y1="-27.9" x2="148.5" y2="90.3"/>
					<line class="st25" x1="29.2" y1="-27.9" x2="147.5" y2="90.3"/>
					<line class="st25" x1="28.2" y1="-27.9" x2="146.5" y2="90.3"/>
					<line class="st25" x1="27.2" y1="-27.9" x2="145.5" y2="90.3"/>
					<line class="st25" x1="26.2" y1="-27.9" x2="144.5" y2="90.3"/>
					<line class="st25" x1="25.2" y1="-27.9" x2="143.5" y2="90.3"/>
					<line class="st25" x1="24.2" y1="-27.9" x2="142.5" y2="90.3"/>
					<line class="st25" x1="23.2" y1="-27.9" x2="141.5" y2="90.3"/>
					<line class="st25" x1="22.2" y1="-27.9" x2="140.5" y2="90.3"/>
					<line class="st25" x1="21.2" y1="-27.9" x2="139.5" y2="90.3"/>
					<line class="st25" x1="20.2" y1="-27.9" x2="138.5" y2="90.3"/>
					<line class="st25" x1="19.2" y1="-27.9" x2="137.5" y2="90.3"/>
					<line class="st25" x1="18.2" y1="-27.9" x2="136.5" y2="90.3"/>
					<line class="st25" x1="17.2" y1="-27.9" x2="135.5" y2="90.3"/>
					<line class="st25" x1="16.2" y1="-27.9" x2="134.5" y2="90.3"/>
					<line class="st25" x1="15.2" y1="-27.9" x2="133.5" y2="90.3"/>
					<line class="st25" x1="14.2" y1="-27.9" x2="132.5" y2="90.3"/>
					<line class="st25" x1="13.2" y1="-27.9" x2="131.5" y2="90.3"/>
					<line class="st25" x1="12.2" y1="-27.9" x2="130.5" y2="90.3"/>
					<line class="st25" x1="11.2" y1="-27.9" x2="129.5" y2="90.3"/>
					<line class="st25" x1="10.2" y1="-27.9" x2="128.5" y2="90.3"/>
					<line class="st25" x1="9.2" y1="-27.9" x2="127.5" y2="90.3"/>
					<line class="st25" x1="8.2" y1="-27.9" x2="126.5" y2="90.3"/>
					<line class="st25" x1="7.2" y1="-27.9" x2="125.5" y2="90.3"/>
					<line class="st25" x1="6.2" y1="-27.9" x2="124.5" y2="90.3"/>
					<line class="st25" x1="5.2" y1="-27.9" x2="123.5" y2="90.3"/>
					<line class="st25" x1="4.2" y1="-27.9" x2="122.5" y2="90.3"/>
					<line class="st25" x1="3.2" y1="-27.9" x2="121.5" y2="90.3"/>
					<line class="st25" x1="2.2" y1="-27.9" x2="120.5" y2="90.3"/>
					<line class="st25" x1="1.2" y1="-27.9" x2="119.5" y2="90.3"/>
					<line class="st25" x1="0.2" y1="-27.9" x2="118.5" y2="90.3"/>
					<line class="st25" x1="-0.8" y1="-27.9" x2="117.5" y2="90.3"/>
					<line class="st25" x1="-1.8" y1="-27.9" x2="116.5" y2="90.3"/>
					<line class="st25" x1="-2.8" y1="-27.9" x2="115.5" y2="90.3"/>
					<line class="st25" x1="-3.8" y1="-27.9" x2="114.5" y2="90.3"/>
					<line class="st25" x1="-4.8" y1="-27.9" x2="113.5" y2="90.3"/>
					<line class="st25" x1="-5.8" y1="-27.9" x2="112.5" y2="90.3"/>
					<line class="st25" x1="-6.8" y1="-27.9" x2="111.5" y2="90.3"/>
					<line class="st25" x1="-7.8" y1="-27.9" x2="110.5" y2="90.3"/>
					<line class="st25" x1="-8.8" y1="-27.9" x2="109.5" y2="90.3"/>
					<line class="st25" x1="-9.8" y1="-27.9" x2="108.5" y2="90.3"/>
					<line class="st25" x1="-10.8" y1="-27.9" x2="107.5" y2="90.3"/>
					<line class="st25" x1="-11.8" y1="-27.9" x2="106.5" y2="90.3"/>
					<line class="st25" x1="-12.8" y1="-27.9" x2="105.5" y2="90.3"/>
					<line class="st25" x1="-13.8" y1="-27.9" x2="104.5" y2="90.3"/>
					<line class="st25" x1="-14.8" y1="-27.9" x2="103.5" y2="90.3"/>
					<line class="st25" x1="-15.8" y1="-27.9" x2="102.5" y2="90.3"/>
					<line class="st25" x1="-16.8" y1="-27.9" x2="101.5" y2="90.3"/>
					<line class="st25" x1="-17.8" y1="-27.9" x2="100.5" y2="90.3"/>
					<line class="st25" x1="-18.8" y1="-27.9" x2="99.5" y2="90.3"/>
					<line class="st25" x1="-19.8" y1="-27.9" x2="98.5" y2="90.3"/>
					<line class="st25" x1="-20.8" y1="-27.9" x2="97.5" y2="90.3"/>
					<line class="st25" x1="-21.8" y1="-27.9" x2="96.5" y2="90.3"/>
					<line class="st25" x1="-22.8" y1="-27.9" x2="95.5" y2="90.3"/>
					<line class="st25" x1="-23.8" y1="-27.9" x2="94.5" y2="90.3"/>
				</g>
				<g>
					<line class="st25" x1="85" y1="-27.9" x2="-33.3" y2="90.3"/>
					<line class="st25" x1="86" y1="-27.9" x2="-32.3" y2="90.3"/>
					<line class="st25" x1="87" y1="-27.9" x2="-31.3" y2="90.3"/>
					<line class="st25" x1="88" y1="-27.9" x2="-30.3" y2="90.3"/>
					<line class="st25" x1="89" y1="-27.9" x2="-29.3" y2="90.3"/>
					<line class="st25" x1="90" y1="-27.9" x2="-28.3" y2="90.3"/>
					<line class="st25" x1="91" y1="-27.9" x2="-27.3" y2="90.3"/>
					<line class="st25" x1="92" y1="-27.9" x2="-26.3" y2="90.3"/>
					<line class="st25" x1="93" y1="-27.9" x2="-25.3" y2="90.3"/>
					<line class="st25" x1="94" y1="-27.9" x2="-24.3" y2="90.3"/>
					<line class="st25" x1="95" y1="-27.9" x2="-23.3" y2="90.3"/>
					<line class="st25" x1="96" y1="-27.9" x2="-22.3" y2="90.3"/>
					<line class="st25" x1="97" y1="-27.9" x2="-21.3" y2="90.3"/>
					<line class="st25" x1="98" y1="-27.9" x2="-20.3" y2="90.3"/>
					<line class="st25" x1="99" y1="-27.9" x2="-19.3" y2="90.3"/>
					<line class="st25" x1="100" y1="-27.9" x2="-18.3" y2="90.3"/>
					<line class="st25" x1="101" y1="-27.9" x2="-17.3" y2="90.3"/>
					<line class="st25" x1="102" y1="-27.9" x2="-16.3" y2="90.3"/>
					<line class="st25" x1="103" y1="-27.9" x2="-15.3" y2="90.3"/>
					<line class="st25" x1="104" y1="-27.9" x2="-14.3" y2="90.3"/>
					<line class="st25" x1="105" y1="-27.9" x2="-13.3" y2="90.3"/>
					<line class="st25" x1="106" y1="-27.9" x2="-12.3" y2="90.3"/>
					<line class="st25" x1="107" y1="-27.9" x2="-11.3" y2="90.3"/>
					<line class="st25" x1="108" y1="-27.9" x2="-10.3" y2="90.3"/>
					<line class="st25" x1="109" y1="-27.9" x2="-9.3" y2="90.3"/>
					<line class="st25" x1="110" y1="-27.9" x2="-8.3" y2="90.3"/>
					<line class="st25" x1="111" y1="-27.9" x2="-7.3" y2="90.3"/>
					<line class="st25" x1="112" y1="-27.9" x2="-6.3" y2="90.3"/>
					<line class="st25" x1="113" y1="-27.9" x2="-5.3" y2="90.3"/>
					<line class="st25" x1="114" y1="-27.9" x2="-4.3" y2="90.3"/>
					<line class="st25" x1="115" y1="-27.9" x2="-3.3" y2="90.3"/>
					<line class="st25" x1="116" y1="-27.9" x2="-2.3" y2="90.3"/>
					<line class="st25" x1="117" y1="-27.9" x2="-1.3" y2="90.3"/>
					<line class="st25" x1="118" y1="-27.9" x2="-0.3" y2="90.3"/>
					<line class="st25" x1="119" y1="-27.9" x2="0.7" y2="90.3"/>
					<line class="st25" x1="120" y1="-27.9" x2="1.7" y2="90.3"/>
					<line class="st25" x1="121" y1="-27.9" x2="2.7" y2="90.3"/>
					<line class="st25" x1="122" y1="-27.9" x2="3.7" y2="90.3"/>
					<line class="st25" x1="123" y1="-27.9" x2="4.7" y2="90.3"/>
					<line class="st25" x1="124" y1="-27.9" x2="5.7" y2="90.3"/>
					<line class="st25" x1="125" y1="-27.9" x2="6.7" y2="90.3"/>
					<line class="st25" x1="126" y1="-27.9" x2="7.7" y2="90.3"/>
					<line class="st25" x1="127" y1="-27.9" x2="8.7" y2="90.3"/>
					<line class="st25" x1="128" y1="-27.9" x2="9.7" y2="90.3"/>
					<line class="st25" x1="129" y1="-27.9" x2="10.7" y2="90.3"/>
					<line class="st25" x1="130" y1="-27.9" x2="11.7" y2="90.3"/>
					<line class="st25" x1="131" y1="-27.9" x2="12.7" y2="90.3"/>
					<line class="st25" x1="132" y1="-27.9" x2="13.7" y2="90.3"/>
					<line class="st25" x1="133" y1="-27.9" x2="14.7" y2="90.3"/>
					<line class="st25" x1="134" y1="-27.9" x2="15.7" y2="90.3"/>
					<line class="st25" x1="135" y1="-27.9" x2="16.7" y2="90.3"/>
					<line class="st25" x1="136" y1="-27.9" x2="17.7" y2="90.3"/>
					<line class="st25" x1="137" y1="-27.9" x2="18.7" y2="90.3"/>
					<line class="st25" x1="138" y1="-27.9" x2="19.7" y2="90.3"/>
					<line class="st25" x1="139" y1="-27.9" x2="20.7" y2="90.3"/>
					<line class="st25" x1="140" y1="-27.9" x2="21.7" y2="90.3"/>
					<line class="st25" x1="141" y1="-27.9" x2="22.7" y2="90.3"/>
					<line class="st25" x1="142" y1="-27.9" x2="23.7" y2="90.3"/>
					<line class="st25" x1="143" y1="-27.9" x2="24.7" y2="90.3"/>
					<line class="st25" x1="144" y1="-27.9" x2="25.7" y2="90.3"/>
					<line class="st25" x1="145" y1="-27.9" x2="26.7" y2="90.3"/>
					<line class="st25" x1="146" y1="-27.9" x2="27.7" y2="90.3"/>
					<line class="st25" x1="147" y1="-27.9" x2="28.7" y2="90.3"/>
					<line class="st25" x1="148" y1="-27.9" x2="29.7" y2="90.3"/>
					<line class="st25" x1="149" y1="-27.9" x2="30.7" y2="90.3"/>
					<line class="st25" x1="150" y1="-27.9" x2="31.7" y2="90.3"/>
					<line class="st25" x1="151" y1="-27.9" x2="32.7" y2="90.3"/>
					<line class="st25" x1="152" y1="-27.9" x2="33.7" y2="90.3"/>
					<line class="st25" x1="153" y1="-27.9" x2="34.7" y2="90.3"/>
					<line class="st25" x1="154" y1="-27.9" x2="35.7" y2="90.3"/>
					<line class="st25" x1="155" y1="-27.9" x2="36.7" y2="90.3"/>
					<line class="st25" x1="156" y1="-27.9" x2="37.7" y2="90.3"/>
					<line class="st25" x1="157" y1="-27.9" x2="38.7" y2="90.3"/>
					<line class="st25" x1="158" y1="-27.9" x2="39.7" y2="90.3"/>
					<line class="st25" x1="159" y1="-27.9" x2="40.7" y2="90.3"/>
					<line class="st25" x1="160" y1="-27.9" x2="41.7" y2="90.3"/>
					<line class="st25" x1="161" y1="-27.9" x2="42.7" y2="90.3"/>
					<line class="st25" x1="162" y1="-27.9" x2="43.7" y2="90.3"/>
					<line class="st25" x1="163" y1="-27.9" x2="44.7" y2="90.3"/>
					<line class="st25" x1="164" y1="-27.9" x2="45.7" y2="90.3"/>
					<line class="st25" x1="165" y1="-27.9" x2="46.7" y2="90.3"/>
					<line class="st25" x1="166" y1="-27.9" x2="47.7" y2="90.3"/>
					<line class="st25" x1="167" y1="-27.9" x2="48.7" y2="90.3"/>
					<line class="st25" x1="168" y1="-27.9" x2="49.7" y2="90.3"/>
					<line class="st25" x1="169" y1="-27.9" x2="50.7" y2="90.3"/>
					<line class="st25" x1="170" y1="-27.9" x2="51.7" y2="90.3"/>
					<line class="st25" x1="171" y1="-27.9" x2="52.7" y2="90.3"/>
					<line class="st25" x1="172" y1="-27.9" x2="53.7" y2="90.3"/>
					<line class="st25" x1="173" y1="-27.9" x2="54.7" y2="90.3"/>
					<line class="st25" x1="174" y1="-27.9" x2="55.7" y2="90.3"/>
					<line class="st25" x1="175" y1="-27.9" x2="56.7" y2="90.3"/>
					<line class="st25" x1="176" y1="-27.9" x2="57.7" y2="90.3"/>
					<line class="st25" x1="177" y1="-27.9" x2="58.7" y2="90.3"/>
					<line class="st25" x1="178" y1="-27.9" x2="59.7" y2="90.3"/>
					<line class="st25" x1="179" y1="-27.9" x2="60.7" y2="90.3"/>
					<line class="st25" x1="180" y1="-27.9" x2="61.7" y2="90.3"/>
					<line class="st25" x1="181" y1="-27.9" x2="62.7" y2="90.3"/>
					<line class="st25" x1="182" y1="-27.9" x2="63.7" y2="90.3"/>
					<line class="st25" x1="183" y1="-27.9" x2="64.7" y2="90.3"/>
					<line class="st25" x1="184" y1="-27.9" x2="65.7" y2="90.3"/>
					<line class="st25" x1="185" y1="-27.9" x2="66.7" y2="90.3"/>
					<line class="st25" x1="186" y1="-27.9" x2="67.7" y2="90.3"/>
					<line class="st25" x1="187" y1="-27.9" x2="68.7" y2="90.3"/>
					<line class="st25" x1="188" y1="-27.9" x2="69.7" y2="90.3"/>
					<line class="st25" x1="189" y1="-27.9" x2="70.7" y2="90.3"/>
					<line class="st25" x1="190" y1="-27.9" x2="71.7" y2="90.3"/>
					<line class="st25" x1="191" y1="-27.9" x2="72.7" y2="90.3"/>
					<line class="st25" x1="192" y1="-27.9" x2="73.7" y2="90.3"/>
				</g>
			</g>
		</g>
	</g>
</g>
</svg>
